<?xml version="1.0" standalone="no"?>
<!DOCTYPE svg PUBLIC "-//W3C//DTD SVG 20010904//EN"
 "http://www.w3.org/TR/2001/REC-SVG-20010904/DTD/svg10.dtd">
<svg version="1.0" xmlns="http://www.w3.org/2000/svg"
 width="1827.000000pt" height="937.000000pt" viewBox="0 0 1827.000000 937.000000"
 preserveAspectRatio="xMidYMid meet">

<g transform="translate(0.000000,937.000000) scale(0.100000,-0.100000)"
fill="#000000" stroke="none">
<path d="M9412 6330 c-7 -11 -23 -20 -37 -20 -25 0 -67 -33 -78 -62 -10 -28
-26 -22 -74 27 -37 39 -47 44 -63 35 -26 -14 -25 -35 3 -55 19 -13 22 -24 22
-81 0 -91 18 -101 77 -39 39 41 47 45 90 45 37 0 50 -4 58 -20 9 -18 21 -20
93 -20 72 0 84 3 95 21 8 12 21 19 35 18 25 -4 77 40 77 64 0 27 -48 67 -80
67 -20 0 -31 6 -35 20 -6 18 -15 20 -88 20 -71 0 -84 -3 -95 -20z"/>
<path d="M14056 6295 c-15 -8 -39 -15 -51 -15 -31 0 -275 -234 -275 -264 0
-22 -123 -156 -144 -156 -6 0 -24 16 -39 35 -20 25 -36 35 -55 35 -16 0 -32 8
-40 20 -7 11 -23 20 -37 20 -15 0 -37 14 -61 40 l-37 40 -83 0 c-73 0 -85 -2
-94 -20 -8 -15 -21 -20 -55 -20 -39 0 -47 -5 -79 -41 -23 -27 -40 -39 -51 -36
-21 9 -19 34 5 42 12 4 20 15 20 30 0 31 52 85 82 85 16 0 36 14 59 40 24 28
42 40 61 40 29 0 52 28 40 47 -4 6 -44 12 -89 14 l-83 3 -50 -49 c-38 -38 -48
-54 -44 -71 4 -16 0 -24 -15 -29 -16 -5 -21 -15 -21 -38 0 -25 -7 -36 -31 -49
-26 -15 -28 -20 -19 -38 7 -14 8 -31 1 -56 -11 -40 -1 -78 23 -87 19 -7 21
-33 4 -43 -6 -4 -19 2 -29 14 -9 12 -24 22 -32 22 -34 0 -47 13 -47 46 0 23 6
37 20 44 18 10 21 19 18 72 -4 91 -25 86 -33 -7 -6 -63 -10 -75 -24 -73 -9 2
-17 15 -19 31 -2 15 -12 32 -23 37 -23 13 -25 37 -4 60 13 14 15 40 13 130
l-3 112 -23 -18 c-22 -18 -23 -25 -25 -176 -1 -112 2 -161 11 -170 17 -17 15
-48 -4 -48 -27 0 -51 18 -72 54 -27 46 -69 73 -85 57 -9 -9 -7 -16 9 -29 11
-9 28 -29 37 -44 10 -16 24 -28 32 -28 8 0 15 -5 15 -11 0 -6 18 -27 40 -46
43 -39 49 -57 24 -67 -26 -10 -33 -7 -56 19 -12 14 -32 25 -45 25 -12 0 -28 9
-35 20 -7 11 -21 20 -31 20 -24 0 -94 36 -99 52 -3 8 -20 11 -48 10 -34 -2
-48 1 -60 17 -12 15 -30 20 -94 23 -57 2 -80 -1 -83 -9 -3 -8 5 -13 22 -13 15
0 38 -9 51 -19 13 -11 33 -17 43 -14 13 3 23 -2 30 -16 10 -17 21 -21 65 -21
43 0 57 -4 76 -25 13 -14 32 -25 43 -25 10 0 30 -9 44 -20 14 -11 36 -20 50
-20 27 0 43 -28 22 -41 -7 -4 -47 -5 -89 -2 -68 5 -77 3 -94 -16 -11 -11 -30
-21 -42 -21 -13 0 -29 -9 -36 -20 -9 -13 -24 -20 -45 -20 -38 0 -44 -19 -12
-38 l21 -13 -22 -24 c-23 -25 -20 -45 7 -45 9 0 46 29 83 64 l66 64 159 -3
c116 -1 160 -5 163 -14 2 -7 -14 -30 -37 -51 -28 -26 -39 -44 -35 -55 5 -11
-17 -39 -75 -95 -51 -50 -81 -87 -81 -100 0 -13 -24 -44 -60 -79 -37 -36 -60
-66 -60 -80 0 -12 -17 -37 -40 -59 -38 -34 -40 -40 -35 -75 6 -32 3 -40 -18
-57 -15 -12 -23 -27 -21 -37 3 -13 -29 -52 -106 -128 l-110 -110 -58 3 c-57 4
-59 3 -95 -37 -21 -23 -50 -44 -65 -47 -18 -4 -44 -26 -73 -60 -48 -58 -56
-63 -66 -36 -3 9 -15 25 -27 34 -21 17 -21 18 37 72 41 38 57 61 57 80 0 16 8
30 21 37 18 9 20 17 15 50 -5 34 -3 43 19 63 32 30 34 81 3 113 -20 21 -21 33
-19 121 2 96 1 97 -28 125 -16 15 -33 27 -38 27 -17 0 -57 -65 -55 -87 2 -14
-4 -26 -17 -33 -18 -9 -20 -19 -19 -90 2 -71 0 -82 -21 -101 -18 -17 -21 -28
-16 -58 5 -31 2 -40 -19 -58 -22 -20 -24 -27 -19 -77 5 -51 4 -57 -25 -85 -24
-25 -39 -31 -73 -31 -38 0 -47 -5 -81 -42 l-38 -43 -19 24 c-19 24 -41 22 -41
-5 0 -8 -9 -14 -20 -14 -13 0 -20 7 -20 20 0 11 4 20 8 20 5 0 32 22 60 49 36
34 52 57 52 75 0 15 8 30 20 36 13 7 20 21 20 40 0 19 7 33 21 40 20 11 20 17
15 123 -3 62 -6 153 -5 202 0 76 3 92 20 105 17 13 19 27 17 133 -2 138 -1
140 84 134 51 -5 60 -2 87 22 17 15 31 31 31 34 0 3 -21 26 -47 51 -46 44 -50
46 -110 46 -49 0 -65 -4 -75 -19 -19 -26 -53 -34 -94 -21 -27 9 -38 9 -50 -1
-13 -10 -12 -15 8 -37 l23 -24 -22 -15 c-16 -11 -23 -25 -23 -48 0 -20 -6 -35
-15 -39 -12 -4 -14 -17 -9 -65 6 -55 5 -61 -20 -84 -17 -16 -24 -30 -20 -41 4
-11 -7 -28 -35 -54 l-41 -37 0 -139 c0 -135 -1 -139 -25 -162 -21 -19 -25 -32
-25 -78 0 -45 -4 -58 -20 -68 -12 -8 -20 -24 -20 -40 0 -17 -8 -31 -20 -38
-12 -6 -20 -21 -20 -37 0 -31 -85 -123 -114 -123 -11 0 -27 -7 -37 -16 -22
-19 -49 -12 -49 13 0 35 19 49 68 52 7 1 12 14 12 31 0 20 7 33 21 41 21 11
22 16 16 134 -5 113 -4 125 14 141 16 15 19 31 19 120 0 93 2 104 20 114 16 8
20 21 20 60 0 39 4 52 20 60 13 7 20 21 20 40 0 19 7 33 20 40 15 8 20 21 20
50 0 29 -5 42 -20 50 -16 8 -20 21 -20 57 0 39 -5 50 -32 75 -17 15 -35 28
-39 28 -4 0 -38 -32 -75 -71 -64 -65 -69 -74 -66 -109 3 -30 -1 -41 -19 -53
-21 -15 -22 -22 -20 -141 2 -117 1 -125 -18 -136 -16 -8 -21 -20 -21 -55 0
-34 -5 -48 -20 -57 -17 -11 -20 -24 -20 -80 0 -57 -3 -69 -20 -78 -18 -10 -20
-21 -20 -103 0 -51 -4 -97 -9 -103 -5 -5 -5 -41 1 -84 8 -65 7 -76 -8 -87 -22
-16 -34 -8 -34 24 0 31 -40 81 -89 109 -27 16 -35 27 -33 44 1 16 -10 34 -39
61 l-41 38 0 216 c1 199 -1 217 -18 233 -15 14 -20 35 -22 102 -3 83 -4 85
-28 85 -21 0 -26 -5 -28 -32 -2 -21 -10 -34 -22 -38 -16 -5 -19 -15 -19 -54 2
-60 -6 -74 -36 -67 -13 3 -27 1 -31 -5 -4 -6 -7 -72 -6 -146 0 -118 2 -136 18
-148 13 -9 18 -24 17 -54 -2 -31 3 -44 18 -54 11 -7 19 -23 19 -38 0 -20 16
-41 60 -82 33 -31 60 -60 60 -65 0 -5 7 -15 15 -22 8 -7 15 -22 15 -35 0 -12
9 -30 20 -40 11 -10 20 -29 20 -41 0 -13 9 -29 20 -36 11 -7 20 -24 20 -38 0
-14 9 -33 20 -43 20 -17 20 -18 -52 -87 -41 -40 -82 -70 -93 -70 -11 0 -28 -9
-38 -20 -9 -11 -27 -20 -40 -20 -31 0 -267 -236 -267 -267 0 -33 -95 -126
-120 -118 -24 7 -26 30 -5 39 17 6 20 42 4 51 -6 4 -21 -2 -33 -14 -31 -29
-36 -27 -36 15 0 33 -2 35 -27 32 -23 -2 -29 -8 -31 -35 -2 -20 -11 -37 -23
-43 -26 -14 -24 -22 11 -59 34 -35 42 -37 60 -16 19 23 42 19 38 -7 -2 -16
-12 -24 -37 -29 -18 -4 -37 -13 -41 -20 -12 -18 -1 -39 20 -39 28 0 31 -14 13
-51 -22 -44 -53 -70 -76 -63 -12 4 -24 -2 -34 -16 -19 -28 -57 -23 -61 8 -5
34 -42 28 -75 -13 -15 -19 -32 -35 -37 -35 -4 0 -8 20 -8 45 0 41 2 45 24 45
31 0 94 49 94 73 0 27 -28 32 -54 8 -12 -11 -30 -21 -39 -21 -31 0 -26 18 14
45 28 20 39 34 37 49 -4 25 -48 36 -48 12 0 -25 -18 -28 -40 -6 -11 11 -20 22
-20 24 0 11 48 56 59 56 16 0 10 52 -6 57 -6 2 -28 -14 -49 -36 -20 -23 -41
-41 -46 -41 -17 0 -7 38 17 60 40 38 25 98 -22 88 -14 -3 -17 -12 -15 -36 2
-34 -20 -46 -32 -17 -7 20 -33 19 -45 -2 -10 -17 -12 -17 -25 0 -7 9 -23 17
-35 17 -28 0 -30 -46 -2 -55 11 -3 22 -12 25 -20 3 -8 17 -15 30 -15 30 0 82
-42 72 -58 -11 -18 -22 -15 -51 12 -51 48 -76 5 -26 -45 32 -32 71 -38 91 -14
19 23 42 19 38 -7 -2 -15 -12 -25 -28 -28 -33 -7 -90 -50 -90 -68 0 -8 8 -21
18 -28 16 -13 16 -15 0 -25 -19 -10 -25 -49 -8 -49 5 0 17 -9 28 -20 10 -11
36 -23 57 -28 25 -5 41 -14 43 -25 4 -19 -27 -24 -45 -6 -16 16 -123 1 -123
-18 0 -12 -8 -13 -39 -8 -29 5 -46 2 -64 -10 -24 -16 -26 -15 -37 5 -6 12 -11
54 -10 93 3 102 2 107 -18 107 -24 0 -72 -54 -72 -82 0 -13 -9 -29 -20 -36
-12 -7 -20 -23 -20 -41 0 -39 -15 -47 -80 -47 l-55 1 -3 37 c-2 25 -10 41 -23
48 -12 7 -19 21 -19 40 0 19 -7 33 -20 40 -16 8 -20 21 -20 58 0 36 -5 50 -20
60 -12 7 -20 23 -20 38 0 15 -8 32 -17 39 -14 10 -17 32 -18 129 -2 101 1 118
17 132 22 21 24 62 2 71 -10 4 -32 -11 -65 -43 -47 -47 -49 -50 -49 -106 0
-45 -3 -58 -15 -58 -10 0 -15 10 -15 28 0 16 -9 37 -20 47 -13 12 -20 31 -20
53 0 67 -89 116 -170 92 -19 -5 -80 -10 -136 -10 -88 0 -103 -3 -119 -20 -10
-11 -28 -20 -39 -20 -12 0 -29 -9 -39 -20 -32 -38 -66 -25 -137 55 -64 72 -90
89 -90 61 0 -31 -23 -27 -57 10 -33 37 -34 39 -16 54 16 13 18 30 16 155 -2
127 -4 141 -21 153 -18 12 -19 21 -15 93 6 78 5 81 -22 106 -26 25 -27 29 -23
99 5 69 3 75 -22 99 -14 14 -38 25 -52 25 -16 0 -32 9 -42 25 -21 32 -25 31
-64 -3 l-32 -29 29 -27 c22 -21 34 -26 55 -20 14 3 37 3 52 0 24 -6 25 -9 23
-76 -2 -67 -1 -70 34 -107 32 -32 37 -44 37 -83 0 -25 -5 -51 -12 -58 -20 -20
-92 -15 -112 7 -10 11 -30 21 -45 23 -20 2 -27 9 -29 31 -2 16 -14 34 -28 43
-13 9 -24 23 -24 31 0 10 -9 13 -27 11 -32 -3 -44 -36 -19 -50 24 -14 19 -41
-12 -72 l-29 -27 -36 41 c-24 26 -45 40 -62 40 -15 0 -29 8 -36 21 -10 20 -17
21 -126 17 -106 -4 -116 -3 -121 14 -6 23 -48 24 -56 1 -4 -10 2 -25 16 -40
l22 -23 -27 -28 c-33 -35 -34 -45 -3 -74 14 -13 26 -36 28 -53 3 -27 0 -30
-28 -33 -18 -2 -40 -12 -50 -23 -24 -26 -28 -25 -74 22 -55 57 -74 51 -78 -26
-4 -89 33 -126 58 -59 9 23 14 24 90 24 76 0 80 -1 86 -24 3 -13 45 -63 94
-109 48 -47 90 -93 93 -101 16 -41 -27 -63 -51 -26 -16 26 -33 25 -64 -3 -21
-20 -35 -24 -84 -22 -56 1 -61 4 -106 48 -28 29 -48 58 -50 75 -2 22 -8 28
-35 30 -27 3 -33 -1 -38 -21 -4 -14 -5 -38 -3 -53 2 -23 9 -30 31 -32 35 -4
127 -93 127 -122 0 -12 10 -30 22 -39 29 -24 15 -41 -32 -41 -54 0 -70 8 -70
37 0 27 -54 88 -69 79 -5 -4 -9 -26 -9 -51 0 -38 4 -49 35 -76 28 -24 42 -30
63 -25 31 6 67 -15 56 -32 -4 -7 -34 -12 -71 -12 l-63 0 -55 60 c-31 33 -58
60 -61 60 -16 0 -56 -59 -56 -82 0 -29 8 -33 63 -29 18 2 37 -7 57 -26 35 -33
38 -48 9 -63 -17 -10 -19 -18 -14 -48 5 -33 2 -41 -27 -69 -18 -17 -44 -33
-58 -35 -19 -2 -26 -10 -28 -32 -4 -35 7 -43 61 -42 39 1 42 3 45 31 5 44 39
66 71 46 12 -8 12 -13 -3 -36 -22 -33 -9 -51 28 -41 24 6 26 11 26 62 l0 55
58 -3 c53 -3 57 -5 60 -30 2 -18 -4 -31 -19 -41 -39 -28 -18 -45 53 -42 35 1
66 3 71 4 16 3 6 61 -13 73 -22 14 -26 48 -8 66 7 7 30 12 52 12 36 0 46 6 98
60 51 54 62 60 92 58 22 -1 42 5 55 16 20 18 51 16 51 -4 0 -5 12 -10 26 -10
26 0 84 -45 84 -66 0 -16 -56 -54 -80 -54 -11 0 -25 -9 -32 -20 -8 -12 -24
-20 -40 -20 -19 0 -37 -12 -61 -40 -21 -24 -43 -40 -56 -40 -15 0 -50 -28
-103 -80 -74 -75 -82 -80 -112 -75 -25 5 -37 1 -60 -20 -23 -21 -36 -26 -60
-22 -38 5 -56 0 -56 -19 0 -10 -13 -14 -49 -14 -27 0 -56 -3 -64 -6 -8 -3 -27
6 -41 19 -24 23 -34 25 -100 22 l-73 -3 -79 79 c-49 49 -87 79 -100 79 -11 0
-29 9 -39 20 -10 11 -31 20 -47 20 -17 0 -28 5 -28 14 0 20 -17 24 -82 18 -60
-5 -67 0 -43 32 8 11 15 37 15 58 0 50 -25 62 -54 26 -12 -14 -35 -29 -53 -33
-27 -5 -36 -2 -54 19 -13 15 -33 26 -47 26 -45 0 -61 35 -62 132 0 79 2 88 21
99 14 7 19 17 16 29 -6 25 46 80 75 80 13 0 48 -28 94 -75 76 -78 94 -89 94
-55 0 11 -4 20 -9 20 -6 0 -24 15 -40 32 -37 39 -42 87 -11 95 25 7 37 48 19
69 -9 12 -24 15 -51 11 -35 -5 -67 11 -52 26 3 3 3 15 -1 27 -5 16 -13 20 -33
18 -22 -2 -28 -9 -32 -37 -4 -29 -10 -36 -37 -43 -41 -11 -77 10 -92 54 -9 27
-15 30 -42 26 -23 -4 -37 2 -60 23 -31 29 -37 48 -16 50 6 1 72 1 145 1 120 0
136 -2 155 -20 19 -18 37 -20 139 -21 108 -1 118 0 128 19 14 26 35 26 53 -1
10 -13 23 -19 38 -17 26 3 40 38 15 38 -28 0 -28 21 0 50 20 21 39 30 62 30
39 0 40 23 1 28 -34 5 -43 17 -29 41 19 37 6 45 -27 17 -21 -17 -29 -32 -26
-45 8 -30 -54 -81 -98 -81 -22 0 -45 -8 -59 -20 -30 -26 -90 -26 -120 0 -13
11 -32 20 -43 20 -11 0 -25 8 -32 17 -11 14 -27 17 -99 14 -72 -2 -87 0 -92
14 -4 9 -4 18 -1 21 3 3 43 8 88 10 68 3 87 8 106 26 13 12 23 27 23 34 0 6 9
18 20 25 24 16 33 89 13 96 -9 3 -13 -5 -13 -24 0 -33 -61 -100 -80 -88 -6 4
-22 -3 -35 -15 -22 -20 -32 -22 -95 -18 -62 5 -70 3 -70 -12 0 -23 -24 -32
-65 -24 -28 5 -36 1 -67 -35 -38 -44 -52 -50 -62 -25 -9 24 -8 29 14 54 25 29
25 37 0 45 -11 3 -20 13 -20 21 0 20 37 18 49 -3 8 -15 23 -3 107 85 l97 104
100 -3 c71 -2 102 1 105 9 2 8 -12 12 -47 12 -39 0 -53 4 -61 19 -14 28 -13
30 16 41 28 11 29 36 2 54 -15 9 -39 -11 -158 -129 -87 -87 -149 -141 -164
-143 -38 -5 -54 20 -49 73 4 30 2 45 -6 45 -6 0 -11 -13 -11 -30 0 -19 -7 -33
-20 -40 -24 -13 -28 -84 -7 -115 19 -27 20 -155 3 -155 -7 0 -54 44 -105 97
-102 108 -113 139 -67 182 14 13 26 35 28 50 3 22 8 26 38 26 31 0 35 -3 40
-29 3 -16 11 -31 18 -34 9 -3 12 33 12 158 0 125 -3 161 -12 157 -9 -2 -12
-22 -10 -63 3 -50 0 -62 -17 -78 -12 -11 -21 -25 -21 -33 0 -10 -9 -13 -27
-11 l-28 3 -3 109 c-3 102 -4 111 -28 133 -25 23 -64 31 -64 13 0 -5 10 -14
21 -21 19 -10 21 -17 16 -67 -4 -46 -1 -61 13 -77 25 -27 34 -165 13 -195 -20
-28 -27 -26 -62 22 -24 33 -30 49 -25 71 5 23 0 33 -35 65 -24 22 -41 47 -41
59 0 12 -19 40 -41 63 -38 38 -41 45 -35 80 4 23 2 41 -5 45 -17 11 -22 -2
-21 -49 2 -46 -6 -58 -41 -60 -31 -2 -33 -26 -2 -26 32 0 125 -89 125 -120 0
-11 16 -35 35 -53 19 -17 35 -41 35 -51 0 -11 12 -32 26 -47 16 -17 24 -34 21
-43 -9 -23 -57 -20 -84 6 l-23 21 -25 -23 c-31 -29 -23 -42 20 -34 29 5 38 1
62 -22 15 -16 37 -29 48 -29 14 0 21 -8 23 -25 2 -14 15 -37 30 -52 14 -15 22
-31 18 -35 -4 -4 -40 -8 -79 -8 -60 0 -72 -3 -75 -17 -3 -15 4 -18 46 -18 37
0 53 -5 68 -21 16 -18 27 -21 75 -16 55 5 58 4 93 -32 20 -20 36 -42 36 -49 0
-6 -13 -18 -30 -27 -26 -14 -29 -20 -32 -72 -4 -85 -24 -83 -122 17 -50 51
-87 80 -100 80 -12 0 -39 18 -61 40 l-39 40 -93 0 -93 0 15 36 c19 46 19 59
-1 78 -22 23 -67 20 -82 -4 -15 -24 -62 -27 -62 -4 0 20 31 74 43 74 5 0 16
-9 26 -21 14 -17 20 -19 44 -10 16 6 35 18 43 26 9 8 24 15 34 15 21 0 70 41
70 58 0 13 -47 62 -60 62 -5 0 -14 -9 -20 -20 -7 -13 -21 -20 -40 -20 -42 0
-39 28 5 63 26 20 35 36 35 57 0 38 20 49 38 22 26 -40 42 -27 42 33 0 51 -2
55 -27 61 -21 6 -30 2 -41 -14 -20 -31 -35 -27 -67 14 -16 20 -34 34 -43 32
-15 -3 -17 -17 -14 -104 4 -100 4 -101 -23 -123 -36 -27 -45 -27 -45 4 0 14
-11 34 -24 46 -13 12 -27 32 -30 45 -7 28 -46 33 -66 9 -15 -18 -25 -95 -16
-129 5 -20 13 -26 35 -26 16 0 39 -9 52 -20 24 -20 24 -20 4 -35 -12 -10 -20
-28 -20 -47 0 -49 -43 -46 -49 3 -4 40 -15 51 -46 44 -23 -5 -32 -2 -42 14
-17 28 -73 29 -88 2 -16 -31 3 -69 37 -73 18 -2 29 -10 31 -22 3 -16 -1 -18
-25 -13 -54 10 -134 44 -153 65 -17 17 -27 19 -81 15 -60 -6 -63 -8 -125 -70
l-64 -65 0 -1229 0 -1229 4975 0 4975 0 0 2225 c0 1773 -3 2225 -12 2225 -7 0
-26 -7 -42 -15z m-1109 -411 c8 -21 -13 -42 -28 -27 -13 13 -5 43 11 43 6 0
13 -7 17 -16z m-182 -804 c3 -5 1 -10 -4 -10 -6 0 -11 5 -11 10 0 6 2 10 4 10
3 0 8 -4 11 -10z m-1141 -550 c29 -11 33 -34 14 -87 -8 -22 -17 -32 -26 -28
-53 20 -60 18 -82 -25 -33 -64 -100 -74 -100 -14 0 28 52 87 72 82 17 -4 88
51 88 68 0 17 1 17 34 4z m-4254 -147 c29 -33 34 -35 45 -20 16 22 32 21 47
-3 19 -30 66 -27 78 5 6 15 17 25 30 25 16 0 20 -7 20 -30 0 -16 -5 -30 -10
-30 -6 0 -29 -18 -52 -39 -22 -22 -53 -41 -67 -43 -20 -2 -26 -9 -26 -28 0
-36 32 -39 60 -4 13 16 27 24 33 20 22 -14 12 -41 -29 -75 l-40 -35 26 -23
c14 -13 25 -28 25 -33 0 -5 23 -8 51 -7 40 2 54 -2 63 -16 26 -40 -63 -46
-144 -10 -55 25 -180 149 -180 178 0 15 -20 42 -61 79 -74 68 -73 87 1 85 42
-2 54 2 66 19 20 29 27 28 64 -15z m4256 -20 c-10 -10 -19 5 -10 18 6 11 8 11
12 0 2 -7 1 -15 -2 -18z m-3946 -85 c17 -17 29 -36 27 -42 -4 -12 -79 -20
-113 -12 -32 8 -39 35 -10 46 13 4 26 16 29 24 10 25 34 19 67 -16z m4260 17
c0 -8 -4 -15 -10 -15 -5 0 -10 7 -10 15 0 8 5 15 10 15 6 0 10 -7 10 -15z
m120 5 c0 -5 -4 -10 -10 -10 -5 0 -10 5 -10 10 0 6 5 10 10 10 6 0 10 -4 10
-10z m-6364 -116 c75 -70 88 -81 107 -87 15 -6 17 -20 17 -105 0 -85 -3 -101
-20 -117 -13 -12 -20 -33 -22 -68 -3 -57 -19 -70 -36 -32 -9 20 -17 25 -32 20
-13 -4 -23 0 -32 14 -7 12 -21 21 -32 21 -15 0 -17 5 -11 28 4 15 9 66 12 113
3 66 1 88 -10 98 -24 19 -47 2 -47 -35 0 -32 -17 -48 -24 -21 -26 98 -26 127
0 127 16 0 37 36 29 49 -6 11 22 41 39 41 7 0 35 -21 62 -46z m229 -114 c7
-23 -1 -40 -20 -40 -21 0 -27 17 -15 40 14 25 27 26 35 0z m6125 0 c0 -5 -5
-10 -11 -10 -5 0 -7 5 -4 10 3 6 8 10 11 10 2 0 4 -4 4 -10z m-335 -40 c3 -5
1 -10 -4 -10 -6 0 -11 5 -11 10 0 6 2 10 4 10 3 0 8 -4 11 -10z m-3391 -52
l16 -22 16 23 c15 21 23 23 77 19 43 -3 63 -10 73 -23 7 -10 11 -22 8 -27 -3
-5 1 -20 10 -33 9 -13 16 -35 16 -47 0 -14 16 -36 40 -57 26 -22 40 -43 40
-58 0 -16 20 -42 60 -80 38 -36 60 -65 60 -79 0 -12 7 -27 15 -34 25 -21 17
-30 -29 -30 -36 0 -46 4 -51 20 -4 14 -15 20 -36 20 -18 0 -33 7 -41 20 -8 11
-24 20 -38 20 -36 0 -122 87 -114 116 8 30 -17 47 -50 34 -34 -13 -49 -13 -41
0 3 6 -26 42 -65 80 -56 55 -78 70 -101 70 -43 0 -37 27 9 40 22 5 47 19 57
30 24 26 50 25 69 -2z m3316 -28 c0 -5 -4 -10 -9 -10 -6 0 -13 5 -16 10 -3 6
1 10 9 10 9 0 16 -4 16 -10z m77 -46 c-3 -4 -14 -3 -24 0 -15 6 -15 8 -3 16
16 10 39 -4 27 -16z m-347 6 c0 -5 -7 -10 -16 -10 -8 0 -12 5 -9 10 3 6 10 10
16 10 5 0 9 -4 9 -10z m150 -75 c0 -8 -7 -15 -15 -15 -16 0 -20 12 -8 23 11
12 23 8 23 -8z m-896 -46 c-3 -5 -10 -7 -15 -3 -5 3 -7 10 -3 15 3 5 10 7 15
3 5 -3 7 -10 3 -15z m-759 -49 c3 -5 -1 -10 -10 -10 -9 0 -13 5 -10 10 3 6 8
10 10 10 2 0 7 -4 10 -10z m1575 -20 c0 -5 -7 -10 -15 -10 -8 0 -15 5 -15 10
0 6 7 10 15 10 8 0 15 -4 15 -10z m36 -57 c-10 -10 -19 5 -10 18 6 11 8 11 12
0 2 -7 1 -15 -2 -18z m-70 -54 c10 -17 -13 -36 -27 -22 -12 12 -4 33 11 33 5
0 12 -5 16 -11z m-196 -9 c0 -5 -7 -10 -16 -10 -8 0 -12 5 -9 10 3 6 10 10 16
10 5 0 9 -4 9 -10z m-1702 -57 c2 -8 -6 -13 -22 -13 -25 0 -33 10 -19 24 10
10 36 3 41 -11z m2122 -13 c0 -5 -5 -10 -11 -10 -5 0 -7 5 -4 10 3 6 8 10 11
10 2 0 4 -4 4 -10z m-160 -10 c0 -5 -4 -10 -10 -10 -5 0 -10 5 -10 10 0 6 5
10 10 10 6 0 10 -4 10 -10z m-1155 -30 c3 -5 -1 -10 -10 -10 -9 0 -13 5 -10
10 3 6 8 10 10 10 2 0 7 -4 10 -10z m855 -5 c0 -8 -4 -15 -9 -15 -13 0 -22 16
-14 24 11 11 23 6 23 -9z m-1662 -22 c2 -8 -6 -13 -22 -13 -25 0 -33 10 -19
24 10 10 36 3 41 -11z m1897 -13 c3 -5 -1 -10 -9 -10 -9 0 -16 5 -16 10 0 6 4
10 9 10 6 0 13 -4 16 -10z m500 1 c3 -5 1 -12 -5 -16 -5 -3 -10 1 -10 9 0 18
6 21 15 7z m-3078 -43 c30 -32 33 -47 24 -110 -1 -5 -8 -8 -16 -8 -10 0 -15
10 -15 29 0 28 -33 74 -60 83 -19 6 -5 38 18 38 10 0 32 -15 49 -32z m-3607
-38 c0 -5 -5 -10 -11 -10 -5 0 -7 5 -4 10 3 6 8 10 11 10 2 0 4 -4 4 -10z
m5915 0 c3 -5 -3 -10 -15 -10 -12 0 -18 5 -15 10 3 6 10 10 15 10 5 0 12 -4
15 -10z m-1110 -40 c3 -5 1 -10 -4 -10 -6 0 -11 5 -11 10 0 6 2 10 4 10 3 0 8
-4 11 -10z m333 -38 c2 -7 -3 -12 -12 -12 -9 0 -16 7 -16 16 0 17 22 14 28 -4z
m-390 -4 c-3 -7 -11 -13 -18 -13 -7 0 -15 6 -17 13 -3 7 4 12 17 12 13 0 20
-5 18 -12z m-390 -40 c-3 -7 -11 -13 -18 -13 -7 0 -15 6 -17 13 -3 7 4 12 17
12 13 0 20 -5 18 -12z m-1358 -38 c0 -5 -7 -10 -16 -10 -8 0 -12 5 -9 10 3 6
10 10 16 10 5 0 9 -4 9 -10z m730 -40 c0 -5 -4 -10 -10 -10 -5 0 -10 5 -10 10
0 6 5 10 10 10 6 0 10 -4 10 -10z m2145 -80 c-3 -5 -10 -10 -16 -10 -5 0 -9 5
-9 10 0 6 7 10 16 10 8 0 12 -4 9 -10z m615 -40 c0 -5 -4 -10 -10 -10 -5 0
-10 5 -10 10 0 6 5 10 10 10 6 0 10 -4 10 -10z m-1370 -70 c0 -5 -5 -10 -11
-10 -5 0 -7 5 -4 10 3 6 8 10 11 10 2 0 4 -4 4 -10z m-4655 -40 c3 -5 -1 -10
-9 -10 -9 0 -16 5 -16 10 0 6 4 10 9 10 6 0 13 -4 16 -10z m3845 0 c0 -5 -4
-10 -10 -10 -5 0 -10 5 -10 10 0 6 5 10 10 10 6 0 10 -4 10 -10z m-3650 -40
c0 -5 -7 -10 -15 -10 -8 0 -15 5 -15 10 0 6 7 10 15 10 8 0 15 -4 15 -10z
m1705 0 c3 -5 1 -10 -4 -10 -6 0 -11 5 -11 10 0 6 2 10 4 10 3 0 8 -4 11 -10z
m-1780 -40 c3 -5 -1 -10 -9 -10 -9 0 -16 5 -16 10 0 6 4 10 9 10 6 0 13 -4 16
-10z m5015 0 c0 -5 -4 -10 -9 -10 -6 0 -13 5 -16 10 -3 6 1 10 9 10 9 0 16 -4
16 -10z m-3270 -190 c0 -5 -4 -10 -10 -10 -5 0 -10 5 -10 10 0 6 5 10 10 10 6
0 10 -4 10 -10z m740 -275 c0 -8 -4 -15 -10 -15 -5 0 -10 7 -10 15 0 8 5 15
10 15 6 0 10 -7 10 -15z"/>
<path d="M8360 3926 c0 -17 27 -29 35 -16 4 6 3 15 0 20 -9 15 -35 12 -35 -4z"/>
<path d="M8580 6158 c-41 -43 -64 -48 -80 -18 -6 11 -20 20 -30 20 -25 0 -25
-6 0 -38 l21 -26 -26 -20 c-29 -24 -26 -56 6 -56 18 0 79 55 79 71 0 18 40 8
50 -11 9 -17 21 -20 88 -20 68 0 80 3 100 25 l23 24 -42 38 c-35 32 -51 39
-97 43 -53 5 -56 4 -92 -32z"/>
<path d="M12410 6147 c0 -31 5 -45 20 -55 11 -7 20 -22 20 -35 0 -12 12 -36
28 -52 27 -30 27 -30 30 -6 2 13 -5 32 -17 45 -14 15 -21 36 -21 62 0 29 -6
47 -23 62 -32 31 -37 28 -37 -21z"/>
<path d="M12834 6113 c3 -53 20 -57 24 -5 2 32 0 42 -11 42 -11 0 -15 -10 -13
-37z"/>
<path d="M9065 5943 c-4 -12 2 -24 19 -38 14 -11 26 -33 28 -50 3 -28 6 -30
41 -29 25 0 46 9 62 24 l25 24 -42 43 c-36 37 -48 43 -84 43 -31 0 -44 -5 -49
-17z"/>
<path d="M8303 5802 l-42 -44 -24 26 c-23 25 -57 35 -57 18 0 -5 9 -17 20 -27
27 -25 25 -42 -6 -49 -19 -5 -25 -12 -22 -29 5 -37 37 -33 79 12 43 46 63 51
79 21 9 -17 21 -20 85 -20 64 0 77 3 99 23 l25 24 -46 43 c-41 40 -50 44 -96
45 -48 0 -55 -3 -94 -43z"/>
<path d="M5216 5182 c-3 -6 -1 -14 5 -17 15 -10 25 3 12 16 -7 7 -13 7 -17 1z"/>
<path d="M5257 5133 c-7 -11 -3 -150 4 -157 3 -3 16 5 29 19 l24 25 -22 21
c-18 16 -21 27 -16 59 4 26 3 40 -4 40 -6 0 -13 -3 -15 -7z"/>
<path d="M5377 5103 c-4 -3 -7 -11 -7 -17 0 -6 5 -5 12 2 6 6 9 14 7 17 -3 3
-9 2 -12 -2z"/>
<path d="M5340 5059 c0 -5 5 -7 10 -4 6 3 10 8 10 11 0 2 -4 4 -10 4 -5 0 -10
-5 -10 -11z"/>
<path d="M5600 5034 c0 -31 23 -28 28 4 2 15 -2 22 -12 22 -11 0 -16 -9 -16
-26z"/>
<path d="M5690 5020 c0 -5 5 -10 11 -10 5 0 7 5 4 10 -3 6 -8 10 -11 10 -2 0
-4 -4 -4 -10z"/>
<path d="M4888 5001 c-25 -24 -23 -31 10 -31 19 0 36 -11 56 -35 30 -35 56
-46 56 -22 0 17 -80 107 -94 106 -6 0 -19 -8 -28 -18z"/>
<path d="M5490 4980 c0 -5 5 -10 10 -10 6 0 10 5 10 10 0 6 -4 10 -10 10 -5 0
-10 -4 -10 -10z"/>
<path d="M5570 4980 c0 -5 5 -10 10 -10 6 0 10 5 10 10 0 6 -4 10 -10 10 -5 0
-10 -4 -10 -10z"/>
<path d="M5722 4927 c3 -53 -1 -69 -17 -87 -19 -21 -32 -100 -17 -100 22 0 52
49 52 83 0 25 7 43 22 57 l23 21 -23 17 c-14 11 -22 26 -20 41 2 13 -3 26 -10
28 -9 4 -11 -12 -10 -60z"/>
<path d="M5835 4980 c-3 -5 1 -10 9 -10 9 0 16 5 16 10 0 6 -4 10 -9 10 -6 0
-13 -4 -16 -10z"/>
<path d="M5805 4949 c-4 -6 -5 -13 -2 -16 7 -7 27 6 27 18 0 12 -17 12 -25 -2z"/>
<path d="M5525 4940 c-9 -14 4 -52 16 -45 12 8 12 55 0 55 -6 0 -13 -5 -16
-10z"/>
<path d="M6002 4828 c-16 -16 -15 -48 1 -48 16 0 47 32 47 48 0 16 -33 15 -48
0z"/>
<path d="M5642 4688 c2 -13 8 -23 13 -23 6 0 11 10 13 23 2 15 -2 22 -13 22
-11 0 -15 -7 -13 -22z"/>
<path d="M6070 4670 c0 -5 5 -10 10 -10 6 0 10 5 10 10 0 6 -4 10 -10 10 -5 0
-10 -4 -10 -10z"/>
<path d="M5605 4630 c-3 -5 -2 -10 4 -10 5 0 13 5 16 10 3 6 2 10 -4 10 -5 0
-13 -4 -16 -10z"/>
<path d="M6116 4601 c-4 -7 -5 -15 -2 -18 9 -9 19 4 14 18 -4 11 -6 11 -12 0z"/>
<path d="M5100 4550 c0 -5 5 -10 10 -10 6 0 10 5 10 10 0 6 -4 10 -10 10 -5 0
-10 -4 -10 -10z"/>
<path d="M6225 4550 c-3 -5 -2 -10 4 -10 5 0 13 5 16 10 3 6 2 10 -4 10 -5 0
-13 -4 -16 -10z"/>
<path d="M6190 4515 c-7 -8 -8 -15 -2 -15 5 0 15 7 22 15 7 8 8 15 2 15 -5 0
-15 -7 -22 -15z"/>
<path d="M6506 4521 c-4 -7 -5 -15 -2 -18 9 -9 19 4 14 18 -4 11 -6 11 -12 0z"/>
<path d="M6136 4458 c-23 -23 -26 -32 -16 -41 10 -9 14 -9 17 1 3 7 11 19 20
27 8 8 13 21 11 29 -2 9 -12 4 -32 -16z"/>
<path d="M6465 4479 c-11 -17 1 -21 15 -4 8 9 8 15 2 15 -6 0 -14 -5 -17 -11z"/>
<path d="M6507 4404 c-17 -18 -6 -35 21 -32 16 2 27 9 27 18 0 16 -36 26 -48
14z"/>
<path d="M6427 4294 c-4 -4 -7 -14 -7 -21 0 -11 16 -13 73 -11 56 2 72 6 72
18 0 12 -15 16 -65 18 -36 2 -69 0 -73 -4z"/>
<path d="M6152 4008 c2 -18 10 -23 32 -23 16 0 31 -6 33 -13 12 -35 73 -36 73
-1 0 15 -7 19 -34 19 -26 0 -36 5 -41 20 -4 14 -15 20 -36 20 -26 0 -30 -3
-27 -22z"/>
</g>
</svg>
