<svg viewBox="0 0 1024 1024" xmlns="http://www.w3.org/2000/svg" version="1.1"><path d="m944 48h16v16h-16z" fill="#11046d"></path><path d="m960 48h16v16h-16z" fill="#11046d"></path><path d="m976 48h16v16h-16z" fill="#11046d"></path><path d="m912 64h16v16h-16z" fill="#11046d"></path><path d="m928 64h16v16h-16z" fill="#413a71"></path><path d="m944 64h16v16h-16z" fill="#11046d"></path><path d="m960 64h16v16h-16z" fill="#11046d"></path><path d="m976 64h16v16h-16z" fill="#11046d"></path><path d="m992 64h16v16h-16z" fill="#11046d"></path><path d="m880 80h16v16h-16z" fill="#11046d"></path><path d="m896 80h16v16h-16z" fill="#413a71"></path><path d="m912 80h16v16h-16z" fill="#413a71"></path><path d="m928 80h16v16h-16z" fill="#11046d"></path><path d="m976 80h16v16h-16z" fill="#11046d"></path><path d="m992 80h16v16h-16z" fill="#11046d"></path><path d="m1008 80h16v16h-16z" fill="#11046d"></path><path d="m848 96h16v16h-16z" fill="#11046d"></path><path d="m864 96h16v16h-16z" fill="#11046d"></path><path d="m880 96h16v16h-16z" fill="#11046d"></path><path d="m992 96h16v16h-16z" fill="#11046d"></path><path d="m1008 96h16v16h-16z" fill="#11046d"></path><path d="m832 112h16v16h-16z" fill="#11046d"></path><path d="m848 112h16v16h-16z" fill="#413a71"></path><path d="m864 112h16v16h-16z" fill="#11046d"></path><path d="m1008 112h16v16h-16z" fill="#11046d"></path><path d="m832 128h16v16h-16z" fill="#413a71"></path><path d="m848 128h16v16h-16z" fill="#11046d"></path><path d="m1008 128h16v16h-16z" fill="#11046d"></path><path d="m816 144h16v16h-16z" fill="#413a71"></path><path d="m832 144h16v16h-16z" fill="#11046d"></path><path d="m976 144h16v16h-16z" fill="#413a71"></path><path d="m992 144h16v16h-16z" fill="#11046d"></path><path d="m816 160h16v16h-16z" fill="#11046d"></path><path d="m832 160h16v16h-16z" fill="#11046d"></path><path d="m960 160h16v16h-16z" fill="#11046d"></path><path d="m976 160h16v16h-16z" fill="#11046d"></path><path d="m800 176h16v16h-16z" fill="#11046d"></path><path d="m816 176h16v16h-16z" fill="#11046d"></path><path d="m912 176h16v16h-16z" fill="#11046d"></path><path d="m928 176h16v16h-16z" fill="#413a71"></path><path d="m944 176h16v16h-16z" fill="#413a71"></path><path d="m960 176h16v16h-16z" fill="#413a71"></path><path d="m800 192h16v16h-16z" fill="#413a71"></path><path d="m816 192h16v16h-16z" fill="#11046d"></path><path d="m864 192h16v16h-16z" fill="#11046d"></path><path d="m880 192h16v16h-16z" fill="#413a71"></path><path d="m896 192h16v16h-16z" fill="#11046d"></path><path d="m912 192h16v16h-16z" fill="#413a71"></path><path d="m928 192h16v16h-16z" fill="#11046d"></path><path d="m784 208h16v16h-16z" fill="#11046d"></path><path d="m800 208h16v16h-16z" fill="#11046d"></path><path d="m816 208h16v16h-16z" fill="#413a71"></path><path d="m832 208h16v16h-16z" fill="#11046d"></path><path d="m848 208h16v16h-16z" fill="#11046d"></path><path d="m864 208h16v16h-16z" fill="#413a71"></path><path d="m880 208h16v16h-16z" fill="#11046d"></path><path d="m784 224h16v16h-16z" fill="#11046d"></path><path d="m800 224h16v16h-16z" fill="#11046d"></path><path d="m816 224h16v16h-16z" fill="#11046d"></path><path d="m832 224h16v16h-16z" fill="#11046d"></path><path d="m768 240h16v16h-16z" fill="#11046d"></path><path d="m784 240h16v16h-16z" fill="#11046d"></path><path d="m752 256h16v16h-16z" fill="#11046d"></path><path d="m768 256h16v16h-16z" fill="#11046d"></path><path d="m736 272h16v16h-16z" fill="#11046d"></path><path d="m704 288h16v16h-16z" fill="#11046d"></path><path d="m720 288h16v16h-16z" fill="#11046d"></path><path d="m688 304h16v16h-16z" fill="#11046d"></path><path d="m704 304h16v16h-16z" fill="#11046d"></path><path d="m672 320h16v16h-16z" fill="#11046d"></path><path d="m688 320h16v16h-16z" fill="#11046d"></path><path d="m656 336h16v16h-16z" fill="#11046d"></path><path d="m672 336h16v16h-16z" fill="#11046d"></path><path d="m624 352h16v16h-16z" fill="#11046d"></path><path d="m640 352h16v16h-16z" fill="#11046d"></path><path d="m608 368h16v16h-16z" fill="#11046d"></path><path d="m624 368h16v16h-16z" fill="#11046d"></path><path d="m592 384h16v16h-16z" fill="#11046d"></path><path d="m608 384h16v16h-16z" fill="#11046d"></path><path d="m576 400h16v16h-16z" fill="#11046d"></path><path d="m592 400h16v16h-16z" fill="#11046d"></path><path d="m544 416h16v16h-16z" fill="#11046d"></path><path d="m560 416h16v16h-16z" fill="#11046d"></path><path d="m528 432h16v16h-16z" fill="#11046d"></path><path d="m544 432h16v16h-16z" fill="#11046d"></path><path d="m512 448h16v16h-16z" fill="#11046d"></path><path d="m528 448h16v16h-16z" fill="#11046d"></path><path d="m208 464h16v16h-16z" fill="#6a6a6a"></path><path d="m224 464h16v16h-16z" fill="#6a6a6a"></path><path d="m240 464h16v16h-16z" fill="#6a6a6a"></path><path d="m256 464h16v16h-16z" fill="#6a6a6a"></path><path d="m480 464h16v16h-16z" fill="#11046d"></path><path d="m496 464h16v16h-16z" fill="#11046d"></path><path d="m208 480h16v16h-16z" fill="#6a6a6a"></path><path d="m224 480h16v16h-16z" fill="#d2d2d2"></path><path d="m240 480h16v16h-16z" fill="#c9c9c9"></path><path d="m256 480h16v16h-16z" fill="#bcbcbc"></path><path d="m272 480h16v16h-16z" fill="#6a6a6a"></path><path d="m288 480h16v16h-16z" fill="#6a6a6a"></path><path d="m464 480h16v16h-16z" fill="#11046d"></path><path d="m480 480h16v16h-16z" fill="#11046d"></path><path d="m176 496h16v16h-16z" fill="#6a6a6a"></path><path d="m192 496h16v16h-16z" fill="#6a6a6a"></path><path d="m208 496h16v16h-16z" fill="#d2d2d2"></path><path d="m224 496h16v16h-16z" fill="#d2d2d2"></path><path d="m240 496h16v16h-16z" fill="#c5c5c5"></path><path d="m256 496h16v16h-16z" fill="#bcbcbc"></path><path d="m272 496h16v16h-16z" fill="#bcbcbc"></path><path d="m288 496h16v16h-16z" fill="#bcbcbc"></path><path d="m304 496h16v16h-16z" fill="#6a6a6a"></path><path d="m320 496h16v16h-16z" fill="#6a6a6a"></path><path d="m448 496h16v16h-16z" fill="#11046d"></path><path d="m464 496h16v16h-16z" fill="#11046d"></path><path d="m160 512h16v16h-16z" fill="#6a6a6a"></path><path d="m176 512h16v16h-16z" fill="#6a6a6a"></path><path d="m192 512h16v16h-16z" fill="#d2d2d2"></path><path d="m208 512h16v16h-16z" fill="#d2d2d2"></path><path d="m224 512h16v16h-16z" fill="#d2d2d2"></path><path d="m240 512h16v16h-16z" fill="#c5c5c5"></path><path d="m256 512h16v16h-16z" fill="#c5c5c5"></path><path d="m272 512h16v16h-16z" fill="#c5c5c5"></path><path d="m288 512h16v16h-16z" fill="#c9c9c9"></path><path d="m304 512h16v16h-16z" fill="#c9c9c9"></path><path d="m320 512h16v16h-16z" fill="#c9c9c9"></path><path d="m336 512h16v16h-16z" fill="#6a6a6a"></path><path d="m352 512h16v16h-16z" fill="#6a6a6a"></path><path d="m416 512h16v16h-16z" fill="#6a6a6a"></path><path d="m432 512h16v16h-16z" fill="#11046d"></path><path d="m448 512h16v16h-16z" fill="#11046d"></path><path d="m144 528h16v16h-16z" fill="#6a6a6a"></path><path d="m160 528h16v16h-16z" fill="#d2d2d2"></path><path d="m176 528h16v16h-16z" fill="#d2d2d2"></path><path d="m192 528h16v16h-16z" fill="#d2d2d2"></path><path d="m208 528h16v16h-16z" fill="#d2d2d2"></path><path d="m224 528h16v16h-16z" fill="#d2d2d2"></path><path d="m240 528h16v16h-16z" fill="#bcbcbc"></path><path d="m256 528h16v16h-16z" fill="#c5c5c5"></path><path d="m272 528h16v16h-16z" fill="#c5c5c5"></path><path d="m288 528h16v16h-16z" fill="#bcbcbc"></path><path d="m304 528h16v16h-16z" fill="#c9c9c9"></path><path d="m320 528h16v16h-16z" fill="#bcbcbc"></path><path d="m336 528h16v16h-16z" fill="#bcbcbc"></path><path d="m352 528h16v16h-16z" fill="#bcbcbc"></path><path d="m368 528h16v16h-16z" fill="#6a6a6a"></path><path d="m384 528h16v16h-16z" fill="#6a6a6a"></path><path d="m400 528h16v16h-16z" fill="#6a6a6a"></path><path d="m416 528h16v16h-16z" fill="#6a6a6a"></path><path d="m432 528h16v16h-16z" fill="#6a6a6a"></path><path d="m128 544h16v16h-16z" fill="#6a6a6a"></path><path d="m144 544h16v16h-16z" fill="#d2d2d2"></path><path d="m160 544h16v16h-16z" fill="#d2d2d2"></path><path d="m176 544h16v16h-16z" fill="#d2d2d2"></path><path d="m192 544h16v16h-16z" fill="#d2d2d2"></path><path d="m208 544h16v16h-16z" fill="#d2d2d2"></path><path d="m224 544h16v16h-16z" fill="#bcbcbc"></path><path d="m240 544h16v16h-16z" fill="#bcbcbc"></path><path d="m256 544h16v16h-16z" fill="#bcbcbc"></path><path d="m272 544h16v16h-16z" fill="#bcbcbc"></path><path d="m288 544h16v16h-16z" fill="#bcbcbc"></path><path d="m304 544h16v16h-16z" fill="#bcbcbc"></path><path d="m320 544h16v16h-16z" fill="#bcbcbc"></path><path d="m336 544h16v16h-16z" fill="#c9c9c9"></path><path d="m352 544h16v16h-16z" fill="#c9c9c9"></path><path d="m368 544h16v16h-16z" fill="#bcbcbc"></path><path d="m384 544h16v16h-16z" fill="#bcbcbc"></path><path d="m400 544h16v16h-16z" fill="#c9c9c9"></path><path d="m416 544h16v16h-16z" fill="#6a6a6a"></path><path d="m432 544h16v16h-16z" fill="#6a6a6a"></path><path d="m112 560h16v16h-16z" fill="#6a6a6a"></path><path d="m128 560h16v16h-16z" fill="#d2d2d2"></path><path d="m144 560h16v16h-16z" fill="#d2d2d2"></path><path d="m160 560h16v16h-16z" fill="#d2d2d2"></path><path d="m176 560h16v16h-16z" fill="#d2d2d2"></path><path d="m192 560h16v16h-16z" fill="#d2d2d2"></path><path d="m208 560h16v16h-16z" fill="#d2d2d2"></path><path d="m224 560h16v16h-16z" fill="#bcbcbc"></path><path d="m240 560h16v16h-16z" fill="#bcbcbc"></path><path d="m256 560h16v16h-16z" fill="#bcbcbc"></path><path d="m272 560h16v16h-16z" fill="#bcbcbc"></path><path d="m288 560h16v16h-16z" fill="#bcbcbc"></path><path d="m304 560h16v16h-16z" fill="#bcbcbc"></path><path d="m320 560h16v16h-16z" fill="#bcbcbc"></path><path d="m336 560h16v16h-16z" fill="#c9c9c9"></path><path d="m352 560h16v16h-16z" fill="#c9c9c9"></path><path d="m368 560h16v16h-16z" fill="#c9c9c9"></path><path d="m384 560h16v16h-16z" fill="#c9c9c9"></path><path d="m400 560h16v16h-16z" fill="#bcbcbc"></path><path d="m416 560h16v16h-16z" fill="#6a6a6a"></path><path d="m432 560h16v16h-16z" fill="#6a6a6a"></path><path d="m96 576h16v16h-16z" fill="#6a6a6a"></path><path d="m112 576h16v16h-16z" fill="#d2d2d2"></path><path d="m128 576h16v16h-16z" fill="#d2d2d2"></path><path d="m144 576h16v16h-16z" fill="#d2d2d2"></path><path d="m160 576h16v16h-16z" fill="#d2d2d2"></path><path d="m176 576h16v16h-16z" fill="#d2d2d2"></path><path d="m192 576h16v16h-16z" fill="#d2d2d2"></path><path d="m208 576h16v16h-16z" fill="#bcbcbc"></path><path d="m224 576h16v16h-16z" fill="#c5c5c5"></path><path d="m240 576h16v16h-16z" fill="#bcbcbc"></path><path d="m256 576h16v16h-16z" fill="#bcbcbc"></path><path d="m272 576h16v16h-16z" fill="#bcbcbc"></path><path d="m288 576h16v16h-16z" fill="#bcbcbc"></path><path d="m304 576h16v16h-16z" fill="#bcbcbc"></path><path d="m320 576h16v16h-16z" fill="#bcbcbc"></path><path d="m336 576h16v16h-16z" fill="#bcbcbc"></path><path d="m352 576h16v16h-16z" fill="#c9c9c9"></path><path d="m368 576h16v16h-16z" fill="#c9c9c9"></path><path d="m384 576h16v16h-16z" fill="#c9c9c9"></path><path d="m400 576h16v16h-16z" fill="#c9c9c9"></path><path d="m416 576h16v16h-16z" fill="#c9c9c9"></path><path d="m432 576h16v16h-16z" fill="#6a6a6a"></path><path d="m448 576h16v16h-16z" fill="#6a6a6a"></path><path d="m80 592h16v16h-16z" fill="#6a6a6a"></path><path d="m96 592h16v16h-16z" fill="#d2d2d2"></path><path d="m112 592h16v16h-16z" fill="#d2d2d2"></path><path d="m128 592h16v16h-16z" fill="#d2d2d2"></path><path d="m144 592h16v16h-16z" fill="#d2d2d2"></path><path d="m160 592h16v16h-16z" fill="#d2d2d2"></path><path d="m176 592h16v16h-16z" fill="#d2d2d2"></path><path d="m192 592h16v16h-16z" fill="#d2d2d2"></path><path d="m208 592h16v16h-16z" fill="#bcbcbc"></path><path d="m224 592h16v16h-16z" fill="#c5c5c5"></path><path d="m240 592h16v16h-16z" fill="#bcbcbc"></path><path d="m256 592h16v16h-16z" fill="#bcbcbc"></path><path d="m272 592h16v16h-16z" fill="#bcbcbc"></path><path d="m288 592h16v16h-16z" fill="#bcbcbc"></path><path d="m304 592h16v16h-16z" fill="#bcbcbc"></path><path d="m320 592h16v16h-16z" fill="#bcbcbc"></path><path d="m336 592h16v16h-16z" fill="#c5c5c5"></path><path d="m352 592h16v16h-16z" fill="#bdbdbd"></path><path d="m368 592h16v16h-16z" fill="#c9c9c9"></path><path d="m384 592h16v16h-16z" fill="#c9c9c9"></path><path d="m400 592h16v16h-16z" fill="#c9c9c9"></path><path d="m416 592h16v16h-16z" fill="#c9c9c9"></path><path d="m432 592h16v16h-16z" fill="#c9c9c9"></path><path d="m448 592h16v16h-16z" fill="#c9c9c9"></path><path d="m464 592h16v16h-16z" fill="#6a6a6a"></path><path d="m480 592h16v16h-16z" fill="#6a6a6a"></path><path d="m64 608h16v16h-16z" fill="#6a6a6a"></path><path d="m80 608h16v16h-16z" fill="#d2d2d2"></path><path d="m96 608h16v16h-16z" fill="#d2d2d2"></path><path d="m112 608h16v16h-16z" fill="#d2d2d2"></path><path d="m128 608h16v16h-16z" fill="#d2d2d2"></path><path d="m144 608h16v16h-16z" fill="#d2d2d2"></path><path d="m160 608h16v16h-16z" fill="#d2d2d2"></path><path d="m176 608h16v16h-16z" fill="#d2d2d2"></path><path d="m192 608h16v16h-16z" fill="#c5c5c5"></path><path d="m208 608h16v16h-16z" fill="#bcbcbc"></path><path d="m224 608h16v16h-16z" fill="#bcbcbc"></path><path d="m240 608h16v16h-16z" fill="#bcbcbc"></path><path d="m256 608h16v16h-16z" fill="#bcbcbc"></path><path d="m272 608h16v16h-16z" fill="#bcbcbc"></path><path d="m288 608h16v16h-16z" fill="#bcbcbc"></path><path d="m304 608h16v16h-16z" fill="#bcbcbc"></path><path d="m320 608h16v16h-16z" fill="#bcbcbc"></path><path d="m336 608h16v16h-16z" fill="#bcbcbc"></path><path d="m352 608h16v16h-16z" fill="#c5c5c5"></path><path d="m368 608h16v16h-16z" fill="#c9c9c9"></path><path d="m384 608h16v16h-16z" fill="#c9c9c9"></path><path d="m400 608h16v16h-16z" fill="#c9c9c9"></path><path d="m416 608h16v16h-16z" fill="#c9c9c9"></path><path d="m432 608h16v16h-16z" fill="#c9c9c9"></path><path d="m448 608h16v16h-16z" fill="#c9c9c9"></path><path d="m464 608h16v16h-16z" fill="#c9c9c9"></path><path d="m480 608h16v16h-16z" fill="#c9c9c9"></path><path d="m496 608h16v16h-16z" fill="#6a6a6a"></path><path d="m32 624h16v16h-16z" fill="#6a6a6a"></path><path d="m48 624h16v16h-16z" fill="#6a6a6a"></path><path d="m64 624h16v16h-16z" fill="#d2d2d2"></path><path d="m80 624h16v16h-16z" fill="#d2d2d2"></path><path d="m96 624h16v16h-16z" fill="#d2d2d2"></path><path d="m112 624h16v16h-16z" fill="#d2d2d2"></path><path d="m128 624h16v16h-16z" fill="#d2d2d2"></path><path d="m144 624h16v16h-16z" fill="#d2d2d2"></path><path d="m160 624h16v16h-16z" fill="#d2d2d2"></path><path d="m176 624h16v16h-16z" fill="#d2d2d2"></path><path d="m192 624h16v16h-16z" fill="#c5c5c5"></path><path d="m208 624h16v16h-16z" fill="#bcbcbc"></path><path d="m224 624h16v16h-16z" fill="#bcbcbc"></path><path d="m240 624h16v16h-16z" fill="#bcbcbc"></path><path d="m256 624h16v16h-16z" fill="#bcbcbc"></path><path d="m272 624h16v16h-16z" fill="#bcbcbc"></path><path d="m288 624h16v16h-16z" fill="#bcbcbc"></path><path d="m304 624h16v16h-16z" fill="#bcbcbc"></path><path d="m320 624h16v16h-16z" fill="#bcbcbc"></path><path d="m336 624h16v16h-16z" fill="#bcbcbc"></path><path d="m352 624h16v16h-16z" fill="#c5c5c5"></path><path d="m368 624h16v16h-16z" fill="#c9c9c9"></path><path d="m384 624h16v16h-16z" fill="#c9c9c9"></path><path d="m400 624h16v16h-16z" fill="#c9c9c9"></path><path d="m416 624h16v16h-16z" fill="#c9c9c9"></path><path d="m432 624h16v16h-16z" fill="#c9c9c9"></path><path d="m448 624h16v16h-16z" fill="#c9c9c9"></path><path d="m464 624h16v16h-16z" fill="#c9c9c9"></path><path d="m480 624h16v16h-16z" fill="#c9c9c9"></path><path d="m496 624h16v16h-16z" fill="#bcbcbc"></path><path d="m512 624h16v16h-16z" fill="#6a6a6a"></path><path d="m16 640h16v16h-16z" fill="#6a6a6a"></path><path d="m32 640h16v16h-16z" fill="#d2d2d2"></path><path d="m48 640h16v16h-16z" fill="#d2d2d2"></path><path d="m64 640h16v16h-16z" fill="#d2d2d2"></path><path d="m80 640h16v16h-16z" fill="#d2d2d2"></path><path d="m96 640h16v16h-16z" fill="#d2d2d2"></path><path d="m112 640h16v16h-16z" fill="#d2d2d2"></path><path d="m128 640h16v16h-16z" fill="#d2d2d2"></path><path d="m144 640h16v16h-16z" fill="#d2d2d2"></path><path d="m160 640h16v16h-16z" fill="#c5c5c5"></path><path d="m176 640h16v16h-16z" fill="#c5c5c5"></path><path d="m192 640h16v16h-16z" fill="#bcbcbc"></path><path d="m208 640h16v16h-16z" fill="#bcbcbc"></path><path d="m224 640h16v16h-16z" fill="#bcbcbc"></path><path d="m240 640h16v16h-16z" fill="#bcbcbc"></path><path d="m256 640h16v16h-16z" fill="#bcbcbc"></path><path d="m272 640h16v16h-16z" fill="#bcbcbc"></path><path d="m288 640h16v16h-16z" fill="#bcbcbc"></path><path d="m304 640h16v16h-16z" fill="#bcbcbc"></path><path d="m320 640h16v16h-16z" fill="#bcbcbc"></path><path d="m336 640h16v16h-16z" fill="#bdbdbd"></path><path d="m352 640h16v16h-16z" fill="#c5c5c5"></path><path d="m368 640h16v16h-16z" fill="#c9c9c9"></path><path d="m384 640h16v16h-16z" fill="#c9c9c9"></path><path d="m400 640h16v16h-16z" fill="#c9c9c9"></path><path d="m416 640h16v16h-16z" fill="#c9c9c9"></path><path d="m432 640h16v16h-16z" fill="#c9c9c9"></path><path d="m448 640h16v16h-16z" fill="#c9c9c9"></path><path d="m464 640h16v16h-16z" fill="#c9c9c9"></path><path d="m480 640h16v16h-16z" fill="#cecece"></path><path d="m496 640h16v16h-16z" fill="#c9c9c9"></path><path d="m512 640h16v16h-16z" fill="#d2d2d2"></path><path d="m528 640h16v16h-16z" fill="#6a6a6a"></path><path d="m544 640h16v16h-16z" fill="#6a6a6a"></path><path d="m0 656h16v16h-16z" fill="#c9c9c9"></path><path d="m16 656h16v16h-16z" fill="#c9c9c9"></path><path d="m32 656h16v16h-16z" fill="#6a6a6a"></path><path d="m48 656h16v16h-16z" fill="#6a6a6a"></path><path d="m64 656h16v16h-16z" fill="#d2d2d2"></path><path d="m80 656h16v16h-16z" fill="#d2d2d2"></path><path d="m96 656h16v16h-16z" fill="#d2d2d2"></path><path d="m112 656h16v16h-16z" fill="#d2d2d2"></path><path d="m128 656h16v16h-16z" fill="#d2d2d2"></path><path d="m144 656h16v16h-16z" fill="#d2d2d2"></path><path d="m160 656h16v16h-16z" fill="#c5c5c5"></path><path d="m176 656h16v16h-16z" fill="#bcbcbc"></path><path d="m192 656h16v16h-16z" fill="#bcbcbc"></path><path d="m208 656h16v16h-16z" fill="#bcbcbc"></path><path d="m224 656h16v16h-16z" fill="#bcbcbc"></path><path d="m240 656h16v16h-16z" fill="#bcbcbc"></path><path d="m256 656h16v16h-16z" fill="#bcbcbc"></path><path d="m272 656h16v16h-16z" fill="#bcbcbc"></path><path d="m288 656h16v16h-16z" fill="#bcbcbc"></path><path d="m304 656h16v16h-16z" fill="#bcbcbc"></path><path d="m320 656h16v16h-16z" fill="#bcbcbc"></path><path d="m336 656h16v16h-16z" fill="#bcbcbc"></path><path d="m352 656h16v16h-16z" fill="#c5c5c5"></path><path d="m368 656h16v16h-16z" fill="#c9c9c9"></path><path d="m384 656h16v16h-16z" fill="#c9c9c9"></path><path d="m400 656h16v16h-16z" fill="#c9c9c9"></path><path d="m416 656h16v16h-16z" fill="#c9c9c9"></path><path d="m432 656h16v16h-16z" fill="#c9c9c9"></path><path d="m448 656h16v16h-16z" fill="#c9c9c9"></path><path d="m464 656h16v16h-16z" fill="#c9c9c9"></path><path d="m480 656h16v16h-16z" fill="#c9c9c9"></path><path d="m496 656h16v16h-16z" fill="#d2d2d2"></path><path d="m512 656h16v16h-16z" fill="#d2d2d2"></path><path d="m528 656h16v16h-16z" fill="#d2d2d2"></path><path d="m544 656h16v16h-16z" fill="#d2d2d2"></path><path d="m560 656h16v16h-16z" fill="#6a6a6a"></path><path d="m0 672h16v16h-16z" fill="#c9c9c9"></path><path d="m16 672h16v16h-16z" fill="#c9c9c9"></path><path d="m32 672h16v16h-16z" fill="#c9c9c9"></path><path d="m48 672h16v16h-16z" fill="#c9c9c9"></path><path d="m64 672h16v16h-16z" fill="#6a6a6a"></path><path d="m80 672h16v16h-16z" fill="#d2d2d2"></path><path d="m96 672h16v16h-16z" fill="#d2d2d2"></path><path d="m112 672h16v16h-16z" fill="#d2d2d2"></path><path d="m128 672h16v16h-16z" fill="#d2d2d2"></path><path d="m144 672h16v16h-16z" fill="#d2d2d2"></path><path d="m160 672h16v16h-16z" fill="#c5c5c5"></path><path d="m176 672h16v16h-16z" fill="#bcbcbc"></path><path d="m192 672h16v16h-16z" fill="#bcbcbc"></path><path d="m208 672h16v16h-16z" fill="#bcbcbc"></path><path d="m224 672h16v16h-16z" fill="#bcbcbc"></path><path d="m240 672h16v16h-16z" fill="#bcbcbc"></path><path d="m256 672h16v16h-16z" fill="#bcbcbc"></path><path d="m272 672h16v16h-16z" fill="#bcbcbc"></path><path d="m288 672h16v16h-16z" fill="#bcbcbc"></path><path d="m304 672h16v16h-16z" fill="#bcbcbc"></path><path d="m320 672h16v16h-16z" fill="#bcbcbc"></path><path d="m336 672h16v16h-16z" fill="#bcbcbc"></path><path d="m352 672h16v16h-16z" fill="#bcbcbc"></path><path d="m368 672h16v16h-16z" fill="#c5c5c5"></path><path d="m384 672h16v16h-16z" fill="#c9c9c9"></path><path d="m400 672h16v16h-16z" fill="#c9c9c9"></path><path d="m416 672h16v16h-16z" fill="#c9c9c9"></path><path d="m432 672h16v16h-16z" fill="#c9c9c9"></path><path d="m448 672h16v16h-16z" fill="#c9c9c9"></path><path d="m464 672h16v16h-16z" fill="#c9c9c9"></path><path d="m480 672h16v16h-16z" fill="#cecece"></path><path d="m496 672h16v16h-16z" fill="#d2d2d2"></path><path d="m512 672h16v16h-16z" fill="#d2d2d2"></path><path d="m528 672h16v16h-16z" fill="#d2d2d2"></path><path d="m544 672h16v16h-16z" fill="#d2d2d2"></path><path d="m560 672h16v16h-16z" fill="#6a6a6a"></path><path d="m0 688h16v16h-16z" fill="#c9c9c9"></path><path d="m16 688h16v16h-16z" fill="#c9c9c9"></path><path d="m32 688h16v16h-16z" fill="#c9c9c9"></path><path d="m48 688h16v16h-16z" fill="#c9c9c9"></path><path d="m64 688h16v16h-16z" fill="#c9c9c9"></path><path d="m80 688h16v16h-16z" fill="#6a6a6a"></path><path d="m96 688h16v16h-16z" fill="#d2d2d2"></path><path d="m112 688h16v16h-16z" fill="#d2d2d2"></path><path d="m128 688h16v16h-16z" fill="#c5c5c5"></path><path d="m144 688h16v16h-16z" fill="#c5c5c5"></path><path d="m160 688h16v16h-16z" fill="#c5c5c5"></path><path d="m176 688h16v16h-16z" fill="#bcbcbc"></path><path d="m192 688h16v16h-16z" fill="#bcbcbc"></path><path d="m208 688h16v16h-16z" fill="#bcbcbc"></path><path d="m224 688h16v16h-16z" fill="#bcbcbc"></path><path d="m240 688h16v16h-16z" fill="#bcbcbc"></path><path d="m256 688h16v16h-16z" fill="#bcbcbc"></path><path d="m272 688h16v16h-16z" fill="#bcbcbc"></path><path d="m288 688h16v16h-16z" fill="#bcbcbc"></path><path d="m304 688h16v16h-16z" fill="#bcbcbc"></path><path d="m320 688h16v16h-16z" fill="#bcbcbc"></path><path d="m336 688h16v16h-16z" fill="#bcbcbc"></path><path d="m352 688h16v16h-16z" fill="#bcbcbc"></path><path d="m368 688h16v16h-16z" fill="#c5c5c5"></path><path d="m384 688h16v16h-16z" fill="#c9c9c9"></path><path d="m400 688h16v16h-16z" fill="#c9c9c9"></path><path d="m416 688h16v16h-16z" fill="#c9c9c9"></path><path d="m432 688h16v16h-16z" fill="#cecece"></path><path d="m448 688h16v16h-16z" fill="#cecece"></path><path d="m464 688h16v16h-16z" fill="#c9c9c9"></path><path d="m480 688h16v16h-16z" fill="#cecece"></path><path d="m496 688h16v16h-16z" fill="#d2d2d2"></path><path d="m512 688h16v16h-16z" fill="#d2d2d2"></path><path d="m528 688h16v16h-16z" fill="#d2d2d2"></path><path d="m544 688h16v16h-16z" fill="#d2d2d2"></path><path d="m560 688h16v16h-16z" fill="#6a6a6a"></path><path d="m0 704h16v16h-16z" fill="#c9c9c9"></path><path d="m16 704h16v16h-16z" fill="#c9c9c9"></path><path d="m32 704h16v16h-16z" fill="#c9c9c9"></path><path d="m48 704h16v16h-16z" fill="#c9c9c9"></path><path d="m64 704h16v16h-16z" fill="#c9c9c9"></path><path d="m80 704h16v16h-16z" fill="#c9c9c9"></path><path d="m96 704h16v16h-16z" fill="#6a6a6a"></path><path d="m112 704h16v16h-16z" fill="#d2d2d2"></path><path d="m128 704h16v16h-16z" fill="#c5c5c5"></path><path d="m144 704h16v16h-16z" fill="#bcbcbc"></path><path d="m160 704h16v16h-16z" fill="#bcbcbc"></path><path d="m176 704h16v16h-16z" fill="#bcbcbc"></path><path d="m192 704h16v16h-16z" fill="#bcbcbc"></path><path d="m208 704h16v16h-16z" fill="#bcbcbc"></path><path d="m224 704h16v16h-16z" fill="#bcbcbc"></path><path d="m240 704h16v16h-16z" fill="#bcbcbc"></path><path d="m256 704h16v16h-16z" fill="#bcbcbc"></path><path d="m272 704h16v16h-16z" fill="#bcbcbc"></path><path d="m288 704h16v16h-16z" fill="#bcbcbc"></path><path d="m304 704h16v16h-16z" fill="#bcbcbc"></path><path d="m320 704h16v16h-16z" fill="#bcbcbc"></path><path d="m336 704h16v16h-16z" fill="#bcbcbc"></path><path d="m352 704h16v16h-16z" fill="#bcbcbc"></path><path d="m368 704h16v16h-16z" fill="#c5c5c5"></path><path d="m384 704h16v16h-16z" fill="#c9c9c9"></path><path d="m400 704h16v16h-16z" fill="#c9c9c9"></path><path d="m416 704h16v16h-16z" fill="#c9c9c9"></path><path d="m432 704h16v16h-16z" fill="#c9c9c9"></path><path d="m448 704h16v16h-16z" fill="#cecece"></path><path d="m464 704h16v16h-16z" fill="#c9c9c9"></path><path d="m480 704h16v16h-16z" fill="#d2d2d2"></path><path d="m496 704h16v16h-16z" fill="#d2d2d2"></path><path d="m512 704h16v16h-16z" fill="#d2d2d2"></path><path d="m528 704h16v16h-16z" fill="#d2d2d2"></path><path d="m544 704h16v16h-16z" fill="#6a6a6a"></path><path d="m0 720h16v16h-16z" fill="#c9c9c9"></path><path d="m16 720h16v16h-16z" fill="#c9c9c9"></path><path d="m32 720h16v16h-16z" fill="#c9c9c9"></path><path d="m48 720h16v16h-16z" fill="#c9c9c9"></path><path d="m64 720h16v16h-16z" fill="#c9c9c9"></path><path d="m80 720h16v16h-16z" fill="#c9c9c9"></path><path d="m96 720h16v16h-16z" fill="#c9c9c9"></path><path d="m112 720h16v16h-16z" fill="#6a6a6a"></path><path d="m128 720h16v16h-16z" fill="#6a6a6a"></path><path d="m144 720h16v16h-16z" fill="#c5c5c5"></path><path d="m160 720h16v16h-16z" fill="#c5c5c5"></path><path d="m176 720h16v16h-16z" fill="#bcbcbc"></path><path d="m192 720h16v16h-16z" fill="#bcbcbc"></path><path d="m208 720h16v16h-16z" fill="#bcbcbc"></path><path d="m224 720h16v16h-16z" fill="#bcbcbc"></path><path d="m240 720h16v16h-16z" fill="#bcbcbc"></path><path d="m256 720h16v16h-16z" fill="#bcbcbc"></path><path d="m272 720h16v16h-16z" fill="#bcbcbc"></path><path d="m288 720h16v16h-16z" fill="#bcbcbc"></path><path d="m304 720h16v16h-16z" fill="#bcbcbc"></path><path d="m320 720h16v16h-16z" fill="#bcbcbc"></path><path d="m336 720h16v16h-16z" fill="#bcbcbc"></path><path d="m352 720h16v16h-16z" fill="#bcbcbc"></path><path d="m368 720h16v16h-16z" fill="#bcbcbc"></path><path d="m384 720h16v16h-16z" fill="#bcbcbc"></path><path d="m400 720h16v16h-16z" fill="#c9c9c9"></path><path d="m416 720h16v16h-16z" fill="#c9c9c9"></path><path d="m432 720h16v16h-16z" fill="#c9c9c9"></path><path d="m448 720h16v16h-16z" fill="#cecece"></path><path d="m464 720h16v16h-16z" fill="#d2d2d2"></path><path d="m480 720h16v16h-16z" fill="#d2d2d2"></path><path d="m496 720h16v16h-16z" fill="#d2d2d2"></path><path d="m512 720h16v16h-16z" fill="#d2d2d2"></path><path d="m528 720h16v16h-16z" fill="#6a6a6a"></path><path d="m16 736h16v16h-16z" fill="#c9c9c9"></path><path d="m32 736h16v16h-16z" fill="#c9c9c9"></path><path d="m48 736h16v16h-16z" fill="#c9c9c9"></path><path d="m64 736h16v16h-16z" fill="#c9c9c9"></path><path d="m80 736h16v16h-16z" fill="#c9c9c9"></path><path d="m96 736h16v16h-16z" fill="#c9c9c9"></path><path d="m112 736h16v16h-16z" fill="#c9c9c9"></path><path d="m128 736h16v16h-16z" fill="#c9c9c9"></path><path d="m144 736h16v16h-16z" fill="#6a6a6a"></path><path d="m160 736h16v16h-16z" fill="#bcbcbc"></path><path d="m176 736h16v16h-16z" fill="#bcbcbc"></path><path d="m192 736h16v16h-16z" fill="#bcbcbc"></path><path d="m208 736h16v16h-16z" fill="#bcbcbc"></path><path d="m224 736h16v16h-16z" fill="#bcbcbc"></path><path d="m240 736h16v16h-16z" fill="#bcbcbc"></path><path d="m256 736h16v16h-16z" fill="#bcbcbc"></path><path d="m272 736h16v16h-16z" fill="#bcbcbc"></path><path d="m288 736h16v16h-16z" fill="#bcbcbc"></path><path d="m304 736h16v16h-16z" fill="#bcbcbc"></path><path d="m320 736h16v16h-16z" fill="#bcbcbc"></path><path d="m336 736h16v16h-16z" fill="#bcbcbc"></path><path d="m352 736h16v16h-16z" fill="#bcbcbc"></path><path d="m368 736h16v16h-16z" fill="#bcbcbc"></path><path d="m384 736h16v16h-16z" fill="#bcbcbc"></path><path d="m400 736h16v16h-16z" fill="#bcbcbc"></path><path d="m416 736h16v16h-16z" fill="#cecece"></path><path d="m432 736h16v16h-16z" fill="#cecece"></path><path d="m448 736h16v16h-16z" fill="#cecece"></path><path d="m464 736h16v16h-16z" fill="#d2d2d2"></path><path d="m480 736h16v16h-16z" fill="#d2d2d2"></path><path d="m496 736h16v16h-16z" fill="#d2d2d2"></path><path d="m512 736h16v16h-16z" fill="#6a6a6a"></path><path d="m16 752h16v16h-16z" fill="#c9c9c9"></path><path d="m32 752h16v16h-16z" fill="#c9c9c9"></path><path d="m48 752h16v16h-16z" fill="#c9c9c9"></path><path d="m64 752h16v16h-16z" fill="#c9c9c9"></path><path d="m80 752h16v16h-16z" fill="#c9c9c9"></path><path d="m96 752h16v16h-16z" fill="#c9c9c9"></path><path d="m112 752h16v16h-16z" fill="#c9c9c9"></path><path d="m128 752h16v16h-16z" fill="#c9c9c9"></path><path d="m144 752h16v16h-16z" fill="#c9c9c9"></path><path d="m160 752h16v16h-16z" fill="#6a6a6a"></path><path d="m176 752h16v16h-16z" fill="#bcbcbc"></path><path d="m192 752h16v16h-16z" fill="#bcbcbc"></path><path d="m208 752h16v16h-16z" fill="#bcbcbc"></path><path d="m224 752h16v16h-16z" fill="#bcbcbc"></path><path d="m240 752h16v16h-16z" fill="#bcbcbc"></path><path d="m256 752h16v16h-16z" fill="#bcbcbc"></path><path d="m272 752h16v16h-16z" fill="#bcbcbc"></path><path d="m288 752h16v16h-16z" fill="#bcbcbc"></path><path d="m304 752h16v16h-16z" fill="#bcbcbc"></path><path d="m320 752h16v16h-16z" fill="#bcbcbc"></path><path d="m336 752h16v16h-16z" fill="#bcbcbc"></path><path d="m352 752h16v16h-16z" fill="#bcbcbc"></path><path d="m368 752h16v16h-16z" fill="#bcbcbc"></path><path d="m384 752h16v16h-16z" fill="#bcbcbc"></path><path d="m400 752h16v16h-16z" fill="#bcbcbc"></path><path d="m416 752h16v16h-16z" fill="#cecece"></path><path d="m432 752h16v16h-16z" fill="#cecece"></path><path d="m448 752h16v16h-16z" fill="#d2d2d2"></path><path d="m464 752h16v16h-16z" fill="#d2d2d2"></path><path d="m480 752h16v16h-16z" fill="#d2d2d2"></path><path d="m496 752h16v16h-16z" fill="#6a6a6a"></path><path d="m512 752h16v16h-16z" fill="#c9c9c9"></path><path d="m16 768h16v16h-16z" fill="#c9c9c9"></path><path d="m32 768h16v16h-16z" fill="#c9c9c9"></path><path d="m48 768h16v16h-16z" fill="#c9c9c9"></path><path d="m64 768h16v16h-16z" fill="#c9c9c9"></path><path d="m80 768h16v16h-16z" fill="#c9c9c9"></path><path d="m96 768h16v16h-16z" fill="#c9c9c9"></path><path d="m112 768h16v16h-16z" fill="#c9c9c9"></path><path d="m128 768h16v16h-16z" fill="#c9c9c9"></path><path d="m144 768h16v16h-16z" fill="#c9c9c9"></path><path d="m160 768h16v16h-16z" fill="#c9c9c9"></path><path d="m176 768h16v16h-16z" fill="#6a6a6a"></path><path d="m192 768h16v16h-16z" fill="#6a6a6a"></path><path d="m208 768h16v16h-16z" fill="#bcbcbc"></path><path d="m224 768h16v16h-16z" fill="#bcbcbc"></path><path d="m240 768h16v16h-16z" fill="#bcbcbc"></path><path d="m256 768h16v16h-16z" fill="#bcbcbc"></path><path d="m272 768h16v16h-16z" fill="#bcbcbc"></path><path d="m288 768h16v16h-16z" fill="#bcbcbc"></path><path d="m304 768h16v16h-16z" fill="#bcbcbc"></path><path d="m320 768h16v16h-16z" fill="#bcbcbc"></path><path d="m336 768h16v16h-16z" fill="#bcbcbc"></path><path d="m352 768h16v16h-16z" fill="#bcbcbc"></path><path d="m368 768h16v16h-16z" fill="#bcbcbc"></path><path d="m384 768h16v16h-16z" fill="#bcbcbc"></path><path d="m400 768h16v16h-16z" fill="#bcbcbc"></path><path d="m416 768h16v16h-16z" fill="#d2d2d2"></path><path d="m432 768h16v16h-16z" fill="#d2d2d2"></path><path d="m448 768h16v16h-16z" fill="#d2d2d2"></path><path d="m464 768h16v16h-16z" fill="#d2d2d2"></path><path d="m480 768h16v16h-16z" fill="#6a6a6a"></path><path d="m496 768h16v16h-16z" fill="#c9c9c9"></path><path d="m512 768h16v16h-16z" fill="#c9c9c9"></path><path d="m32 784h16v16h-16z" fill="#c9c9c9"></path><path d="m48 784h16v16h-16z" fill="#c9c9c9"></path><path d="m64 784h16v16h-16z" fill="#c9c9c9"></path><path d="m80 784h16v16h-16z" fill="#c9c9c9"></path><path d="m96 784h16v16h-16z" fill="#c9c9c9"></path><path d="m112 784h16v16h-16z" fill="#c9c9c9"></path><path d="m128 784h16v16h-16z" fill="#c9c9c9"></path><path d="m144 784h16v16h-16z" fill="#c9c9c9"></path><path d="m160 784h16v16h-16z" fill="#c9c9c9"></path><path d="m176 784h16v16h-16z" fill="#c9c9c9"></path><path d="m192 784h16v16h-16z" fill="#c9c9c9"></path><path d="m208 784h16v16h-16z" fill="#6a6a6a"></path><path d="m224 784h16v16h-16z" fill="#bcbcbc"></path><path d="m240 784h16v16h-16z" fill="#bcbcbc"></path><path d="m256 784h16v16h-16z" fill="#bcbcbc"></path><path d="m272 784h16v16h-16z" fill="#bcbcbc"></path><path d="m288 784h16v16h-16z" fill="#bcbcbc"></path><path d="m304 784h16v16h-16z" fill="#bcbcbc"></path><path d="m320 784h16v16h-16z" fill="#bcbcbc"></path><path d="m336 784h16v16h-16z" fill="#bcbcbc"></path><path d="m352 784h16v16h-16z" fill="#bcbcbc"></path><path d="m368 784h16v16h-16z" fill="#bcbcbc"></path><path d="m384 784h16v16h-16z" fill="#bcbcbc"></path><path d="m400 784h16v16h-16z" fill="#d2d2d2"></path><path d="m416 784h16v16h-16z" fill="#d2d2d2"></path><path d="m432 784h16v16h-16z" fill="#d2d2d2"></path><path d="m448 784h16v16h-16z" fill="#d2d2d2"></path><path d="m464 784h16v16h-16z" fill="#d2d2d2"></path><path d="m480 784h16v16h-16z" fill="#6a6a6a"></path><path d="m496 784h16v16h-16z" fill="#c9c9c9"></path><path d="m48 800h16v16h-16z" fill="#c9c9c9"></path><path d="m64 800h16v16h-16z" fill="#c9c9c9"></path><path d="m80 800h16v16h-16z" fill="#c9c9c9"></path><path d="m96 800h16v16h-16z" fill="#c9c9c9"></path><path d="m112 800h16v16h-16z" fill="#c9c9c9"></path><path d="m128 800h16v16h-16z" fill="#c9c9c9"></path><path d="m144 800h16v16h-16z" fill="#c9c9c9"></path><path d="m160 800h16v16h-16z" fill="#c9c9c9"></path><path d="m176 800h16v16h-16z" fill="#c9c9c9"></path><path d="m192 800h16v16h-16z" fill="#c9c9c9"></path><path d="m208 800h16v16h-16z" fill="#c9c9c9"></path><path d="m224 800h16v16h-16z" fill="#6a6a6a"></path><path d="m240 800h16v16h-16z" fill="#bcbcbc"></path><path d="m256 800h16v16h-16z" fill="#bcbcbc"></path><path d="m272 800h16v16h-16z" fill="#bcbcbc"></path><path d="m288 800h16v16h-16z" fill="#bcbcbc"></path><path d="m304 800h16v16h-16z" fill="#bcbcbc"></path><path d="m320 800h16v16h-16z" fill="#bcbcbc"></path><path d="m336 800h16v16h-16z" fill="#bcbcbc"></path><path d="m352 800h16v16h-16z" fill="#bcbcbc"></path><path d="m368 800h16v16h-16z" fill="#bcbcbc"></path><path d="m384 800h16v16h-16z" fill="#d2d2d2"></path><path d="m400 800h16v16h-16z" fill="#d2d2d2"></path><path d="m416 800h16v16h-16z" fill="#d2d2d2"></path><path d="m432 800h16v16h-16z" fill="#d2d2d2"></path><path d="m448 800h16v16h-16z" fill="#6a6a6a"></path><path d="m464 800h16v16h-16z" fill="#6a6a6a"></path><path d="m480 800h16v16h-16z" fill="#c9c9c9"></path><path d="m496 800h16v16h-16z" fill="#c9c9c9"></path><path d="m64 816h16v16h-16z" fill="#c9c9c9"></path><path d="m80 816h16v16h-16z" fill="#c9c9c9"></path><path d="m96 816h16v16h-16z" fill="#c9c9c9"></path><path d="m112 816h16v16h-16z" fill="#c9c9c9"></path><path d="m128 816h16v16h-16z" fill="#c9c9c9"></path><path d="m144 816h16v16h-16z" fill="#c9c9c9"></path><path d="m160 816h16v16h-16z" fill="#c9c9c9"></path><path d="m176 816h16v16h-16z" fill="#c9c9c9"></path><path d="m192 816h16v16h-16z" fill="#c9c9c9"></path><path d="m208 816h16v16h-16z" fill="#c9c9c9"></path><path d="m224 816h16v16h-16z" fill="#c9c9c9"></path><path d="m240 816h16v16h-16z" fill="#6a6a6a"></path><path d="m256 816h16v16h-16z" fill="#6a6a6a"></path><path d="m272 816h16v16h-16z" fill="#bcbcbc"></path><path d="m288 816h16v16h-16z" fill="#bcbcbc"></path><path d="m304 816h16v16h-16z" fill="#bcbcbc"></path><path d="m320 816h16v16h-16z" fill="#bcbcbc"></path><path d="m336 816h16v16h-16z" fill="#bcbcbc"></path><path d="m352 816h16v16h-16z" fill="#bcbcbc"></path><path d="m368 816h16v16h-16z" fill="#d2d2d2"></path><path d="m384 816h16v16h-16z" fill="#d2d2d2"></path><path d="m400 816h16v16h-16z" fill="#d2d2d2"></path><path d="m416 816h16v16h-16z" fill="#d2d2d2"></path><path d="m432 816h16v16h-16z" fill="#6a6a6a"></path><path d="m448 816h16v16h-16z" fill="#c9c9c9"></path><path d="m464 816h16v16h-16z" fill="#c9c9c9"></path><path d="m480 816h16v16h-16z" fill="#c9c9c9"></path><path d="m496 816h16v16h-16z" fill="#c9c9c9"></path><path d="m64 832h16v16h-16z" fill="#c9c9c9"></path><path d="m80 832h16v16h-16z" fill="#c9c9c9"></path><path d="m96 832h16v16h-16z" fill="#c9c9c9"></path><path d="m112 832h16v16h-16z" fill="#c9c9c9"></path><path d="m128 832h16v16h-16z" fill="#c9c9c9"></path><path d="m144 832h16v16h-16z" fill="#c9c9c9"></path><path d="m160 832h16v16h-16z" fill="#c9c9c9"></path><path d="m176 832h16v16h-16z" fill="#c9c9c9"></path><path d="m192 832h16v16h-16z" fill="#c9c9c9"></path><path d="m208 832h16v16h-16z" fill="#c9c9c9"></path><path d="m224 832h16v16h-16z" fill="#c9c9c9"></path><path d="m240 832h16v16h-16z" fill="#c9c9c9"></path><path d="m256 832h16v16h-16z" fill="#c9c9c9"></path><path d="m272 832h16v16h-16z" fill="#6a6a6a"></path><path d="m288 832h16v16h-16z" fill="#bcbcbc"></path><path d="m304 832h16v16h-16z" fill="#bcbcbc"></path><path d="m320 832h16v16h-16z" fill="#bcbcbc"></path><path d="m336 832h16v16h-16z" fill="#bcbcbc"></path><path d="m352 832h16v16h-16z" fill="#d2d2d2"></path><path d="m368 832h16v16h-16z" fill="#d2d2d2"></path><path d="m384 832h16v16h-16z" fill="#d2d2d2"></path><path d="m400 832h16v16h-16z" fill="#d2d2d2"></path><path d="m416 832h16v16h-16z" fill="#6a6a6a"></path><path d="m432 832h16v16h-16z" fill="#c9c9c9"></path><path d="m448 832h16v16h-16z" fill="#c9c9c9"></path><path d="m464 832h16v16h-16z" fill="#c9c9c9"></path><path d="m480 832h16v16h-16z" fill="#c9c9c9"></path><path d="m496 832h16v16h-16z" fill="#c9c9c9"></path><path d="m80 848h16v16h-16z" fill="#c9c9c9"></path><path d="m96 848h16v16h-16z" fill="#c9c9c9"></path><path d="m112 848h16v16h-16z" fill="#c9c9c9"></path><path d="m128 848h16v16h-16z" fill="#c9c9c9"></path><path d="m144 848h16v16h-16z" fill="#c9c9c9"></path><path d="m160 848h16v16h-16z" fill="#c9c9c9"></path><path d="m176 848h16v16h-16z" fill="#c9c9c9"></path><path d="m192 848h16v16h-16z" fill="#c9c9c9"></path><path d="m208 848h16v16h-16z" fill="#c9c9c9"></path><path d="m224 848h16v16h-16z" fill="#c9c9c9"></path><path d="m240 848h16v16h-16z" fill="#c9c9c9"></path><path d="m256 848h16v16h-16z" fill="#c9c9c9"></path><path d="m272 848h16v16h-16z" fill="#c9c9c9"></path><path d="m288 848h16v16h-16z" fill="#6a6a6a"></path><path d="m304 848h16v16h-16z" fill="#bcbcbc"></path><path d="m320 848h16v16h-16z" fill="#bcbcbc"></path><path d="m336 848h16v16h-16z" fill="#d2d2d2"></path><path d="m352 848h16v16h-16z" fill="#d2d2d2"></path><path d="m368 848h16v16h-16z" fill="#d2d2d2"></path><path d="m384 848h16v16h-16z" fill="#d2d2d2"></path><path d="m400 848h16v16h-16z" fill="#6a6a6a"></path><path d="m416 848h16v16h-16z" fill="#c9c9c9"></path><path d="m432 848h16v16h-16z" fill="#c9c9c9"></path><path d="m448 848h16v16h-16z" fill="#c9c9c9"></path><path d="m464 848h16v16h-16z" fill="#c9c9c9"></path><path d="m480 848h16v16h-16z" fill="#c9c9c9"></path><path d="m80 864h16v16h-16z" fill="#c9c9c9"></path><path d="m96 864h16v16h-16z" fill="#c9c9c9"></path><path d="m112 864h16v16h-16z" fill="#c9c9c9"></path><path d="m128 864h16v16h-16z" fill="#c9c9c9"></path><path d="m144 864h16v16h-16z" fill="#c9c9c9"></path><path d="m160 864h16v16h-16z" fill="#c9c9c9"></path><path d="m176 864h16v16h-16z" fill="#c9c9c9"></path><path d="m192 864h16v16h-16z" fill="#c9c9c9"></path><path d="m208 864h16v16h-16z" fill="#c9c9c9"></path><path d="m224 864h16v16h-16z" fill="#c9c9c9"></path><path d="m240 864h16v16h-16z" fill="#c9c9c9"></path><path d="m256 864h16v16h-16z" fill="#c9c9c9"></path><path d="m272 864h16v16h-16z" fill="#c9c9c9"></path><path d="m288 864h16v16h-16z" fill="#c9c9c9"></path><path d="m304 864h16v16h-16z" fill="#6a6a6a"></path><path d="m320 864h16v16h-16z" fill="#6a6a6a"></path><path d="m336 864h16v16h-16z" fill="#d2d2d2"></path><path d="m352 864h16v16h-16z" fill="#d2d2d2"></path><path d="m368 864h16v16h-16z" fill="#d2d2d2"></path><path d="m384 864h16v16h-16z" fill="#6a6a6a"></path><path d="m400 864h16v16h-16z" fill="#c9c9c9"></path><path d="m416 864h16v16h-16z" fill="#c9c9c9"></path><path d="m432 864h16v16h-16z" fill="#c9c9c9"></path><path d="m448 864h16v16h-16z" fill="#c9c9c9"></path><path d="m464 864h16v16h-16z" fill="#c9c9c9"></path><path d="m480 864h16v16h-16z" fill="#c9c9c9"></path><path d="m96 880h16v16h-16z" fill="#c9c9c9"></path><path d="m112 880h16v16h-16z" fill="#c9c9c9"></path><path d="m128 880h16v16h-16z" fill="#c9c9c9"></path><path d="m144 880h16v16h-16z" fill="#c9c9c9"></path><path d="m160 880h16v16h-16z" fill="#c9c9c9"></path><path d="m176 880h16v16h-16z" fill="#c9c9c9"></path><path d="m192 880h16v16h-16z" fill="#c9c9c9"></path><path d="m208 880h16v16h-16z" fill="#c9c9c9"></path><path d="m224 880h16v16h-16z" fill="#c9c9c9"></path><path d="m240 880h16v16h-16z" fill="#c9c9c9"></path><path d="m256 880h16v16h-16z" fill="#c9c9c9"></path><path d="m272 880h16v16h-16z" fill="#c9c9c9"></path><path d="m288 880h16v16h-16z" fill="#c9c9c9"></path><path d="m304 880h16v16h-16z" fill="#c9c9c9"></path><path d="m320 880h16v16h-16z" fill="#c9c9c9"></path><path d="m336 880h16v16h-16z" fill="#6a6a6a"></path><path d="m352 880h16v16h-16z" fill="#6a6a6a"></path><path d="m368 880h16v16h-16z" fill="#6a6a6a"></path><path d="m384 880h16v16h-16z" fill="#c9c9c9"></path><path d="m400 880h16v16h-16z" fill="#c9c9c9"></path><path d="m416 880h16v16h-16z" fill="#c9c9c9"></path><path d="m432 880h16v16h-16z" fill="#c9c9c9"></path><path d="m448 880h16v16h-16z" fill="#c9c9c9"></path><path d="m464 880h16v16h-16z" fill="#c9c9c9"></path><path d="m112 896h16v16h-16z" fill="#c9c9c9"></path><path d="m128 896h16v16h-16z" fill="#c9c9c9"></path><path d="m144 896h16v16h-16z" fill="#c9c9c9"></path><path d="m160 896h16v16h-16z" fill="#c9c9c9"></path><path d="m176 896h16v16h-16z" fill="#c9c9c9"></path><path d="m192 896h16v16h-16z" fill="#c9c9c9"></path><path d="m208 896h16v16h-16z" fill="#c9c9c9"></path><path d="m224 896h16v16h-16z" fill="#c9c9c9"></path><path d="m240 896h16v16h-16z" fill="#c9c9c9"></path><path d="m256 896h16v16h-16z" fill="#c9c9c9"></path><path d="m272 896h16v16h-16z" fill="#c9c9c9"></path><path d="m288 896h16v16h-16z" fill="#c9c9c9"></path><path d="m304 896h16v16h-16z" fill="#c9c9c9"></path><path d="m320 896h16v16h-16z" fill="#c9c9c9"></path><path d="m336 896h16v16h-16z" fill="#c9c9c9"></path><path d="m352 896h16v16h-16z" fill="#c9c9c9"></path><path d="m368 896h16v16h-16z" fill="#c9c9c9"></path><path d="m384 896h16v16h-16z" fill="#c9c9c9"></path><path d="m400 896h16v16h-16z" fill="#c9c9c9"></path><path d="m416 896h16v16h-16z" fill="#c9c9c9"></path><path d="m432 896h16v16h-16z" fill="#c9c9c9"></path><path d="m448 896h16v16h-16z" fill="#c9c9c9"></path><path d="m464 896h16v16h-16z" fill="#c9c9c9"></path><path d="m128 912h16v16h-16z" fill="#c9c9c9"></path><path d="m144 912h16v16h-16z" fill="#c9c9c9"></path><path d="m160 912h16v16h-16z" fill="#c9c9c9"></path><path d="m176 912h16v16h-16z" fill="#c9c9c9"></path><path d="m192 912h16v16h-16z" fill="#c9c9c9"></path><path d="m208 912h16v16h-16z" fill="#c9c9c9"></path><path d="m224 912h16v16h-16z" fill="#c9c9c9"></path><path d="m240 912h16v16h-16z" fill="#c9c9c9"></path><path d="m256 912h16v16h-16z" fill="#c9c9c9"></path><path d="m272 912h16v16h-16z" fill="#c9c9c9"></path><path d="m288 912h16v16h-16z" fill="#c9c9c9"></path><path d="m304 912h16v16h-16z" fill="#c9c9c9"></path><path d="m320 912h16v16h-16z" fill="#c9c9c9"></path><path d="m336 912h16v16h-16z" fill="#c9c9c9"></path><path d="m352 912h16v16h-16z" fill="#c9c9c9"></path><path d="m368 912h16v16h-16z" fill="#c9c9c9"></path><path d="m384 912h16v16h-16z" fill="#c9c9c9"></path><path d="m400 912h16v16h-16z" fill="#c9c9c9"></path><path d="m416 912h16v16h-16z" fill="#c9c9c9"></path><path d="m432 912h16v16h-16z" fill="#c9c9c9"></path><path d="m448 912h16v16h-16z" fill="#c9c9c9"></path><path d="m144 928h16v16h-16z" fill="#c9c9c9"></path><path d="m160 928h16v16h-16z" fill="#c9c9c9"></path><path d="m176 928h16v16h-16z" fill="#c9c9c9"></path><path d="m192 928h16v16h-16z" fill="#c9c9c9"></path><path d="m208 928h16v16h-16z" fill="#c9c9c9"></path><path d="m224 928h16v16h-16z" fill="#c9c9c9"></path><path d="m240 928h16v16h-16z" fill="#c9c9c9"></path><path d="m256 928h16v16h-16z" fill="#c9c9c9"></path><path d="m272 928h16v16h-16z" fill="#c9c9c9"></path><path d="m288 928h16v16h-16z" fill="#c9c9c9"></path><path d="m304 928h16v16h-16z" fill="#c9c9c9"></path><path d="m320 928h16v16h-16z" fill="#c9c9c9"></path><path d="m336 928h16v16h-16z" fill="#c9c9c9"></path><path d="m352 928h16v16h-16z" fill="#c9c9c9"></path><path d="m368 928h16v16h-16z" fill="#c9c9c9"></path><path d="m384 928h16v16h-16z" fill="#c9c9c9"></path><path d="m400 928h16v16h-16z" fill="#c9c9c9"></path><path d="m416 928h16v16h-16z" fill="#c9c9c9"></path><path d="m432 928h16v16h-16z" fill="#c9c9c9"></path><path d="m160 944h16v16h-16z" fill="#c9c9c9"></path><path d="m176 944h16v16h-16z" fill="#c9c9c9"></path><path d="m192 944h16v16h-16z" fill="#c9c9c9"></path><path d="m208 944h16v16h-16z" fill="#c9c9c9"></path><path d="m224 944h16v16h-16z" fill="#c9c9c9"></path><path d="m240 944h16v16h-16z" fill="#c9c9c9"></path><path d="m256 944h16v16h-16z" fill="#c9c9c9"></path><path d="m272 944h16v16h-16z" fill="#c9c9c9"></path><path d="m288 944h16v16h-16z" fill="#c9c9c9"></path><path d="m304 944h16v16h-16z" fill="#c9c9c9"></path><path d="m320 944h16v16h-16z" fill="#c9c9c9"></path><path d="m336 944h16v16h-16z" fill="#c9c9c9"></path><path d="m352 944h16v16h-16z" fill="#c9c9c9"></path><path d="m368 944h16v16h-16z" fill="#c9c9c9"></path><path d="m384 944h16v16h-16z" fill="#c9c9c9"></path><path d="m400 944h16v16h-16z" fill="#c9c9c9"></path><path d="m416 944h16v16h-16z" fill="#c9c9c9"></path><path d="m176 960h16v16h-16z" fill="#c9c9c9"></path><path d="m192 960h16v16h-16z" fill="#c9c9c9"></path><path d="m208 960h16v16h-16z" fill="#c9c9c9"></path><path d="m224 960h16v16h-16z" fill="#c9c9c9"></path><path d="m240 960h16v16h-16z" fill="#c9c9c9"></path><path d="m256 960h16v16h-16z" fill="#c9c9c9"></path><path d="m272 960h16v16h-16z" fill="#c9c9c9"></path><path d="m288 960h16v16h-16z" fill="#c9c9c9"></path><path d="m304 960h16v16h-16z" fill="#c9c9c9"></path><path d="m320 960h16v16h-16z" fill="#c9c9c9"></path><path d="m336 960h16v16h-16z" fill="#c9c9c9"></path><path d="m352 960h16v16h-16z" fill="#c9c9c9"></path><path d="m368 960h16v16h-16z" fill="#c9c9c9"></path><path d="m384 960h16v16h-16z" fill="#c9c9c9"></path><path d="m400 960h16v16h-16z" fill="#c9c9c9"></path><path d="m192 976h16v16h-16z" fill="#c9c9c9"></path><path d="m208 976h16v16h-16z" fill="#c9c9c9"></path><path d="m224 976h16v16h-16z" fill="#c9c9c9"></path><path d="m240 976h16v16h-16z" fill="#c9c9c9"></path><path d="m256 976h16v16h-16z" fill="#c9c9c9"></path><path d="m272 976h16v16h-16z" fill="#c9c9c9"></path><path d="m288 976h16v16h-16z" fill="#c9c9c9"></path><path d="m304 976h16v16h-16z" fill="#c9c9c9"></path><path d="m320 976h16v16h-16z" fill="#c9c9c9"></path><path d="m336 976h16v16h-16z" fill="#c9c9c9"></path><path d="m352 976h16v16h-16z" fill="#c9c9c9"></path><path d="m368 976h16v16h-16z" fill="#c9c9c9"></path><path d="m384 976h16v16h-16z" fill="#c9c9c9"></path><path d="m224 992h16v16h-16z" fill="#c9c9c9"></path><path d="m240 992h16v16h-16z" fill="#c9c9c9"></path><path d="m256 992h16v16h-16z" fill="#c9c9c9"></path><path d="m272 992h16v16h-16z" fill="#c9c9c9"></path><path d="m288 992h16v16h-16z" fill="#c9c9c9"></path><path d="m304 992h16v16h-16z" fill="#c9c9c9"></path><path d="m320 992h16v16h-16z" fill="#c9c9c9"></path><path d="m336 992h16v16h-16z" fill="#c9c9c9"></path><path d="m352 992h16v16h-16z" fill="#c9c9c9"></path><path d="m368 992h16v16h-16z" fill="#c9c9c9"></path><path d="m272 1008h16v16h-16z" fill="#c9c9c9"></path><path d="m288 1008h16v16h-16z" fill="#c9c9c9"></path><path d="m304 1008h16v16h-16z" fill="#c9c9c9"></path></svg>