<svg width="1024" height="976" viewBox="0 0 1024 976" fill="none" xmlns="http://www.w3.org/2000/svg">
<path d="M944 0H960V16H944V0Z" fill="#11046D"/>
<path d="M960 0H976V16H960V0Z" fill="#11046D"/>
<path d="M976 0H992V16H976V0Z" fill="#11046D"/>
<path d="M912 16H928V32H912V16Z" fill="#11046D"/>
<path d="M928 16H944V32H928V16Z" fill="#413A71"/>
<path d="M944 16H960V32H944V16Z" fill="#11046D"/>
<path d="M960 16H976V32H960V16Z" fill="#11046D"/>
<path d="M976 16H992V32H976V16Z" fill="#11046D"/>
<path d="M992 16H1008V32H992V16Z" fill="#11046D"/>
<path d="M880 32H896V48H880V32Z" fill="#11046D"/>
<path d="M896 32H912V48H896V32Z" fill="#413A71"/>
<path d="M912 32H928V48H912V32Z" fill="#413A71"/>
<path d="M928 32H944V48H928V32Z" fill="#11046D"/>
<path d="M976 32H992V48H976V32Z" fill="#11046D"/>
<path d="M992 32H1008V48H992V32Z" fill="#11046D"/>
<path d="M1008 32H1024V48H1008V32Z" fill="#11046D"/>
<path d="M848 48H864V64H848V48Z" fill="#11046D"/>
<path d="M864 48H880V64H864V48Z" fill="#11046D"/>
<path d="M880 48H896V64H880V48Z" fill="#11046D"/>
<path d="M992 48H1008V64H992V48Z" fill="#11046D"/>
<path d="M1008 48H1024V64H1008V48Z" fill="#11046D"/>
<path d="M832 64H848V80H832V64Z" fill="#11046D"/>
<path d="M848 64H864V80H848V64Z" fill="#413A71"/>
<path d="M864 64H880V80H864V64Z" fill="#11046D"/>
<path d="M1008 64H1024V80H1008V64Z" fill="#11046D"/>
<path d="M832 80H848V96H832V80Z" fill="#413A71"/>
<path d="M848 80H864V96H848V80Z" fill="#11046D"/>
<path d="M1008 80H1024V96H1008V80Z" fill="#11046D"/>
<path d="M816 96H832V112H816V96Z" fill="#413A71"/>
<path d="M832 96H848V112H832V96Z" fill="#11046D"/>
<path d="M976 96H992V112H976V96Z" fill="#413A71"/>
<path d="M992 96H1008V112H992V96Z" fill="#11046D"/>
<path d="M816 112H832V128H816V112Z" fill="#11046D"/>
<path d="M832 112H848V128H832V112Z" fill="#11046D"/>
<path d="M960 112H976V128H960V112Z" fill="#11046D"/>
<path d="M976 112H992V128H976V112Z" fill="#11046D"/>
<path d="M800 128H816V144H800V128Z" fill="#11046D"/>
<path d="M816 128H832V144H816V128Z" fill="#11046D"/>
<path d="M912 128H928V144H912V128Z" fill="#11046D"/>
<path d="M928 128H944V144H928V128Z" fill="#413A71"/>
<path d="M944 128H960V144H944V128Z" fill="#413A71"/>
<path d="M960 128H976V144H960V128Z" fill="#413A71"/>
<path d="M800 144H816V160H800V144Z" fill="#413A71"/>
<path d="M816 144H832V160H816V144Z" fill="#11046D"/>
<path d="M864 144H880V160H864V144Z" fill="#11046D"/>
<path d="M880 144H896V160H880V144Z" fill="#413A71"/>
<path d="M896 144H912V160H896V144Z" fill="#11046D"/>
<path d="M912 144H928V160H912V144Z" fill="#413A71"/>
<path d="M928 144H944V160H928V144Z" fill="#11046D"/>
<path d="M784 160H800V176H784V160Z" fill="#11046D"/>
<path d="M800 160H816V176H800V160Z" fill="#11046D"/>
<path d="M816 160H832V176H816V160Z" fill="#413A71"/>
<path d="M832 160H848V176H832V160Z" fill="#11046D"/>
<path d="M848 160H864V176H848V160Z" fill="#11046D"/>
<path d="M864 160H880V176H864V160Z" fill="#413A71"/>
<path d="M880 160H896V176H880V160Z" fill="#11046D"/>
<path d="M784 176H800V192H784V176Z" fill="#11046D"/>
<path d="M800 176H816V192H800V176Z" fill="#11046D"/>
<path d="M816 176H832V192H816V176Z" fill="#11046D"/>
<path d="M832 176H848V192H832V176Z" fill="#11046D"/>
<path d="M768 192H784V208H768V192Z" fill="#11046D"/>
<path d="M784 192H800V208H784V192Z" fill="#11046D"/>
<path d="M752 208H768V224H752V208Z" fill="#11046D"/>
<path d="M768 208H784V224H768V208Z" fill="#11046D"/>
<path d="M736 224H752V240H736V224Z" fill="#11046D"/>
<path d="M704 240H720V256H704V240Z" fill="#11046D"/>
<path d="M720 240H736V256H720V240Z" fill="#11046D"/>
<path d="M688 256H704V272H688V256Z" fill="#11046D"/>
<path d="M704 256H720V272H704V256Z" fill="#11046D"/>
<path d="M672 272H688V288H672V272Z" fill="#11046D"/>
<path d="M688 272H704V288H688V272Z" fill="#11046D"/>
<path d="M656 288H672V304H656V288Z" fill="#11046D"/>
<path d="M672 288H688V304H672V288Z" fill="#11046D"/>
<path d="M624 304H640V320H624V304Z" fill="#11046D"/>
<path d="M640 304H656V320H640V304Z" fill="#11046D"/>
<path d="M608 320H624V336H608V320Z" fill="#11046D"/>
<path d="M624 320H640V336H624V320Z" fill="#11046D"/>
<path d="M592 336H608V352H592V336Z" fill="#11046D"/>
<path d="M608 336H624V352H608V336Z" fill="#11046D"/>
<path d="M576 352H592V368H576V352Z" fill="#11046D"/>
<path d="M592 352H608V368H592V352Z" fill="#11046D"/>
<path d="M544 368H560V384H544V368Z" fill="#11046D"/>
<path d="M560 368H576V384H560V368Z" fill="#11046D"/>
<path d="M528 384H544V400H528V384Z" fill="#11046D"/>
<path d="M544 384H560V400H544V384Z" fill="#11046D"/>
<path d="M512 400H528V416H512V400Z" fill="#11046D"/>
<path d="M528 400H544V416H528V400Z" fill="#11046D"/>
<path d="M208 416H224V432H208V416Z" fill="#6A6A6A"/>
<path d="M224 416H240V432H224V416Z" fill="#6A6A6A"/>
<path d="M240 416H256V432H240V416Z" fill="#6A6A6A"/>
<path d="M256 416H272V432H256V416Z" fill="#6A6A6A"/>
<path d="M480 416H496V432H480V416Z" fill="#11046D"/>
<path d="M496 416H512V432H496V416Z" fill="#11046D"/>
<path d="M208 432H224V448H208V432Z" fill="#6A6A6A"/>
<path d="M224 432H240V448H224V432Z" fill="#D2D2D2"/>
<path d="M240 432H256V448H240V432Z" fill="#C9C9C9"/>
<path d="M256 432H272V448H256V432Z" fill="#BCBCBC"/>
<path d="M272 432H288V448H272V432Z" fill="#6A6A6A"/>
<path d="M288 432H304V448H288V432Z" fill="#6A6A6A"/>
<path d="M464 432H480V448H464V432Z" fill="#11046D"/>
<path d="M480 432H496V448H480V432Z" fill="#11046D"/>
<path d="M176 448H192V464H176V448Z" fill="#6A6A6A"/>
<path d="M192 448H208V464H192V448Z" fill="#6A6A6A"/>
<path d="M208 448H224V464H208V448Z" fill="#D2D2D2"/>
<path d="M224 448H240V464H224V448Z" fill="#D2D2D2"/>
<path d="M240 448H256V464H240V448Z" fill="#C5C5C5"/>
<path d="M256 448H272V464H256V448Z" fill="#BCBCBC"/>
<path d="M272 448H288V464H272V448Z" fill="#BCBCBC"/>
<path d="M288 448H304V464H288V448Z" fill="#BCBCBC"/>
<path d="M304 448H320V464H304V448Z" fill="#6A6A6A"/>
<path d="M320 448H336V464H320V448Z" fill="#6A6A6A"/>
<path d="M448 448H464V464H448V448Z" fill="#11046D"/>
<path d="M464 448H480V464H464V448Z" fill="#11046D"/>
<path d="M160 464H176V480H160V464Z" fill="#6A6A6A"/>
<path d="M176 464H192V480H176V464Z" fill="#6A6A6A"/>
<path d="M192 464H208V480H192V464Z" fill="#D2D2D2"/>
<path d="M208 464H224V480H208V464Z" fill="#D2D2D2"/>
<path d="M224 464H240V480H224V464Z" fill="#D2D2D2"/>
<path d="M240 464H256V480H240V464Z" fill="#C5C5C5"/>
<path d="M256 464H272V480H256V464Z" fill="#C5C5C5"/>
<path d="M272 464H288V480H272V464Z" fill="#C5C5C5"/>
<path d="M288 464H304V480H288V464Z" fill="#C9C9C9"/>
<path d="M304 464H320V480H304V464Z" fill="#C9C9C9"/>
<path d="M320 464H336V480H320V464Z" fill="#C9C9C9"/>
<path d="M336 464H352V480H336V464Z" fill="#6A6A6A"/>
<path d="M352 464H368V480H352V464Z" fill="#6A6A6A"/>
<path d="M416 464H432V480H416V464Z" fill="#6A6A6A"/>
<path d="M432 464H448V480H432V464Z" fill="#11046D"/>
<path d="M448 464H464V480H448V464Z" fill="#11046D"/>
<path d="M144 480H160V496H144V480Z" fill="#6A6A6A"/>
<path d="M160 480H176V496H160V480Z" fill="#D2D2D2"/>
<path d="M176 480H192V496H176V480Z" fill="#D2D2D2"/>
<path d="M192 480H208V496H192V480Z" fill="#D2D2D2"/>
<path d="M208 480H224V496H208V480Z" fill="#D2D2D2"/>
<path d="M224 480H240V496H224V480Z" fill="#D2D2D2"/>
<path d="M240 480H256V496H240V480Z" fill="#BCBCBC"/>
<path d="M256 480H272V496H256V480Z" fill="#C5C5C5"/>
<path d="M272 480H288V496H272V480Z" fill="#C5C5C5"/>
<path d="M288 480H304V496H288V480Z" fill="#BCBCBC"/>
<path d="M304 480H320V496H304V480Z" fill="#C9C9C9"/>
<path d="M320 480H336V496H320V480Z" fill="#BCBCBC"/>
<path d="M336 480H352V496H336V480Z" fill="#BCBCBC"/>
<path d="M352 480H368V496H352V480Z" fill="#BCBCBC"/>
<path d="M368 480H384V496H368V480Z" fill="#6A6A6A"/>
<path d="M384 480H400V496H384V480Z" fill="#6A6A6A"/>
<path d="M400 480H416V496H400V480Z" fill="#6A6A6A"/>
<path d="M416 480H432V496H416V480Z" fill="#6A6A6A"/>
<path d="M432 480H448V496H432V480Z" fill="#6A6A6A"/>
<path d="M128 496H144V512H128V496Z" fill="#6A6A6A"/>
<path d="M144 496H160V512H144V496Z" fill="#D2D2D2"/>
<path d="M160 496H176V512H160V496Z" fill="#D2D2D2"/>
<path d="M176 496H192V512H176V496Z" fill="#D2D2D2"/>
<path d="M192 496H208V512H192V496Z" fill="#D2D2D2"/>
<path d="M208 496H224V512H208V496Z" fill="#D2D2D2"/>
<path d="M224 496H240V512H224V496Z" fill="#BCBCBC"/>
<path d="M240 496H256V512H240V496Z" fill="#BCBCBC"/>
<path d="M256 496H272V512H256V496Z" fill="#BCBCBC"/>
<path d="M272 496H288V512H272V496Z" fill="#BCBCBC"/>
<path d="M288 496H304V512H288V496Z" fill="#BCBCBC"/>
<path d="M304 496H320V512H304V496Z" fill="#BCBCBC"/>
<path d="M320 496H336V512H320V496Z" fill="#BCBCBC"/>
<path d="M336 496H352V512H336V496Z" fill="#C9C9C9"/>
<path d="M352 496H368V512H352V496Z" fill="#C9C9C9"/>
<path d="M368 496H384V512H368V496Z" fill="#BCBCBC"/>
<path d="M384 496H400V512H384V496Z" fill="#BCBCBC"/>
<path d="M400 496H416V512H400V496Z" fill="#C9C9C9"/>
<path d="M416 496H432V512H416V496Z" fill="#6A6A6A"/>
<path d="M432 496H448V512H432V496Z" fill="#6A6A6A"/>
<path d="M112 512H128V528H112V512Z" fill="#6A6A6A"/>
<path d="M128 512H144V528H128V512Z" fill="#D2D2D2"/>
<path d="M144 512H160V528H144V512Z" fill="#D2D2D2"/>
<path d="M160 512H176V528H160V512Z" fill="#D2D2D2"/>
<path d="M176 512H192V528H176V512Z" fill="#D2D2D2"/>
<path d="M192 512H208V528H192V512Z" fill="#D2D2D2"/>
<path d="M208 512H224V528H208V512Z" fill="#D2D2D2"/>
<path d="M224 512H240V528H224V512Z" fill="#BCBCBC"/>
<path d="M240 512H256V528H240V512Z" fill="#BCBCBC"/>
<path d="M256 512H272V528H256V512Z" fill="#BCBCBC"/>
<path d="M272 512H288V528H272V512Z" fill="#BCBCBC"/>
<path d="M288 512H304V528H288V512Z" fill="#BCBCBC"/>
<path d="M304 512H320V528H304V512Z" fill="#BCBCBC"/>
<path d="M320 512H336V528H320V512Z" fill="#BCBCBC"/>
<path d="M336 512H352V528H336V512Z" fill="#C9C9C9"/>
<path d="M352 512H368V528H352V512Z" fill="#C9C9C9"/>
<path d="M368 512H384V528H368V512Z" fill="#C9C9C9"/>
<path d="M384 512H400V528H384V512Z" fill="#C9C9C9"/>
<path d="M400 512H416V528H400V512Z" fill="#BCBCBC"/>
<path d="M416 512H432V528H416V512Z" fill="#6A6A6A"/>
<path d="M432 512H448V528H432V512Z" fill="#6A6A6A"/>
<path d="M96 528H112V544H96V528Z" fill="#6A6A6A"/>
<path d="M112 528H128V544H112V528Z" fill="#D2D2D2"/>
<path d="M128 528H144V544H128V528Z" fill="#D2D2D2"/>
<path d="M144 528H160V544H144V528Z" fill="#D2D2D2"/>
<path d="M160 528H176V544H160V528Z" fill="#D2D2D2"/>
<path d="M176 528H192V544H176V528Z" fill="#D2D2D2"/>
<path d="M192 528H208V544H192V528Z" fill="#D2D2D2"/>
<path d="M208 528H224V544H208V528Z" fill="#BCBCBC"/>
<path d="M224 528H240V544H224V528Z" fill="#C5C5C5"/>
<path d="M240 528H256V544H240V528Z" fill="#BCBCBC"/>
<path d="M256 528H272V544H256V528Z" fill="#BCBCBC"/>
<path d="M272 528H288V544H272V528Z" fill="#BCBCBC"/>
<path d="M288 528H304V544H288V528Z" fill="#BCBCBC"/>
<path d="M304 528H320V544H304V528Z" fill="#BCBCBC"/>
<path d="M320 528H336V544H320V528Z" fill="#BCBCBC"/>
<path d="M336 528H352V544H336V528Z" fill="#BCBCBC"/>
<path d="M352 528H368V544H352V528Z" fill="#C9C9C9"/>
<path d="M368 528H384V544H368V528Z" fill="#C9C9C9"/>
<path d="M384 528H400V544H384V528Z" fill="#C9C9C9"/>
<path d="M400 528H416V544H400V528Z" fill="#C9C9C9"/>
<path d="M416 528H432V544H416V528Z" fill="#C9C9C9"/>
<path d="M432 528H448V544H432V528Z" fill="#6A6A6A"/>
<path d="M448 528H464V544H448V528Z" fill="#6A6A6A"/>
<path d="M80 544H96V560H80V544Z" fill="#6A6A6A"/>
<path d="M96 544H112V560H96V544Z" fill="#D2D2D2"/>
<path d="M112 544H128V560H112V544Z" fill="#D2D2D2"/>
<path d="M128 544H144V560H128V544Z" fill="#D2D2D2"/>
<path d="M144 544H160V560H144V544Z" fill="#D2D2D2"/>
<path d="M160 544H176V560H160V544Z" fill="#D2D2D2"/>
<path d="M176 544H192V560H176V544Z" fill="#D2D2D2"/>
<path d="M192 544H208V560H192V544Z" fill="#D2D2D2"/>
<path d="M208 544H224V560H208V544Z" fill="#BCBCBC"/>
<path d="M224 544H240V560H224V544Z" fill="#C5C5C5"/>
<path d="M240 544H256V560H240V544Z" fill="#BCBCBC"/>
<path d="M256 544H272V560H256V544Z" fill="#BCBCBC"/>
<path d="M272 544H288V560H272V544Z" fill="#BCBCBC"/>
<path d="M288 544H304V560H288V544Z" fill="#BCBCBC"/>
<path d="M304 544H320V560H304V544Z" fill="#BCBCBC"/>
<path d="M320 544H336V560H320V544Z" fill="#BCBCBC"/>
<path d="M336 544H352V560H336V544Z" fill="#C5C5C5"/>
<path d="M352 544H368V560H352V544Z" fill="#BDBDBD"/>
<path d="M368 544H384V560H368V544Z" fill="#C9C9C9"/>
<path d="M384 544H400V560H384V544Z" fill="#C9C9C9"/>
<path d="M400 544H416V560H400V544Z" fill="#C9C9C9"/>
<path d="M416 544H432V560H416V544Z" fill="#C9C9C9"/>
<path d="M432 544H448V560H432V544Z" fill="#C9C9C9"/>
<path d="M448 544H464V560H448V544Z" fill="#C9C9C9"/>
<path d="M464 544H480V560H464V544Z" fill="#6A6A6A"/>
<path d="M480 544H496V560H480V544Z" fill="#6A6A6A"/>
<path d="M64 560H80V576H64V560Z" fill="#6A6A6A"/>
<path d="M80 560H96V576H80V560Z" fill="#D2D2D2"/>
<path d="M96 560H112V576H96V560Z" fill="#D2D2D2"/>
<path d="M112 560H128V576H112V560Z" fill="#D2D2D2"/>
<path d="M128 560H144V576H128V560Z" fill="#D2D2D2"/>
<path d="M144 560H160V576H144V560Z" fill="#D2D2D2"/>
<path d="M160 560H176V576H160V560Z" fill="#D2D2D2"/>
<path d="M176 560H192V576H176V560Z" fill="#D2D2D2"/>
<path d="M192 560H208V576H192V560Z" fill="#C5C5C5"/>
<path d="M208 560H224V576H208V560Z" fill="#BCBCBC"/>
<path d="M224 560H240V576H224V560Z" fill="#BCBCBC"/>
<path d="M240 560H256V576H240V560Z" fill="#BCBCBC"/>
<path d="M256 560H272V576H256V560Z" fill="#BCBCBC"/>
<path d="M272 560H288V576H272V560Z" fill="#BCBCBC"/>
<path d="M288 560H304V576H288V560Z" fill="#BCBCBC"/>
<path d="M304 560H320V576H304V560Z" fill="#BCBCBC"/>
<path d="M320 560H336V576H320V560Z" fill="#BCBCBC"/>
<path d="M336 560H352V576H336V560Z" fill="#BCBCBC"/>
<path d="M352 560H368V576H352V560Z" fill="#C5C5C5"/>
<path d="M368 560H384V576H368V560Z" fill="#C9C9C9"/>
<path d="M384 560H400V576H384V560Z" fill="#C9C9C9"/>
<path d="M400 560H416V576H400V560Z" fill="#C9C9C9"/>
<path d="M416 560H432V576H416V560Z" fill="#C9C9C9"/>
<path d="M432 560H448V576H432V560Z" fill="#C9C9C9"/>
<path d="M448 560H464V576H448V560Z" fill="#C9C9C9"/>
<path d="M464 560H480V576H464V560Z" fill="#C9C9C9"/>
<path d="M480 560H496V576H480V560Z" fill="#C9C9C9"/>
<path d="M496 560H512V576H496V560Z" fill="#6A6A6A"/>
<path d="M32 576H48V592H32V576Z" fill="#6A6A6A"/>
<path d="M48 576H64V592H48V576Z" fill="#6A6A6A"/>
<path d="M64 576H80V592H64V576Z" fill="#D2D2D2"/>
<path d="M80 576H96V592H80V576Z" fill="#D2D2D2"/>
<path d="M96 576H112V592H96V576Z" fill="#D2D2D2"/>
<path d="M112 576H128V592H112V576Z" fill="#D2D2D2"/>
<path d="M128 576H144V592H128V576Z" fill="#D2D2D2"/>
<path d="M144 576H160V592H144V576Z" fill="#D2D2D2"/>
<path d="M160 576H176V592H160V576Z" fill="#D2D2D2"/>
<path d="M176 576H192V592H176V576Z" fill="#D2D2D2"/>
<path d="M192 576H208V592H192V576Z" fill="#C5C5C5"/>
<path d="M208 576H224V592H208V576Z" fill="#BCBCBC"/>
<path d="M224 576H240V592H224V576Z" fill="#BCBCBC"/>
<path d="M240 576H256V592H240V576Z" fill="#BCBCBC"/>
<path d="M256 576H272V592H256V576Z" fill="#BCBCBC"/>
<path d="M272 576H288V592H272V576Z" fill="#BCBCBC"/>
<path d="M288 576H304V592H288V576Z" fill="#BCBCBC"/>
<path d="M304 576H320V592H304V576Z" fill="#BCBCBC"/>
<path d="M320 576H336V592H320V576Z" fill="#BCBCBC"/>
<path d="M336 576H352V592H336V576Z" fill="#BCBCBC"/>
<path d="M352 576H368V592H352V576Z" fill="#C5C5C5"/>
<path d="M368 576H384V592H368V576Z" fill="#C9C9C9"/>
<path d="M384 576H400V592H384V576Z" fill="#C9C9C9"/>
<path d="M400 576H416V592H400V576Z" fill="#C9C9C9"/>
<path d="M416 576H432V592H416V576Z" fill="#C9C9C9"/>
<path d="M432 576H448V592H432V576Z" fill="#C9C9C9"/>
<path d="M448 576H464V592H448V576Z" fill="#C9C9C9"/>
<path d="M464 576H480V592H464V576Z" fill="#C9C9C9"/>
<path d="M480 576H496V592H480V576Z" fill="#C9C9C9"/>
<path d="M496 576H512V592H496V576Z" fill="#BCBCBC"/>
<path d="M512 576H528V592H512V576Z" fill="#6A6A6A"/>
<path d="M16 592H32V608H16V592Z" fill="#6A6A6A"/>
<path d="M32 592H48V608H32V592Z" fill="#D2D2D2"/>
<path d="M48 592H64V608H48V592Z" fill="#D2D2D2"/>
<path d="M64 592H80V608H64V592Z" fill="#D2D2D2"/>
<path d="M80 592H96V608H80V592Z" fill="#D2D2D2"/>
<path d="M96 592H112V608H96V592Z" fill="#D2D2D2"/>
<path d="M112 592H128V608H112V592Z" fill="#D2D2D2"/>
<path d="M128 592H144V608H128V592Z" fill="#D2D2D2"/>
<path d="M144 592H160V608H144V592Z" fill="#D2D2D2"/>
<path d="M160 592H176V608H160V592Z" fill="#C5C5C5"/>
<path d="M176 592H192V608H176V592Z" fill="#C5C5C5"/>
<path d="M192 592H208V608H192V592Z" fill="#BCBCBC"/>
<path d="M208 592H224V608H208V592Z" fill="#BCBCBC"/>
<path d="M224 592H240V608H224V592Z" fill="#BCBCBC"/>
<path d="M240 592H256V608H240V592Z" fill="#BCBCBC"/>
<path d="M256 592H272V608H256V592Z" fill="#BCBCBC"/>
<path d="M272 592H288V608H272V592Z" fill="#BCBCBC"/>
<path d="M288 592H304V608H288V592Z" fill="#BCBCBC"/>
<path d="M304 592H320V608H304V592Z" fill="#BCBCBC"/>
<path d="M320 592H336V608H320V592Z" fill="#BCBCBC"/>
<path d="M336 592H352V608H336V592Z" fill="#BDBDBD"/>
<path d="M352 592H368V608H352V592Z" fill="#C5C5C5"/>
<path d="M368 592H384V608H368V592Z" fill="#C9C9C9"/>
<path d="M384 592H400V608H384V592Z" fill="#C9C9C9"/>
<path d="M400 592H416V608H400V592Z" fill="#C9C9C9"/>
<path d="M416 592H432V608H416V592Z" fill="#C9C9C9"/>
<path d="M432 592H448V608H432V592Z" fill="#C9C9C9"/>
<path d="M448 592H464V608H448V592Z" fill="#C9C9C9"/>
<path d="M464 592H480V608H464V592Z" fill="#C9C9C9"/>
<path d="M480 592H496V608H480V592Z" fill="#CECECE"/>
<path d="M496 592H512V608H496V592Z" fill="#C9C9C9"/>
<path d="M512 592H528V608H512V592Z" fill="#D2D2D2"/>
<path d="M528 592H544V608H528V592Z" fill="#6A6A6A"/>
<path d="M544 592H560V608H544V592Z" fill="#6A6A6A"/>
<path d="M0 608H16V624H0V608Z" fill="#C9C9C9"/>
<path d="M16 608H32V624H16V608Z" fill="#C9C9C9"/>
<path d="M32 608H48V624H32V608Z" fill="#6A6A6A"/>
<path d="M48 608H64V624H48V608Z" fill="#6A6A6A"/>
<path d="M64 608H80V624H64V608Z" fill="#D2D2D2"/>
<path d="M80 608H96V624H80V608Z" fill="#D2D2D2"/>
<path d="M96 608H112V624H96V608Z" fill="#D2D2D2"/>
<path d="M112 608H128V624H112V608Z" fill="#D2D2D2"/>
<path d="M128 608H144V624H128V608Z" fill="#D2D2D2"/>
<path d="M144 608H160V624H144V608Z" fill="#D2D2D2"/>
<path d="M160 608H176V624H160V608Z" fill="#C5C5C5"/>
<path d="M176 608H192V624H176V608Z" fill="#BCBCBC"/>
<path d="M192 608H208V624H192V608Z" fill="#BCBCBC"/>
<path d="M208 608H224V624H208V608Z" fill="#BCBCBC"/>
<path d="M224 608H240V624H224V608Z" fill="#BCBCBC"/>
<path d="M240 608H256V624H240V608Z" fill="#BCBCBC"/>
<path d="M256 608H272V624H256V608Z" fill="#BCBCBC"/>
<path d="M272 608H288V624H272V608Z" fill="#BCBCBC"/>
<path d="M288 608H304V624H288V608Z" fill="#BCBCBC"/>
<path d="M304 608H320V624H304V608Z" fill="#BCBCBC"/>
<path d="M320 608H336V624H320V608Z" fill="#BCBCBC"/>
<path d="M336 608H352V624H336V608Z" fill="#BCBCBC"/>
<path d="M352 608H368V624H352V608Z" fill="#C5C5C5"/>
<path d="M368 608H384V624H368V608Z" fill="#C9C9C9"/>
<path d="M384 608H400V624H384V608Z" fill="#C9C9C9"/>
<path d="M400 608H416V624H400V608Z" fill="#C9C9C9"/>
<path d="M416 608H432V624H416V608Z" fill="#C9C9C9"/>
<path d="M432 608H448V624H432V608Z" fill="#C9C9C9"/>
<path d="M448 608H464V624H448V608Z" fill="#C9C9C9"/>
<path d="M464 608H480V624H464V608Z" fill="#C9C9C9"/>
<path d="M480 608H496V624H480V608Z" fill="#C9C9C9"/>
<path d="M496 608H512V624H496V608Z" fill="#D2D2D2"/>
<path d="M512 608H528V624H512V608Z" fill="#D2D2D2"/>
<path d="M528 608H544V624H528V608Z" fill="#D2D2D2"/>
<path d="M544 608H560V624H544V608Z" fill="#D2D2D2"/>
<path d="M560 608H576V624H560V608Z" fill="#6A6A6A"/>
<path d="M0 624H16V640H0V624Z" fill="#C9C9C9"/>
<path d="M16 624H32V640H16V624Z" fill="#C9C9C9"/>
<path d="M32 624H48V640H32V624Z" fill="#C9C9C9"/>
<path d="M48 624H64V640H48V624Z" fill="#C9C9C9"/>
<path d="M64 624H80V640H64V624Z" fill="#6A6A6A"/>
<path d="M80 624H96V640H80V624Z" fill="#D2D2D2"/>
<path d="M96 624H112V640H96V624Z" fill="#D2D2D2"/>
<path d="M112 624H128V640H112V624Z" fill="#D2D2D2"/>
<path d="M128 624H144V640H128V624Z" fill="#D2D2D2"/>
<path d="M144 624H160V640H144V624Z" fill="#D2D2D2"/>
<path d="M160 624H176V640H160V624Z" fill="#C5C5C5"/>
<path d="M176 624H192V640H176V624Z" fill="#BCBCBC"/>
<path d="M192 624H208V640H192V624Z" fill="#BCBCBC"/>
<path d="M208 624H224V640H208V624Z" fill="#BCBCBC"/>
<path d="M224 624H240V640H224V624Z" fill="#BCBCBC"/>
<path d="M240 624H256V640H240V624Z" fill="#BCBCBC"/>
<path d="M256 624H272V640H256V624Z" fill="#BCBCBC"/>
<path d="M272 624H288V640H272V624Z" fill="#BCBCBC"/>
<path d="M288 624H304V640H288V624Z" fill="#BCBCBC"/>
<path d="M304 624H320V640H304V624Z" fill="#BCBCBC"/>
<path d="M320 624H336V640H320V624Z" fill="#BCBCBC"/>
<path d="M336 624H352V640H336V624Z" fill="#BCBCBC"/>
<path d="M352 624H368V640H352V624Z" fill="#BCBCBC"/>
<path d="M368 624H384V640H368V624Z" fill="#C5C5C5"/>
<path d="M384 624H400V640H384V624Z" fill="#C9C9C9"/>
<path d="M400 624H416V640H400V624Z" fill="#C9C9C9"/>
<path d="M416 624H432V640H416V624Z" fill="#C9C9C9"/>
<path d="M432 624H448V640H432V624Z" fill="#C9C9C9"/>
<path d="M448 624H464V640H448V624Z" fill="#C9C9C9"/>
<path d="M464 624H480V640H464V624Z" fill="#C9C9C9"/>
<path d="M480 624H496V640H480V624Z" fill="#CECECE"/>
<path d="M496 624H512V640H496V624Z" fill="#D2D2D2"/>
<path d="M512 624H528V640H512V624Z" fill="#D2D2D2"/>
<path d="M528 624H544V640H528V624Z" fill="#D2D2D2"/>
<path d="M544 624H560V640H544V624Z" fill="#D2D2D2"/>
<path d="M560 624H576V640H560V624Z" fill="#6A6A6A"/>
<path d="M0 640H16V656H0V640Z" fill="#C9C9C9"/>
<path d="M16 640H32V656H16V640Z" fill="#C9C9C9"/>
<path d="M32 640H48V656H32V640Z" fill="#C9C9C9"/>
<path d="M48 640H64V656H48V640Z" fill="#C9C9C9"/>
<path d="M64 640H80V656H64V640Z" fill="#C9C9C9"/>
<path d="M80 640H96V656H80V640Z" fill="#6A6A6A"/>
<path d="M96 640H112V656H96V640Z" fill="#D2D2D2"/>
<path d="M112 640H128V656H112V640Z" fill="#D2D2D2"/>
<path d="M128 640H144V656H128V640Z" fill="#C5C5C5"/>
<path d="M144 640H160V656H144V640Z" fill="#C5C5C5"/>
<path d="M160 640H176V656H160V640Z" fill="#C5C5C5"/>
<path d="M176 640H192V656H176V640Z" fill="#BCBCBC"/>
<path d="M192 640H208V656H192V640Z" fill="#BCBCBC"/>
<path d="M208 640H224V656H208V640Z" fill="#BCBCBC"/>
<path d="M224 640H240V656H224V640Z" fill="#BCBCBC"/>
<path d="M240 640H256V656H240V640Z" fill="#BCBCBC"/>
<path d="M256 640H272V656H256V640Z" fill="#BCBCBC"/>
<path d="M272 640H288V656H272V640Z" fill="#BCBCBC"/>
<path d="M288 640H304V656H288V640Z" fill="#BCBCBC"/>
<path d="M304 640H320V656H304V640Z" fill="#BCBCBC"/>
<path d="M320 640H336V656H320V640Z" fill="#BCBCBC"/>
<path d="M336 640H352V656H336V640Z" fill="#BCBCBC"/>
<path d="M352 640H368V656H352V640Z" fill="#BCBCBC"/>
<path d="M368 640H384V656H368V640Z" fill="#C5C5C5"/>
<path d="M384 640H400V656H384V640Z" fill="#C9C9C9"/>
<path d="M400 640H416V656H400V640Z" fill="#C9C9C9"/>
<path d="M416 640H432V656H416V640Z" fill="#C9C9C9"/>
<path d="M432 640H448V656H432V640Z" fill="#CECECE"/>
<path d="M448 640H464V656H448V640Z" fill="#CECECE"/>
<path d="M464 640H480V656H464V640Z" fill="#C9C9C9"/>
<path d="M480 640H496V656H480V640Z" fill="#CECECE"/>
<path d="M496 640H512V656H496V640Z" fill="#D2D2D2"/>
<path d="M512 640H528V656H512V640Z" fill="#D2D2D2"/>
<path d="M528 640H544V656H528V640Z" fill="#D2D2D2"/>
<path d="M544 640H560V656H544V640Z" fill="#D2D2D2"/>
<path d="M560 640H576V656H560V640Z" fill="#6A6A6A"/>
<path d="M0 656H16V672H0V656Z" fill="#C9C9C9"/>
<path d="M16 656H32V672H16V656Z" fill="#C9C9C9"/>
<path d="M32 656H48V672H32V656Z" fill="#C9C9C9"/>
<path d="M48 656H64V672H48V656Z" fill="#C9C9C9"/>
<path d="M64 656H80V672H64V656Z" fill="#C9C9C9"/>
<path d="M80 656H96V672H80V656Z" fill="#C9C9C9"/>
<path d="M96 656H112V672H96V656Z" fill="#6A6A6A"/>
<path d="M112 656H128V672H112V656Z" fill="#D2D2D2"/>
<path d="M128 656H144V672H128V656Z" fill="#C5C5C5"/>
<path d="M144 656H160V672H144V656Z" fill="#BCBCBC"/>
<path d="M160 656H176V672H160V656Z" fill="#BCBCBC"/>
<path d="M176 656H192V672H176V656Z" fill="#BCBCBC"/>
<path d="M192 656H208V672H192V656Z" fill="#BCBCBC"/>
<path d="M208 656H224V672H208V656Z" fill="#BCBCBC"/>
<path d="M224 656H240V672H224V656Z" fill="#BCBCBC"/>
<path d="M240 656H256V672H240V656Z" fill="#BCBCBC"/>
<path d="M256 656H272V672H256V656Z" fill="#BCBCBC"/>
<path d="M272 656H288V672H272V656Z" fill="#BCBCBC"/>
<path d="M288 656H304V672H288V656Z" fill="#BCBCBC"/>
<path d="M304 656H320V672H304V656Z" fill="#BCBCBC"/>
<path d="M320 656H336V672H320V656Z" fill="#BCBCBC"/>
<path d="M336 656H352V672H336V656Z" fill="#BCBCBC"/>
<path d="M352 656H368V672H352V656Z" fill="#BCBCBC"/>
<path d="M368 656H384V672H368V656Z" fill="#C5C5C5"/>
<path d="M384 656H400V672H384V656Z" fill="#C9C9C9"/>
<path d="M400 656H416V672H400V656Z" fill="#C9C9C9"/>
<path d="M416 656H432V672H416V656Z" fill="#C9C9C9"/>
<path d="M432 656H448V672H432V656Z" fill="#C9C9C9"/>
<path d="M448 656H464V672H448V656Z" fill="#CECECE"/>
<path d="M464 656H480V672H464V656Z" fill="#C9C9C9"/>
<path d="M480 656H496V672H480V656Z" fill="#D2D2D2"/>
<path d="M496 656H512V672H496V656Z" fill="#D2D2D2"/>
<path d="M512 656H528V672H512V656Z" fill="#D2D2D2"/>
<path d="M528 656H544V672H528V656Z" fill="#D2D2D2"/>
<path d="M544 656H560V672H544V656Z" fill="#6A6A6A"/>
<path d="M0 672H16V688H0V672Z" fill="#C9C9C9"/>
<path d="M16 672H32V688H16V672Z" fill="#C9C9C9"/>
<path d="M32 672H48V688H32V672Z" fill="#C9C9C9"/>
<path d="M48 672H64V688H48V672Z" fill="#C9C9C9"/>
<path d="M64 672H80V688H64V672Z" fill="#C9C9C9"/>
<path d="M80 672H96V688H80V672Z" fill="#C9C9C9"/>
<path d="M96 672H112V688H96V672Z" fill="#C9C9C9"/>
<path d="M112 672H128V688H112V672Z" fill="#6A6A6A"/>
<path d="M128 672H144V688H128V672Z" fill="#6A6A6A"/>
<path d="M144 672H160V688H144V672Z" fill="#C5C5C5"/>
<path d="M160 672H176V688H160V672Z" fill="#C5C5C5"/>
<path d="M176 672H192V688H176V672Z" fill="#BCBCBC"/>
<path d="M192 672H208V688H192V672Z" fill="#BCBCBC"/>
<path d="M208 672H224V688H208V672Z" fill="#BCBCBC"/>
<path d="M224 672H240V688H224V672Z" fill="#BCBCBC"/>
<path d="M240 672H256V688H240V672Z" fill="#BCBCBC"/>
<path d="M256 672H272V688H256V672Z" fill="#BCBCBC"/>
<path d="M272 672H288V688H272V672Z" fill="#BCBCBC"/>
<path d="M288 672H304V688H288V672Z" fill="#BCBCBC"/>
<path d="M304 672H320V688H304V672Z" fill="#BCBCBC"/>
<path d="M320 672H336V688H320V672Z" fill="#BCBCBC"/>
<path d="M336 672H352V688H336V672Z" fill="#BCBCBC"/>
<path d="M352 672H368V688H352V672Z" fill="#BCBCBC"/>
<path d="M368 672H384V688H368V672Z" fill="#BCBCBC"/>
<path d="M384 672H400V688H384V672Z" fill="#BCBCBC"/>
<path d="M400 672H416V688H400V672Z" fill="#C9C9C9"/>
<path d="M416 672H432V688H416V672Z" fill="#C9C9C9"/>
<path d="M432 672H448V688H432V672Z" fill="#C9C9C9"/>
<path d="M448 672H464V688H448V672Z" fill="#CECECE"/>
<path d="M464 672H480V688H464V672Z" fill="#D2D2D2"/>
<path d="M480 672H496V688H480V672Z" fill="#D2D2D2"/>
<path d="M496 672H512V688H496V672Z" fill="#D2D2D2"/>
<path d="M512 672H528V688H512V672Z" fill="#D2D2D2"/>
<path d="M528 672H544V688H528V672Z" fill="#6A6A6A"/>
<path d="M16 688H32V704H16V688Z" fill="#C9C9C9"/>
<path d="M32 688H48V704H32V688Z" fill="#C9C9C9"/>
<path d="M48 688H64V704H48V688Z" fill="#C9C9C9"/>
<path d="M64 688H80V704H64V688Z" fill="#C9C9C9"/>
<path d="M80 688H96V704H80V688Z" fill="#C9C9C9"/>
<path d="M96 688H112V704H96V688Z" fill="#C9C9C9"/>
<path d="M112 688H128V704H112V688Z" fill="#C9C9C9"/>
<path d="M128 688H144V704H128V688Z" fill="#C9C9C9"/>
<path d="M144 688H160V704H144V688Z" fill="#6A6A6A"/>
<path d="M160 688H176V704H160V688Z" fill="#BCBCBC"/>
<path d="M176 688H192V704H176V688Z" fill="#BCBCBC"/>
<path d="M192 688H208V704H192V688Z" fill="#BCBCBC"/>
<path d="M208 688H224V704H208V688Z" fill="#BCBCBC"/>
<path d="M224 688H240V704H224V688Z" fill="#BCBCBC"/>
<path d="M240 688H256V704H240V688Z" fill="#BCBCBC"/>
<path d="M256 688H272V704H256V688Z" fill="#BCBCBC"/>
<path d="M272 688H288V704H272V688Z" fill="#BCBCBC"/>
<path d="M288 688H304V704H288V688Z" fill="#BCBCBC"/>
<path d="M304 688H320V704H304V688Z" fill="#BCBCBC"/>
<path d="M320 688H336V704H320V688Z" fill="#BCBCBC"/>
<path d="M336 688H352V704H336V688Z" fill="#BCBCBC"/>
<path d="M352 688H368V704H352V688Z" fill="#BCBCBC"/>
<path d="M368 688H384V704H368V688Z" fill="#BCBCBC"/>
<path d="M384 688H400V704H384V688Z" fill="#BCBCBC"/>
<path d="M400 688H416V704H400V688Z" fill="#BCBCBC"/>
<path d="M416 688H432V704H416V688Z" fill="#CECECE"/>
<path d="M432 688H448V704H432V688Z" fill="#CECECE"/>
<path d="M448 688H464V704H448V688Z" fill="#CECECE"/>
<path d="M464 688H480V704H464V688Z" fill="#D2D2D2"/>
<path d="M480 688H496V704H480V688Z" fill="#D2D2D2"/>
<path d="M496 688H512V704H496V688Z" fill="#D2D2D2"/>
<path d="M512 688H528V704H512V688Z" fill="#6A6A6A"/>
<path d="M16 704H32V720H16V704Z" fill="#C9C9C9"/>
<path d="M32 704H48V720H32V704Z" fill="#C9C9C9"/>
<path d="M48 704H64V720H48V704Z" fill="#C9C9C9"/>
<path d="M64 704H80V720H64V704Z" fill="#C9C9C9"/>
<path d="M80 704H96V720H80V704Z" fill="#C9C9C9"/>
<path d="M96 704H112V720H96V704Z" fill="#C9C9C9"/>
<path d="M112 704H128V720H112V704Z" fill="#C9C9C9"/>
<path d="M128 704H144V720H128V704Z" fill="#C9C9C9"/>
<path d="M144 704H160V720H144V704Z" fill="#C9C9C9"/>
<path d="M160 704H176V720H160V704Z" fill="#6A6A6A"/>
<path d="M176 704H192V720H176V704Z" fill="#BCBCBC"/>
<path d="M192 704H208V720H192V704Z" fill="#BCBCBC"/>
<path d="M208 704H224V720H208V704Z" fill="#BCBCBC"/>
<path d="M224 704H240V720H224V704Z" fill="#BCBCBC"/>
<path d="M240 704H256V720H240V704Z" fill="#BCBCBC"/>
<path d="M256 704H272V720H256V704Z" fill="#BCBCBC"/>
<path d="M272 704H288V720H272V704Z" fill="#BCBCBC"/>
<path d="M288 704H304V720H288V704Z" fill="#BCBCBC"/>
<path d="M304 704H320V720H304V704Z" fill="#BCBCBC"/>
<path d="M320 704H336V720H320V704Z" fill="#BCBCBC"/>
<path d="M336 704H352V720H336V704Z" fill="#BCBCBC"/>
<path d="M352 704H368V720H352V704Z" fill="#BCBCBC"/>
<path d="M368 704H384V720H368V704Z" fill="#BCBCBC"/>
<path d="M384 704H400V720H384V704Z" fill="#BCBCBC"/>
<path d="M400 704H416V720H400V704Z" fill="#BCBCBC"/>
<path d="M416 704H432V720H416V704Z" fill="#CECECE"/>
<path d="M432 704H448V720H432V704Z" fill="#CECECE"/>
<path d="M448 704H464V720H448V704Z" fill="#D2D2D2"/>
<path d="M464 704H480V720H464V704Z" fill="#D2D2D2"/>
<path d="M480 704H496V720H480V704Z" fill="#D2D2D2"/>
<path d="M496 704H512V720H496V704Z" fill="#6A6A6A"/>
<path d="M512 704H528V720H512V704Z" fill="#C9C9C9"/>
<path d="M16 720H32V736H16V720Z" fill="#C9C9C9"/>
<path d="M32 720H48V736H32V720Z" fill="#C9C9C9"/>
<path d="M48 720H64V736H48V720Z" fill="#C9C9C9"/>
<path d="M64 720H80V736H64V720Z" fill="#C9C9C9"/>
<path d="M80 720H96V736H80V720Z" fill="#C9C9C9"/>
<path d="M96 720H112V736H96V720Z" fill="#C9C9C9"/>
<path d="M112 720H128V736H112V720Z" fill="#C9C9C9"/>
<path d="M128 720H144V736H128V720Z" fill="#C9C9C9"/>
<path d="M144 720H160V736H144V720Z" fill="#C9C9C9"/>
<path d="M160 720H176V736H160V720Z" fill="#C9C9C9"/>
<path d="M176 720H192V736H176V720Z" fill="#6A6A6A"/>
<path d="M192 720H208V736H192V720Z" fill="#6A6A6A"/>
<path d="M208 720H224V736H208V720Z" fill="#BCBCBC"/>
<path d="M224 720H240V736H224V720Z" fill="#BCBCBC"/>
<path d="M240 720H256V736H240V720Z" fill="#BCBCBC"/>
<path d="M256 720H272V736H256V720Z" fill="#BCBCBC"/>
<path d="M272 720H288V736H272V720Z" fill="#BCBCBC"/>
<path d="M288 720H304V736H288V720Z" fill="#BCBCBC"/>
<path d="M304 720H320V736H304V720Z" fill="#BCBCBC"/>
<path d="M320 720H336V736H320V720Z" fill="#BCBCBC"/>
<path d="M336 720H352V736H336V720Z" fill="#BCBCBC"/>
<path d="M352 720H368V736H352V720Z" fill="#BCBCBC"/>
<path d="M368 720H384V736H368V720Z" fill="#BCBCBC"/>
<path d="M384 720H400V736H384V720Z" fill="#BCBCBC"/>
<path d="M400 720H416V736H400V720Z" fill="#BCBCBC"/>
<path d="M416 720H432V736H416V720Z" fill="#D2D2D2"/>
<path d="M432 720H448V736H432V720Z" fill="#D2D2D2"/>
<path d="M448 720H464V736H448V720Z" fill="#D2D2D2"/>
<path d="M464 720H480V736H464V720Z" fill="#D2D2D2"/>
<path d="M480 720H496V736H480V720Z" fill="#6A6A6A"/>
<path d="M496 720H512V736H496V720Z" fill="#C9C9C9"/>
<path d="M512 720H528V736H512V720Z" fill="#C9C9C9"/>
<path d="M32 736H48V752H32V736Z" fill="#C9C9C9"/>
<path d="M48 736H64V752H48V736Z" fill="#C9C9C9"/>
<path d="M64 736H80V752H64V736Z" fill="#C9C9C9"/>
<path d="M80 736H96V752H80V736Z" fill="#C9C9C9"/>
<path d="M96 736H112V752H96V736Z" fill="#C9C9C9"/>
<path d="M112 736H128V752H112V736Z" fill="#C9C9C9"/>
<path d="M128 736H144V752H128V736Z" fill="#C9C9C9"/>
<path d="M144 736H160V752H144V736Z" fill="#C9C9C9"/>
<path d="M160 736H176V752H160V736Z" fill="#C9C9C9"/>
<path d="M176 736H192V752H176V736Z" fill="#C9C9C9"/>
<path d="M192 736H208V752H192V736Z" fill="#C9C9C9"/>
<path d="M208 736H224V752H208V736Z" fill="#6A6A6A"/>
<path d="M224 736H240V752H224V736Z" fill="#BCBCBC"/>
<path d="M240 736H256V752H240V736Z" fill="#BCBCBC"/>
<path d="M256 736H272V752H256V736Z" fill="#BCBCBC"/>
<path d="M272 736H288V752H272V736Z" fill="#BCBCBC"/>
<path d="M288 736H304V752H288V736Z" fill="#BCBCBC"/>
<path d="M304 736H320V752H304V736Z" fill="#BCBCBC"/>
<path d="M320 736H336V752H320V736Z" fill="#BCBCBC"/>
<path d="M336 736H352V752H336V736Z" fill="#BCBCBC"/>
<path d="M352 736H368V752H352V736Z" fill="#BCBCBC"/>
<path d="M368 736H384V752H368V736Z" fill="#BCBCBC"/>
<path d="M384 736H400V752H384V736Z" fill="#BCBCBC"/>
<path d="M400 736H416V752H400V736Z" fill="#D2D2D2"/>
<path d="M416 736H432V752H416V736Z" fill="#D2D2D2"/>
<path d="M432 736H448V752H432V736Z" fill="#D2D2D2"/>
<path d="M448 736H464V752H448V736Z" fill="#D2D2D2"/>
<path d="M464 736H480V752H464V736Z" fill="#D2D2D2"/>
<path d="M480 736H496V752H480V736Z" fill="#6A6A6A"/>
<path d="M496 736H512V752H496V736Z" fill="#C9C9C9"/>
<path d="M48 752H64V768H48V752Z" fill="#C9C9C9"/>
<path d="M64 752H80V768H64V752Z" fill="#C9C9C9"/>
<path d="M80 752H96V768H80V752Z" fill="#C9C9C9"/>
<path d="M96 752H112V768H96V752Z" fill="#C9C9C9"/>
<path d="M112 752H128V768H112V752Z" fill="#C9C9C9"/>
<path d="M128 752H144V768H128V752Z" fill="#C9C9C9"/>
<path d="M144 752H160V768H144V752Z" fill="#C9C9C9"/>
<path d="M160 752H176V768H160V752Z" fill="#C9C9C9"/>
<path d="M176 752H192V768H176V752Z" fill="#C9C9C9"/>
<path d="M192 752H208V768H192V752Z" fill="#C9C9C9"/>
<path d="M208 752H224V768H208V752Z" fill="#C9C9C9"/>
<path d="M224 752H240V768H224V752Z" fill="#6A6A6A"/>
<path d="M240 752H256V768H240V752Z" fill="#BCBCBC"/>
<path d="M256 752H272V768H256V752Z" fill="#BCBCBC"/>
<path d="M272 752H288V768H272V752Z" fill="#BCBCBC"/>
<path d="M288 752H304V768H288V752Z" fill="#BCBCBC"/>
<path d="M304 752H320V768H304V752Z" fill="#BCBCBC"/>
<path d="M320 752H336V768H320V752Z" fill="#BCBCBC"/>
<path d="M336 752H352V768H336V752Z" fill="#BCBCBC"/>
<path d="M352 752H368V768H352V752Z" fill="#BCBCBC"/>
<path d="M368 752H384V768H368V752Z" fill="#BCBCBC"/>
<path d="M384 752H400V768H384V752Z" fill="#D2D2D2"/>
<path d="M400 752H416V768H400V752Z" fill="#D2D2D2"/>
<path d="M416 752H432V768H416V752Z" fill="#D2D2D2"/>
<path d="M432 752H448V768H432V752Z" fill="#D2D2D2"/>
<path d="M448 752H464V768H448V752Z" fill="#6A6A6A"/>
<path d="M464 752H480V768H464V752Z" fill="#6A6A6A"/>
<path d="M480 752H496V768H480V752Z" fill="#C9C9C9"/>
<path d="M496 752H512V768H496V752Z" fill="#C9C9C9"/>
<path d="M64 768H80V784H64V768Z" fill="#C9C9C9"/>
<path d="M80 768H96V784H80V768Z" fill="#C9C9C9"/>
<path d="M96 768H112V784H96V768Z" fill="#C9C9C9"/>
<path d="M112 768H128V784H112V768Z" fill="#C9C9C9"/>
<path d="M128 768H144V784H128V768Z" fill="#C9C9C9"/>
<path d="M144 768H160V784H144V768Z" fill="#C9C9C9"/>
<path d="M160 768H176V784H160V768Z" fill="#C9C9C9"/>
<path d="M176 768H192V784H176V768Z" fill="#C9C9C9"/>
<path d="M192 768H208V784H192V768Z" fill="#C9C9C9"/>
<path d="M208 768H224V784H208V768Z" fill="#C9C9C9"/>
<path d="M224 768H240V784H224V768Z" fill="#C9C9C9"/>
<path d="M240 768H256V784H240V768Z" fill="#6A6A6A"/>
<path d="M256 768H272V784H256V768Z" fill="#6A6A6A"/>
<path d="M272 768H288V784H272V768Z" fill="#BCBCBC"/>
<path d="M288 768H304V784H288V768Z" fill="#BCBCBC"/>
<path d="M304 768H320V784H304V768Z" fill="#BCBCBC"/>
<path d="M320 768H336V784H320V768Z" fill="#BCBCBC"/>
<path d="M336 768H352V784H336V768Z" fill="#BCBCBC"/>
<path d="M352 768H368V784H352V768Z" fill="#BCBCBC"/>
<path d="M368 768H384V784H368V768Z" fill="#D2D2D2"/>
<path d="M384 768H400V784H384V768Z" fill="#D2D2D2"/>
<path d="M400 768H416V784H400V768Z" fill="#D2D2D2"/>
<path d="M416 768H432V784H416V768Z" fill="#D2D2D2"/>
<path d="M432 768H448V784H432V768Z" fill="#6A6A6A"/>
<path d="M448 768H464V784H448V768Z" fill="#C9C9C9"/>
<path d="M464 768H480V784H464V768Z" fill="#C9C9C9"/>
<path d="M480 768H496V784H480V768Z" fill="#C9C9C9"/>
<path d="M496 768H512V784H496V768Z" fill="#C9C9C9"/>
<path d="M64 784H80V800H64V784Z" fill="#C9C9C9"/>
<path d="M80 784H96V800H80V784Z" fill="#C9C9C9"/>
<path d="M96 784H112V800H96V784Z" fill="#C9C9C9"/>
<path d="M112 784H128V800H112V784Z" fill="#C9C9C9"/>
<path d="M128 784H144V800H128V784Z" fill="#C9C9C9"/>
<path d="M144 784H160V800H144V784Z" fill="#C9C9C9"/>
<path d="M160 784H176V800H160V784Z" fill="#C9C9C9"/>
<path d="M176 784H192V800H176V784Z" fill="#C9C9C9"/>
<path d="M192 784H208V800H192V784Z" fill="#C9C9C9"/>
<path d="M208 784H224V800H208V784Z" fill="#C9C9C9"/>
<path d="M224 784H240V800H224V784Z" fill="#C9C9C9"/>
<path d="M240 784H256V800H240V784Z" fill="#C9C9C9"/>
<path d="M256 784H272V800H256V784Z" fill="#C9C9C9"/>
<path d="M272 784H288V800H272V784Z" fill="#6A6A6A"/>
<path d="M288 784H304V800H288V784Z" fill="#BCBCBC"/>
<path d="M304 784H320V800H304V784Z" fill="#BCBCBC"/>
<path d="M320 784H336V800H320V784Z" fill="#BCBCBC"/>
<path d="M336 784H352V800H336V784Z" fill="#BCBCBC"/>
<path d="M352 784H368V800H352V784Z" fill="#D2D2D2"/>
<path d="M368 784H384V800H368V784Z" fill="#D2D2D2"/>
<path d="M384 784H400V800H384V784Z" fill="#D2D2D2"/>
<path d="M400 784H416V800H400V784Z" fill="#D2D2D2"/>
<path d="M416 784H432V800H416V784Z" fill="#6A6A6A"/>
<path d="M432 784H448V800H432V784Z" fill="#C9C9C9"/>
<path d="M448 784H464V800H448V784Z" fill="#C9C9C9"/>
<path d="M464 784H480V800H464V784Z" fill="#C9C9C9"/>
<path d="M480 784H496V800H480V784Z" fill="#C9C9C9"/>
<path d="M496 784H512V800H496V784Z" fill="#C9C9C9"/>
<path d="M80 800H96V816H80V800Z" fill="#C9C9C9"/>
<path d="M96 800H112V816H96V800Z" fill="#C9C9C9"/>
<path d="M112 800H128V816H112V800Z" fill="#C9C9C9"/>
<path d="M128 800H144V816H128V800Z" fill="#C9C9C9"/>
<path d="M144 800H160V816H144V800Z" fill="#C9C9C9"/>
<path d="M160 800H176V816H160V800Z" fill="#C9C9C9"/>
<path d="M176 800H192V816H176V800Z" fill="#C9C9C9"/>
<path d="M192 800H208V816H192V800Z" fill="#C9C9C9"/>
<path d="M208 800H224V816H208V800Z" fill="#C9C9C9"/>
<path d="M224 800H240V816H224V800Z" fill="#C9C9C9"/>
<path d="M240 800H256V816H240V800Z" fill="#C9C9C9"/>
<path d="M256 800H272V816H256V800Z" fill="#C9C9C9"/>
<path d="M272 800H288V816H272V800Z" fill="#C9C9C9"/>
<path d="M288 800H304V816H288V800Z" fill="#6A6A6A"/>
<path d="M304 800H320V816H304V800Z" fill="#BCBCBC"/>
<path d="M320 800H336V816H320V800Z" fill="#BCBCBC"/>
<path d="M336 800H352V816H336V800Z" fill="#D2D2D2"/>
<path d="M352 800H368V816H352V800Z" fill="#D2D2D2"/>
<path d="M368 800H384V816H368V800Z" fill="#D2D2D2"/>
<path d="M384 800H400V816H384V800Z" fill="#D2D2D2"/>
<path d="M400 800H416V816H400V800Z" fill="#6A6A6A"/>
<path d="M416 800H432V816H416V800Z" fill="#C9C9C9"/>
<path d="M432 800H448V816H432V800Z" fill="#C9C9C9"/>
<path d="M448 800H464V816H448V800Z" fill="#C9C9C9"/>
<path d="M464 800H480V816H464V800Z" fill="#C9C9C9"/>
<path d="M480 800H496V816H480V800Z" fill="#C9C9C9"/>
<path d="M80 816H96V832H80V816Z" fill="#C9C9C9"/>
<path d="M96 816H112V832H96V816Z" fill="#C9C9C9"/>
<path d="M112 816H128V832H112V816Z" fill="#C9C9C9"/>
<path d="M128 816H144V832H128V816Z" fill="#C9C9C9"/>
<path d="M144 816H160V832H144V816Z" fill="#C9C9C9"/>
<path d="M160 816H176V832H160V816Z" fill="#C9C9C9"/>
<path d="M176 816H192V832H176V816Z" fill="#C9C9C9"/>
<path d="M192 816H208V832H192V816Z" fill="#C9C9C9"/>
<path d="M208 816H224V832H208V816Z" fill="#C9C9C9"/>
<path d="M224 816H240V832H224V816Z" fill="#C9C9C9"/>
<path d="M240 816H256V832H240V816Z" fill="#C9C9C9"/>
<path d="M256 816H272V832H256V816Z" fill="#C9C9C9"/>
<path d="M272 816H288V832H272V816Z" fill="#C9C9C9"/>
<path d="M288 816H304V832H288V816Z" fill="#C9C9C9"/>
<path d="M304 816H320V832H304V816Z" fill="#6A6A6A"/>
<path d="M320 816H336V832H320V816Z" fill="#6A6A6A"/>
<path d="M336 816H352V832H336V816Z" fill="#D2D2D2"/>
<path d="M352 816H368V832H352V816Z" fill="#D2D2D2"/>
<path d="M368 816H384V832H368V816Z" fill="#D2D2D2"/>
<path d="M384 816H400V832H384V816Z" fill="#6A6A6A"/>
<path d="M400 816H416V832H400V816Z" fill="#C9C9C9"/>
<path d="M416 816H432V832H416V816Z" fill="#C9C9C9"/>
<path d="M432 816H448V832H432V816Z" fill="#C9C9C9"/>
<path d="M448 816H464V832H448V816Z" fill="#C9C9C9"/>
<path d="M464 816H480V832H464V816Z" fill="#C9C9C9"/>
<path d="M480 816H496V832H480V816Z" fill="#C9C9C9"/>
<path d="M96 832H112V848H96V832Z" fill="#C9C9C9"/>
<path d="M112 832H128V848H112V832Z" fill="#C9C9C9"/>
<path d="M128 832H144V848H128V832Z" fill="#C9C9C9"/>
<path d="M144 832H160V848H144V832Z" fill="#C9C9C9"/>
<path d="M160 832H176V848H160V832Z" fill="#C9C9C9"/>
<path d="M176 832H192V848H176V832Z" fill="#C9C9C9"/>
<path d="M192 832H208V848H192V832Z" fill="#C9C9C9"/>
<path d="M208 832H224V848H208V832Z" fill="#C9C9C9"/>
<path d="M224 832H240V848H224V832Z" fill="#C9C9C9"/>
<path d="M240 832H256V848H240V832Z" fill="#C9C9C9"/>
<path d="M256 832H272V848H256V832Z" fill="#C9C9C9"/>
<path d="M272 832H288V848H272V832Z" fill="#C9C9C9"/>
<path d="M288 832H304V848H288V832Z" fill="#C9C9C9"/>
<path d="M304 832H320V848H304V832Z" fill="#C9C9C9"/>
<path d="M320 832H336V848H320V832Z" fill="#C9C9C9"/>
<path d="M336 832H352V848H336V832Z" fill="#6A6A6A"/>
<path d="M352 832H368V848H352V832Z" fill="#6A6A6A"/>
<path d="M368 832H384V848H368V832Z" fill="#6A6A6A"/>
<path d="M384 832H400V848H384V832Z" fill="#C9C9C9"/>
<path d="M400 832H416V848H400V832Z" fill="#C9C9C9"/>
<path d="M416 832H432V848H416V832Z" fill="#C9C9C9"/>
<path d="M432 832H448V848H432V832Z" fill="#C9C9C9"/>
<path d="M448 832H464V848H448V832Z" fill="#C9C9C9"/>
<path d="M464 832H480V848H464V832Z" fill="#C9C9C9"/>
<path d="M112 848H128V864H112V848Z" fill="#C9C9C9"/>
<path d="M128 848H144V864H128V848Z" fill="#C9C9C9"/>
<path d="M144 848H160V864H144V848Z" fill="#C9C9C9"/>
<path d="M160 848H176V864H160V848Z" fill="#C9C9C9"/>
<path d="M176 848H192V864H176V848Z" fill="#C9C9C9"/>
<path d="M192 848H208V864H192V848Z" fill="#C9C9C9"/>
<path d="M208 848H224V864H208V848Z" fill="#C9C9C9"/>
<path d="M224 848H240V864H224V848Z" fill="#C9C9C9"/>
<path d="M240 848H256V864H240V848Z" fill="#C9C9C9"/>
<path d="M256 848H272V864H256V848Z" fill="#C9C9C9"/>
<path d="M272 848H288V864H272V848Z" fill="#C9C9C9"/>
<path d="M288 848H304V864H288V848Z" fill="#C9C9C9"/>
<path d="M304 848H320V864H304V848Z" fill="#C9C9C9"/>
<path d="M320 848H336V864H320V848Z" fill="#C9C9C9"/>
<path d="M336 848H352V864H336V848Z" fill="#C9C9C9"/>
<path d="M352 848H368V864H352V848Z" fill="#C9C9C9"/>
<path d="M368 848H384V864H368V848Z" fill="#C9C9C9"/>
<path d="M384 848H400V864H384V848Z" fill="#C9C9C9"/>
<path d="M400 848H416V864H400V848Z" fill="#C9C9C9"/>
<path d="M416 848H432V864H416V848Z" fill="#C9C9C9"/>
<path d="M432 848H448V864H432V848Z" fill="#C9C9C9"/>
<path d="M448 848H464V864H448V848Z" fill="#C9C9C9"/>
<path d="M464 848H480V864H464V848Z" fill="#C9C9C9"/>
<path d="M128 864H144V880H128V864Z" fill="#C9C9C9"/>
<path d="M144 864H160V880H144V864Z" fill="#C9C9C9"/>
<path d="M160 864H176V880H160V864Z" fill="#C9C9C9"/>
<path d="M176 864H192V880H176V864Z" fill="#C9C9C9"/>
<path d="M192 864H208V880H192V864Z" fill="#C9C9C9"/>
<path d="M208 864H224V880H208V864Z" fill="#C9C9C9"/>
<path d="M224 864H240V880H224V864Z" fill="#C9C9C9"/>
<path d="M240 864H256V880H240V864Z" fill="#C9C9C9"/>
<path d="M256 864H272V880H256V864Z" fill="#C9C9C9"/>
<path d="M272 864H288V880H272V864Z" fill="#C9C9C9"/>
<path d="M288 864H304V880H288V864Z" fill="#C9C9C9"/>
<path d="M304 864H320V880H304V864Z" fill="#C9C9C9"/>
<path d="M320 864H336V880H320V864Z" fill="#C9C9C9"/>
<path d="M336 864H352V880H336V864Z" fill="#C9C9C9"/>
<path d="M352 864H368V880H352V864Z" fill="#C9C9C9"/>
<path d="M368 864H384V880H368V864Z" fill="#C9C9C9"/>
<path d="M384 864H400V880H384V864Z" fill="#C9C9C9"/>
<path d="M400 864H416V880H400V864Z" fill="#C9C9C9"/>
<path d="M416 864H432V880H416V864Z" fill="#C9C9C9"/>
<path d="M432 864H448V880H432V864Z" fill="#C9C9C9"/>
<path d="M448 864H464V880H448V864Z" fill="#C9C9C9"/>
<path d="M144 880H160V896H144V880Z" fill="#C9C9C9"/>
<path d="M160 880H176V896H160V880Z" fill="#C9C9C9"/>
<path d="M176 880H192V896H176V880Z" fill="#C9C9C9"/>
<path d="M192 880H208V896H192V880Z" fill="#C9C9C9"/>
<path d="M208 880H224V896H208V880Z" fill="#C9C9C9"/>
<path d="M224 880H240V896H224V880Z" fill="#C9C9C9"/>
<path d="M240 880H256V896H240V880Z" fill="#C9C9C9"/>
<path d="M256 880H272V896H256V880Z" fill="#C9C9C9"/>
<path d="M272 880H288V896H272V880Z" fill="#C9C9C9"/>
<path d="M288 880H304V896H288V880Z" fill="#C9C9C9"/>
<path d="M304 880H320V896H304V880Z" fill="#C9C9C9"/>
<path d="M320 880H336V896H320V880Z" fill="#C9C9C9"/>
<path d="M336 880H352V896H336V880Z" fill="#C9C9C9"/>
<path d="M352 880H368V896H352V880Z" fill="#C9C9C9"/>
<path d="M368 880H384V896H368V880Z" fill="#C9C9C9"/>
<path d="M384 880H400V896H384V880Z" fill="#C9C9C9"/>
<path d="M400 880H416V896H400V880Z" fill="#C9C9C9"/>
<path d="M416 880H432V896H416V880Z" fill="#C9C9C9"/>
<path d="M432 880H448V896H432V880Z" fill="#C9C9C9"/>
<path d="M160 896H176V912H160V896Z" fill="#C9C9C9"/>
<path d="M176 896H192V912H176V896Z" fill="#C9C9C9"/>
<path d="M192 896H208V912H192V896Z" fill="#C9C9C9"/>
<path d="M208 896H224V912H208V896Z" fill="#C9C9C9"/>
<path d="M224 896H240V912H224V896Z" fill="#C9C9C9"/>
<path d="M240 896H256V912H240V896Z" fill="#C9C9C9"/>
<path d="M256 896H272V912H256V896Z" fill="#C9C9C9"/>
<path d="M272 896H288V912H272V896Z" fill="#C9C9C9"/>
<path d="M288 896H304V912H288V896Z" fill="#C9C9C9"/>
<path d="M304 896H320V912H304V896Z" fill="#C9C9C9"/>
<path d="M320 896H336V912H320V896Z" fill="#C9C9C9"/>
<path d="M336 896H352V912H336V896Z" fill="#C9C9C9"/>
<path d="M352 896H368V912H352V896Z" fill="#C9C9C9"/>
<path d="M368 896H384V912H368V896Z" fill="#C9C9C9"/>
<path d="M384 896H400V912H384V896Z" fill="#C9C9C9"/>
<path d="M400 896H416V912H400V896Z" fill="#C9C9C9"/>
<path d="M416 896H432V912H416V896Z" fill="#C9C9C9"/>
<path d="M176 912H192V928H176V912Z" fill="#C9C9C9"/>
<path d="M192 912H208V928H192V912Z" fill="#C9C9C9"/>
<path d="M208 912H224V928H208V912Z" fill="#C9C9C9"/>
<path d="M224 912H240V928H224V912Z" fill="#C9C9C9"/>
<path d="M240 912H256V928H240V912Z" fill="#C9C9C9"/>
<path d="M256 912H272V928H256V912Z" fill="#C9C9C9"/>
<path d="M272 912H288V928H272V912Z" fill="#C9C9C9"/>
<path d="M288 912H304V928H288V912Z" fill="#C9C9C9"/>
<path d="M304 912H320V928H304V912Z" fill="#C9C9C9"/>
<path d="M320 912H336V928H320V912Z" fill="#C9C9C9"/>
<path d="M336 912H352V928H336V912Z" fill="#C9C9C9"/>
<path d="M352 912H368V928H352V912Z" fill="#C9C9C9"/>
<path d="M368 912H384V928H368V912Z" fill="#C9C9C9"/>
<path d="M384 912H400V928H384V912Z" fill="#C9C9C9"/>
<path d="M400 912H416V928H400V912Z" fill="#C9C9C9"/>
<path d="M192 928H208V944H192V928Z" fill="#C9C9C9"/>
<path d="M208 928H224V944H208V928Z" fill="#C9C9C9"/>
<path d="M224 928H240V944H224V928Z" fill="#C9C9C9"/>
<path d="M240 928H256V944H240V928Z" fill="#C9C9C9"/>
<path d="M256 928H272V944H256V928Z" fill="#C9C9C9"/>
<path d="M272 928H288V944H272V928Z" fill="#C9C9C9"/>
<path d="M288 928H304V944H288V928Z" fill="#C9C9C9"/>
<path d="M304 928H320V944H304V928Z" fill="#C9C9C9"/>
<path d="M320 928H336V944H320V928Z" fill="#C9C9C9"/>
<path d="M336 928H352V944H336V928Z" fill="#C9C9C9"/>
<path d="M352 928H368V944H352V928Z" fill="#C9C9C9"/>
<path d="M368 928H384V944H368V928Z" fill="#C9C9C9"/>
<path d="M384 928H400V944H384V928Z" fill="#C9C9C9"/>
<path d="M224 944H240V960H224V944Z" fill="#C9C9C9"/>
<path d="M240 944H256V960H240V944Z" fill="#C9C9C9"/>
<path d="M256 944H272V960H256V944Z" fill="#C9C9C9"/>
<path d="M272 944H288V960H272V944Z" fill="#C9C9C9"/>
<path d="M288 944H304V960H288V944Z" fill="#C9C9C9"/>
<path d="M304 944H320V960H304V944Z" fill="#C9C9C9"/>
<path d="M320 944H336V960H320V944Z" fill="#C9C9C9"/>
<path d="M336 944H352V960H336V944Z" fill="#C9C9C9"/>
<path d="M352 944H368V960H352V944Z" fill="#C9C9C9"/>
<path d="M368 944H384V960H368V944Z" fill="#C9C9C9"/>
<path d="M272 960H288V976H272V960Z" fill="#C9C9C9"/>
<path d="M288 960H304V976H288V960Z" fill="#C9C9C9"/>
<path d="M304 960H320V976H304V960Z" fill="#C9C9C9"/>
</svg>
