<svg width="832" height="240" viewBox="0 0 832 240" fill="none" xmlns="http://www.w3.org/2000/svg">
<path d="M112 0H128V16H112V0Z" fill="#1D1D1D"/>
<path d="M128 0H144V16H128V0Z" fill="#2B2B2B"/>
<path d="M144 0H160V16H144V0Z" fill="#1D1D1D"/>
<path d="M160 0H176V16H160V0Z" fill="#2B2B2B"/>
<path d="M176 0H192V16H176V0Z" fill="#1D1D1D"/>
<path d="M192 0H208V16H192V0Z" fill="#2B2B2B"/>
<path d="M208 0H224V16H208V0Z" fill="#1D1D1D"/>
<path d="M528 0H544V16H528V0Z" fill="#1D1D1D"/>
<path d="M544 0H560V16H544V0Z" fill="#2B2B2B"/>
<path d="M560 0H576V16H560V0Z" fill="#1D1D1D"/>
<path d="M576 0H592V16H576V0Z" fill="#2B2B2B"/>
<path d="M592 0H608V16H592V0Z" fill="#1D1D1D"/>
<path d="M608 0H624V16H608V0Z" fill="#2B2B2B"/>
<path d="M624 0H640V16H624V0Z" fill="#1D1D1D"/>
<path d="M96 16H112V32H96V16Z" fill="#1D1D1D"/>
<path d="M112 16H128V32H112V16Z" fill="#107CD0"/>
<path d="M128 16H144V32H128V16Z" fill="#1D1D1D"/>
<path d="M144 16H160V32H144V16Z" fill="#107CD0"/>
<path d="M160 16H176V32H160V16Z" fill="#1D1D1D"/>
<path d="M176 16H192V32H176V16Z" fill="#107CD0"/>
<path d="M192 16H208V32H192V16Z" fill="#1D1D1D"/>
<path d="M208 16H224V32H208V16Z" fill="#107CD0"/>
<path d="M224 16H240V32H224V16Z" fill="#1D1D1D"/>
<path d="M240 16H256V32H240V16Z" fill="#2B2B2B"/>
<path d="M512 16H528V32H512V16Z" fill="#1D1D1D"/>
<path d="M528 16H544V32H528V16Z" fill="#107CD0"/>
<path d="M544 16H560V32H544V16Z" fill="#1D1D1D"/>
<path d="M560 16H576V32H560V16Z" fill="#107CD0"/>
<path d="M576 16H592V32H576V16Z" fill="#1D1D1D"/>
<path d="M592 16H608V32H592V16Z" fill="#107CD0"/>
<path d="M608 16H624V32H608V16Z" fill="#1D1D1D"/>
<path d="M624 16H640V32H624V16Z" fill="#107CD0"/>
<path d="M640 16H656V32H640V16Z" fill="#1D1D1D"/>
<path d="M656 16H672V32H656V16Z" fill="#2B2B2B"/>
<path d="M64 32H80V48H64V32Z" fill="#1E94F5"/>
<path d="M80 32H96V48H80V32Z" fill="#1E94F5"/>
<path d="M96 32H112V48H96V32Z" fill="#0983E2"/>
<path d="M112 32H128V48H112V32Z" fill="#086BCF"/>
<path d="M128 32H144V48H128V32Z" fill="#0983E2"/>
<path d="M144 32H160V48H144V32Z" fill="#086BCF"/>
<path d="M160 32H176V48H160V32Z" fill="#0983E2"/>
<path d="M176 32H192V48H176V32Z" fill="#086BCF"/>
<path d="M192 32H208V48H192V32Z" fill="#0983E2"/>
<path d="M208 32H224V48H208V32Z" fill="#086BCF"/>
<path d="M224 32H240V48H224V32Z" fill="#107CD0"/>
<path d="M240 32H256V48H240V32Z" fill="#107CD0"/>
<path d="M256 32H272V48H256V32Z" fill="#1D1D1D"/>
<path d="M480 32H496V48H480V32Z" fill="#1E94F5"/>
<path d="M496 32H512V48H496V32Z" fill="#1E94F5"/>
<path d="M512 32H528V48H512V32Z" fill="#0983E2"/>
<path d="M528 32H544V48H528V32Z" fill="#086BCF"/>
<path d="M544 32H560V48H544V32Z" fill="#0983E2"/>
<path d="M560 32H576V48H560V32Z" fill="#086BCF"/>
<path d="M576 32H592V48H576V32Z" fill="#0983E2"/>
<path d="M592 32H608V48H592V32Z" fill="#086BCF"/>
<path d="M608 32H624V48H608V32Z" fill="#0983E2"/>
<path d="M624 32H640V48H624V32Z" fill="#086BCF"/>
<path d="M640 32H656V48H640V32Z" fill="#107CD0"/>
<path d="M656 32H672V48H656V32Z" fill="#107CD0"/>
<path d="M672 32H688V48H672V32Z" fill="#1D1D1D"/>
<path d="M32 48H48V64H32V48Z" fill="#1E94F5"/>
<path d="M48 48H64V64H48V48Z" fill="#1E94F5"/>
<path d="M64 48H80V64H64V48Z" fill="#1E94F5"/>
<path d="M80 48H96V64H80V48Z" fill="#1E94F5"/>
<path d="M96 48H112V64H96V48Z" fill="#1E94F5"/>
<path d="M112 48H128V64H112V48Z" fill="#1D1D1D"/>
<path d="M128 48H144V64H128V48Z" fill="#1D1D1D"/>
<path d="M144 48H160V64H144V48Z" fill="#1D1D1D"/>
<path d="M160 48H176V64H160V48Z" fill="#1D1D1D"/>
<path d="M176 48H192V64H176V48Z" fill="#1D1D1D"/>
<path d="M192 48H208V64H192V48Z" fill="#1D1D1D"/>
<path d="M208 48H224V64H208V48Z" fill="#1D1D1D"/>
<path d="M224 48H240V64H224V48Z" fill="#1D1D1D"/>
<path d="M240 48H256V64H240V48Z" fill="#086BCF"/>
<path d="M256 48H272V64H256V48Z" fill="#107CD0"/>
<path d="M272 48H288V64H272V48Z" fill="#1D1D1D"/>
<path d="M448 48H464V64H448V48Z" fill="#1E94F5"/>
<path d="M464 48H480V64H464V48Z" fill="#1E94F5"/>
<path d="M480 48H496V64H480V48Z" fill="#1E94F5"/>
<path d="M496 48H512V64H496V48Z" fill="#1E94F5"/>
<path d="M512 48H528V64H512V48Z" fill="#1E94F5"/>
<path d="M528 48H544V64H528V48Z" fill="#1D1D1D"/>
<path d="M544 48H560V64H544V48Z" fill="#1D1D1D"/>
<path d="M560 48H576V64H560V48Z" fill="#1D1D1D"/>
<path d="M576 48H592V64H576V48Z" fill="#1D1D1D"/>
<path d="M592 48H608V64H592V48Z" fill="#1D1D1D"/>
<path d="M608 48H624V64H608V48Z" fill="#1D1D1D"/>
<path d="M624 48H640V64H624V48Z" fill="#1D1D1D"/>
<path d="M640 48H656V64H640V48Z" fill="#1D1D1D"/>
<path d="M656 48H672V64H656V48Z" fill="#086BCF"/>
<path d="M672 48H688V64H672V48Z" fill="#107CD0"/>
<path d="M688 48H704V64H688V48Z" fill="#1D1D1D"/>
<path d="M16 64H32V80H16V64Z" fill="#1E94F5"/>
<path d="M32 64H48V80H32V64Z" fill="#1E94F5"/>
<path d="M48 64H64V80H48V64Z" fill="#086BCF"/>
<path d="M64 64H80V80H64V64Z" fill="#1E94F5"/>
<path d="M80 64H96V80H80V64Z" fill="white"/>
<path d="M96 64H112V80H96V64Z" fill="#1D1D1D"/>
<path d="M112 64H128V80H112V64Z" fill="#1D1D1D"/>
<path d="M128 64H144V80H128V64Z" fill="#1D1D1D"/>
<path d="M144 64H160V80H144V64Z" fill="#1D1D1D"/>
<path d="M160 64H176V80H160V64Z" fill="#1D1D1D"/>
<path d="M176 64H192V80H176V64Z" fill="#1D1D1D"/>
<path d="M192 64H208V80H192V64Z" fill="#1D1D1D"/>
<path d="M208 64H224V80H208V64Z" fill="#1D1D1D"/>
<path d="M224 64H240V80H224V64Z" fill="#1D1D1D"/>
<path d="M240 64H256V80H240V64Z" fill="#1D1D1D"/>
<path d="M256 64H272V80H256V64Z" fill="#086BCF"/>
<path d="M272 64H288V80H272V64Z" fill="#107CD0"/>
<path d="M288 64H304V80H288V64Z" fill="#1D1D1D"/>
<path d="M432 64H448V80H432V64Z" fill="#1E94F5"/>
<path d="M448 64H464V80H448V64Z" fill="#1E94F5"/>
<path d="M464 64H480V80H464V64Z" fill="#086BCF"/>
<path d="M480 64H496V80H480V64Z" fill="#1E94F5"/>
<path d="M496 64H512V80H496V64Z" fill="white"/>
<path d="M512 64H528V80H512V64Z" fill="#1D1D1D"/>
<path d="M528 64H544V80H528V64Z" fill="#1D1D1D"/>
<path d="M544 64H560V80H544V64Z" fill="#1D1D1D"/>
<path d="M560 64H576V80H560V64Z" fill="#1D1D1D"/>
<path d="M576 64H592V80H576V64Z" fill="#1D1D1D"/>
<path d="M592 64H608V80H592V64Z" fill="#1D1D1D"/>
<path d="M608 64H624V80H608V64Z" fill="#1D1D1D"/>
<path d="M624 64H640V80H624V64Z" fill="#1D1D1D"/>
<path d="M640 64H656V80H640V64Z" fill="#1D1D1D"/>
<path d="M656 64H672V80H656V64Z" fill="#1D1D1D"/>
<path d="M672 64H688V80H672V64Z" fill="#086BCF"/>
<path d="M688 64H704V80H688V64Z" fill="#107CD0"/>
<path d="M704 64H720V80H704V64Z" fill="#1D1D1D"/>
<path d="M16 80H32V96H16V80Z" fill="#086BCF"/>
<path d="M32 80H48V96H32V80Z" fill="#1E94F5"/>
<path d="M48 80H64V96H48V80Z" fill="#1E94F5"/>
<path d="M64 80H80V96H64V80Z" fill="#97CCF8"/>
<path d="M80 80H96V96H80V80Z" fill="#070707"/>
<path d="M96 80H112V96H96V80Z" fill="#97CCF8"/>
<path d="M112 80H128V96H112V80Z" fill="#1D1D1D"/>
<path d="M128 80H144V96H128V80Z" fill="#058CF5"/>
<path d="M144 80H160V96H144V80Z" fill="#1D1D1D"/>
<path d="M160 80H176V96H160V80Z" fill="#058CF5"/>
<path d="M176 80H192V96H176V80Z" fill="#058CF5"/>
<path d="M192 80H208V96H192V80Z" fill="#058CF5"/>
<path d="M208 80H224V96H208V80Z" fill="#058CF5"/>
<path d="M224 80H240V96H224V80Z" fill="#058CF5"/>
<path d="M240 80H256V96H240V80Z" fill="#1D1D1D"/>
<path d="M256 80H272V96H256V80Z" fill="#1D1D1D"/>
<path d="M272 80H288V96H272V80Z" fill="#086BCF"/>
<path d="M288 80H304V96H288V80Z" fill="#107CD0"/>
<path d="M432 80H448V96H432V80Z" fill="#086BCF"/>
<path d="M448 80H464V96H448V80Z" fill="#1E94F5"/>
<path d="M464 80H480V96H464V80Z" fill="#1E94F5"/>
<path d="M480 80H496V96H480V80Z" fill="#97CCF8"/>
<path d="M496 80H512V96H496V80Z" fill="#070707"/>
<path d="M512 80H528V96H512V80Z" fill="#97CCF8"/>
<path d="M528 80H544V96H528V80Z" fill="#1D1D1D"/>
<path d="M544 80H560V96H544V80Z" fill="#058CF5"/>
<path d="M560 80H576V96H560V80Z" fill="#1D1D1D"/>
<path d="M576 80H592V96H576V80Z" fill="#058CF5"/>
<path d="M592 80H608V96H592V80Z" fill="#058CF5"/>
<path d="M608 80H624V96H608V80Z" fill="#058CF5"/>
<path d="M624 80H640V96H624V80Z" fill="#058CF5"/>
<path d="M640 80H656V96H640V80Z" fill="#058CF5"/>
<path d="M656 80H672V96H656V80Z" fill="#1D1D1D"/>
<path d="M672 80H688V96H672V80Z" fill="#1D1D1D"/>
<path d="M688 80H704V96H688V80Z" fill="#086BCF"/>
<path d="M704 80H720V96H704V80Z" fill="#107CD0"/>
<path d="M784 80H800V96H784V80Z" fill="#1D1D1D"/>
<path d="M800 80H816V96H800V80Z" fill="#1D1D1D"/>
<path d="M0 96H16V112H0V96Z" fill="#1E94F5"/>
<path d="M16 96H32V112H16V96Z" fill="#1E94F5"/>
<path d="M32 96H48V112H32V96Z" fill="#086BCF"/>
<path d="M48 96H64V112H48V96Z" fill="#1E94F5"/>
<path d="M64 96H80V112H64V96Z" fill="#1D1D1D"/>
<path d="M80 96H96V112H80V96Z" fill="#97CCF8"/>
<path d="M96 96H112V112H96V96Z" fill="#1D1D1D"/>
<path d="M112 96H128V112H112V96Z" fill="#1E94F5"/>
<path d="M128 96H144V112H128V96Z" fill="#058CF5"/>
<path d="M144 96H160V112H144V96Z" fill="#1D1D1D"/>
<path d="M160 96H176V112H160V96Z" fill="#058CF5"/>
<path d="M176 96H192V112H176V96Z" fill="#058CF5"/>
<path d="M192 96H208V112H192V96Z" fill="#058CF5"/>
<path d="M208 96H224V112H208V96Z" fill="#058CF5"/>
<path d="M224 96H240V112H224V96Z" fill="#058CF5"/>
<path d="M240 96H256V112H240V96Z" fill="#058CF5"/>
<path d="M256 96H272V112H256V96Z" fill="#1D1D1D"/>
<path d="M272 96H288V112H272V96Z" fill="#1D1D1D"/>
<path d="M336 96H352V112H336V96Z" fill="#1D1D1D"/>
<path d="M352 96H368V112H352V96Z" fill="#1D1D1D"/>
<path d="M368 96H384V112H368V96Z" fill="black"/>
<path d="M416 96H432V112H416V96Z" fill="#1E94F5"/>
<path d="M432 96H448V112H432V96Z" fill="#1E94F5"/>
<path d="M448 96H464V112H448V96Z" fill="#086BCF"/>
<path d="M464 96H480V112H464V96Z" fill="#1E94F5"/>
<path d="M480 96H496V112H480V96Z" fill="#1D1D1D"/>
<path d="M496 96H512V112H496V96Z" fill="#97CCF8"/>
<path d="M512 96H528V112H512V96Z" fill="#1D1D1D"/>
<path d="M528 96H544V112H528V96Z" fill="#1E94F5"/>
<path d="M544 96H560V112H544V96Z" fill="#058CF5"/>
<path d="M560 96H576V112H560V96Z" fill="#1D1D1D"/>
<path d="M576 96H592V112H576V96Z" fill="#058CF5"/>
<path d="M592 96H608V112H592V96Z" fill="#058CF5"/>
<path d="M608 96H624V112H608V96Z" fill="#058CF5"/>
<path d="M624 96H640V112H624V96Z" fill="#058CF5"/>
<path d="M640 96H656V112H640V96Z" fill="#058CF5"/>
<path d="M656 96H672V112H656V96Z" fill="#058CF5"/>
<path d="M672 96H688V112H672V96Z" fill="#1D1D1D"/>
<path d="M688 96H704V112H688V96Z" fill="#1D1D1D"/>
<path d="M752 96H768V112H752V96Z" fill="#1D1D1D"/>
<path d="M768 96H784V112H768V96Z" fill="#1D1D1D"/>
<path d="M784 96H800V112H784V96Z" fill="#FFD423"/>
<path d="M800 96H816V112H800V96Z" fill="#FFD423"/>
<path d="M816 96H832V112H816V96Z" fill="#1D1D1D"/>
<path d="M0 112H16V128H0V112Z" fill="#1E94F5"/>
<path d="M16 112H32V128H16V112Z" fill="#1E94F5"/>
<path d="M32 112H48V128H32V112Z" fill="#1E94F5"/>
<path d="M48 112H64V128H48V112Z" fill="#1E94F5"/>
<path d="M64 112H80V128H64V112Z" fill="#1E94F5"/>
<path d="M80 112H96V128H80V112Z" fill="#1E94F5"/>
<path d="M96 112H112V128H96V112Z" fill="#058CF5"/>
<path d="M112 112H128V128H112V112Z" fill="#1E94F5"/>
<path d="M128 112H144V128H128V112Z" fill="#058CF5"/>
<path d="M144 112H160V128H144V112Z" fill="#1E94F5"/>
<path d="M160 112H176V128H160V112Z" fill="#1D1D1D"/>
<path d="M176 112H192V128H176V112Z" fill="#058CF5"/>
<path d="M192 112H208V128H192V112Z" fill="#058CF5"/>
<path d="M208 112H224V128H208V112Z" fill="#058CF5"/>
<path d="M224 112H240V128H224V112Z" fill="#058CF5"/>
<path d="M240 112H256V128H240V112Z" fill="#058CF5"/>
<path d="M256 112H272V128H256V112Z" fill="#1D1D1D"/>
<path d="M272 112H288V128H272V112Z" fill="#1D1D1D"/>
<path d="M288 112H304V128H288V112Z" fill="#1D1D1D"/>
<path d="M320 112H336V128H320V112Z" fill="#1D1D1D"/>
<path d="M336 112H352V128H336V112Z" fill="#FFD423"/>
<path d="M352 112H368V128H352V112Z" fill="#FFD423"/>
<path d="M368 112H384V128H368V112Z" fill="#FFD423"/>
<path d="M384 112H400V128H384V112Z" fill="black"/>
<path d="M416 112H432V128H416V112Z" fill="#1E94F5"/>
<path d="M432 112H448V128H432V112Z" fill="#1E94F5"/>
<path d="M448 112H464V128H448V112Z" fill="#1E94F5"/>
<path d="M464 112H480V128H464V112Z" fill="#1E94F5"/>
<path d="M480 112H496V128H480V112Z" fill="#1E94F5"/>
<path d="M496 112H512V128H496V112Z" fill="#1E94F5"/>
<path d="M512 112H528V128H512V112Z" fill="#058CF5"/>
<path d="M528 112H544V128H528V112Z" fill="#1E94F5"/>
<path d="M544 112H560V128H544V112Z" fill="#058CF5"/>
<path d="M560 112H576V128H560V112Z" fill="#1E94F5"/>
<path d="M576 112H592V128H576V112Z" fill="#1D1D1D"/>
<path d="M592 112H608V128H592V112Z" fill="#058CF5"/>
<path d="M608 112H624V128H608V112Z" fill="#058CF5"/>
<path d="M624 112H640V128H624V112Z" fill="#058CF5"/>
<path d="M640 112H656V128H640V112Z" fill="#058CF5"/>
<path d="M656 112H672V128H656V112Z" fill="#058CF5"/>
<path d="M672 112H688V128H672V112Z" fill="#1D1D1D"/>
<path d="M688 112H704V128H688V112Z" fill="#1D1D1D"/>
<path d="M704 112H720V128H704V112Z" fill="#1D1D1D"/>
<path d="M736 112H752V128H736V112Z" fill="#1D1D1D"/>
<path d="M752 112H768V128H752V112Z" fill="#FFD423"/>
<path d="M768 112H784V128H768V112Z" fill="#FFD423"/>
<path d="M784 112H800V128H784V112Z" fill="#FFD423"/>
<path d="M800 112H816V128H800V112Z" fill="#FFD423"/>
<path d="M816 112H832V128H816V112Z" fill="#1D1D1D"/>
<path d="M16 128H32V144H16V128Z" fill="#1E94F5"/>
<path d="M32 128H48V144H32V128Z" fill="#1E94F5"/>
<path d="M48 128H64V144H48V128Z" fill="#1E94F5"/>
<path d="M64 128H80V144H64V128Z" fill="#1E94F5"/>
<path d="M80 128H96V144H80V128Z" fill="#1E94F5"/>
<path d="M96 128H112V144H96V128Z" fill="#058CF5"/>
<path d="M112 128H128V144H112V128Z" fill="#1E94F5"/>
<path d="M128 128H144V144H128V128Z" fill="#058CF5"/>
<path d="M144 128H160V144H144V128Z" fill="#FFD423"/>
<path d="M160 128H176V144H160V128Z" fill="#FFD423"/>
<path d="M176 128H192V144H176V128Z" fill="#1D1D1D"/>
<path d="M192 128H208V144H192V128Z" fill="#1D1D1D"/>
<path d="M208 128H224V144H208V128Z" fill="#1D1D1D"/>
<path d="M224 128H240V144H224V128Z" fill="#1D1D1D"/>
<path d="M240 128H256V144H240V128Z" fill="#1D1D1D"/>
<path d="M256 128H272V144H256V128Z" fill="#1D1D1D"/>
<path d="M272 128H288V144H272V128Z" fill="#1D1D1D"/>
<path d="M288 128H304V144H288V128Z" fill="#1D1D1D"/>
<path d="M304 128H320V144H304V128Z" fill="#1D1D1D"/>
<path d="M320 128H336V144H320V128Z" fill="#FFD423"/>
<path d="M336 128H352V144H336V128Z" fill="#FFD423"/>
<path d="M352 128H368V144H352V128Z" fill="#FFD423"/>
<path d="M368 128H384V144H368V128Z" fill="#FFD423"/>
<path d="M384 128H400V144H384V128Z" fill="black"/>
<path d="M432 128H448V144H432V128Z" fill="#1E94F5"/>
<path d="M448 128H464V144H448V128Z" fill="#1E94F5"/>
<path d="M464 128H480V144H464V128Z" fill="#1E94F5"/>
<path d="M480 128H496V144H480V128Z" fill="#1E94F5"/>
<path d="M496 128H512V144H496V128Z" fill="#1E94F5"/>
<path d="M512 128H528V144H512V128Z" fill="#058CF5"/>
<path d="M528 128H544V144H528V128Z" fill="#1E94F5"/>
<path d="M544 128H560V144H544V128Z" fill="#058CF5"/>
<path d="M560 128H576V144H560V128Z" fill="#FFD423"/>
<path d="M576 128H592V144H576V128Z" fill="#FFD423"/>
<path d="M592 128H608V144H592V128Z" fill="#1D1D1D"/>
<path d="M608 128H624V144H608V128Z" fill="#1D1D1D"/>
<path d="M624 128H640V144H624V128Z" fill="#1D1D1D"/>
<path d="M640 128H656V144H640V128Z" fill="#1D1D1D"/>
<path d="M656 128H672V144H656V128Z" fill="#1D1D1D"/>
<path d="M672 128H688V144H672V128Z" fill="#1D1D1D"/>
<path d="M688 128H704V144H688V128Z" fill="#1D1D1D"/>
<path d="M704 128H720V144H704V128Z" fill="#1D1D1D"/>
<path d="M720 128H736V144H720V128Z" fill="#1D1D1D"/>
<path d="M736 128H752V144H736V128Z" fill="#FFD423"/>
<path d="M752 128H768V144H752V128Z" fill="#FFD423"/>
<path d="M768 128H784V144H768V128Z" fill="#FFD423"/>
<path d="M784 128H800V144H784V128Z" fill="#FFD423"/>
<path d="M800 128H816V144H800V128Z" fill="#FFD423"/>
<path d="M816 128H832V144H816V128Z" fill="#1D1D1D"/>
<path d="M0 144H16V160H0V144Z" fill="#1E94F5"/>
<path d="M16 144H32V160H16V144Z" fill="#1E94F5"/>
<path d="M32 144H48V160H32V144Z" fill="#1E94F5"/>
<path d="M48 144H64V160H48V144Z" fill="#1E94F5"/>
<path d="M64 144H80V160H64V144Z" fill="#1E94F5"/>
<path d="M80 144H96V160H80V144Z" fill="#058CF5"/>
<path d="M96 144H112V160H96V144Z" fill="#1E94F5"/>
<path d="M112 144H128V160H112V144Z" fill="#058CF5"/>
<path d="M128 144H144V160H128V144Z" fill="#FFBF23"/>
<path d="M144 144H160V160H144V144Z" fill="#FFBF23"/>
<path d="M160 144H176V160H160V144Z" fill="#058CF5"/>
<path d="M176 144H192V160H176V144Z" fill="#058CF5"/>
<path d="M192 144H208V160H192V144Z" fill="#058CF5"/>
<path d="M208 144H224V160H208V144Z" fill="#058CF5"/>
<path d="M224 144H240V160H224V144Z" fill="#058CF5"/>
<path d="M240 144H256V160H240V144Z" fill="#058CF5"/>
<path d="M256 144H272V160H256V144Z" fill="#058CF5"/>
<path d="M272 144H288V160H272V144Z" fill="#058CF5"/>
<path d="M288 144H304V160H288V144Z" fill="#1D1D1D"/>
<path d="M304 144H320V160H304V144Z" fill="#1D1D1D"/>
<path d="M320 144H336V160H320V144Z" fill="#FFD423"/>
<path d="M336 144H352V160H336V144Z" fill="#FFD423"/>
<path d="M352 144H368V160H352V144Z" fill="#FFD423"/>
<path d="M368 144H384V160H368V144Z" fill="#FFD423"/>
<path d="M384 144H400V160H384V144Z" fill="black"/>
<path d="M416 144H432V160H416V144Z" fill="#1E94F5"/>
<path d="M432 144H448V160H432V144Z" fill="#1E94F5"/>
<path d="M448 144H464V160H448V144Z" fill="#1E94F5"/>
<path d="M464 144H480V160H464V144Z" fill="#1E94F5"/>
<path d="M480 144H496V160H480V144Z" fill="#1E94F5"/>
<path d="M496 144H512V160H496V144Z" fill="#058CF5"/>
<path d="M512 144H528V160H512V144Z" fill="#1E94F5"/>
<path d="M528 144H544V160H528V144Z" fill="#058CF5"/>
<path d="M544 144H560V160H544V144Z" fill="#058CF5"/>
<path d="M560 144H576V160H560V144Z" fill="#FFBF23"/>
<path d="M576 144H592V160H576V144Z" fill="#058CF5"/>
<path d="M592 144H608V160H592V144Z" fill="#058CF5"/>
<path d="M608 144H624V160H608V144Z" fill="#058CF5"/>
<path d="M624 144H640V160H624V144Z" fill="#058CF5"/>
<path d="M640 144H656V160H640V144Z" fill="#058CF5"/>
<path d="M656 144H672V160H656V144Z" fill="#058CF5"/>
<path d="M672 144H688V160H672V144Z" fill="#058CF5"/>
<path d="M688 144H704V160H688V144Z" fill="#058CF5"/>
<path d="M704 144H720V160H704V144Z" fill="#1D1D1D"/>
<path d="M720 144H736V160H720V144Z" fill="#1D1D1D"/>
<path d="M736 144H752V160H736V144Z" fill="#FFD423"/>
<path d="M752 144H768V160H752V144Z" fill="#FFD423"/>
<path d="M768 144H784V160H768V144Z" fill="#FFD423"/>
<path d="M784 144H800V160H784V144Z" fill="#FFD423"/>
<path d="M800 144H816V160H800V144Z" fill="#FFD423"/>
<path d="M816 144H832V160H816V144Z" fill="#1D1D1D"/>
<path d="M16 160H32V176H16V160Z" fill="#058CF5"/>
<path d="M32 160H48V176H32V160Z" fill="#058CF5"/>
<path d="M48 160H64V176H48V160Z" fill="#058CF5"/>
<path d="M64 160H80V176H64V160Z" fill="#058CF5"/>
<path d="M80 160H96V176H80V160Z" fill="#058CF5"/>
<path d="M96 160H112V176H96V160Z" fill="#1E94F5"/>
<path d="M112 160H128V176H112V160Z" fill="#058CF5"/>
<path d="M128 160H144V176H128V160Z" fill="#FFD423"/>
<path d="M144 160H160V176H144V160Z" fill="#FFD423"/>
<path d="M160 160H176V176H160V160Z" fill="#058CF5"/>
<path d="M176 160H192V176H176V160Z" fill="#058CF5"/>
<path d="M192 160H208V176H192V160Z" fill="#058CF5"/>
<path d="M208 160H224V176H208V160Z" fill="#058CF5"/>
<path d="M224 160H240V176H224V160Z" fill="#058CF5"/>
<path d="M240 160H256V176H240V160Z" fill="#058CF5"/>
<path d="M256 160H272V176H256V160Z" fill="#058CF5"/>
<path d="M272 160H288V176H272V160Z" fill="#1E94F5"/>
<path d="M320 160H336V176H320V160Z" fill="#1D1D1D"/>
<path d="M336 160H352V176H336V160Z" fill="#FFD423"/>
<path d="M352 160H368V176H352V160Z" fill="#FFD423"/>
<path d="M368 160H384V176H368V160Z" fill="#FFD423"/>
<path d="M384 160H400V176H384V160Z" fill="black"/>
<path d="M432 160H448V176H432V160Z" fill="#058CF5"/>
<path d="M448 160H464V176H448V160Z" fill="#058CF5"/>
<path d="M464 160H480V176H464V160Z" fill="#058CF5"/>
<path d="M480 160H496V176H480V160Z" fill="#058CF5"/>
<path d="M496 160H512V176H496V160Z" fill="#058CF5"/>
<path d="M512 160H528V176H512V160Z" fill="#1E94F5"/>
<path d="M528 160H544V176H528V160Z" fill="#058CF5"/>
<path d="M544 160H560V176H544V160Z" fill="#058CF5"/>
<path d="M560 160H576V176H560V160Z" fill="#FFD423"/>
<path d="M576 160H592V176H576V160Z" fill="#058CF5"/>
<path d="M592 160H608V176H592V160Z" fill="#058CF5"/>
<path d="M608 160H624V176H608V160Z" fill="#058CF5"/>
<path d="M624 160H640V176H624V160Z" fill="#058CF5"/>
<path d="M640 160H656V176H640V160Z" fill="#058CF5"/>
<path d="M656 160H672V176H656V160Z" fill="#058CF5"/>
<path d="M672 160H688V176H672V160Z" fill="#058CF5"/>
<path d="M688 160H704V176H688V160Z" fill="#1E94F5"/>
<path d="M736 160H752V176H736V160Z" fill="#1D1D1D"/>
<path d="M752 160H768V176H752V160Z" fill="#FFD423"/>
<path d="M768 160H784V176H768V160Z" fill="#FFD423"/>
<path d="M784 160H800V176H784V160Z" fill="#FFD423"/>
<path d="M800 160H816V176H800V160Z" fill="#FFD423"/>
<path d="M816 160H832V176H816V160Z" fill="#1D1D1D"/>
<path d="M32 176H48V192H32V176Z" fill="#058CF5"/>
<path d="M48 176H64V192H48V176Z" fill="#058CF5"/>
<path d="M64 176H80V192H64V176Z" fill="#058CF5"/>
<path d="M80 176H96V192H80V176Z" fill="#058CF5"/>
<path d="M96 176H112V192H96V176Z" fill="#058CF5"/>
<path d="M112 176H128V192H112V176Z" fill="#058CF5"/>
<path d="M128 176H144V192H128V176Z" fill="#058CF5"/>
<path d="M144 176H160V192H144V176Z" fill="#FFBF23"/>
<path d="M160 176H176V192H160V176Z" fill="#FFBF23"/>
<path d="M176 176H192V192H176V176Z" fill="#058CF5"/>
<path d="M192 176H208V192H192V176Z" fill="#058CF5"/>
<path d="M208 176H224V192H208V176Z" fill="#058CF5"/>
<path d="M224 176H240V192H224V176Z" fill="#058CF5"/>
<path d="M240 176H256V192H240V176Z" fill="#1E94F5"/>
<path d="M256 176H272V192H256V176Z" fill="#1E94F5"/>
<path d="M272 176H288V192H272V176Z" fill="#0983E2"/>
<path d="M288 176H304V192H288V176Z" fill="#0983E2"/>
<path d="M336 176H352V192H336V176Z" fill="#1D1D1D"/>
<path d="M352 176H368V192H352V176Z" fill="#1D1D1D"/>
<path d="M368 176H384V192H368V176Z" fill="#FFD423"/>
<path d="M384 176H400V192H384V176Z" fill="black"/>
<path d="M448 176H464V192H448V176Z" fill="#058CF5"/>
<path d="M464 176H480V192H464V176Z" fill="#058CF5"/>
<path d="M480 176H496V192H480V176Z" fill="#058CF5"/>
<path d="M496 176H512V192H496V176Z" fill="#058CF5"/>
<path d="M512 176H528V192H512V176Z" fill="#058CF5"/>
<path d="M528 176H544V192H528V176Z" fill="#058CF5"/>
<path d="M544 176H560V192H544V176Z" fill="#058CF5"/>
<path d="M560 176H576V192H560V176Z" fill="#FFBF23"/>
<path d="M576 176H592V192H576V176Z" fill="#FFBF23"/>
<path d="M592 176H608V192H592V176Z" fill="#058CF5"/>
<path d="M608 176H624V192H608V176Z" fill="#058CF5"/>
<path d="M624 176H640V192H624V176Z" fill="#058CF5"/>
<path d="M640 176H656V192H640V176Z" fill="#058CF5"/>
<path d="M656 176H672V192H656V176Z" fill="#1E94F5"/>
<path d="M672 176H688V192H672V176Z" fill="#1E94F5"/>
<path d="M688 176H704V192H688V176Z" fill="#0983E2"/>
<path d="M704 176H720V192H704V176Z" fill="#0983E2"/>
<path d="M752 176H768V192H752V176Z" fill="#1D1D1D"/>
<path d="M768 176H784V192H768V176Z" fill="#1D1D1D"/>
<path d="M784 176H800V192H784V176Z" fill="#FFD423"/>
<path d="M800 176H816V192H800V176Z" fill="#FFD423"/>
<path d="M816 176H832V192H816V176Z" fill="#1D1D1D"/>
<path d="M64 192H80V208H64V192Z" fill="#058CF5"/>
<path d="M80 192H96V208H80V192Z" fill="#058CF5"/>
<path d="M96 192H112V208H96V192Z" fill="#058CF5"/>
<path d="M112 192H128V208H112V192Z" fill="#058CF5"/>
<path d="M128 192H144V208H128V192Z" fill="#1E94F5"/>
<path d="M144 192H160V208H144V192Z" fill="#1E94F5"/>
<path d="M160 192H176V208H160V192Z" fill="#1E94F5"/>
<path d="M176 192H192V208H176V192Z" fill="#1E94F5"/>
<path d="M192 192H208V208H192V192Z" fill="#1E94F5"/>
<path d="M208 192H224V208H208V192Z" fill="#1E94F5"/>
<path d="M224 192H240V208H224V192Z" fill="#1E94F5"/>
<path d="M240 192H256V208H240V192Z" fill="#0983E2"/>
<path d="M256 192H272V208H256V192Z" fill="#1D1D1D"/>
<path d="M272 192H288V208H272V192Z" fill="#0983E2"/>
<path d="M288 192H304V208H288V192Z" fill="#2B2B2B"/>
<path d="M368 192H384V208H368V192Z" fill="#1D1D1D"/>
<path d="M480 192H496V208H480V192Z" fill="#058CF5"/>
<path d="M496 192H512V208H496V192Z" fill="#058CF5"/>
<path d="M512 192H528V208H512V192Z" fill="#058CF5"/>
<path d="M528 192H544V208H528V192Z" fill="#058CF5"/>
<path d="M544 192H560V208H544V192Z" fill="#1E94F5"/>
<path d="M560 192H576V208H560V192Z" fill="#1E94F5"/>
<path d="M576 192H592V208H576V192Z" fill="#1E94F5"/>
<path d="M592 192H608V208H592V192Z" fill="#1E94F5"/>
<path d="M608 192H624V208H608V192Z" fill="#1E94F5"/>
<path d="M624 192H640V208H624V192Z" fill="#1E94F5"/>
<path d="M640 192H656V208H640V192Z" fill="#1E94F5"/>
<path d="M656 192H672V208H656V192Z" fill="#0983E2"/>
<path d="M672 192H688V208H672V192Z" fill="#1D1D1D"/>
<path d="M688 192H704V208H688V192Z" fill="#0983E2"/>
<path d="M704 192H720V208H704V192Z" fill="#2B2B2B"/>
<path d="M784 192H800V208H784V192Z" fill="#1D1D1D"/>
<path d="M800 192H816V208H800V192Z" fill="#1D1D1D"/>
<path d="M128 208H144V224H128V208Z" fill="#0983E2"/>
<path d="M144 208H160V224H144V208Z" fill="#0983E2"/>
<path d="M176 208H192V224H176V208Z" fill="#0983E2"/>
<path d="M192 208H208V224H192V208Z" fill="#1D1D1D"/>
<path d="M208 208H224V224H208V208Z" fill="#0983E2"/>
<path d="M224 208H240V224H224V208Z" fill="#1D1D1D"/>
<path d="M240 208H256V224H240V208Z" fill="#0983E2"/>
<path d="M256 208H272V224H256V208Z" fill="#2B2B2B"/>
<path d="M272 208H288V224H272V208Z" fill="#1D1D1D"/>
<path d="M544 208H560V224H544V208Z" fill="#0983E2"/>
<path d="M560 208H576V224H560V208Z" fill="#0983E2"/>
<path d="M592 208H608V224H592V208Z" fill="#0983E2"/>
<path d="M608 208H624V224H608V208Z" fill="#1D1D1D"/>
<path d="M624 208H640V224H624V208Z" fill="#0983E2"/>
<path d="M640 208H656V224H640V208Z" fill="#1D1D1D"/>
<path d="M656 208H672V224H656V208Z" fill="#0983E2"/>
<path d="M672 208H688V224H672V208Z" fill="#2B2B2B"/>
<path d="M688 208H704V224H688V208Z" fill="#1D1D1D"/>
<path d="M192 224H208V240H192V224Z" fill="#2B2B2B"/>
<path d="M208 224H224V240H208V224Z" fill="#1D1D1D"/>
<path d="M224 224H240V240H224V224Z" fill="#2B2B2B"/>
<path d="M240 224H256V240H240V224Z" fill="#1D1D1D"/>
<path d="M608 224H624V240H608V224Z" fill="#2B2B2B"/>
<path d="M624 224H640V240H624V224Z" fill="#1D1D1D"/>
<path d="M640 224H656V240H640V224Z" fill="#2B2B2B"/>
<path d="M656 224H672V240H656V224Z" fill="#1D1D1D"/>
</svg>
