<svg viewBox="0 0 1536 768" xmlns="http://www.w3.org/2000/svg" version="1.1"><path d="m304 224h16v16h-16z" fill="#1d1d1d"></path><path d="m320 224h16v16h-16z" fill="#2b2b2b"></path><path d="m336 224h16v16h-16z" fill="#1d1d1d"></path><path d="m352 224h16v16h-16z" fill="#2b2b2b"></path><path d="m368 224h16v16h-16z" fill="#1d1d1d"></path><path d="m384 224h16v16h-16z" fill="#2b2b2b"></path><path d="m400 224h16v16h-16z" fill="#1d1d1d"></path><path d="m1072 224h16v16h-16z" fill="#1d1d1d"></path><path d="m1088 224h16v16h-16z" fill="#2b2b2b"></path><path d="m1104 224h16v16h-16z" fill="#1d1d1d"></path><path d="m1120 224h16v16h-16z" fill="#2b2b2b"></path><path d="m1136 224h16v16h-16z" fill="#1d1d1d"></path><path d="m1152 224h16v16h-16z" fill="#2b2b2b"></path><path d="m1168 224h16v16h-16z" fill="#1d1d1d"></path><path d="m288 240h16v16h-16z" fill="#1d1d1d"></path><path d="m304 240h16v16h-16z" fill="#107cd0"></path><path d="m320 240h16v16h-16z" fill="#1d1d1d"></path><path d="m336 240h16v16h-16z" fill="#107cd0"></path><path d="m352 240h16v16h-16z" fill="#1d1d1d"></path><path d="m368 240h16v16h-16z" fill="#107cd0"></path><path d="m384 240h16v16h-16z" fill="#1d1d1d"></path><path d="m400 240h16v16h-16z" fill="#107cd0"></path><path d="m416 240h16v16h-16z" fill="#1d1d1d"></path><path d="m432 240h16v16h-16z" fill="#2b2b2b"></path><path d="m1056 240h16v16h-16z" fill="#1d1d1d"></path><path d="m1072 240h16v16h-16z" fill="#107cd0"></path><path d="m1088 240h16v16h-16z" fill="#1d1d1d"></path><path d="m1104 240h16v16h-16z" fill="#107cd0"></path><path d="m1120 240h16v16h-16z" fill="#1d1d1d"></path><path d="m1136 240h16v16h-16z" fill="#107cd0"></path><path d="m1152 240h16v16h-16z" fill="#1d1d1d"></path><path d="m1168 240h16v16h-16z" fill="#107cd0"></path><path d="m1184 240h16v16h-16z" fill="#1d1d1d"></path><path d="m1200 240h16v16h-16z" fill="#2b2b2b"></path><path d="m256 256h16v16h-16z" fill="#1e94f5"></path><path d="m272 256h16v16h-16z" fill="#1e94f5"></path><path d="m288 256h16v16h-16z" fill="#0983e2"></path><path d="m304 256h16v16h-16z" fill="#086bcf"></path><path d="m320 256h16v16h-16z" fill="#0983e2"></path><path d="m336 256h16v16h-16z" fill="#086bcf"></path><path d="m352 256h16v16h-16z" fill="#0983e2"></path><path d="m368 256h16v16h-16z" fill="#086bcf"></path><path d="m384 256h16v16h-16z" fill="#0983e2"></path><path d="m400 256h16v16h-16z" fill="#086bcf"></path><path d="m416 256h16v16h-16z" fill="#107cd0"></path><path d="m432 256h16v16h-16z" fill="#107cd0"></path><path d="m448 256h16v16h-16z" fill="#1d1d1d"></path><path d="m1024 256h16v16h-16z" fill="#1e94f5"></path><path d="m1040 256h16v16h-16z" fill="#1e94f5"></path><path d="m1056 256h16v16h-16z" fill="#0983e2"></path><path d="m1072 256h16v16h-16z" fill="#086bcf"></path><path d="m1088 256h16v16h-16z" fill="#0983e2"></path><path d="m1104 256h16v16h-16z" fill="#086bcf"></path><path d="m1120 256h16v16h-16z" fill="#0983e2"></path><path d="m1136 256h16v16h-16z" fill="#086bcf"></path><path d="m1152 256h16v16h-16z" fill="#0983e2"></path><path d="m1168 256h16v16h-16z" fill="#086bcf"></path><path d="m1184 256h16v16h-16z" fill="#107cd0"></path><path d="m1200 256h16v16h-16z" fill="#107cd0"></path><path d="m1216 256h16v16h-16z" fill="#1d1d1d"></path><path d="m224 272h16v16h-16z" fill="#1e94f5"></path><path d="m240 272h16v16h-16z" fill="#1e94f5"></path><path d="m256 272h16v16h-16z" fill="#1e94f5"></path><path d="m272 272h16v16h-16z" fill="#1e94f5"></path><path d="m288 272h16v16h-16z" fill="#1e94f5"></path><path d="m304 272h16v16h-16z" fill="#1d1d1d"></path><path d="m320 272h16v16h-16z" fill="#1d1d1d"></path><path d="m336 272h16v16h-16z" fill="#1d1d1d"></path><path d="m352 272h16v16h-16z" fill="#1d1d1d"></path><path d="m368 272h16v16h-16z" fill="#1d1d1d"></path><path d="m384 272h16v16h-16z" fill="#1d1d1d"></path><path d="m400 272h16v16h-16z" fill="#1d1d1d"></path><path d="m416 272h16v16h-16z" fill="#1d1d1d"></path><path d="m432 272h16v16h-16z" fill="#086bcf"></path><path d="m448 272h16v16h-16z" fill="#107cd0"></path><path d="m464 272h16v16h-16z" fill="#1d1d1d"></path><path d="m992 272h16v16h-16z" fill="#1e94f5"></path><path d="m1008 272h16v16h-16z" fill="#1e94f5"></path><path d="m1024 272h16v16h-16z" fill="#1e94f5"></path><path d="m1040 272h16v16h-16z" fill="#1e94f5"></path><path d="m1056 272h16v16h-16z" fill="#1e94f5"></path><path d="m1072 272h16v16h-16z" fill="#1d1d1d"></path><path d="m1088 272h16v16h-16z" fill="#1d1d1d"></path><path d="m1104 272h16v16h-16z" fill="#1d1d1d"></path><path d="m1120 272h16v16h-16z" fill="#1d1d1d"></path><path d="m1136 272h16v16h-16z" fill="#1d1d1d"></path><path d="m1152 272h16v16h-16z" fill="#1d1d1d"></path><path d="m1168 272h16v16h-16z" fill="#1d1d1d"></path><path d="m1184 272h16v16h-16z" fill="#1d1d1d"></path><path d="m1200 272h16v16h-16z" fill="#086bcf"></path><path d="m1216 272h16v16h-16z" fill="#107cd0"></path><path d="m1232 272h16v16h-16z" fill="#1d1d1d"></path><path d="m208 288h16v16h-16z" fill="#1e94f5"></path><path d="m224 288h16v16h-16z" fill="#1e94f5"></path><path d="m240 288h16v16h-16z" fill="#086bcf"></path><path d="m256 288h16v16h-16z" fill="#1e94f5"></path><path d="m272 288h16v16h-16z" fill="#ffffff"></path><path d="m288 288h16v16h-16z" fill="#1d1d1d"></path><path d="m304 288h16v16h-16z" fill="#1d1d1d"></path><path d="m320 288h16v16h-16z" fill="#1d1d1d"></path><path d="m336 288h16v16h-16z" fill="#1d1d1d"></path><path d="m352 288h16v16h-16z" fill="#1d1d1d"></path><path d="m368 288h16v16h-16z" fill="#1d1d1d"></path><path d="m384 288h16v16h-16z" fill="#1d1d1d"></path><path d="m400 288h16v16h-16z" fill="#1d1d1d"></path><path d="m416 288h16v16h-16z" fill="#1d1d1d"></path><path d="m432 288h16v16h-16z" fill="#1d1d1d"></path><path d="m448 288h16v16h-16z" fill="#086bcf"></path><path d="m464 288h16v16h-16z" fill="#107cd0"></path><path d="m480 288h16v16h-16z" fill="#1d1d1d"></path><path d="m976 288h16v16h-16z" fill="#1e94f5"></path><path d="m992 288h16v16h-16z" fill="#1e94f5"></path><path d="m1008 288h16v16h-16z" fill="#086bcf"></path><path d="m1024 288h16v16h-16z" fill="#1e94f5"></path><path d="m1040 288h16v16h-16z" fill="#ffffff"></path><path d="m1056 288h16v16h-16z" fill="#1d1d1d"></path><path d="m1072 288h16v16h-16z" fill="#1d1d1d"></path><path d="m1088 288h16v16h-16z" fill="#1d1d1d"></path><path d="m1104 288h16v16h-16z" fill="#1d1d1d"></path><path d="m1120 288h16v16h-16z" fill="#1d1d1d"></path><path d="m1136 288h16v16h-16z" fill="#1d1d1d"></path><path d="m1152 288h16v16h-16z" fill="#1d1d1d"></path><path d="m1168 288h16v16h-16z" fill="#1d1d1d"></path><path d="m1184 288h16v16h-16z" fill="#1d1d1d"></path><path d="m1200 288h16v16h-16z" fill="#1d1d1d"></path><path d="m1216 288h16v16h-16z" fill="#086bcf"></path><path d="m1232 288h16v16h-16z" fill="#107cd0"></path><path d="m1248 288h16v16h-16z" fill="#1d1d1d"></path><path d="m208 304h16v16h-16z" fill="#086bcf"></path><path d="m224 304h16v16h-16z" fill="#1e94f5"></path><path d="m240 304h16v16h-16z" fill="#1e94f5"></path><path d="m256 304h16v16h-16z" fill="#97ccf8"></path><path d="m272 304h16v16h-16z" fill="#070707"></path><path d="m288 304h16v16h-16z" fill="#97ccf8"></path><path d="m304 304h16v16h-16z" fill="#1d1d1d"></path><path d="m320 304h16v16h-16z" fill="#058cf5"></path><path d="m336 304h16v16h-16z" fill="#1d1d1d"></path><path d="m352 304h16v16h-16z" fill="#058cf5"></path><path d="m368 304h16v16h-16z" fill="#058cf5"></path><path d="m384 304h16v16h-16z" fill="#058cf5"></path><path d="m400 304h16v16h-16z" fill="#058cf5"></path><path d="m416 304h16v16h-16z" fill="#058cf5"></path><path d="m432 304h16v16h-16z" fill="#1d1d1d"></path><path d="m448 304h16v16h-16z" fill="#1d1d1d"></path><path d="m464 304h16v16h-16z" fill="#086bcf"></path><path d="m480 304h16v16h-16z" fill="#107cd0"></path><path d="m976 304h16v16h-16z" fill="#086bcf"></path><path d="m992 304h16v16h-16z" fill="#1e94f5"></path><path d="m1008 304h16v16h-16z" fill="#1e94f5"></path><path d="m1024 304h16v16h-16z" fill="#97ccf8"></path><path d="m1040 304h16v16h-16z" fill="#070707"></path><path d="m1056 304h16v16h-16z" fill="#97ccf8"></path><path d="m1072 304h16v16h-16z" fill="#1d1d1d"></path><path d="m1088 304h16v16h-16z" fill="#058cf5"></path><path d="m1104 304h16v16h-16z" fill="#1d1d1d"></path><path d="m1120 304h16v16h-16z" fill="#058cf5"></path><path d="m1136 304h16v16h-16z" fill="#058cf5"></path><path d="m1152 304h16v16h-16z" fill="#058cf5"></path><path d="m1168 304h16v16h-16z" fill="#058cf5"></path><path d="m1184 304h16v16h-16z" fill="#058cf5"></path><path d="m1200 304h16v16h-16z" fill="#1d1d1d"></path><path d="m1216 304h16v16h-16z" fill="#1d1d1d"></path><path d="m1232 304h16v16h-16z" fill="#086bcf"></path><path d="m1248 304h16v16h-16z" fill="#107cd0"></path><path d="m1328 304h16v16h-16z" fill="#1d1d1d"></path><path d="m1344 304h16v16h-16z" fill="#1d1d1d"></path><path d="m192 320h16v16h-16z" fill="#1e94f5"></path><path d="m208 320h16v16h-16z" fill="#1e94f5"></path><path d="m224 320h16v16h-16z" fill="#086bcf"></path><path d="m240 320h16v16h-16z" fill="#1e94f5"></path><path d="m256 320h16v16h-16z" fill="#1d1d1d"></path><path d="m272 320h16v16h-16z" fill="#97ccf8"></path><path d="m288 320h16v16h-16z" fill="#1d1d1d"></path><path d="m304 320h16v16h-16z" fill="#1e94f5"></path><path d="m320 320h16v16h-16z" fill="#058cf5"></path><path d="m336 320h16v16h-16z" fill="#1d1d1d"></path><path d="m352 320h16v16h-16z" fill="#058cf5"></path><path d="m368 320h16v16h-16z" fill="#058cf5"></path><path d="m384 320h16v16h-16z" fill="#058cf5"></path><path d="m400 320h16v16h-16z" fill="#058cf5"></path><path d="m416 320h16v16h-16z" fill="#058cf5"></path><path d="m432 320h16v16h-16z" fill="#058cf5"></path><path d="m448 320h16v16h-16z" fill="#1d1d1d"></path><path d="m464 320h16v16h-16z" fill="#1d1d1d"></path><path d="m528 320h16v16h-16z" fill="#1d1d1d"></path><path d="m544 320h16v16h-16z" fill="#1d1d1d"></path><path d="m560 320h16v16h-16z" fill="#000000"></path><path d="m960 320h16v16h-16z" fill="#1e94f5"></path><path d="m976 320h16v16h-16z" fill="#1e94f5"></path><path d="m992 320h16v16h-16z" fill="#086bcf"></path><path d="m1008 320h16v16h-16z" fill="#1e94f5"></path><path d="m1024 320h16v16h-16z" fill="#1d1d1d"></path><path d="m1040 320h16v16h-16z" fill="#97ccf8"></path><path d="m1056 320h16v16h-16z" fill="#1d1d1d"></path><path d="m1072 320h16v16h-16z" fill="#1e94f5"></path><path d="m1088 320h16v16h-16z" fill="#058cf5"></path><path d="m1104 320h16v16h-16z" fill="#1d1d1d"></path><path d="m1120 320h16v16h-16z" fill="#058cf5"></path><path d="m1136 320h16v16h-16z" fill="#058cf5"></path><path d="m1152 320h16v16h-16z" fill="#058cf5"></path><path d="m1168 320h16v16h-16z" fill="#058cf5"></path><path d="m1184 320h16v16h-16z" fill="#058cf5"></path><path d="m1200 320h16v16h-16z" fill="#058cf5"></path><path d="m1216 320h16v16h-16z" fill="#1d1d1d"></path><path d="m1232 320h16v16h-16z" fill="#1d1d1d"></path><path d="m1296 320h16v16h-16z" fill="#1d1d1d"></path><path d="m1312 320h16v16h-16z" fill="#1d1d1d"></path><path d="m1328 320h16v16h-16z" fill="#ffd423"></path><path d="m1344 320h16v16h-16z" fill="#ffd423"></path><path d="m1360 320h16v16h-16z" fill="#1d1d1d"></path><path d="m192 336h16v16h-16z" fill="#1e94f5"></path><path d="m208 336h16v16h-16z" fill="#1e94f5"></path><path d="m224 336h16v16h-16z" fill="#1e94f5"></path><path d="m240 336h16v16h-16z" fill="#1e94f5"></path><path d="m256 336h16v16h-16z" fill="#1e94f5"></path><path d="m272 336h16v16h-16z" fill="#1e94f5"></path><path d="m288 336h16v16h-16z" fill="#058cf5"></path><path d="m304 336h16v16h-16z" fill="#1e94f5"></path><path d="m320 336h16v16h-16z" fill="#058cf5"></path><path d="m336 336h16v16h-16z" fill="#1e94f5"></path><path d="m352 336h16v16h-16z" fill="#1d1d1d"></path><path d="m368 336h16v16h-16z" fill="#058cf5"></path><path d="m384 336h16v16h-16z" fill="#058cf5"></path><path d="m400 336h16v16h-16z" fill="#058cf5"></path><path d="m416 336h16v16h-16z" fill="#058cf5"></path><path d="m432 336h16v16h-16z" fill="#058cf5"></path><path d="m448 336h16v16h-16z" fill="#1d1d1d"></path><path d="m464 336h16v16h-16z" fill="#1d1d1d"></path><path d="m480 336h16v16h-16z" fill="#1d1d1d"></path><path d="m512 336h16v16h-16z" fill="#1d1d1d"></path><path d="m528 336h16v16h-16z" fill="#ffd423"></path><path d="m544 336h16v16h-16z" fill="#ffd423"></path><path d="m560 336h16v16h-16z" fill="#ffd423"></path><path d="m576 336h16v16h-16z" fill="#000000"></path><path d="m960 336h16v16h-16z" fill="#1e94f5"></path><path d="m976 336h16v16h-16z" fill="#1e94f5"></path><path d="m992 336h16v16h-16z" fill="#1e94f5"></path><path d="m1008 336h16v16h-16z" fill="#1e94f5"></path><path d="m1024 336h16v16h-16z" fill="#1e94f5"></path><path d="m1040 336h16v16h-16z" fill="#1e94f5"></path><path d="m1056 336h16v16h-16z" fill="#058cf5"></path><path d="m1072 336h16v16h-16z" fill="#1e94f5"></path><path d="m1088 336h16v16h-16z" fill="#058cf5"></path><path d="m1104 336h16v16h-16z" fill="#1e94f5"></path><path d="m1120 336h16v16h-16z" fill="#1d1d1d"></path><path d="m1136 336h16v16h-16z" fill="#058cf5"></path><path d="m1152 336h16v16h-16z" fill="#058cf5"></path><path d="m1168 336h16v16h-16z" fill="#058cf5"></path><path d="m1184 336h16v16h-16z" fill="#058cf5"></path><path d="m1200 336h16v16h-16z" fill="#058cf5"></path><path d="m1216 336h16v16h-16z" fill="#1d1d1d"></path><path d="m1232 336h16v16h-16z" fill="#1d1d1d"></path><path d="m1248 336h16v16h-16z" fill="#1d1d1d"></path><path d="m1280 336h16v16h-16z" fill="#1d1d1d"></path><path d="m1296 336h16v16h-16z" fill="#ffd423"></path><path d="m1312 336h16v16h-16z" fill="#ffd423"></path><path d="m1328 336h16v16h-16z" fill="#ffd423"></path><path d="m1344 336h16v16h-16z" fill="#ffd423"></path><path d="m1360 336h16v16h-16z" fill="#1d1d1d"></path><path d="m208 352h16v16h-16z" fill="#1e94f5"></path><path d="m224 352h16v16h-16z" fill="#1e94f5"></path><path d="m240 352h16v16h-16z" fill="#1e94f5"></path><path d="m256 352h16v16h-16z" fill="#1e94f5"></path><path d="m272 352h16v16h-16z" fill="#1e94f5"></path><path d="m288 352h16v16h-16z" fill="#058cf5"></path><path d="m304 352h16v16h-16z" fill="#1e94f5"></path><path d="m320 352h16v16h-16z" fill="#058cf5"></path><path d="m336 352h16v16h-16z" fill="#ffd423"></path><path d="m352 352h16v16h-16z" fill="#ffd423"></path><path d="m368 352h16v16h-16z" fill="#1d1d1d"></path><path d="m384 352h16v16h-16z" fill="#1d1d1d"></path><path d="m400 352h16v16h-16z" fill="#1d1d1d"></path><path d="m416 352h16v16h-16z" fill="#1d1d1d"></path><path d="m432 352h16v16h-16z" fill="#1d1d1d"></path><path d="m448 352h16v16h-16z" fill="#1d1d1d"></path><path d="m464 352h16v16h-16z" fill="#1d1d1d"></path><path d="m480 352h16v16h-16z" fill="#1d1d1d"></path><path d="m496 352h16v16h-16z" fill="#1d1d1d"></path><path d="m512 352h16v16h-16z" fill="#ffd423"></path><path d="m528 352h16v16h-16z" fill="#ffd423"></path><path d="m544 352h16v16h-16z" fill="#ffd423"></path><path d="m560 352h16v16h-16z" fill="#ffd423"></path><path d="m576 352h16v16h-16z" fill="#000000"></path><path d="m976 352h16v16h-16z" fill="#1e94f5"></path><path d="m992 352h16v16h-16z" fill="#1e94f5"></path><path d="m1008 352h16v16h-16z" fill="#1e94f5"></path><path d="m1024 352h16v16h-16z" fill="#1e94f5"></path><path d="m1040 352h16v16h-16z" fill="#1e94f5"></path><path d="m1056 352h16v16h-16z" fill="#058cf5"></path><path d="m1072 352h16v16h-16z" fill="#1e94f5"></path><path d="m1088 352h16v16h-16z" fill="#058cf5"></path><path d="m1104 352h16v16h-16z" fill="#ffd423"></path><path d="m1120 352h16v16h-16z" fill="#ffd423"></path><path d="m1136 352h16v16h-16z" fill="#1d1d1d"></path><path d="m1152 352h16v16h-16z" fill="#1d1d1d"></path><path d="m1168 352h16v16h-16z" fill="#1d1d1d"></path><path d="m1184 352h16v16h-16z" fill="#1d1d1d"></path><path d="m1200 352h16v16h-16z" fill="#1d1d1d"></path><path d="m1216 352h16v16h-16z" fill="#1d1d1d"></path><path d="m1232 352h16v16h-16z" fill="#1d1d1d"></path><path d="m1248 352h16v16h-16z" fill="#1d1d1d"></path><path d="m1264 352h16v16h-16z" fill="#1d1d1d"></path><path d="m1280 352h16v16h-16z" fill="#ffd423"></path><path d="m1296 352h16v16h-16z" fill="#ffd423"></path><path d="m1312 352h16v16h-16z" fill="#ffd423"></path><path d="m1328 352h16v16h-16z" fill="#ffd423"></path><path d="m1344 352h16v16h-16z" fill="#ffd423"></path><path d="m1360 352h16v16h-16z" fill="#1d1d1d"></path><path d="m192 368h16v16h-16z" fill="#1e94f5"></path><path d="m208 368h16v16h-16z" fill="#1e94f5"></path><path d="m224 368h16v16h-16z" fill="#1e94f5"></path><path d="m240 368h16v16h-16z" fill="#1e94f5"></path><path d="m256 368h16v16h-16z" fill="#1e94f5"></path><path d="m272 368h16v16h-16z" fill="#058cf5"></path><path d="m288 368h16v16h-16z" fill="#1e94f5"></path><path d="m304 368h16v16h-16z" fill="#058cf5"></path><path d="m320 368h16v16h-16z" fill="#ffbf23"></path><path d="m336 368h16v16h-16z" fill="#ffbf23"></path><path d="m352 368h16v16h-16z" fill="#058cf5"></path><path d="m368 368h16v16h-16z" fill="#058cf5"></path><path d="m384 368h16v16h-16z" fill="#058cf5"></path><path d="m400 368h16v16h-16z" fill="#058cf5"></path><path d="m416 368h16v16h-16z" fill="#058cf5"></path><path d="m432 368h16v16h-16z" fill="#058cf5"></path><path d="m448 368h16v16h-16z" fill="#058cf5"></path><path d="m464 368h16v16h-16z" fill="#058cf5"></path><path d="m480 368h16v16h-16z" fill="#1d1d1d"></path><path d="m496 368h16v16h-16z" fill="#1d1d1d"></path><path d="m512 368h16v16h-16z" fill="#ffd423"></path><path d="m528 368h16v16h-16z" fill="#ffd423"></path><path d="m544 368h16v16h-16z" fill="#ffd423"></path><path d="m560 368h16v16h-16z" fill="#ffd423"></path><path d="m576 368h16v16h-16z" fill="#000000"></path><path d="m960 368h16v16h-16z" fill="#1e94f5"></path><path d="m976 368h16v16h-16z" fill="#1e94f5"></path><path d="m992 368h16v16h-16z" fill="#1e94f5"></path><path d="m1008 368h16v16h-16z" fill="#1e94f5"></path><path d="m1024 368h16v16h-16z" fill="#1e94f5"></path><path d="m1040 368h16v16h-16z" fill="#058cf5"></path><path d="m1056 368h16v16h-16z" fill="#1e94f5"></path><path d="m1072 368h16v16h-16z" fill="#058cf5"></path><path d="m1088 368h16v16h-16z" fill="#058cf5"></path><path d="m1104 368h16v16h-16z" fill="#ffbf23"></path><path d="m1120 368h16v16h-16z" fill="#058cf5"></path><path d="m1136 368h16v16h-16z" fill="#058cf5"></path><path d="m1152 368h16v16h-16z" fill="#058cf5"></path><path d="m1168 368h16v16h-16z" fill="#058cf5"></path><path d="m1184 368h16v16h-16z" fill="#058cf5"></path><path d="m1200 368h16v16h-16z" fill="#058cf5"></path><path d="m1216 368h16v16h-16z" fill="#058cf5"></path><path d="m1232 368h16v16h-16z" fill="#058cf5"></path><path d="m1248 368h16v16h-16z" fill="#1d1d1d"></path><path d="m1264 368h16v16h-16z" fill="#1d1d1d"></path><path d="m1280 368h16v16h-16z" fill="#ffd423"></path><path d="m1296 368h16v16h-16z" fill="#ffd423"></path><path d="m1312 368h16v16h-16z" fill="#ffd423"></path><path d="m1328 368h16v16h-16z" fill="#ffd423"></path><path d="m1344 368h16v16h-16z" fill="#ffd423"></path><path d="m1360 368h16v16h-16z" fill="#1d1d1d"></path><path d="m208 384h16v16h-16z" fill="#058cf5"></path><path d="m224 384h16v16h-16z" fill="#058cf5"></path><path d="m240 384h16v16h-16z" fill="#058cf5"></path><path d="m256 384h16v16h-16z" fill="#058cf5"></path><path d="m272 384h16v16h-16z" fill="#058cf5"></path><path d="m288 384h16v16h-16z" fill="#1e94f5"></path><path d="m304 384h16v16h-16z" fill="#058cf5"></path><path d="m320 384h16v16h-16z" fill="#ffd423"></path><path d="m336 384h16v16h-16z" fill="#ffd423"></path><path d="m352 384h16v16h-16z" fill="#058cf5"></path><path d="m368 384h16v16h-16z" fill="#058cf5"></path><path d="m384 384h16v16h-16z" fill="#058cf5"></path><path d="m400 384h16v16h-16z" fill="#058cf5"></path><path d="m416 384h16v16h-16z" fill="#058cf5"></path><path d="m432 384h16v16h-16z" fill="#058cf5"></path><path d="m448 384h16v16h-16z" fill="#058cf5"></path><path d="m464 384h16v16h-16z" fill="#1e94f5"></path><path d="m512 384h16v16h-16z" fill="#1d1d1d"></path><path d="m528 384h16v16h-16z" fill="#ffd423"></path><path d="m544 384h16v16h-16z" fill="#ffd423"></path><path d="m560 384h16v16h-16z" fill="#ffd423"></path><path d="m576 384h16v16h-16z" fill="#000000"></path><path d="m976 384h16v16h-16z" fill="#058cf5"></path><path d="m992 384h16v16h-16z" fill="#058cf5"></path><path d="m1008 384h16v16h-16z" fill="#058cf5"></path><path d="m1024 384h16v16h-16z" fill="#058cf5"></path><path d="m1040 384h16v16h-16z" fill="#058cf5"></path><path d="m1056 384h16v16h-16z" fill="#1e94f5"></path><path d="m1072 384h16v16h-16z" fill="#058cf5"></path><path d="m1088 384h16v16h-16z" fill="#058cf5"></path><path d="m1104 384h16v16h-16z" fill="#ffd423"></path><path d="m1120 384h16v16h-16z" fill="#058cf5"></path><path d="m1136 384h16v16h-16z" fill="#058cf5"></path><path d="m1152 384h16v16h-16z" fill="#058cf5"></path><path d="m1168 384h16v16h-16z" fill="#058cf5"></path><path d="m1184 384h16v16h-16z" fill="#058cf5"></path><path d="m1200 384h16v16h-16z" fill="#058cf5"></path><path d="m1216 384h16v16h-16z" fill="#058cf5"></path><path d="m1232 384h16v16h-16z" fill="#1e94f5"></path><path d="m1280 384h16v16h-16z" fill="#1d1d1d"></path><path d="m1296 384h16v16h-16z" fill="#ffd423"></path><path d="m1312 384h16v16h-16z" fill="#ffd423"></path><path d="m1328 384h16v16h-16z" fill="#ffd423"></path><path d="m1344 384h16v16h-16z" fill="#ffd423"></path><path d="m1360 384h16v16h-16z" fill="#1d1d1d"></path><path d="m224 400h16v16h-16z" fill="#058cf5"></path><path d="m240 400h16v16h-16z" fill="#058cf5"></path><path d="m256 400h16v16h-16z" fill="#058cf5"></path><path d="m272 400h16v16h-16z" fill="#058cf5"></path><path d="m288 400h16v16h-16z" fill="#058cf5"></path><path d="m304 400h16v16h-16z" fill="#058cf5"></path><path d="m320 400h16v16h-16z" fill="#058cf5"></path><path d="m336 400h16v16h-16z" fill="#ffbf23"></path><path d="m352 400h16v16h-16z" fill="#ffbf23"></path><path d="m368 400h16v16h-16z" fill="#058cf5"></path><path d="m384 400h16v16h-16z" fill="#058cf5"></path><path d="m400 400h16v16h-16z" fill="#058cf5"></path><path d="m416 400h16v16h-16z" fill="#058cf5"></path><path d="m432 400h16v16h-16z" fill="#1e94f5"></path><path d="m448 400h16v16h-16z" fill="#1e94f5"></path><path d="m464 400h16v16h-16z" fill="#0983e2"></path><path d="m480 400h16v16h-16z" fill="#0983e2"></path><path d="m528 400h16v16h-16z" fill="#1d1d1d"></path><path d="m544 400h16v16h-16z" fill="#1d1d1d"></path><path d="m560 400h16v16h-16z" fill="#ffd423"></path><path d="m576 400h16v16h-16z" fill="#000000"></path><path d="m992 400h16v16h-16z" fill="#058cf5"></path><path d="m1008 400h16v16h-16z" fill="#058cf5"></path><path d="m1024 400h16v16h-16z" fill="#058cf5"></path><path d="m1040 400h16v16h-16z" fill="#058cf5"></path><path d="m1056 400h16v16h-16z" fill="#058cf5"></path><path d="m1072 400h16v16h-16z" fill="#058cf5"></path><path d="m1088 400h16v16h-16z" fill="#058cf5"></path><path d="m1104 400h16v16h-16z" fill="#ffbf23"></path><path d="m1120 400h16v16h-16z" fill="#ffbf23"></path><path d="m1136 400h16v16h-16z" fill="#058cf5"></path><path d="m1152 400h16v16h-16z" fill="#058cf5"></path><path d="m1168 400h16v16h-16z" fill="#058cf5"></path><path d="m1184 400h16v16h-16z" fill="#058cf5"></path><path d="m1200 400h16v16h-16z" fill="#1e94f5"></path><path d="m1216 400h16v16h-16z" fill="#1e94f5"></path><path d="m1232 400h16v16h-16z" fill="#0983e2"></path><path d="m1248 400h16v16h-16z" fill="#0983e2"></path><path d="m1296 400h16v16h-16z" fill="#1d1d1d"></path><path d="m1312 400h16v16h-16z" fill="#1d1d1d"></path><path d="m1328 400h16v16h-16z" fill="#ffd423"></path><path d="m1344 400h16v16h-16z" fill="#ffd423"></path><path d="m1360 400h16v16h-16z" fill="#1d1d1d"></path><path d="m256 416h16v16h-16z" fill="#058cf5"></path><path d="m272 416h16v16h-16z" fill="#058cf5"></path><path d="m288 416h16v16h-16z" fill="#058cf5"></path><path d="m304 416h16v16h-16z" fill="#058cf5"></path><path d="m320 416h16v16h-16z" fill="#1e94f5"></path><path d="m336 416h16v16h-16z" fill="#1e94f5"></path><path d="m352 416h16v16h-16z" fill="#1e94f5"></path><path d="m368 416h16v16h-16z" fill="#1e94f5"></path><path d="m384 416h16v16h-16z" fill="#1e94f5"></path><path d="m400 416h16v16h-16z" fill="#1e94f5"></path><path d="m416 416h16v16h-16z" fill="#1e94f5"></path><path d="m432 416h16v16h-16z" fill="#0983e2"></path><path d="m448 416h16v16h-16z" fill="#1d1d1d"></path><path d="m464 416h16v16h-16z" fill="#0983e2"></path><path d="m480 416h16v16h-16z" fill="#2b2b2b"></path><path d="m560 416h16v16h-16z" fill="#1d1d1d"></path><path d="m1024 416h16v16h-16z" fill="#058cf5"></path><path d="m1040 416h16v16h-16z" fill="#058cf5"></path><path d="m1056 416h16v16h-16z" fill="#058cf5"></path><path d="m1072 416h16v16h-16z" fill="#058cf5"></path><path d="m1088 416h16v16h-16z" fill="#1e94f5"></path><path d="m1104 416h16v16h-16z" fill="#1e94f5"></path><path d="m1120 416h16v16h-16z" fill="#1e94f5"></path><path d="m1136 416h16v16h-16z" fill="#1e94f5"></path><path d="m1152 416h16v16h-16z" fill="#1e94f5"></path><path d="m1168 416h16v16h-16z" fill="#1e94f5"></path><path d="m1184 416h16v16h-16z" fill="#1e94f5"></path><path d="m1200 416h16v16h-16z" fill="#0983e2"></path><path d="m1216 416h16v16h-16z" fill="#1d1d1d"></path><path d="m1232 416h16v16h-16z" fill="#0983e2"></path><path d="m1248 416h16v16h-16z" fill="#2b2b2b"></path><path d="m1328 416h16v16h-16z" fill="#1d1d1d"></path><path d="m1344 416h16v16h-16z" fill="#1d1d1d"></path><path d="m320 432h16v16h-16z" fill="#0983e2"></path><path d="m336 432h16v16h-16z" fill="#0983e2"></path><path d="m368 432h16v16h-16z" fill="#0983e2"></path><path d="m384 432h16v16h-16z" fill="#1d1d1d"></path><path d="m400 432h16v16h-16z" fill="#0983e2"></path><path d="m416 432h16v16h-16z" fill="#1d1d1d"></path><path d="m432 432h16v16h-16z" fill="#0983e2"></path><path d="m448 432h16v16h-16z" fill="#2b2b2b"></path><path d="m464 432h16v16h-16z" fill="#1d1d1d"></path><path d="m1088 432h16v16h-16z" fill="#0983e2"></path><path d="m1104 432h16v16h-16z" fill="#0983e2"></path><path d="m1136 432h16v16h-16z" fill="#0983e2"></path><path d="m1152 432h16v16h-16z" fill="#1d1d1d"></path><path d="m1168 432h16v16h-16z" fill="#0983e2"></path><path d="m1184 432h16v16h-16z" fill="#1d1d1d"></path><path d="m1200 432h16v16h-16z" fill="#0983e2"></path><path d="m1216 432h16v16h-16z" fill="#2b2b2b"></path><path d="m1232 432h16v16h-16z" fill="#1d1d1d"></path><path d="m384 448h16v16h-16z" fill="#2b2b2b"></path><path d="m400 448h16v16h-16z" fill="#1d1d1d"></path><path d="m416 448h16v16h-16z" fill="#2b2b2b"></path><path d="m432 448h16v16h-16z" fill="#1d1d1d"></path><path d="m1152 448h16v16h-16z" fill="#2b2b2b"></path><path d="m1168 448h16v16h-16z" fill="#1d1d1d"></path><path d="m1184 448h16v16h-16z" fill="#2b2b2b"></path><path d="m1200 448h16v16h-16z" fill="#1d1d1d"></path></svg>