<svg viewBox="0 0 128 128" xmlns="http://www.w3.org/2000/svg" version="1.1"><path d="m48 32h16v16h-16z" fill="#f9bc56"></path><path d="m64 32h16v16h-16z" fill="#f9bc56"></path><path d="m32 48h16v16h-16z" fill="#f9bc56"></path><path d="m48 48h16v16h-16z" fill="#f9bc56"></path><path d="m64 48h16v16h-16z" fill="#f9bc56"></path><path d="m80 48h16v16h-16z" fill="#f9bc56"></path><path d="m32 64h16v16h-16z" fill="#f9bc56"></path><path d="m48 64h16v16h-16z" fill="#f9bc56"></path><path d="m64 64h16v16h-16z" fill="#f9bc56"></path><path d="m80 64h16v16h-16z" fill="#f9bc56"></path><path d="m48 80h16v16h-16z" fill="#f9bc56"></path><path d="m64 80h16v16h-16z" fill="#f9bc56"></path></svg>