<svg width="64" height="64" viewBox="0 0 64 64" fill="none" xmlns="http://www.w3.org/2000/svg">
<path d="M16 0H32V16H16V0Z" fill="#F9BC56"/>
<path d="M32 0H48V16H32V0Z" fill="#F9BC56"/>
<path d="M0 16H16V32H0V16Z" fill="#F9BC56"/>
<path d="M16 16H32V32H16V16Z" fill="#F9BC56"/>
<path d="M32 16H48V32H32V16Z" fill="#F9BC56"/>
<path d="M48 16H64V32H48V16Z" fill="#F9BC56"/>
<path d="M0 32H16V48H0V32Z" fill="#F9BC56"/>
<path d="M16 32H32V48H16V32Z" fill="#F9BC56"/>
<path d="M32 32H48V48H32V32Z" fill="#F9BC56"/>
<path d="M48 32H64V48H48V32Z" fill="#F9BC56"/>
<path d="M16 48H32V64H16V48Z" fill="#F9BC56"/>
<path d="M32 48H48V64H32V48Z" fill="#F9BC56"/>
</svg>
