<svg viewBox="0 0 2048 512" xmlns="http://www.w3.org/2000/svg" version="1.1"><path d="m176 112h16v16h-16z" fill="#4c2800"></path><path d="m176 128h16v16h-16z" fill="#371d00"></path><path d="m192 128h16v16h-16z" fill="#371d00"></path><path d="m720 128h16v16h-16z" fill="#371d00"></path><path d="m768 128h16v16h-16z" fill="#371d00"></path><path d="m784 128h16v16h-16z" fill="#371d00"></path><path d="m96 144h16v16h-16z" fill="#3f2100"></path><path d="m144 144h16v16h-16z" fill="#371d00"></path><path d="m160 144h16v16h-16z" fill="#371d00"></path><path d="m176 144h16v16h-16z" fill="#3f2100"></path><path d="m192 144h16v16h-16z" fill="#371d00"></path><path d="m208 144h16v16h-16z" fill="#371d00"></path><path d="m736 144h16v16h-16z" fill="#371d00"></path><path d="m752 144h16v16h-16z" fill="#371d00"></path><path d="m768 144h16v16h-16z" fill="#4c2800"></path><path d="m784 144h16v16h-16z" fill="#371d00"></path><path d="m800 144h16v16h-16z" fill="#2c1700"></path><path d="m80 160h16v16h-16z" fill="#3f2100"></path><path d="m128 160h16v16h-16z" fill="#371d00"></path><path d="m144 160h16v16h-16z" fill="#371d00"></path><path d="m160 160h16v16h-16z" fill="#371d00"></path><path d="m176 160h16v16h-16z" fill="#371d00"></path><path d="m192 160h16v16h-16z" fill="#371d00"></path><path d="m208 160h16v16h-16z" fill="#371d00"></path><path d="m224 160h16v16h-16z" fill="#371d00"></path><path d="m352 160h16v16h-16z" fill="#371d00"></path><path d="m368 160h16v16h-16z" fill="#371d00"></path><path d="m400 160h16v16h-16z" fill="#371d00"></path><path d="m672 160h16v16h-16z" fill="#2c1700"></path><path d="m720 160h16v16h-16z" fill="#371d00"></path><path d="m736 160h16v16h-16z" fill="#371d00"></path><path d="m752 160h16v16h-16z" fill="#371d00"></path><path d="m768 160h16v16h-16z" fill="#371d00"></path><path d="m784 160h16v16h-16z" fill="#371d00"></path><path d="m800 160h16v16h-16z" fill="#2c1700"></path><path d="m816 160h16v16h-16z" fill="#371d00"></path><path d="m832 160h16v16h-16z" fill="#371d00"></path><path d="m1280 160h16v16h-16z" fill="#2c1700"></path><path d="m80 176h16v16h-16z" fill="#371d00"></path><path d="m96 176h16v16h-16z" fill="#371d00"></path><path d="m112 176h16v16h-16z" fill="#371d00"></path><path d="m128 176h16v16h-16z" fill="#371d00"></path><path d="m144 176h16v16h-16z" fill="#371d00"></path><path d="m160 176h16v16h-16z" fill="#391e00"></path><path d="m176 176h16v16h-16z" fill="#2c1700"></path><path d="m192 176h16v16h-16z" fill="#371d00"></path><path d="m208 176h16v16h-16z" fill="#2c1700"></path><path d="m224 176h16v16h-16z" fill="#371d00"></path><path d="m240 176h16v16h-16z" fill="#371d00"></path><path d="m272 176h16v16h-16z" fill="#371d00"></path><path d="m288 176h16v16h-16z" fill="#4c2b06"></path><path d="m336 176h16v16h-16z" fill="#371d00"></path><path d="m352 176h16v16h-16z" fill="#371d00"></path><path d="m368 176h16v16h-16z" fill="#371d00"></path><path d="m384 176h16v16h-16z" fill="#371d00"></path><path d="m672 176h16v16h-16z" fill="#371d00"></path><path d="m704 176h16v16h-16z" fill="#371d00"></path><path d="m720 176h16v16h-16z" fill="#371d00"></path><path d="m736 176h16v16h-16z" fill="#371d00"></path><path d="m752 176h16v16h-16z" fill="#371d00"></path><path d="m768 176h16v16h-16z" fill="#371d00"></path><path d="m784 176h16v16h-16z" fill="#371d00"></path><path d="m800 176h16v16h-16z" fill="#371d00"></path><path d="m816 176h16v16h-16z" fill="#371d00"></path><path d="m832 176h16v16h-16z" fill="#4c2b06"></path><path d="m1264 176h16v16h-16z" fill="#4c2b06"></path><path d="m1280 176h16v16h-16z" fill="#2c1700"></path><path d="m1776 176h16v16h-16z" fill="#391e00"></path><path d="m1808 176h16v16h-16z" fill="#391e00"></path><path d="m1824 176h16v16h-16z" fill="#391e00"></path><path d="m1856 176h16v16h-16z" fill="#391e00"></path><path d="m80 192h16v16h-16z" fill="#371d00"></path><path d="m96 192h16v16h-16z" fill="#371d00"></path><path d="m112 192h16v16h-16z" fill="#2c1700"></path><path d="m128 192h16v16h-16z" fill="#4c2b06"></path><path d="m144 192h16v16h-16z" fill="#2c1700"></path><path d="m160 192h16v16h-16z" fill="#371d00"></path><path d="m176 192h16v16h-16z" fill="#371d00"></path><path d="m192 192h16v16h-16z" fill="#371d00"></path><path d="m208 192h16v16h-16z" fill="#371d00"></path><path d="m224 192h16v16h-16z" fill="#371d00"></path><path d="m240 192h16v16h-16z" fill="#371d00"></path><path d="m256 192h16v16h-16z" fill="#371d00"></path><path d="m272 192h16v16h-16z" fill="#371d00"></path><path d="m288 192h16v16h-16z" fill="#371d00"></path><path d="m304 192h16v16h-16z" fill="#371d00"></path><path d="m320 192h16v16h-16z" fill="#371d00"></path><path d="m336 192h16v16h-16z" fill="#4c2800"></path><path d="m352 192h16v16h-16z" fill="#3f2100"></path><path d="m368 192h16v16h-16z" fill="#371d00"></path><path d="m672 192h16v16h-16z" fill="#371d00"></path><path d="m688 192h16v16h-16z" fill="#371d00"></path><path d="m704 192h16v16h-16z" fill="#371d00"></path><path d="m720 192h16v16h-16z" fill="#371d00"></path><path d="m736 192h16v16h-16z" fill="#371d00"></path><path d="m752 192h16v16h-16z" fill="#4c2800"></path><path d="m768 192h16v16h-16z" fill="#371d00"></path><path d="m784 192h16v16h-16z" fill="#371d00"></path><path d="m800 192h16v16h-16z" fill="#371d00"></path><path d="m816 192h16v16h-16z" fill="#371d00"></path><path d="m832 192h16v16h-16z" fill="#371d00"></path><path d="m848 192h16v16h-16z" fill="#371d00"></path><path d="m864 192h16v16h-16z" fill="#2c1700"></path><path d="m1248 192h16v16h-16z" fill="#2c1700"></path><path d="m1264 192h16v16h-16z" fill="#2c1700"></path><path d="m1280 192h16v16h-16z" fill="#2c1700"></path><path d="m1296 192h16v16h-16z" fill="#422505"></path><path d="m1312 192h16v16h-16z" fill="#2c1700"></path><path d="m1760 192h16v16h-16z" fill="#391e00"></path><path d="m1776 192h16v16h-16z" fill="#4c2b06"></path><path d="m1792 192h16v16h-16z" fill="#391e00"></path><path d="m1808 192h16v16h-16z" fill="#391e00"></path><path d="m1824 192h16v16h-16z" fill="#2c1700"></path><path d="m1840 192h16v16h-16z" fill="#391e00"></path><path d="m96 208h16v16h-16z" fill="#371d00"></path><path d="m112 208h16v16h-16z" fill="#371d00"></path><path d="m128 208h16v16h-16z" fill="#371d00"></path><path d="m144 208h16v16h-16z" fill="#371d00"></path><path d="m160 208h16v16h-16z" fill="#371d00"></path><path d="m176 208h16v16h-16z" fill="#371d00"></path><path d="m192 208h16v16h-16z" fill="#2c1700"></path><path d="m208 208h16v16h-16z" fill="#371d00"></path><path d="m224 208h16v16h-16z" fill="#371d00"></path><path d="m240 208h16v16h-16z" fill="#3f2100"></path><path d="m256 208h16v16h-16z" fill="#371d00"></path><path d="m272 208h16v16h-16z" fill="#371d00"></path><path d="m288 208h16v16h-16z" fill="#371d00"></path><path d="m304 208h16v16h-16z" fill="#371d00"></path><path d="m320 208h16v16h-16z" fill="#371d00"></path><path d="m336 208h16v16h-16z" fill="#391e00"></path><path d="m352 208h16v16h-16z" fill="#371d00"></path><path d="m368 208h16v16h-16z" fill="#371d00"></path><path d="m384 208h16v16h-16z" fill="#4c2b06"></path><path d="m640 208h16v16h-16z" fill="#371d00"></path><path d="m656 208h16v16h-16z" fill="#371d00"></path><path d="m672 208h16v16h-16z" fill="#4c2b06"></path><path d="m688 208h16v16h-16z" fill="#371d00"></path><path d="m704 208h16v16h-16z" fill="#371d00"></path><path d="m720 208h16v16h-16z" fill="#371d00"></path><path d="m736 208h16v16h-16z" fill="#371d00"></path><path d="m752 208h16v16h-16z" fill="#371d00"></path><path d="m768 208h16v16h-16z" fill="#371d00"></path><path d="m784 208h16v16h-16z" fill="#371d00"></path><path d="m800 208h16v16h-16z" fill="#371d00"></path><path d="m816 208h16v16h-16z" fill="#371d00"></path><path d="m832 208h16v16h-16z" fill="#4c2800"></path><path d="m848 208h16v16h-16z" fill="#371d00"></path><path d="m864 208h16v16h-16z" fill="#371d00"></path><path d="m880 208h16v16h-16z" fill="#371d00"></path><path d="m1248 208h16v16h-16z" fill="#2c1700"></path><path d="m1264 208h16v16h-16z" fill="#2c1700"></path><path d="m1280 208h16v16h-16z" fill="#2c1700"></path><path d="m1296 208h16v16h-16z" fill="#2c1700"></path><path d="m1744 208h16v16h-16z" fill="#391e00"></path><path d="m1760 208h16v16h-16z" fill="#391e00"></path><path d="m1776 208h16v16h-16z" fill="#391e00"></path><path d="m1792 208h16v16h-16z" fill="#391e00"></path><path d="m1808 208h16v16h-16z" fill="#391e00"></path><path d="m1824 208h16v16h-16z" fill="#391e00"></path><path d="m1840 208h16v16h-16z" fill="#391e00"></path><path d="m1856 208h16v16h-16z" fill="#391e00"></path><path d="m112 224h16v16h-16z" fill="#371d00"></path><path d="m128 224h16v16h-16z" fill="#371d00"></path><path d="m144 224h16v16h-16z" fill="#2c1700"></path><path d="m160 224h16v16h-16z" fill="#371d00"></path><path d="m176 224h16v16h-16z" fill="#371d00"></path><path d="m192 224h16v16h-16z" fill="#371d00"></path><path d="m208 224h16v16h-16z" fill="#371d00"></path><path d="m224 224h16v16h-16z" fill="#371d00"></path><path d="m240 224h16v16h-16z" fill="#371d00"></path><path d="m256 224h16v16h-16z" fill="#371d00"></path><path d="m272 224h16v16h-16z" fill="#371d00"></path><path d="m288 224h16v16h-16z" fill="#2c1700"></path><path d="m304 224h16v16h-16z" fill="#371d00"></path><path d="m320 224h16v16h-16z" fill="#371d00"></path><path d="m336 224h16v16h-16z" fill="#371d00"></path><path d="m352 224h16v16h-16z" fill="#371d00"></path><path d="m368 224h16v16h-16z" fill="#371d00"></path><path d="m384 224h16v16h-16z" fill="#371d00"></path><path d="m640 224h16v16h-16z" fill="#371d00"></path><path d="m656 224h16v16h-16z" fill="#371d00"></path><path d="m672 224h16v16h-16z" fill="#371d00"></path><path d="m688 224h16v16h-16z" fill="#371d00"></path><path d="m704 224h16v16h-16z" fill="#371d00"></path><path d="m720 224h16v16h-16z" fill="#371d00"></path><path d="m736 224h16v16h-16z" fill="#371d00"></path><path d="m752 224h16v16h-16z" fill="#371d00"></path><path d="m768 224h16v16h-16z" fill="#2c1700"></path><path d="m784 224h16v16h-16z" fill="#2c1700"></path><path d="m800 224h16v16h-16z" fill="#371d00"></path><path d="m816 224h16v16h-16z" fill="#371d00"></path><path d="m832 224h16v16h-16z" fill="#371d00"></path><path d="m848 224h16v16h-16z" fill="#371d00"></path><path d="m864 224h16v16h-16z" fill="#371d00"></path><path d="m880 224h16v16h-16z" fill="#371d00"></path><path d="m1216 224h16v16h-16z" fill="#2c1700"></path><path d="m1232 224h16v16h-16z" fill="#4c2b06"></path><path d="m1248 224h16v16h-16z" fill="#2c1700"></path><path d="m1264 224h16v16h-16z" fill="#422505"></path><path d="m1280 224h16v16h-16z" fill="#2c1700"></path><path d="m1296 224h16v16h-16z" fill="#2c1700"></path><path d="m1312 224h16v16h-16z" fill="#4c2b06"></path><path d="m1760 224h16v16h-16z" fill="#2c1700"></path><path d="m1776 224h16v16h-16z" fill="#391e00"></path><path d="m1792 224h16v16h-16z" fill="#391e00"></path><path d="m1808 224h16v16h-16z" fill="#2c1700"></path><path d="m1824 224h16v16h-16z" fill="#391e00"></path><path d="m1840 224h16v16h-16z" fill="#391e00"></path><path d="m1856 224h16v16h-16z" fill="#391e00"></path><path d="m1888 224h16v16h-16z" fill="#391e00"></path><path d="m96 240h16v16h-16z" fill="#371d00"></path><path d="m112 240h16v16h-16z" fill="#371d00"></path><path d="m128 240h16v16h-16z" fill="#371d00"></path><path d="m144 240h16v16h-16z" fill="#2c1700"></path><path d="m160 240h16v16h-16z" fill="#3f2100"></path><path d="m176 240h16v16h-16z" fill="#371d00"></path><path d="m192 240h16v16h-16z" fill="#371d00"></path><path d="m208 240h16v16h-16z" fill="#371d00"></path><path d="m224 240h16v16h-16z" fill="#2c1700"></path><path d="m240 240h16v16h-16z" fill="#371d00"></path><path d="m256 240h16v16h-16z" fill="#371d00"></path><path d="m272 240h16v16h-16z" fill="#371d00"></path><path d="m288 240h16v16h-16z" fill="#371d00"></path><path d="m304 240h16v16h-16z" fill="#371d00"></path><path d="m320 240h16v16h-16z" fill="#371d00"></path><path d="m336 240h16v16h-16z" fill="#3f2100"></path><path d="m352 240h16v16h-16z" fill="#371d00"></path><path d="m368 240h16v16h-16z" fill="#371d00"></path><path d="m384 240h16v16h-16z" fill="#371d00"></path><path d="m656 240h16v16h-16z" fill="#371d00"></path><path d="m672 240h16v16h-16z" fill="#422506"></path><path d="m688 240h16v16h-16z" fill="#371d00"></path><path d="m704 240h16v16h-16z" fill="#371d00"></path><path d="m720 240h16v16h-16z" fill="#371d00"></path><path d="m736 240h16v16h-16z" fill="#371d00"></path><path d="m752 240h16v16h-16z" fill="#422505"></path><path d="m768 240h16v16h-16z" fill="#371d00"></path><path d="m784 240h16v16h-16z" fill="#371d00"></path><path d="m800 240h16v16h-16z" fill="#371d00"></path><path d="m816 240h16v16h-16z" fill="#371d00"></path><path d="m832 240h16v16h-16z" fill="#371d00"></path><path d="m848 240h16v16h-16z" fill="#371d00"></path><path d="m864 240h16v16h-16z" fill="#2c1700"></path><path d="m1216 240h16v16h-16z" fill="#422505"></path><path d="m1232 240h16v16h-16z" fill="#2c1700"></path><path d="m1248 240h16v16h-16z" fill="#2c1700"></path><path d="m1264 240h16v16h-16z" fill="#391e00"></path><path d="m1280 240h16v16h-16z" fill="#2c1700"></path><path d="m1296 240h16v16h-16z" fill="#2c1700"></path><path d="m1312 240h16v16h-16z" fill="#2c1700"></path><path d="m1328 240h16v16h-16z" fill="#2c1700"></path><path d="m1728 240h16v16h-16z" fill="#391e00"></path><path d="m1744 240h16v16h-16z" fill="#391e00"></path><path d="m1760 240h16v16h-16z" fill="#391e00"></path><path d="m1776 240h16v16h-16z" fill="#4c2b06"></path><path d="m1792 240h16v16h-16z" fill="#391e00"></path><path d="m1808 240h16v16h-16z" fill="#391e00"></path><path d="m1824 240h16v16h-16z" fill="#391e00"></path><path d="m1840 240h16v16h-16z" fill="#391e00"></path><path d="m1856 240h16v16h-16z" fill="#2c1700"></path><path d="m1872 240h16v16h-16z" fill="#391e00"></path><path d="m128 256h16v16h-16z" fill="#371d00"></path><path d="m144 256h16v16h-16z" fill="#371d00"></path><path d="m160 256h16v16h-16z" fill="#371d00"></path><path d="m176 256h16v16h-16z" fill="#371d00"></path><path d="m192 256h16v16h-16z" fill="#4c2800"></path><path d="m208 256h16v16h-16z" fill="#371d00"></path><path d="m224 256h16v16h-16z" fill="#371d00"></path><path d="m240 256h16v16h-16z" fill="#371d00"></path><path d="m256 256h16v16h-16z" fill="#371d00"></path><path d="m272 256h16v16h-16z" fill="#3f2100"></path><path d="m288 256h16v16h-16z" fill="#371d00"></path><path d="m304 256h16v16h-16z" fill="#371d00"></path><path d="m320 256h16v16h-16z" fill="#371d00"></path><path d="m336 256h16v16h-16z" fill="#371d00"></path><path d="m352 256h16v16h-16z" fill="#371d00"></path><path d="m672 256h16v16h-16z" fill="#371d00"></path><path d="m688 256h16v16h-16z" fill="#371d00"></path><path d="m704 256h16v16h-16z" fill="#4c2800"></path><path d="m720 256h16v16h-16z" fill="#371d00"></path><path d="m736 256h16v16h-16z" fill="#371d00"></path><path d="m752 256h16v16h-16z" fill="#371d00"></path><path d="m768 256h16v16h-16z" fill="#371d00"></path><path d="m784 256h16v16h-16z" fill="#371d00"></path><path d="m800 256h16v16h-16z" fill="#371d00"></path><path d="m816 256h16v16h-16z" fill="#371d00"></path><path d="m832 256h16v16h-16z" fill="#371d00"></path><path d="m848 256h16v16h-16z" fill="#371d00"></path><path d="m864 256h16v16h-16z" fill="#2c1700"></path><path d="m1200 256h16v16h-16z" fill="#2c1700"></path><path d="m1232 256h16v16h-16z" fill="#2c1700"></path><path d="m1248 256h16v16h-16z" fill="#2c1700"></path><path d="m1264 256h16v16h-16z" fill="#2c1700"></path><path d="m1280 256h16v16h-16z" fill="#2c1700"></path><path d="m1296 256h16v16h-16z" fill="#422505"></path><path d="m1312 256h16v16h-16z" fill="#2c1700"></path><path d="m1328 256h16v16h-16z" fill="#422505"></path><path d="m1344 256h16v16h-16z" fill="#2c1700"></path><path d="m1360 256h16v16h-16z" fill="#2c1700"></path><path d="m1744 256h16v16h-16z" fill="#391e00"></path><path d="m1760 256h16v16h-16z" fill="#391e00"></path><path d="m1776 256h16v16h-16z" fill="#391e00"></path><path d="m1792 256h16v16h-16z" fill="#391e00"></path><path d="m1808 256h16v16h-16z" fill="#391e00"></path><path d="m1824 256h16v16h-16z" fill="#391e00"></path><path d="m1840 256h16v16h-16z" fill="#391e00"></path><path d="m1856 256h16v16h-16z" fill="#391e00"></path><path d="m1872 256h16v16h-16z" fill="#391e00"></path><path d="m1888 256h16v16h-16z" fill="#391e00"></path><path d="m128 272h16v16h-16z" fill="#4c2800"></path><path d="m144 272h16v16h-16z" fill="#371d00"></path><path d="m192 272h16v16h-16z" fill="#371d00"></path><path d="m208 272h16v16h-16z" fill="#371d00"></path><path d="m224 272h16v16h-16z" fill="#371d00"></path><path d="m240 272h16v16h-16z" fill="#371d00"></path><path d="m256 272h16v16h-16z" fill="#371d00"></path><path d="m272 272h16v16h-16z" fill="#371d00"></path><path d="m288 272h16v16h-16z" fill="#371d00"></path><path d="m304 272h16v16h-16z" fill="#371d00"></path><path d="m320 272h16v16h-16z" fill="#371d00"></path><path d="m336 272h16v16h-16z" fill="#371d00"></path><path d="m352 272h16v16h-16z" fill="#371d00"></path><path d="m368 272h16v16h-16z" fill="#371d00"></path><path d="m624 272h16v16h-16z" fill="#371d00"></path><path d="m640 272h16v16h-16z" fill="#371d00"></path><path d="m656 272h16v16h-16z" fill="#371d00"></path><path d="m672 272h16v16h-16z" fill="#371d00"></path><path d="m688 272h16v16h-16z" fill="#371d00"></path><path d="m704 272h16v16h-16z" fill="#371d00"></path><path d="m720 272h16v16h-16z" fill="#371d00"></path><path d="m736 272h16v16h-16z" fill="#371d00"></path><path d="m752 272h16v16h-16z" fill="#371d00"></path><path d="m768 272h16v16h-16z" fill="#371d00"></path><path d="m784 272h16v16h-16z" fill="#371d00"></path><path d="m800 272h16v16h-16z" fill="#371d00"></path><path d="m816 272h16v16h-16z" fill="#4c2800"></path><path d="m832 272h16v16h-16z" fill="#371d00"></path><path d="m848 272h16v16h-16z" fill="#371d00"></path><path d="m864 272h16v16h-16z" fill="#371d00"></path><path d="m1248 272h16v16h-16z" fill="#2c1700"></path><path d="m1264 272h16v16h-16z" fill="#4c2b06"></path><path d="m1280 272h16v16h-16z" fill="#2c1700"></path><path d="m1296 272h16v16h-16z" fill="#2c1700"></path><path d="m1312 272h16v16h-16z" fill="#2c1700"></path><path d="m1328 272h16v16h-16z" fill="#2c1700"></path><path d="m1344 272h16v16h-16z" fill="#4c2b06"></path><path d="m1376 272h16v16h-16z" fill="#2c1700"></path><path d="m1712 272h16v16h-16z" fill="#391e00"></path><path d="m1728 272h16v16h-16z" fill="#4c2b06"></path><path d="m1744 272h16v16h-16z" fill="#391e00"></path><path d="m1760 272h16v16h-16z" fill="#2c1700"></path><path d="m1776 272h16v16h-16z" fill="#391e00"></path><path d="m1792 272h16v16h-16z" fill="#371d00"></path><path d="m1808 272h16v16h-16z" fill="#391e00"></path><path d="m1824 272h16v16h-16z" fill="#391e00"></path><path d="m1840 272h16v16h-16z" fill="#391e00"></path><path d="m1856 272h16v16h-16z" fill="#4c2b06"></path><path d="m1872 272h16v16h-16z" fill="#2c1700"></path><path d="m1888 272h16v16h-16z" fill="#391e00"></path><path d="m1904 272h16v16h-16z" fill="#4c2b06"></path><path d="m192 288h16v16h-16z" fill="#371d00"></path><path d="m208 288h16v16h-16z" fill="#4c2b06"></path><path d="m224 288h16v16h-16z" fill="#371d00"></path><path d="m240 288h16v16h-16z" fill="#3f2100"></path><path d="m256 288h16v16h-16z" fill="#371d00"></path><path d="m272 288h16v16h-16z" fill="#2c1700"></path><path d="m288 288h16v16h-16z" fill="#371d00"></path><path d="m304 288h16v16h-16z" fill="#371d00"></path><path d="m320 288h16v16h-16z" fill="#371d00"></path><path d="m336 288h16v16h-16z" fill="#2c1700"></path><path d="m352 288h16v16h-16z" fill="#371d00"></path><path d="m368 288h16v16h-16z" fill="#371d00"></path><path d="m640 288h16v16h-16z" fill="#371d00"></path><path d="m656 288h16v16h-16z" fill="#2c1700"></path><path d="m688 288h16v16h-16z" fill="#371d00"></path><path d="m704 288h16v16h-16z" fill="#371d00"></path><path d="m720 288h16v16h-16z" fill="#371d00"></path><path d="m736 288h16v16h-16z" fill="#371d00"></path><path d="m752 288h16v16h-16z" fill="#371d00"></path><path d="m768 288h16v16h-16z" fill="#371d00"></path><path d="m784 288h16v16h-16z" fill="#371d00"></path><path d="m800 288h16v16h-16z" fill="#371d00"></path><path d="m816 288h16v16h-16z" fill="#371d00"></path><path d="m832 288h16v16h-16z" fill="#371d00"></path><path d="m848 288h16v16h-16z" fill="#371d00"></path><path d="m864 288h16v16h-16z" fill="#371d00"></path><path d="m880 288h16v16h-16z" fill="#371d00"></path><path d="m1232 288h16v16h-16z" fill="#2c1700"></path><path d="m1248 288h16v16h-16z" fill="#2c1700"></path><path d="m1264 288h16v16h-16z" fill="#2c1700"></path><path d="m1280 288h16v16h-16z" fill="#2c1700"></path><path d="m1296 288h16v16h-16z" fill="#2c1700"></path><path d="m1312 288h16v16h-16z" fill="#391e00"></path><path d="m1328 288h16v16h-16z" fill="#2c1700"></path><path d="m1344 288h16v16h-16z" fill="#2c1700"></path><path d="m1744 288h16v16h-16z" fill="#391e00"></path><path d="m1760 288h16v16h-16z" fill="#391e00"></path><path d="m1776 288h16v16h-16z" fill="#391e00"></path><path d="m1792 288h16v16h-16z" fill="#4c2b06"></path><path d="m1808 288h16v16h-16z" fill="#391e00"></path><path d="m1824 288h16v16h-16z" fill="#371d00"></path><path d="m1840 288h16v16h-16z" fill="#391e00"></path><path d="m1856 288h16v16h-16z" fill="#391e00"></path><path d="m1872 288h16v16h-16z" fill="#391e00"></path><path d="m176 304h16v16h-16z" fill="#371d00"></path><path d="m208 304h16v16h-16z" fill="#371d00"></path><path d="m224 304h16v16h-16z" fill="#371d00"></path><path d="m240 304h16v16h-16z" fill="#371d00"></path><path d="m256 304h16v16h-16z" fill="#371d00"></path><path d="m272 304h16v16h-16z" fill="#371d00"></path><path d="m288 304h16v16h-16z" fill="#371d00"></path><path d="m304 304h16v16h-16z" fill="#371d00"></path><path d="m320 304h16v16h-16z" fill="#4c2800"></path><path d="m336 304h16v16h-16z" fill="#371d00"></path><path d="m352 304h16v16h-16z" fill="#371d00"></path><path d="m368 304h16v16h-16z" fill="#4c2800"></path><path d="m384 304h16v16h-16z" fill="#3f2100"></path><path d="m704 304h16v16h-16z" fill="#371d00"></path><path d="m720 304h16v16h-16z" fill="#371d00"></path><path d="m736 304h16v16h-16z" fill="#2c1700"></path><path d="m752 304h16v16h-16z" fill="#371d00"></path><path d="m768 304h16v16h-16z" fill="#422506"></path><path d="m784 304h16v16h-16z" fill="#371d00"></path><path d="m800 304h16v16h-16z" fill="#371d00"></path><path d="m816 304h16v16h-16z" fill="#422505"></path><path d="m832 304h16v16h-16z" fill="#371d00"></path><path d="m848 304h16v16h-16z" fill="#371d00"></path><path d="m864 304h16v16h-16z" fill="#371d00"></path><path d="m880 304h16v16h-16z" fill="#371d00"></path><path d="m896 304h16v16h-16z" fill="#371d00"></path><path d="m928 304h16v16h-16z" fill="#371d00"></path><path d="m1232 304h16v16h-16z" fill="#422505"></path><path d="m1280 304h16v16h-16z" fill="#4c2b06"></path><path d="m1296 304h16v16h-16z" fill="#2c1700"></path><path d="m1312 304h16v16h-16z" fill="#2c1700"></path><path d="m1328 304h16v16h-16z" fill="#422505"></path><path d="m1344 304h16v16h-16z" fill="#2c1700"></path><path d="m1360 304h16v16h-16z" fill="#2c1700"></path><path d="m1760 304h16v16h-16z" fill="#2c1700"></path><path d="m1776 304h16v16h-16z" fill="#391e00"></path><path d="m1792 304h16v16h-16z" fill="#391e00"></path><path d="m1808 304h16v16h-16z" fill="#2c1700"></path><path d="m1824 304h16v16h-16z" fill="#391e00"></path><path d="m1840 304h16v16h-16z" fill="#2c1700"></path><path d="m1856 304h16v16h-16z" fill="#2c1700"></path><path d="m1872 304h16v16h-16z" fill="#391e00"></path><path d="m1888 304h16v16h-16z" fill="#391e00"></path><path d="m208 320h16v16h-16z" fill="#371d00"></path><path d="m224 320h16v16h-16z" fill="#371d00"></path><path d="m240 320h16v16h-16z" fill="#2c1700"></path><path d="m256 320h16v16h-16z" fill="#371d00"></path><path d="m272 320h16v16h-16z" fill="#371d00"></path><path d="m288 320h16v16h-16z" fill="#371d00"></path><path d="m304 320h16v16h-16z" fill="#2c1700"></path><path d="m320 320h16v16h-16z" fill="#371d00"></path><path d="m336 320h16v16h-16z" fill="#371d00"></path><path d="m672 320h16v16h-16z" fill="#371d00"></path><path d="m688 320h16v16h-16z" fill="#371d00"></path><path d="m704 320h16v16h-16z" fill="#371d00"></path><path d="m720 320h16v16h-16z" fill="#371d00"></path><path d="m736 320h16v16h-16z" fill="#371d00"></path><path d="m752 320h16v16h-16z" fill="#371d00"></path><path d="m768 320h16v16h-16z" fill="#371d00"></path><path d="m784 320h16v16h-16z" fill="#371d00"></path><path d="m800 320h16v16h-16z" fill="#371d00"></path><path d="m816 320h16v16h-16z" fill="#371d00"></path><path d="m832 320h16v16h-16z" fill="#371d00"></path><path d="m848 320h16v16h-16z" fill="#371d00"></path><path d="m864 320h16v16h-16z" fill="#371d00"></path><path d="m880 320h16v16h-16z" fill="#371d00"></path><path d="m896 320h16v16h-16z" fill="#2c1700"></path><path d="m912 320h16v16h-16z" fill="#371d00"></path><path d="m928 320h16v16h-16z" fill="#371d00"></path><path d="m944 320h16v16h-16z" fill="#371d00"></path><path d="m1296 320h16v16h-16z" fill="#2c1700"></path><path d="m1312 320h16v16h-16z" fill="#2c1700"></path><path d="m1328 320h16v16h-16z" fill="#2c1700"></path><path d="m1760 320h16v16h-16z" fill="#391e00"></path><path d="m1776 320h16v16h-16z" fill="#391e00"></path><path d="m1792 320h16v16h-16z" fill="#391e00"></path><path d="m1808 320h16v16h-16z" fill="#391e00"></path><path d="m1824 320h16v16h-16z" fill="#391e00"></path><path d="m1840 320h16v16h-16z" fill="#391e00"></path><path d="m1856 320h16v16h-16z" fill="#391e00"></path><path d="m192 336h16v16h-16z" fill="#371d00"></path><path d="m208 336h16v16h-16z" fill="#371d00"></path><path d="m224 336h16v16h-16z" fill="#371d00"></path><path d="m240 336h16v16h-16z" fill="#371d00"></path><path d="m256 336h16v16h-16z" fill="#371d00"></path><path d="m272 336h16v16h-16z" fill="#371d00"></path><path d="m288 336h16v16h-16z" fill="#371d00"></path><path d="m304 336h16v16h-16z" fill="#371d00"></path><path d="m320 336h16v16h-16z" fill="#371d00"></path><path d="m400 336h16v16h-16z" fill="#371d00"></path><path d="m656 336h16v16h-16z" fill="#371d00"></path><path d="m672 336h16v16h-16z" fill="#371d00"></path><path d="m688 336h16v16h-16z" fill="#4c2800"></path><path d="m704 336h16v16h-16z" fill="#371d00"></path><path d="m720 336h16v16h-16z" fill="#371d00"></path><path d="m736 336h16v16h-16z" fill="#371d00"></path><path d="m752 336h16v16h-16z" fill="#371d00"></path><path d="m768 336h16v16h-16z" fill="#371d00"></path><path d="m784 336h16v16h-16z" fill="#371d00"></path><path d="m800 336h16v16h-16z" fill="#371d00"></path><path d="m816 336h16v16h-16z" fill="#371d00"></path><path d="m832 336h16v16h-16z" fill="#371d00"></path><path d="m848 336h16v16h-16z" fill="#422506"></path><path d="m864 336h16v16h-16z" fill="#371d00"></path><path d="m880 336h16v16h-16z" fill="#371d00"></path><path d="m896 336h16v16h-16z" fill="#371d00"></path><path d="m912 336h16v16h-16z" fill="#371d00"></path><path d="m928 336h16v16h-16z" fill="#371d00"></path><path d="m944 336h16v16h-16z" fill="#422505"></path><path d="m960 336h16v16h-16z" fill="#371d00"></path><path d="m1312 336h16v16h-16z" fill="#2c1700"></path><path d="m1760 336h16v16h-16z" fill="#391e00"></path><path d="m1792 336h16v16h-16z" fill="#391e00"></path><path d="m1808 336h16v16h-16z" fill="#391e00"></path><path d="m1824 336h16v16h-16z" fill="#4c2b06"></path><path d="m1840 336h16v16h-16z" fill="#391e00"></path><path d="m1872 336h16v16h-16z" fill="#391e00"></path><path d="m208 352h16v16h-16z" fill="#371d00"></path><path d="m224 352h16v16h-16z" fill="#371d00"></path><path d="m288 352h16v16h-16z" fill="#371d00"></path><path d="m304 352h16v16h-16z" fill="#371d00"></path><path d="m656 352h16v16h-16z" fill="#371d00"></path><path d="m672 352h16v16h-16z" fill="#371d00"></path><path d="m688 352h16v16h-16z" fill="#371d00"></path><path d="m704 352h16v16h-16z" fill="#371d00"></path><path d="m720 352h16v16h-16z" fill="#422506"></path><path d="m736 352h16v16h-16z" fill="#371d00"></path><path d="m768 352h16v16h-16z" fill="#371d00"></path><path d="m784 352h16v16h-16z" fill="#4c2800"></path><path d="m800 352h16v16h-16z" fill="#371d00"></path><path d="m816 352h16v16h-16z" fill="#371d00"></path><path d="m832 352h16v16h-16z" fill="#371d00"></path><path d="m848 352h16v16h-16z" fill="#371d00"></path><path d="m864 352h16v16h-16z" fill="#371d00"></path><path d="m880 352h16v16h-16z" fill="#4c2b06"></path><path d="m896 352h16v16h-16z" fill="#371d00"></path><path d="m912 352h16v16h-16z" fill="#422506"></path><path d="m928 352h16v16h-16z" fill="#422506"></path><path d="m1824 352h16v16h-16z" fill="#391e00"></path><path d="m304 368h16v16h-16z" fill="#371d00"></path><path d="m672 368h16v16h-16z" fill="#2c1700"></path><path d="m688 368h16v16h-16z" fill="#371d00"></path><path d="m704 368h16v16h-16z" fill="#4c2800"></path><path d="m720 368h16v16h-16z" fill="#371d00"></path><path d="m816 368h16v16h-16z" fill="#371d00"></path><path d="m832 368h16v16h-16z" fill="#371d00"></path><path d="m848 368h16v16h-16z" fill="#371d00"></path><path d="m864 368h16v16h-16z" fill="#371d00"></path><path d="m880 368h16v16h-16z" fill="#371d00"></path><path d="m896 368h16v16h-16z" fill="#371d00"></path><path d="m912 368h16v16h-16z" fill="#371d00"></path><path d="m928 368h16v16h-16z" fill="#371d00"></path><path d="m688 384h16v16h-16z" fill="#371d00"></path><path d="m704 384h16v16h-16z" fill="#371d00"></path><path d="m800 384h16v16h-16z" fill="#371d00"></path><path d="m816 384h16v16h-16z" fill="#371d00"></path><path d="m832 384h16v16h-16z" fill="#371d00"></path><path d="m848 384h16v16h-16z" fill="#2c1700"></path><path d="m864 384h16v16h-16z" fill="#371d00"></path><path d="m880 384h16v16h-16z" fill="#422506"></path><path d="m896 384h16v16h-16z" fill="#4c2800"></path><path d="m912 384h16v16h-16z" fill="#371d00"></path><path d="m928 384h16v16h-16z" fill="#371d00"></path><path d="m832 400h16v16h-16z" fill="#371d00"></path><path d="m848 400h16v16h-16z" fill="#371d00"></path><path d="m864 400h16v16h-16z" fill="#371d00"></path><path d="m880 400h16v16h-16z" fill="#371d00"></path><path d="m896 400h16v16h-16z" fill="#371d00"></path><path d="m912 400h16v16h-16z" fill="#371d00"></path><path d="m832 416h16v16h-16z" fill="#2c1700"></path><path d="m848 416h16v16h-16z" fill="#371d00"></path><path d="m864 416h16v16h-16z" fill="#371d00"></path><path d="m880 416h16v16h-16z" fill="#371d00"></path><path d="m896 416h16v16h-16z" fill="#371d00"></path><path d="m928 416h16v16h-16z" fill="#371d00"></path><path d="m864 432h16v16h-16z" fill="#371d00"></path><path d="m880 432h16v16h-16z" fill="#371d00"></path></svg>