<svg viewBox="0 0 512 512" xmlns="http://www.w3.org/2000/svg" version="1.1"><path d="m256 80h16v16h-16z" fill="#2c1700"></path><path d="m224 96h16v16h-16z" fill="#391e00"></path><path d="m240 96h16v16h-16z" fill="#391e00"></path><path d="m208 112h16v16h-16z" fill="#391e00"></path><path d="m224 112h16v16h-16z" fill="#2c1700"></path><path d="m240 112h16v16h-16z" fill="#412200"></path><path d="m256 112h16v16h-16z" fill="#412200"></path><path d="m272 112h16v16h-16z" fill="#2c1700"></path><path d="m208 128h16v16h-16z" fill="#412200"></path><path d="m224 128h16v16h-16z" fill="#412200"></path><path d="m240 128h16v16h-16z" fill="#412200"></path><path d="m256 128h16v16h-16z" fill="#412200"></path><path d="m272 128h16v16h-16z" fill="#412200"></path><path d="m288 128h16v16h-16z" fill="#412200"></path><path d="m144 144h16v16h-16z" fill="#391e00"></path><path d="m160 144h16v16h-16z" fill="#391e00"></path><path d="m176 144h16v16h-16z" fill="#391e00"></path><path d="m192 144h16v16h-16z" fill="#412200"></path><path d="m208 144h16v16h-16z" fill="#371d00"></path><path d="m224 144h16v16h-16z" fill="#371d00"></path><path d="m240 144h16v16h-16z" fill="#412200"></path><path d="m256 144h16v16h-16z" fill="#412200"></path><path d="m272 144h16v16h-16z" fill="#2c1700"></path><path d="m288 144h16v16h-16z" fill="#412200"></path><path d="m304 144h16v16h-16z" fill="#4c2b06"></path><path d="m336 144h16v16h-16z" fill="#391e00"></path><path d="m352 144h16v16h-16z" fill="#391e00"></path><path d="m128 160h16v16h-16z" fill="#2c1700"></path><path d="m160 160h16v16h-16z" fill="#391e00"></path><path d="m176 160h16v16h-16z" fill="#412200"></path><path d="m192 160h16v16h-16z" fill="#412200"></path><path d="m208 160h16v16h-16z" fill="#412200"></path><path d="m224 160h16v16h-16z" fill="#412200"></path><path d="m240 160h16v16h-16z" fill="#412200"></path><path d="m256 160h16v16h-16z" fill="#412200"></path><path d="m272 160h16v16h-16z" fill="#412200"></path><path d="m288 160h16v16h-16z" fill="#412200"></path><path d="m304 160h16v16h-16z" fill="#412200"></path><path d="m320 160h16v16h-16z" fill="#412200"></path><path d="m336 160h16v16h-16z" fill="#391e00"></path><path d="m352 160h16v16h-16z" fill="#391e00"></path><path d="m368 160h16v16h-16z" fill="#391e00"></path><path d="m96 176h16v16h-16z" fill="#391e00"></path><path d="m128 176h16v16h-16z" fill="#391e00"></path><path d="m144 176h16v16h-16z" fill="#391e00"></path><path d="m160 176h16v16h-16z" fill="#412200"></path><path d="m176 176h16v16h-16z" fill="#412200"></path><path d="m192 176h16v16h-16z" fill="#412200"></path><path d="m208 176h16v16h-16z" fill="#371d00"></path><path d="m224 176h16v16h-16z" fill="#412200"></path><path d="m240 176h16v16h-16z" fill="#4c2800"></path><path d="m256 176h16v16h-16z" fill="#412200"></path><path d="m272 176h16v16h-16z" fill="#412200"></path><path d="m288 176h16v16h-16z" fill="#412200"></path><path d="m304 176h16v16h-16z" fill="#2c1700"></path><path d="m320 176h16v16h-16z" fill="#2c1700"></path><path d="m336 176h16v16h-16z" fill="#2c1700"></path><path d="m112 192h16v16h-16z" fill="#391e00"></path><path d="m144 192h16v16h-16z" fill="#412200"></path><path d="m160 192h16v16h-16z" fill="#4c2b06"></path><path d="m176 192h16v16h-16z" fill="#412200"></path><path d="m192 192h16v16h-16z" fill="#412200"></path><path d="m208 192h16v16h-16z" fill="#412200"></path><path d="m224 192h16v16h-16z" fill="#412200"></path><path d="m240 192h16v16h-16z" fill="#412200"></path><path d="m256 192h16v16h-16z" fill="#412200"></path><path d="m272 192h16v16h-16z" fill="#371d00"></path><path d="m288 192h16v16h-16z" fill="#412200"></path><path d="m304 192h16v16h-16z" fill="#412200"></path><path d="m320 192h16v16h-16z" fill="#4c2800"></path><path d="m336 192h16v16h-16z" fill="#412200"></path><path d="m352 192h16v16h-16z" fill="#412200"></path><path d="m112 208h16v16h-16z" fill="#412200"></path><path d="m128 208h16v16h-16z" fill="#412200"></path><path d="m144 208h16v16h-16z" fill="#412200"></path><path d="m160 208h16v16h-16z" fill="#412200"></path><path d="m176 208h16v16h-16z" fill="#2c1700"></path><path d="m192 208h16v16h-16z" fill="#4c2800"></path><path d="m208 208h16v16h-16z" fill="#412200"></path><path d="m224 208h16v16h-16z" fill="#412200"></path><path d="m240 208h16v16h-16z" fill="#412200"></path><path d="m256 208h16v16h-16z" fill="#412200"></path><path d="m272 208h16v16h-16z" fill="#412200"></path><path d="m288 208h16v16h-16z" fill="#412200"></path><path d="m304 208h16v16h-16z" fill="#412200"></path><path d="m320 208h16v16h-16z" fill="#412200"></path><path d="m336 208h16v16h-16z" fill="#412200"></path><path d="m352 208h16v16h-16z" fill="#412200"></path><path d="m368 208h16v16h-16z" fill="#412200"></path><path d="m384 208h16v16h-16z" fill="#412200"></path><path d="m416 208h16v16h-16z" fill="#391e00"></path><path d="m96 224h16v16h-16z" fill="#412200"></path><path d="m112 224h16v16h-16z" fill="#412200"></path><path d="m128 224h16v16h-16z" fill="#371d00"></path><path d="m144 224h16v16h-16z" fill="#2c1700"></path><path d="m160 224h16v16h-16z" fill="#412200"></path><path d="m176 224h16v16h-16z" fill="#412200"></path><path d="m192 224h16v16h-16z" fill="#412200"></path><path d="m208 224h16v16h-16z" fill="#251300"></path><path d="m224 224h16v16h-16z" fill="#4c2800"></path><path d="m240 224h16v16h-16z" fill="#412200"></path><path d="m256 224h16v16h-16z" fill="#2c1700"></path><path d="m272 224h16v16h-16z" fill="#3f2100"></path><path d="m288 224h16v16h-16z" fill="#412200"></path><path d="m304 224h16v16h-16z" fill="#412200"></path><path d="m320 224h16v16h-16z" fill="#412200"></path><path d="m336 224h16v16h-16z" fill="#412200"></path><path d="m352 224h16v16h-16z" fill="#412200"></path><path d="m368 224h16v16h-16z" fill="#412200"></path><path d="m384 224h16v16h-16z" fill="#2c1700"></path><path d="m400 224h16v16h-16z" fill="#2c1700"></path><path d="m432 224h16v16h-16z" fill="#391e00"></path><path d="m80 240h16v16h-16z" fill="#391e00"></path><path d="m96 240h16v16h-16z" fill="#2c1700"></path><path d="m112 240h16v16h-16z" fill="#412200"></path><path d="m128 240h16v16h-16z" fill="#412200"></path><path d="m144 240h16v16h-16z" fill="#412200"></path><path d="m160 240h16v16h-16z" fill="#251300"></path><path d="m176 240h16v16h-16z" fill="#412200"></path><path d="m192 240h16v16h-16z" fill="#412200"></path><path d="m208 240h16v16h-16z" fill="#4c2800"></path><path d="m224 240h16v16h-16z" fill="#412200"></path><path d="m240 240h16v16h-16z" fill="#412200"></path><path d="m256 240h16v16h-16z" fill="#412200"></path><path d="m272 240h16v16h-16z" fill="#371d00"></path><path d="m288 240h16v16h-16z" fill="#412200"></path><path d="m304 240h16v16h-16z" fill="#4c2800"></path><path d="m320 240h16v16h-16z" fill="#412200"></path><path d="m336 240h16v16h-16z" fill="#251300"></path><path d="m352 240h16v16h-16z" fill="#412200"></path><path d="m368 240h16v16h-16z" fill="#371d00"></path><path d="m384 240h16v16h-16z" fill="#412200"></path><path d="m400 240h16v16h-16z" fill="#4c2800"></path><path d="m416 240h16v16h-16z" fill="#391e00"></path><path d="m64 256h16v16h-16z" fill="#391e00"></path><path d="m80 256h16v16h-16z" fill="#391e00"></path><path d="m96 256h16v16h-16z" fill="#2c1700"></path><path d="m112 256h16v16h-16z" fill="#412200"></path><path d="m128 256h16v16h-16z" fill="#371d00"></path><path d="m144 256h16v16h-16z" fill="#412200"></path><path d="m160 256h16v16h-16z" fill="#4c2800"></path><path d="m176 256h16v16h-16z" fill="#412200"></path><path d="m192 256h16v16h-16z" fill="#371d00"></path><path d="m208 256h16v16h-16z" fill="#412200"></path><path d="m224 256h16v16h-16z" fill="#4c2800"></path><path d="m240 256h16v16h-16z" fill="#412200"></path><path d="m256 256h16v16h-16z" fill="#412200"></path><path d="m272 256h16v16h-16z" fill="#412200"></path><path d="m288 256h16v16h-16z" fill="#412200"></path><path d="m304 256h16v16h-16z" fill="#412200"></path><path d="m320 256h16v16h-16z" fill="#412200"></path><path d="m336 256h16v16h-16z" fill="#412200"></path><path d="m352 256h16v16h-16z" fill="#412200"></path><path d="m368 256h16v16h-16z" fill="#412200"></path><path d="m384 256h16v16h-16z" fill="#412200"></path><path d="m400 256h16v16h-16z" fill="#412200"></path><path d="m96 272h16v16h-16z" fill="#412200"></path><path d="m112 272h16v16h-16z" fill="#412200"></path><path d="m128 272h16v16h-16z" fill="#391e00"></path><path d="m144 272h16v16h-16z" fill="#412200"></path><path d="m160 272h16v16h-16z" fill="#412200"></path><path d="m176 272h16v16h-16z" fill="#412200"></path><path d="m192 272h16v16h-16z" fill="#412200"></path><path d="m208 272h16v16h-16z" fill="#412200"></path><path d="m224 272h16v16h-16z" fill="#412200"></path><path d="m240 272h16v16h-16z" fill="#412200"></path><path d="m256 272h16v16h-16z" fill="#3f2100"></path><path d="m272 272h16v16h-16z" fill="#4c2800"></path><path d="m288 272h16v16h-16z" fill="#412200"></path><path d="m304 272h16v16h-16z" fill="#391e00"></path><path d="m320 272h16v16h-16z" fill="#412200"></path><path d="m336 272h16v16h-16z" fill="#371d00"></path><path d="m352 272h16v16h-16z" fill="#412200"></path><path d="m368 272h16v16h-16z" fill="#412200"></path><path d="m384 272h16v16h-16z" fill="#371d00"></path><path d="m400 272h16v16h-16z" fill="#2c1700"></path><path d="m112 288h16v16h-16z" fill="#2c1700"></path><path d="m128 288h16v16h-16z" fill="#412200"></path><path d="m144 288h16v16h-16z" fill="#412200"></path><path d="m160 288h16v16h-16z" fill="#4c2800"></path><path d="m176 288h16v16h-16z" fill="#4c2800"></path><path d="m192 288h16v16h-16z" fill="#412200"></path><path d="m208 288h16v16h-16z" fill="#371d00"></path><path d="m224 288h16v16h-16z" fill="#412200"></path><path d="m240 288h16v16h-16z" fill="#412200"></path><path d="m256 288h16v16h-16z" fill="#412200"></path><path d="m272 288h16v16h-16z" fill="#412200"></path><path d="m288 288h16v16h-16z" fill="#412200"></path><path d="m304 288h16v16h-16z" fill="#412200"></path><path d="m320 288h16v16h-16z" fill="#391e00"></path><path d="m336 288h16v16h-16z" fill="#412200"></path><path d="m352 288h16v16h-16z" fill="#412200"></path><path d="m368 288h16v16h-16z" fill="#412200"></path><path d="m384 288h16v16h-16z" fill="#412200"></path><path d="m128 304h16v16h-16z" fill="#412200"></path><path d="m144 304h16v16h-16z" fill="#412200"></path><path d="m160 304h16v16h-16z" fill="#412200"></path><path d="m176 304h16v16h-16z" fill="#412200"></path><path d="m192 304h16v16h-16z" fill="#3f2100"></path><path d="m208 304h16v16h-16z" fill="#412200"></path><path d="m224 304h16v16h-16z" fill="#412200"></path><path d="m240 304h16v16h-16z" fill="#251300"></path><path d="m256 304h16v16h-16z" fill="#412200"></path><path d="m272 304h16v16h-16z" fill="#412200"></path><path d="m288 304h16v16h-16z" fill="#412200"></path><path d="m304 304h16v16h-16z" fill="#251300"></path><path d="m320 304h16v16h-16z" fill="#4c2800"></path><path d="m336 304h16v16h-16z" fill="#412200"></path><path d="m352 304h16v16h-16z" fill="#371d00"></path><path d="m368 304h16v16h-16z" fill="#412200"></path><path d="m384 304h16v16h-16z" fill="#391e00"></path><path d="m112 320h16v16h-16z" fill="#4c2b06"></path><path d="m128 320h16v16h-16z" fill="#391e00"></path><path d="m144 320h16v16h-16z" fill="#391e00"></path><path d="m160 320h16v16h-16z" fill="#412200"></path><path d="m176 320h16v16h-16z" fill="#371d00"></path><path d="m192 320h16v16h-16z" fill="#412200"></path><path d="m208 320h16v16h-16z" fill="#371d00"></path><path d="m224 320h16v16h-16z" fill="#412200"></path><path d="m240 320h16v16h-16z" fill="#412200"></path><path d="m256 320h16v16h-16z" fill="#412200"></path><path d="m272 320h16v16h-16z" fill="#412200"></path><path d="m288 320h16v16h-16z" fill="#4c2800"></path><path d="m304 320h16v16h-16z" fill="#412200"></path><path d="m320 320h16v16h-16z" fill="#412200"></path><path d="m336 320h16v16h-16z" fill="#412200"></path><path d="m400 320h16v16h-16z" fill="#391e00"></path><path d="m128 336h16v16h-16z" fill="#391e00"></path><path d="m144 336h16v16h-16z" fill="#391e00"></path><path d="m176 336h16v16h-16z" fill="#412200"></path><path d="m192 336h16v16h-16z" fill="#412200"></path><path d="m208 336h16v16h-16z" fill="#412200"></path><path d="m224 336h16v16h-16z" fill="#412200"></path><path d="m240 336h16v16h-16z" fill="#412200"></path><path d="m256 336h16v16h-16z" fill="#391e00"></path><path d="m272 336h16v16h-16z" fill="#412200"></path><path d="m288 336h16v16h-16z" fill="#412200"></path><path d="m304 336h16v16h-16z" fill="#412200"></path><path d="m320 336h16v16h-16z" fill="#412200"></path><path d="m192 352h16v16h-16z" fill="#2c1700"></path><path d="m208 352h16v16h-16z" fill="#412200"></path><path d="m224 352h16v16h-16z" fill="#391e00"></path><path d="m240 352h16v16h-16z" fill="#4c2800"></path><path d="m256 352h16v16h-16z" fill="#412200"></path><path d="m272 352h16v16h-16z" fill="#412200"></path><path d="m288 352h16v16h-16z" fill="#4c2800"></path><path d="m304 352h16v16h-16z" fill="#2c1700"></path><path d="m320 352h16v16h-16z" fill="#391e00"></path><path d="m336 352h16v16h-16z" fill="#391e00"></path><path d="m208 368h16v16h-16z" fill="#412200"></path><path d="m224 368h16v16h-16z" fill="#412200"></path><path d="m240 368h16v16h-16z" fill="#412200"></path><path d="m256 368h16v16h-16z" fill="#412200"></path><path d="m272 368h16v16h-16z" fill="#412200"></path><path d="m288 368h16v16h-16z" fill="#412200"></path><path d="m352 368h16v16h-16z" fill="#391e00"></path><path d="m208 384h16v16h-16z" fill="#391e00"></path><path d="m224 384h16v16h-16z" fill="#412200"></path><path d="m240 384h16v16h-16z" fill="#2c1700"></path><path d="m256 384h16v16h-16z" fill="#412200"></path><path d="m272 384h16v16h-16z" fill="#412200"></path><path d="m192 400h16v16h-16z" fill="#391e00"></path><path d="m256 400h16v16h-16z" fill="#391e00"></path></svg>