<svg width="640" height="736" viewBox="0 0 640 736" fill="none" xmlns="http://www.w3.org/2000/svg">
<path d="M112 0H128V16H112V0Z" fill="#70D4C4"/>
<path d="M128 0H144V16H128V0Z" fill="#5FBAAC"/>
<path d="M144 0H160V16H144V0Z" fill="#5FBAAC"/>
<path d="M160 0H176V16H160V0Z" fill="#5FBAAC"/>
<path d="M176 0H192V16H176V0Z" fill="#5FBAAC"/>
<path d="M432 0H448V16H432V0Z" fill="#70D4C4"/>
<path d="M448 0H464V16H448V0Z" fill="#5FBAAC"/>
<path d="M464 0H480V16H464V0Z" fill="#5FBAAC"/>
<path d="M480 0H496V16H480V0Z" fill="#5FBAAC"/>
<path d="M496 0H512V16H496V0Z" fill="#5FBAAC"/>
<path d="M80 16H96V32H80V16Z" fill="#71D6C6"/>
<path d="M96 16H112V32H96V16Z" fill="#6FD5C4"/>
<path d="M112 16H128V32H112V16Z" fill="#649E95"/>
<path d="M128 16H144V32H128V16Z" fill="#649E95"/>
<path d="M144 16H160V32H144V16Z" fill="#649E95"/>
<path d="M160 16H176V32H160V16Z" fill="#649E95"/>
<path d="M176 16H192V32H176V16Z" fill="#649E95"/>
<path d="M192 16H208V32H192V16Z" fill="#5FBAAC"/>
<path d="M208 16H224V32H208V16Z" fill="#5FBAAC"/>
<path d="M400 16H416V32H400V16Z" fill="#71D6C6"/>
<path d="M416 16H432V32H416V16Z" fill="#6FD5C4"/>
<path d="M432 16H448V32H432V16Z" fill="#649E95"/>
<path d="M448 16H464V32H448V16Z" fill="#649E95"/>
<path d="M464 16H480V32H464V16Z" fill="#649E95"/>
<path d="M480 16H496V32H480V16Z" fill="#649E95"/>
<path d="M496 16H512V32H496V16Z" fill="#649E95"/>
<path d="M512 16H528V32H512V16Z" fill="#5FBAAC"/>
<path d="M528 16H544V32H528V16Z" fill="#5FBAAC"/>
<path d="M64 32H80V48H64V32Z" fill="#70D4C4"/>
<path d="M80 32H96V48H80V32Z" fill="#649E95"/>
<path d="M96 32H112V48H96V32Z" fill="#649E95"/>
<path d="M112 32H128V48H112V32Z" fill="#649E95"/>
<path d="M128 32H144V48H128V32Z" fill="#649E95"/>
<path d="M144 32H160V48H144V32Z" fill="#649E95"/>
<path d="M160 32H176V48H160V32Z" fill="#649E95"/>
<path d="M176 32H192V48H176V32Z" fill="#649E95"/>
<path d="M192 32H208V48H192V32Z" fill="#649E95"/>
<path d="M208 32H224V48H208V32Z" fill="#649E95"/>
<path d="M224 32H240V48H224V32Z" fill="#C55882"/>
<path d="M240 32H256V48H240V32Z" fill="#5FC1B2"/>
<path d="M384 32H400V48H384V32Z" fill="#70D4C4"/>
<path d="M400 32H416V48H400V32Z" fill="#649E95"/>
<path d="M416 32H432V48H416V32Z" fill="#649E95"/>
<path d="M432 32H448V48H432V32Z" fill="#649E95"/>
<path d="M448 32H464V48H448V32Z" fill="#649E95"/>
<path d="M464 32H480V48H464V32Z" fill="#649E95"/>
<path d="M480 32H496V48H480V32Z" fill="#649E95"/>
<path d="M496 32H512V48H496V32Z" fill="#649E95"/>
<path d="M512 32H528V48H512V32Z" fill="#649E95"/>
<path d="M528 32H544V48H528V32Z" fill="#649E95"/>
<path d="M544 32H560V48H544V32Z" fill="#C55882"/>
<path d="M560 32H576V48H560V32Z" fill="#5FC1B2"/>
<path d="M48 48H64V64H48V48Z" fill="#70D4C4"/>
<path d="M64 48H80V64H64V48Z" fill="#649E95"/>
<path d="M80 48H96V64H80V48Z" fill="#649E95"/>
<path d="M96 48H112V64H96V48Z" fill="#649E95"/>
<path d="M112 48H128V64H112V48Z" fill="#90B798"/>
<path d="M128 48H144V64H128V48Z" fill="#90B798"/>
<path d="M144 48H160V64H144V48Z" fill="#AD6887"/>
<path d="M160 48H176V64H160V48Z" fill="#90B798"/>
<path d="M176 48H192V64H176V48Z" fill="#90B798"/>
<path d="M192 48H208V64H192V48Z" fill="#649E95"/>
<path d="M208 48H224V64H208V48Z" fill="#649E95"/>
<path d="M224 48H240V64H224V48Z" fill="#649E95"/>
<path d="M240 48H256V64H240V48Z" fill="#C55882"/>
<path d="M256 48H272V64H256V48Z" fill="#6FD5C4"/>
<path d="M368 48H384V64H368V48Z" fill="#70D4C4"/>
<path d="M384 48H400V64H384V48Z" fill="#649E95"/>
<path d="M400 48H416V64H400V48Z" fill="#649E95"/>
<path d="M416 48H432V64H416V48Z" fill="#649E95"/>
<path d="M432 48H448V64H432V48Z" fill="#90B798"/>
<path d="M448 48H464V64H448V48Z" fill="#90B798"/>
<path d="M464 48H480V64H464V48Z" fill="#AD6887"/>
<path d="M480 48H496V64H480V48Z" fill="#90B798"/>
<path d="M496 48H512V64H496V48Z" fill="#90B798"/>
<path d="M512 48H528V64H512V48Z" fill="#649E95"/>
<path d="M528 48H544V64H528V48Z" fill="#649E95"/>
<path d="M544 48H560V64H544V48Z" fill="#649E95"/>
<path d="M560 48H576V64H560V48Z" fill="#C55882"/>
<path d="M576 48H592V64H576V48Z" fill="#6FD5C4"/>
<path d="M32 64H48V80H32V64Z" fill="#70D4C4"/>
<path d="M48 64H64V80H48V64Z" fill="#649E95"/>
<path d="M64 64H80V80H64V64Z" fill="#649E95"/>
<path d="M80 64H96V80H80V64Z" fill="#649E95"/>
<path d="M96 64H112V80H96V64Z" fill="#90B798"/>
<path d="M112 64H128V80H112V64Z" fill="#A3C084"/>
<path d="M128 64H144V80H128V64Z" fill="#A3C084"/>
<path d="M144 64H160V80H144V64Z" fill="#B87A8B"/>
<path d="M160 64H176V80H160V64Z" fill="#A3C084"/>
<path d="M176 64H192V80H176V64Z" fill="#A3C084"/>
<path d="M192 64H208V80H192V64Z" fill="#C96284"/>
<path d="M208 64H224V80H208V64Z" fill="#90B798"/>
<path d="M224 64H240V80H224V64Z" fill="#649E95"/>
<path d="M240 64H256V80H240V64Z" fill="#C55882"/>
<path d="M256 64H272V80H256V64Z" fill="#649E95"/>
<path d="M272 64H288V80H272V64Z" fill="#6FD5C4"/>
<path d="M352 64H368V80H352V64Z" fill="#70D4C4"/>
<path d="M368 64H384V80H368V64Z" fill="#649E95"/>
<path d="M384 64H400V80H384V64Z" fill="#649E95"/>
<path d="M400 64H416V80H400V64Z" fill="#649E95"/>
<path d="M416 64H432V80H416V64Z" fill="#90B798"/>
<path d="M432 64H448V80H432V64Z" fill="#A3C084"/>
<path d="M448 64H464V80H448V64Z" fill="#A3C084"/>
<path d="M464 64H480V80H464V64Z" fill="#B87A8B"/>
<path d="M480 64H496V80H480V64Z" fill="#A3C084"/>
<path d="M496 64H512V80H496V64Z" fill="#A3C084"/>
<path d="M512 64H528V80H512V64Z" fill="#C96284"/>
<path d="M528 64H544V80H528V64Z" fill="#90B798"/>
<path d="M544 64H560V80H544V64Z" fill="#649E95"/>
<path d="M560 64H576V80H560V64Z" fill="#C55882"/>
<path d="M576 64H592V80H576V64Z" fill="#649E95"/>
<path d="M592 64H608V80H592V64Z" fill="#6FD5C4"/>
<path d="M16 80H32V96H16V80Z" fill="#5FBAAC"/>
<path d="M32 80H48V96H32V80Z" fill="#71D3C3"/>
<path d="M48 80H64V96H48V80Z" fill="#649E95"/>
<path d="M64 80H80V96H64V80Z" fill="#AD6887"/>
<path d="M80 80H96V96H80V80Z" fill="#90B798"/>
<path d="M96 80H112V96H96V80Z" fill="#BD8681"/>
<path d="M112 80H128V96H112V80Z" fill="#A3C084"/>
<path d="M128 80H144V96H128V80Z" fill="#BD8681"/>
<path d="M144 80H160V96H144V80Z" fill="#A3C084"/>
<path d="M160 80H176V96H160V80Z" fill="#A3C084"/>
<path d="M176 80H192V96H176V80Z" fill="#A3C084"/>
<path d="M192 80H208V96H192V80Z" fill="#CA6980"/>
<path d="M208 80H224V96H208V80Z" fill="#A3C084"/>
<path d="M224 80H240V96H224V80Z" fill="#C96284"/>
<path d="M240 80H256V96H240V80Z" fill="#C55882"/>
<path d="M256 80H272V96H256V80Z" fill="#C55882"/>
<path d="M272 80H288V96H272V80Z" fill="#649E95"/>
<path d="M288 80H304V96H288V80Z" fill="#5FC1B2"/>
<path d="M336 80H352V96H336V80Z" fill="#5FBAAC"/>
<path d="M352 80H368V96H352V80Z" fill="#71D3C3"/>
<path d="M368 80H384V96H368V80Z" fill="#649E95"/>
<path d="M384 80H400V96H384V80Z" fill="#AD6887"/>
<path d="M400 80H416V96H400V80Z" fill="#90B798"/>
<path d="M416 80H432V96H416V80Z" fill="#BD8681"/>
<path d="M432 80H448V96H432V80Z" fill="#A3C084"/>
<path d="M448 80H464V96H448V80Z" fill="#BD8681"/>
<path d="M464 80H480V96H464V80Z" fill="#A3C084"/>
<path d="M480 80H496V96H480V80Z" fill="#A3C084"/>
<path d="M496 80H512V96H496V80Z" fill="#A3C084"/>
<path d="M512 80H528V96H512V80Z" fill="#CA6980"/>
<path d="M528 80H544V96H528V80Z" fill="#A3C084"/>
<path d="M544 80H560V96H544V80Z" fill="#C96284"/>
<path d="M560 80H576V96H560V80Z" fill="#C55882"/>
<path d="M576 80H592V96H576V80Z" fill="#C55882"/>
<path d="M592 80H608V96H592V80Z" fill="#649E95"/>
<path d="M608 80H624V96H608V80Z" fill="#5FC1B2"/>
<path d="M0 96H16V112H0V96Z" fill="#5FBAAC"/>
<path d="M16 96H32V112H16V96Z" fill="#649E95"/>
<path d="M32 96H48V112H32V96Z" fill="#649E95"/>
<path d="M48 96H64V112H48V96Z" fill="#C55882"/>
<path d="M64 96H80V112H64V96Z" fill="#90B798"/>
<path d="M80 96H96V112H80V96Z" fill="#A3C084"/>
<path d="M96 96H112V112H96V96Z" fill="#BD8681"/>
<path d="M112 96H128V112H112V96Z" fill="#A3C084"/>
<path d="M128 96H144V112H128V96Z" fill="#BD8681"/>
<path d="M144 96H160V112H144V96Z" fill="#BD8681"/>
<path d="M160 96H176V112H160V96Z" fill="#BD8681"/>
<path d="M176 96H192V112H176V96Z" fill="#BD8681"/>
<path d="M192 96H208V112H192V96Z" fill="#BD8681"/>
<path d="M208 96H224V112H208V96Z" fill="#CA6980"/>
<path d="M224 96H240V112H224V96Z" fill="#C96284"/>
<path d="M240 96H256V112H240V96Z" fill="#C55882"/>
<path d="M256 96H272V112H256V96Z" fill="#C55882"/>
<path d="M272 96H288V112H272V96Z" fill="#649E95"/>
<path d="M288 96H304V112H288V96Z" fill="#649E95"/>
<path d="M304 96H320V112H304V96Z" fill="#5FC1B2"/>
<path d="M320 96H336V112H320V96Z" fill="#5FBAAC"/>
<path d="M336 96H352V112H336V96Z" fill="#649E95"/>
<path d="M352 96H368V112H352V96Z" fill="#649E95"/>
<path d="M368 96H384V112H368V96Z" fill="#C55882"/>
<path d="M384 96H400V112H384V96Z" fill="#90B798"/>
<path d="M400 96H416V112H400V96Z" fill="#A3C084"/>
<path d="M416 96H432V112H416V96Z" fill="#BD8681"/>
<path d="M432 96H448V112H432V96Z" fill="#A3C084"/>
<path d="M448 96H464V112H448V96Z" fill="#BD8681"/>
<path d="M464 96H480V112H464V96Z" fill="#BD8681"/>
<path d="M480 96H496V112H480V96Z" fill="#BD8681"/>
<path d="M496 96H512V112H496V96Z" fill="#BD8681"/>
<path d="M512 96H528V112H512V96Z" fill="#BD8681"/>
<path d="M528 96H544V112H528V96Z" fill="#CA6980"/>
<path d="M544 96H560V112H544V96Z" fill="#C96284"/>
<path d="M560 96H576V112H560V96Z" fill="#C55882"/>
<path d="M576 96H592V112H576V96Z" fill="#C55882"/>
<path d="M592 96H608V112H592V96Z" fill="#649E95"/>
<path d="M608 96H624V112H608V96Z" fill="#649E95"/>
<path d="M624 96H640V112H624V96Z" fill="#5FC1B2"/>
<path d="M0 112H16V128H0V112Z" fill="#649E95"/>
<path d="M16 112H32V128H16V112Z" fill="#C55882"/>
<path d="M32 112H48V128H32V112Z" fill="#C55882"/>
<path d="M48 112H64V128H48V112Z" fill="#B87A8B"/>
<path d="M64 112H80V128H64V112Z" fill="#BD8681"/>
<path d="M80 112H96V128H80V112Z" fill="#BD8681"/>
<path d="M96 112H112V128H96V112Z" fill="#BD8681"/>
<path d="M112 112H128V128H112V112Z" fill="#BD8681"/>
<path d="M128 112H144V128H128V112Z" fill="#EFE971"/>
<path d="M144 112H160V128H144V112Z" fill="#EFE971"/>
<path d="M160 112H176V128H160V112Z" fill="#EFE971"/>
<path d="M176 112H192V128H176V112Z" fill="#BD8681"/>
<path d="M192 112H208V128H192V112Z" fill="#CA6980"/>
<path d="M208 112H224V128H208V112Z" fill="#CA6980"/>
<path d="M224 112H240V128H224V112Z" fill="#EFE971"/>
<path d="M240 112H256V128H240V112Z" fill="#7EBCB2"/>
<path d="M256 112H272V128H256V112Z" fill="#7EBCB2"/>
<path d="M272 112H288V128H272V112Z" fill="#C55882"/>
<path d="M288 112H304V128H288V112Z" fill="#C55882"/>
<path d="M304 112H320V128H304V112Z" fill="#5FC1B2"/>
<path d="M320 112H336V128H320V112Z" fill="#649E95"/>
<path d="M336 112H352V128H336V112Z" fill="#C55882"/>
<path d="M352 112H368V128H352V112Z" fill="#C55882"/>
<path d="M368 112H384V128H368V112Z" fill="#B87A8B"/>
<path d="M384 112H400V128H384V112Z" fill="#BD8681"/>
<path d="M400 112H416V128H400V112Z" fill="#BD8681"/>
<path d="M416 112H432V128H416V112Z" fill="#BD8681"/>
<path d="M432 112H448V128H432V112Z" fill="#BD8681"/>
<path d="M448 112H464V128H448V112Z" fill="#EFE971"/>
<path d="M464 112H480V128H464V112Z" fill="#EFE971"/>
<path d="M480 112H496V128H480V112Z" fill="#EFE971"/>
<path d="M496 112H512V128H496V112Z" fill="#BD8681"/>
<path d="M512 112H528V128H512V112Z" fill="#CA6980"/>
<path d="M528 112H544V128H528V112Z" fill="#CA6980"/>
<path d="M544 112H560V128H544V112Z" fill="#EFE971"/>
<path d="M560 112H576V128H560V112Z" fill="#7EBCB2"/>
<path d="M576 112H592V128H576V112Z" fill="#7EBCB2"/>
<path d="M592 112H608V128H592V112Z" fill="#C55882"/>
<path d="M608 112H624V128H608V112Z" fill="#C55882"/>
<path d="M624 112H640V128H624V112Z" fill="#5FC1B2"/>
<path d="M0 128H16V144H0V128Z" fill="#AD6887"/>
<path d="M16 128H32V144H16V128Z" fill="#AD6887"/>
<path d="M32 128H48V144H32V128Z" fill="#649E95"/>
<path d="M48 128H64V144H48V128Z" fill="#7EBCB2"/>
<path d="M64 128H80V144H64V128Z" fill="#8EC2B2"/>
<path d="M80 128H96V144H80V128Z" fill="#EFE971"/>
<path d="M96 128H112V144H96V128Z" fill="#EFE971"/>
<path d="M112 128H128V144H112V128Z" fill="#EFE971"/>
<path d="M128 128H144V144H128V128Z" fill="#EFE971"/>
<path d="M144 128H160V144H144V128Z" fill="#D74A7E"/>
<path d="M160 128H176V144H160V128Z" fill="#EFE971"/>
<path d="M176 128H192V144H176V128Z" fill="#EFE971"/>
<path d="M192 128H208V144H192V128Z" fill="#EFE971"/>
<path d="M208 128H224V144H208V128Z" fill="#D74A7E"/>
<path d="M224 128H240V144H224V128Z" fill="#EFE971"/>
<path d="M240 128H256V144H240V128Z" fill="#85C5BB"/>
<path d="M256 128H272V144H256V128Z" fill="#7EBCB2"/>
<path d="M272 128H288V144H272V128Z" fill="#649E95"/>
<path d="M288 128H304V144H288V128Z" fill="#649E95"/>
<path d="M304 128H320V144H304V128Z" fill="#5FC4B4"/>
<path d="M320 128H336V144H320V128Z" fill="#AD6887"/>
<path d="M336 128H352V144H336V128Z" fill="#AD6887"/>
<path d="M352 128H368V144H352V128Z" fill="#649E95"/>
<path d="M368 128H384V144H368V128Z" fill="#7EBCB2"/>
<path d="M384 128H400V144H384V128Z" fill="#8EC2B2"/>
<path d="M400 128H416V144H400V128Z" fill="#EFE971"/>
<path d="M416 128H432V144H416V128Z" fill="#EFE971"/>
<path d="M432 128H448V144H432V128Z" fill="#EFE971"/>
<path d="M448 128H464V144H448V128Z" fill="#EFE971"/>
<path d="M464 128H480V144H464V128Z" fill="#D74A7E"/>
<path d="M480 128H496V144H480V128Z" fill="#EFE971"/>
<path d="M496 128H512V144H496V128Z" fill="#EFE971"/>
<path d="M512 128H528V144H512V128Z" fill="#EFE971"/>
<path d="M528 128H544V144H528V128Z" fill="#D74A7E"/>
<path d="M544 128H560V144H544V128Z" fill="#EFE971"/>
<path d="M560 128H576V144H560V128Z" fill="#85C5BB"/>
<path d="M576 128H592V144H576V128Z" fill="#7EBCB2"/>
<path d="M592 128H608V144H592V128Z" fill="#649E95"/>
<path d="M608 128H624V144H608V128Z" fill="#649E95"/>
<path d="M624 128H640V144H624V128Z" fill="#5FC4B4"/>
<path d="M16 144H32V160H16V144Z" fill="#649E95"/>
<path d="M32 144H48V160H32V144Z" fill="#649E95"/>
<path d="M48 144H64V160H48V144Z" fill="#9EA57C"/>
<path d="M64 144H80V160H64V144Z" fill="#649E95"/>
<path d="M80 144H96V160H80V144Z" fill="#8DC4B0"/>
<path d="M96 144H112V160H96V144Z" fill="#EFE971"/>
<path d="M112 144H128V160H112V144Z" fill="#BB3366"/>
<path d="M128 144H144V160H128V144Z" fill="#D74A7E"/>
<path d="M144 144H160V160H144V144Z" fill="#BB3366"/>
<path d="M160 144H176V160H160V144Z" fill="#D74A7E"/>
<path d="M176 144H192V160H176V144Z" fill="#EFE971"/>
<path d="M192 144H208V160H192V144Z" fill="#BB3366"/>
<path d="M208 144H224V160H208V144Z" fill="#D74A7E"/>
<path d="M224 144H240V160H224V144Z" fill="#D74A7E"/>
<path d="M240 144H256V160H240V144Z" fill="#649E95"/>
<path d="M256 144H272V160H256V144Z" fill="#649E95"/>
<path d="M272 144H288V160H272V144Z" fill="#9EA57C"/>
<path d="M288 144H304V160H288V144Z" fill="#649E95"/>
<path d="M336 144H352V160H336V144Z" fill="#649E95"/>
<path d="M352 144H368V160H352V144Z" fill="#649E95"/>
<path d="M368 144H384V160H368V144Z" fill="#9EA57C"/>
<path d="M384 144H400V160H384V144Z" fill="#649E95"/>
<path d="M400 144H416V160H400V144Z" fill="#8DC4B0"/>
<path d="M416 144H432V160H416V144Z" fill="#EFE971"/>
<path d="M432 144H448V160H432V144Z" fill="#BB3366"/>
<path d="M448 144H464V160H448V144Z" fill="#D74A7E"/>
<path d="M464 144H480V160H464V144Z" fill="#BB3366"/>
<path d="M480 144H496V160H480V144Z" fill="#D74A7E"/>
<path d="M496 144H512V160H496V144Z" fill="#EFE971"/>
<path d="M512 144H528V160H512V144Z" fill="#BB3366"/>
<path d="M528 144H544V160H528V144Z" fill="#D74A7E"/>
<path d="M544 144H560V160H544V144Z" fill="#D74A7E"/>
<path d="M560 144H576V160H560V144Z" fill="#649E95"/>
<path d="M576 144H592V160H576V144Z" fill="#649E95"/>
<path d="M592 144H608V160H592V144Z" fill="#9EA57C"/>
<path d="M608 144H624V160H608V144Z" fill="#649E95"/>
<path d="M16 160H32V176H16V160Z" fill="#72D7C7"/>
<path d="M32 160H48V176H32V160Z" fill="#71D3C3"/>
<path d="M48 160H64V176H48V160Z" fill="#9EA57C"/>
<path d="M64 160H80V176H64V160Z" fill="#649E95"/>
<path d="M80 160H96V176H80V160Z" fill="#D74A7E"/>
<path d="M96 160H112V176H96V160Z" fill="#BB3366"/>
<path d="M112 160H128V176H112V160Z" fill="#D74A7E"/>
<path d="M128 160H144V176H128V160Z" fill="#BB3366"/>
<path d="M144 160H160V176H144V160Z" fill="#BB3366"/>
<path d="M160 160H176V176H160V160Z" fill="#EFE971"/>
<path d="M176 160H192V176H176V160Z" fill="#EFE971"/>
<path d="M192 160H208V176H192V160Z" fill="#BB3366"/>
<path d="M208 160H224V176H208V160Z" fill="#D74A7E"/>
<path d="M224 160H240V176H224V160Z" fill="#D74A7E"/>
<path d="M240 160H256V176H240V160Z" fill="#649E95"/>
<path d="M256 160H272V176H256V160Z" fill="#649E95"/>
<path d="M272 160H288V176H272V160Z" fill="#9EA57C"/>
<path d="M336 160H352V176H336V160Z" fill="#72D7C7"/>
<path d="M352 160H368V176H352V160Z" fill="#71D3C3"/>
<path d="M368 160H384V176H368V160Z" fill="#9EA57C"/>
<path d="M384 160H400V176H384V160Z" fill="#649E95"/>
<path d="M400 160H416V176H400V160Z" fill="#D74A7E"/>
<path d="M416 160H432V176H416V160Z" fill="#BB3366"/>
<path d="M432 160H448V176H432V160Z" fill="#D74A7E"/>
<path d="M448 160H464V176H448V160Z" fill="#BB3366"/>
<path d="M464 160H480V176H464V160Z" fill="#BB3366"/>
<path d="M480 160H496V176H480V160Z" fill="#EFE971"/>
<path d="M496 160H512V176H496V160Z" fill="#EFE971"/>
<path d="M512 160H528V176H512V160Z" fill="#BB3366"/>
<path d="M528 160H544V176H528V160Z" fill="#D74A7E"/>
<path d="M544 160H560V176H544V160Z" fill="#D74A7E"/>
<path d="M560 160H576V176H560V160Z" fill="#649E95"/>
<path d="M576 160H592V176H576V160Z" fill="#649E95"/>
<path d="M592 160H608V176H592V160Z" fill="#9EA57C"/>
<path d="M48 176H64V192H48V176Z" fill="#7CCFB8"/>
<path d="M64 176H80V192H64V176Z" fill="#E378A0"/>
<path d="M80 176H96V192H80V176Z" fill="#D74A7E"/>
<path d="M96 176H112V192H96V176Z" fill="#BB3366"/>
<path d="M112 176H128V192H112V176Z" fill="#BB3366"/>
<path d="M128 176H144V192H128V176Z" fill="#BB3366"/>
<path d="M144 176H160V192H144V176Z" fill="#EFE971"/>
<path d="M160 176H176V192H160V176Z" fill="#EFE971"/>
<path d="M176 176H192V192H176V176Z" fill="#BB3366"/>
<path d="M192 176H208V192H192V176Z" fill="#9DBF99"/>
<path d="M208 176H224V192H208V176Z" fill="#9EA57C"/>
<path d="M224 176H240V192H224V176Z" fill="#72D7C7"/>
<path d="M240 176H256V192H240V176Z" fill="#72D7C7"/>
<path d="M272 176H288V192H272V176Z" fill="#C7954E"/>
<path d="M368 176H384V192H368V176Z" fill="#7CCFB8"/>
<path d="M384 176H400V192H384V176Z" fill="#E378A0"/>
<path d="M400 176H416V192H400V176Z" fill="#D74A7E"/>
<path d="M416 176H432V192H416V176Z" fill="#BB3366"/>
<path d="M432 176H448V192H432V176Z" fill="#BB3366"/>
<path d="M448 176H464V192H448V176Z" fill="#BB3366"/>
<path d="M464 176H480V192H464V176Z" fill="#EFE971"/>
<path d="M480 176H496V192H480V176Z" fill="#EFE971"/>
<path d="M496 176H512V192H496V176Z" fill="#BB3366"/>
<path d="M512 176H528V192H512V176Z" fill="#9DBF99"/>
<path d="M528 176H544V192H528V176Z" fill="#9EA57C"/>
<path d="M544 176H560V192H544V176Z" fill="#72D7C7"/>
<path d="M560 176H576V192H560V176Z" fill="#72D7C7"/>
<path d="M592 176H608V192H592V176Z" fill="#C7954E"/>
<path d="M48 192H64V208H48V192Z" fill="#C7954E"/>
<path d="M80 192H96V208H80V192Z" fill="#E378A0"/>
<path d="M96 192H112V208H96V192Z" fill="#D74A7E"/>
<path d="M112 192H128V208H112V192Z" fill="#BB3366"/>
<path d="M128 192H144V208H128V192Z" fill="#EFE971"/>
<path d="M144 192H160V208H144V192Z" fill="#EFE971"/>
<path d="M160 192H176V208H160V192Z" fill="#BB3366"/>
<path d="M176 192H192V208H176V192Z" fill="#BB3366"/>
<path d="M192 192H208V208H192V192Z" fill="#D74A7E"/>
<path d="M208 192H224V208H208V192Z" fill="#BB3366"/>
<path d="M224 192H240V208H224V192Z" fill="#C7954E"/>
<path d="M272 192H288V208H272V192Z" fill="#C7954E"/>
<path d="M368 192H384V208H368V192Z" fill="#C7954E"/>
<path d="M400 192H416V208H400V192Z" fill="#E378A0"/>
<path d="M416 192H432V208H416V192Z" fill="#D74A7E"/>
<path d="M432 192H448V208H432V192Z" fill="#BB3366"/>
<path d="M448 192H464V208H448V192Z" fill="#EFE971"/>
<path d="M464 192H480V208H464V192Z" fill="#EFE971"/>
<path d="M480 192H496V208H480V192Z" fill="#BB3366"/>
<path d="M496 192H512V208H496V192Z" fill="#BB3366"/>
<path d="M512 192H528V208H512V192Z" fill="#D74A7E"/>
<path d="M528 192H544V208H528V192Z" fill="#BB3366"/>
<path d="M544 192H560V208H544V192Z" fill="#C7954E"/>
<path d="M592 192H608V208H592V192Z" fill="#C7954E"/>
<path d="M32 208H48V224H32V208Z" fill="#C7954E"/>
<path d="M96 208H112V224H96V208Z" fill="#E378A0"/>
<path d="M112 208H128V224H112V208Z" fill="#BB3366"/>
<path d="M128 208H144V224H128V208Z" fill="#BB3366"/>
<path d="M144 208H160V224H144V208Z" fill="#EFE971"/>
<path d="M160 208H176V224H160V208Z" fill="#BB3366"/>
<path d="M176 208H192V224H176V208Z" fill="#D74A7E"/>
<path d="M192 208H208V224H192V208Z" fill="#D74A7E"/>
<path d="M208 208H224V224H208V208Z" fill="#BB3366"/>
<path d="M224 208H240V224H224V208Z" fill="#C7954E"/>
<path d="M288 208H304V224H288V208Z" fill="#C7954E"/>
<path d="M384 208H400V224H384V208Z" fill="#C7954E"/>
<path d="M416 208H432V224H416V208Z" fill="#E378A0"/>
<path d="M432 208H448V224H432V208Z" fill="#BB3366"/>
<path d="M448 208H464V224H448V208Z" fill="#BB3366"/>
<path d="M464 208H480V224H464V208Z" fill="#EFE971"/>
<path d="M480 208H496V224H480V208Z" fill="#BB3366"/>
<path d="M496 208H512V224H496V208Z" fill="#D74A7E"/>
<path d="M512 208H528V224H512V208Z" fill="#D74A7E"/>
<path d="M528 208H544V224H528V208Z" fill="#BB3366"/>
<path d="M544 208H560V224H544V208Z" fill="#C7954E"/>
<path d="M608 208H624V224H608V208Z" fill="#C7954E"/>
<path d="M32 224H48V240H32V224Z" fill="#C7954E"/>
<path d="M96 224H112V240H96V224Z" fill="#C7954E"/>
<path d="M128 224H144V240H128V224Z" fill="#BB3366"/>
<path d="M144 224H160V240H144V224Z" fill="#EFE971"/>
<path d="M160 224H176V240H160V224Z" fill="#D74A7E"/>
<path d="M176 224H192V240H176V224Z" fill="#D74A7E"/>
<path d="M192 224H208V240H192V224Z" fill="#BB3366"/>
<path d="M208 224H224V240H208V224Z" fill="#D74A7E"/>
<path d="M224 224H240V240H224V224Z" fill="#C7954E"/>
<path d="M304 224H320V240H304V224Z" fill="#EFE971"/>
<path d="M384 224H400V240H384V224Z" fill="#C7954E"/>
<path d="M416 224H432V240H416V224Z" fill="#C7954E"/>
<path d="M448 224H464V240H448V224Z" fill="#BB3366"/>
<path d="M464 224H480V240H464V224Z" fill="#EFE971"/>
<path d="M480 224H496V240H480V224Z" fill="#D74A7E"/>
<path d="M496 224H512V240H496V224Z" fill="#D74A7E"/>
<path d="M512 224H528V240H512V224Z" fill="#BB3366"/>
<path d="M528 224H544V240H528V224Z" fill="#D74A7E"/>
<path d="M544 224H560V240H544V224Z" fill="#C7954E"/>
<path d="M624 224H640V240H624V224Z" fill="#EFE971"/>
<path d="M32 240H48V256H32V240Z" fill="#C7954E"/>
<path d="M80 240H96V256H80V240Z" fill="#C7954E"/>
<path d="M112 240H128V256H112V240Z" fill="#BB3366"/>
<path d="M128 240H144V256H128V240Z" fill="#BB3366"/>
<path d="M144 240H160V256H144V240Z" fill="#BB3366"/>
<path d="M160 240H176V256H160V240Z" fill="#BB3366"/>
<path d="M176 240H192V256H176V240Z" fill="#BB3366"/>
<path d="M192 240H208V256H192V240Z" fill="#D74A7E"/>
<path d="M208 240H224V256H208V240Z" fill="#E378A0"/>
<path d="M224 240H240V256H224V240Z" fill="#C7954E"/>
<path d="M304 240H320V256H304V240Z" fill="#EFE971"/>
<path d="M384 240H400V256H384V240Z" fill="#C7954E"/>
<path d="M400 240H416V256H400V240Z" fill="#C7954E"/>
<path d="M432 240H448V256H432V240Z" fill="#BB3366"/>
<path d="M448 240H464V256H448V240Z" fill="#BB3366"/>
<path d="M464 240H480V256H464V240Z" fill="#BB3366"/>
<path d="M480 240H496V256H480V240Z" fill="#BB3366"/>
<path d="M496 240H512V256H496V240Z" fill="#BB3366"/>
<path d="M512 240H528V256H512V240Z" fill="#D74A7E"/>
<path d="M528 240H544V256H528V240Z" fill="#E378A0"/>
<path d="M544 240H560V256H544V240Z" fill="#C7954E"/>
<path d="M624 240H640V256H624V240Z" fill="#EFE971"/>
<path d="M16 256H32V272H16V256Z" fill="#EFE971"/>
<path d="M80 256H96V272H80V256Z" fill="#E378A0"/>
<path d="M96 256H112V272H96V256Z" fill="#D74A7E"/>
<path d="M112 256H128V272H112V256Z" fill="#D74A7E"/>
<path d="M128 256H144V272H128V256Z" fill="#BB3366"/>
<path d="M144 256H160V272H144V256Z" fill="#EFE971"/>
<path d="M160 256H176V272H160V256Z" fill="#BB3366"/>
<path d="M176 256H192V272H176V256Z" fill="#D74A7E"/>
<path d="M192 256H208V272H192V256Z" fill="#E378A0"/>
<path d="M240 256H256V272H240V256Z" fill="#C7954E"/>
<path d="M304 256H320V272H304V256Z" fill="#EFE971"/>
<path d="M368 256H384V272H368V256Z" fill="#EFE971"/>
<path d="M400 256H416V272H400V256Z" fill="#E378A0"/>
<path d="M416 256H432V272H416V256Z" fill="#D74A7E"/>
<path d="M432 256H448V272H432V256Z" fill="#D74A7E"/>
<path d="M448 256H464V272H448V256Z" fill="#BB3366"/>
<path d="M464 256H480V272H464V256Z" fill="#EFE971"/>
<path d="M480 256H496V272H480V256Z" fill="#BB3366"/>
<path d="M496 256H512V272H496V256Z" fill="#D74A7E"/>
<path d="M512 256H528V272H512V256Z" fill="#E378A0"/>
<path d="M560 256H576V272H560V256Z" fill="#C7954E"/>
<path d="M624 256H640V272H624V256Z" fill="#EFE971"/>
<path d="M16 272H32V288H16V272Z" fill="#EFE971"/>
<path d="M80 272H96V288H80V272Z" fill="#E378A0"/>
<path d="M96 272H112V288H96V272Z" fill="#D74A7E"/>
<path d="M112 272H128V288H112V272Z" fill="#D74A7E"/>
<path d="M128 272H144V288H128V272Z" fill="#BB3366"/>
<path d="M144 272H160V288H144V272Z" fill="#EFE971"/>
<path d="M160 272H176V288H160V272Z" fill="#BB3366"/>
<path d="M176 272H192V288H176V272Z" fill="#E378A0"/>
<path d="M240 272H256V288H240V272Z" fill="#C7954E"/>
<path d="M304 272H320V288H304V272Z" fill="#EFE971"/>
<path d="M368 272H384V288H368V272Z" fill="#EFE971"/>
<path d="M400 272H416V288H400V272Z" fill="#E378A0"/>
<path d="M416 272H432V288H416V272Z" fill="#D74A7E"/>
<path d="M432 272H448V288H432V272Z" fill="#D74A7E"/>
<path d="M448 272H464V288H448V272Z" fill="#BB3366"/>
<path d="M464 272H480V288H464V272Z" fill="#EFE971"/>
<path d="M480 272H496V288H480V272Z" fill="#BB3366"/>
<path d="M496 272H512V288H496V272Z" fill="#E378A0"/>
<path d="M560 272H576V288H560V272Z" fill="#C7954E"/>
<path d="M624 272H640V288H624V272Z" fill="#EFE971"/>
<path d="M16 288H32V304H16V288Z" fill="#EFE971"/>
<path d="M80 288H96V304H80V288Z" fill="#C7954E"/>
<path d="M112 288H128V304H112V288Z" fill="#BB3366"/>
<path d="M128 288H144V304H128V288Z" fill="#D74A7E"/>
<path d="M144 288H160V304H144V288Z" fill="#BB3366"/>
<path d="M160 288H176V304H160V288Z" fill="#BB3366"/>
<path d="M176 288H192V304H176V288Z" fill="#BB3366"/>
<path d="M192 288H208V304H192V288Z" fill="#D74A7E"/>
<path d="M240 288H256V304H240V288Z" fill="#C7954E"/>
<path d="M304 288H320V304H304V288Z" fill="#E3AC5E"/>
<path d="M368 288H384V304H368V288Z" fill="#EFE971"/>
<path d="M400 288H416V304H400V288Z" fill="#C7954E"/>
<path d="M432 288H448V304H432V288Z" fill="#BB3366"/>
<path d="M448 288H464V304H448V288Z" fill="#D74A7E"/>
<path d="M464 288H480V304H464V288Z" fill="#BB3366"/>
<path d="M480 288H496V304H480V288Z" fill="#BB3366"/>
<path d="M496 288H512V304H496V288Z" fill="#BB3366"/>
<path d="M512 288H528V304H512V288Z" fill="#D74A7E"/>
<path d="M560 288H576V304H560V288Z" fill="#C7954E"/>
<path d="M624 288H640V304H624V288Z" fill="#E3AC5E"/>
<path d="M16 304H32V320H16V304Z" fill="#EFE971"/>
<path d="M80 304H96V320H80V304Z" fill="#C7954E"/>
<path d="M112 304H128V320H112V304Z" fill="#E378A0"/>
<path d="M128 304H144V320H128V304Z" fill="#D74A7E"/>
<path d="M144 304H160V320H144V304Z" fill="#D74A7E"/>
<path d="M160 304H176V320H160V304Z" fill="#BB3366"/>
<path d="M176 304H192V320H176V304Z" fill="#BB3366"/>
<path d="M192 304H208V320H192V304Z" fill="#BB3366"/>
<path d="M208 304H224V320H208V304Z" fill="#D74A7E"/>
<path d="M240 304H256V320H240V304Z" fill="#C7954E"/>
<path d="M304 304H320V320H304V304Z" fill="#E3AC5E"/>
<path d="M368 304H384V320H368V304Z" fill="#EFE971"/>
<path d="M400 304H416V320H400V304Z" fill="#C7954E"/>
<path d="M432 304H448V320H432V304Z" fill="#E378A0"/>
<path d="M448 304H464V320H448V304Z" fill="#D74A7E"/>
<path d="M464 304H480V320H464V304Z" fill="#D74A7E"/>
<path d="M480 304H496V320H480V304Z" fill="#BB3366"/>
<path d="M496 304H512V320H496V304Z" fill="#BB3366"/>
<path d="M512 304H528V320H512V304Z" fill="#D74A7E"/>
<path d="M560 304H576V320H560V304Z" fill="#C7954E"/>
<path d="M624 304H640V320H624V304Z" fill="#E3AC5E"/>
<path d="M32 320H48V336H32V320Z" fill="#C7954E"/>
<path d="M80 320H96V336H80V320Z" fill="#C7954E"/>
<path d="M112 320H128V336H112V320Z" fill="#F2EF9D"/>
<path d="M128 320H144V336H128V320Z" fill="#E378A0"/>
<path d="M144 320H160V336H144V320Z" fill="#D74A7E"/>
<path d="M160 320H176V336H160V320Z" fill="#BB3366"/>
<path d="M176 320H192V336H176V320Z" fill="#BB3366"/>
<path d="M192 320H208V336H192V320Z" fill="#BB3366"/>
<path d="M208 320H224V336H208V320Z" fill="#D74A7E"/>
<path d="M224 320H240V336H224V320Z" fill="#E378A0"/>
<path d="M240 320H256V336H240V320Z" fill="#E3AC5E"/>
<path d="M288 320H304V336H288V320Z" fill="#EFE971"/>
<path d="M352 320H368V336H352V320Z" fill="#C7954E"/>
<path d="M400 320H416V336H400V320Z" fill="#C7954E"/>
<path d="M432 320H448V336H432V320Z" fill="#F2EF9D"/>
<path d="M448 320H464V336H448V320Z" fill="#E378A0"/>
<path d="M464 320H480V336H464V320Z" fill="#D74A7E"/>
<path d="M480 320H496V336H480V320Z" fill="#BB3366"/>
<path d="M496 320H512V336H496V320Z" fill="#BB3366"/>
<path d="M512 320H528V336H512V320Z" fill="#D74A7E"/>
<path d="M528 320H544V336H528V320Z" fill="#E378A0"/>
<path d="M560 320H576V336H560V320Z" fill="#E3AC5E"/>
<path d="M608 320H624V336H608V320Z" fill="#EFE971"/>
<path d="M32 336H48V352H32V336Z" fill="#C7954E"/>
<path d="M64 336H80V352H64V336Z" fill="#E3AC5E"/>
<path d="M112 336H128V352H112V336Z" fill="#F2EF9D"/>
<path d="M128 336H144V352H128V336Z" fill="#EFE971"/>
<path d="M144 336H160V352H144V336Z" fill="#E378A0"/>
<path d="M160 336H176V352H160V336Z" fill="#D74A7E"/>
<path d="M176 336H192V352H176V336Z" fill="#D74A7E"/>
<path d="M192 336H208V352H192V336Z" fill="#BB3366"/>
<path d="M208 336H224V352H208V336Z" fill="#D74A7E"/>
<path d="M224 336H240V352H224V336Z" fill="#E378A0"/>
<path d="M240 336H256V352H240V336Z" fill="#E3AC5E"/>
<path d="M288 336H304V352H288V336Z" fill="#EFE971"/>
<path d="M352 336H368V352H352V336Z" fill="#C7954E"/>
<path d="M384 336H400V352H384V336Z" fill="#E3AC5E"/>
<path d="M432 336H448V352H432V336Z" fill="#F2EF9D"/>
<path d="M448 336H464V352H448V336Z" fill="#EFE971"/>
<path d="M464 336H480V352H464V336Z" fill="#E378A0"/>
<path d="M480 336H496V352H480V336Z" fill="#D74A7E"/>
<path d="M496 336H512V352H496V336Z" fill="#D74A7E"/>
<path d="M512 336H528V352H512V336Z" fill="#D74A7E"/>
<path d="M528 336H544V352H528V336Z" fill="#E378A0"/>
<path d="M560 336H576V352H560V336Z" fill="#E3AC5E"/>
<path d="M608 336H624V352H608V336Z" fill="#EFE971"/>
<path d="M32 352H48V368H32V352Z" fill="#C7954E"/>
<path d="M64 352H80V368H64V352Z" fill="#E3AC5E"/>
<path d="M112 352H128V368H112V352Z" fill="#BB3366"/>
<path d="M128 352H144V368H128V352Z" fill="#EFE971"/>
<path d="M144 352H160V368H144V352Z" fill="#E3AC5E"/>
<path d="M160 352H176V368H160V352Z" fill="#E378A0"/>
<path d="M176 352H192V368H176V352Z" fill="#D74A7E"/>
<path d="M192 352H208V368H192V352Z" fill="#D74A7E"/>
<path d="M208 352H224V368H208V352Z" fill="#D74A7E"/>
<path d="M224 352H240V368H224V352Z" fill="#E378A0"/>
<path d="M240 352H256V368H240V352Z" fill="#E3AC5E"/>
<path d="M288 352H304V368H288V352Z" fill="#EFE971"/>
<path d="M352 352H368V368H352V352Z" fill="#C7954E"/>
<path d="M384 352H400V368H384V352Z" fill="#E3AC5E"/>
<path d="M432 352H448V368H432V352Z" fill="#BB3366"/>
<path d="M448 352H464V368H448V352Z" fill="#EFE971"/>
<path d="M464 352H480V368H464V352Z" fill="#E3AC5E"/>
<path d="M480 352H496V368H480V352Z" fill="#E378A0"/>
<path d="M496 352H512V368H496V352Z" fill="#D74A7E"/>
<path d="M512 352H528V368H512V352Z" fill="#D74A7E"/>
<path d="M528 352H544V368H528V352Z" fill="#E378A0"/>
<path d="M560 352H576V368H560V352Z" fill="#E3AC5E"/>
<path d="M608 352H624V368H608V352Z" fill="#EFE971"/>
<path d="M32 368H48V384H32V368Z" fill="#E3AC5E"/>
<path d="M64 368H80V384H64V368Z" fill="#E3AC5E"/>
<path d="M112 368H128V384H112V368Z" fill="#BB3366"/>
<path d="M128 368H144V384H128V368Z" fill="#EFE971"/>
<path d="M144 368H160V384H144V368Z" fill="#E3AC5E"/>
<path d="M192 368H208V384H192V368Z" fill="#E378A0"/>
<path d="M208 368H224V384H208V368Z" fill="#E378A0"/>
<path d="M240 368H256V384H240V368Z" fill="#E3AC5E"/>
<path d="M288 368H304V384H288V368Z" fill="#E3AC5E"/>
<path d="M352 368H368V384H352V368Z" fill="#E3AC5E"/>
<path d="M384 368H400V384H384V368Z" fill="#E3AC5E"/>
<path d="M432 368H448V384H432V368Z" fill="#BB3366"/>
<path d="M448 368H464V384H448V368Z" fill="#EFE971"/>
<path d="M464 368H480V384H464V368Z" fill="#E3AC5E"/>
<path d="M512 368H528V384H512V368Z" fill="#E378A0"/>
<path d="M560 368H576V384H560V368Z" fill="#E3AC5E"/>
<path d="M608 368H624V384H608V368Z" fill="#E3AC5E"/>
<path d="M32 384H48V400H32V384Z" fill="#E3AC5E"/>
<path d="M64 384H80V400H64V384Z" fill="#E3AC5E"/>
<path d="M96 384H112V400H96V384Z" fill="#E378A0"/>
<path d="M112 384H128V400H112V384Z" fill="#BB3366"/>
<path d="M128 384H144V400H128V384Z" fill="#BB3366"/>
<path d="M144 384H160V400H144V384Z" fill="#EFE971"/>
<path d="M160 384H176V400H160V384Z" fill="#E3AC5E"/>
<path d="M240 384H256V400H240V384Z" fill="#E3AC5E"/>
<path d="M288 384H304V400H288V384Z" fill="#E3AC5E"/>
<path d="M352 384H368V400H352V384Z" fill="#E3AC5E"/>
<path d="M384 384H400V400H384V384Z" fill="#E3AC5E"/>
<path d="M432 384H448V400H432V384Z" fill="#E378A0"/>
<path d="M448 384H464V400H448V384Z" fill="#BB3366"/>
<path d="M464 384H480V400H464V384Z" fill="#EFE971"/>
<path d="M480 384H496V400H480V384Z" fill="#E3AC5E"/>
<path d="M560 384H576V400H560V384Z" fill="#E3AC5E"/>
<path d="M608 384H624V400H608V384Z" fill="#E3AC5E"/>
<path d="M16 400H32V416H16V400Z" fill="#EFE971"/>
<path d="M64 400H80V416H64V400Z" fill="#E3AC5E"/>
<path d="M96 400H112V416H96V400Z" fill="#E378A0"/>
<path d="M112 400H128V416H112V400Z" fill="#D74A7E"/>
<path d="M128 400H144V416H128V400Z" fill="#BB3366"/>
<path d="M144 400H160V416H144V400Z" fill="#EFE971"/>
<path d="M160 400H176V416H160V400Z" fill="#EFE971"/>
<path d="M176 400H192V416H176V400Z" fill="#D74A7E"/>
<path d="M224 400H240V416H224V400Z" fill="#E3AC5E"/>
<path d="M288 400H304V416H288V400Z" fill="#E3AC5E"/>
<path d="M336 400H352V416H336V400Z" fill="#EFE971"/>
<path d="M384 400H400V416H384V400Z" fill="#E3AC5E"/>
<path d="M432 400H448V416H432V400Z" fill="#E378A0"/>
<path d="M448 400H464V416H448V400Z" fill="#D74A7E"/>
<path d="M464 400H480V416H464V400Z" fill="#EFE971"/>
<path d="M480 400H496V416H480V400Z" fill="#EFE971"/>
<path d="M496 400H512V416H496V400Z" fill="#D74A7E"/>
<path d="M576 400H592V416H576V400Z" fill="#E3AC5E"/>
<path d="M608 400H624V416H608V400Z" fill="#E3AC5E"/>
<path d="M16 416H32V432H16V416Z" fill="#EFE971"/>
<path d="M80 416H96V432H80V416Z" fill="#C7954E"/>
<path d="M96 416H112V432H96V416Z" fill="#E378A0"/>
<path d="M112 416H128V432H112V416Z" fill="#D74A7E"/>
<path d="M128 416H144V432H128V416Z" fill="#BB3366"/>
<path d="M144 416H160V432H144V416Z" fill="#EFE971"/>
<path d="M160 416H176V432H160V416Z" fill="#E3AC5E"/>
<path d="M176 416H192V432H176V416Z" fill="#D74A7E"/>
<path d="M224 416H240V432H224V416Z" fill="#C7954E"/>
<path d="M304 416H320V432H304V416Z" fill="#E3AC5E"/>
<path d="M336 416H352V432H336V416Z" fill="#EFE971"/>
<path d="M400 416H416V432H400V416Z" fill="#C7954E"/>
<path d="M432 416H448V432H432V416Z" fill="#E378A0"/>
<path d="M448 416H464V432H448V416Z" fill="#D74A7E"/>
<path d="M464 416H480V432H464V416Z" fill="#EFE971"/>
<path d="M480 416H496V432H480V416Z" fill="#E3AC5E"/>
<path d="M496 416H512V432H496V416Z" fill="#D74A7E"/>
<path d="M576 416H592V432H576V416Z" fill="#C7954E"/>
<path d="M592 416H608V432H592V416Z" fill="#E3AC5E"/>
<path d="M0 432H16V448H0V432Z" fill="#E3AC5E"/>
<path d="M80 432H96V448H80V432Z" fill="#C7954E"/>
<path d="M96 432H112V448H96V432Z" fill="#E378A0"/>
<path d="M112 432H128V448H112V432Z" fill="#D74A7E"/>
<path d="M128 432H144V448H128V432Z" fill="#BB3366"/>
<path d="M144 432H160V448H144V432Z" fill="#E3AC5E"/>
<path d="M160 432H176V448H160V432Z" fill="#EFE971"/>
<path d="M176 432H192V448H176V432Z" fill="#E3AC5E"/>
<path d="M192 432H208V448H192V432Z" fill="#D74A7E"/>
<path d="M224 432H240V448H224V432Z" fill="#C7954E"/>
<path d="M304 432H320V448H304V432Z" fill="#E3AC5E"/>
<path d="M352 432H368V448H352V432Z" fill="#E3AC5E"/>
<path d="M400 432H416V448H400V432Z" fill="#C7954E"/>
<path d="M432 432H448V448H432V432Z" fill="#E378A0"/>
<path d="M448 432H464V448H448V432Z" fill="#D74A7E"/>
<path d="M464 432H480V448H464V432Z" fill="#E3AC5E"/>
<path d="M480 432H496V448H480V432Z" fill="#EFE971"/>
<path d="M496 432H512V448H496V432Z" fill="#E3AC5E"/>
<path d="M512 432H528V448H512V432Z" fill="#D74A7E"/>
<path d="M576 432H592V448H576V432Z" fill="#C7954E"/>
<path d="M592 432H608V448H592V432Z" fill="#E3AC5E"/>
<path d="M0 448H16V464H0V448Z" fill="#E3AC5E"/>
<path d="M96 448H112V464H96V448Z" fill="#E3AC5E"/>
<path d="M112 448H128V464H112V448Z" fill="#E378A0"/>
<path d="M128 448H144V464H128V448Z" fill="#D74A7E"/>
<path d="M144 448H160V464H144V448Z" fill="#E3AC5E"/>
<path d="M160 448H176V464H160V448Z" fill="#EFE971"/>
<path d="M176 448H192V464H176V448Z" fill="#EFE971"/>
<path d="M192 448H208V464H192V448Z" fill="#D74A7E"/>
<path d="M208 448H224V464H208V448Z" fill="#E378A0"/>
<path d="M224 448H240V464H224V448Z" fill="#C7954E"/>
<path d="M304 448H320V464H304V448Z" fill="#E3AC5E"/>
<path d="M352 448H368V464H352V448Z" fill="#E3AC5E"/>
<path d="M416 448H432V464H416V448Z" fill="#E3AC5E"/>
<path d="M432 448H448V464H432V448Z" fill="#E378A0"/>
<path d="M448 448H464V464H448V448Z" fill="#D74A7E"/>
<path d="M464 448H480V464H464V448Z" fill="#E3AC5E"/>
<path d="M480 448H496V464H480V448Z" fill="#EFE971"/>
<path d="M496 448H512V464H496V448Z" fill="#EFE971"/>
<path d="M512 448H528V464H512V448Z" fill="#D74A7E"/>
<path d="M528 448H544V464H528V448Z" fill="#E378A0"/>
<path d="M576 448H592V464H576V448Z" fill="#C7954E"/>
<path d="M592 448H608V464H592V448Z" fill="#E3AC5E"/>
<path d="M0 464H16V480H0V464Z" fill="#E3AC5E"/>
<path d="M96 464H112V480H96V464Z" fill="#E3AC5E"/>
<path d="M128 464H144V480H128V464Z" fill="#E378A0"/>
<path d="M144 464H160V480H144V464Z" fill="#E3AC5E"/>
<path d="M160 464H176V480H160V464Z" fill="#BB3366"/>
<path d="M176 464H192V480H176V464Z" fill="#EFE971"/>
<path d="M192 464H208V480H192V464Z" fill="#E3AC5E"/>
<path d="M208 464H224V480H208V464Z" fill="#D74A7E"/>
<path d="M304 464H320V480H304V464Z" fill="#E3AC5E"/>
<path d="M352 464H368V480H352V464Z" fill="#E3AC5E"/>
<path d="M416 464H432V480H416V464Z" fill="#E3AC5E"/>
<path d="M448 464H464V480H448V464Z" fill="#E378A0"/>
<path d="M464 464H480V480H464V464Z" fill="#E3AC5E"/>
<path d="M480 464H496V480H480V464Z" fill="#BB3366"/>
<path d="M496 464H512V480H496V464Z" fill="#EFE971"/>
<path d="M512 464H528V480H512V464Z" fill="#E3AC5E"/>
<path d="M528 464H544V480H528V464Z" fill="#D74A7E"/>
<path d="M592 464H608V480H592V464Z" fill="#E3AC5E"/>
<path d="M16 480H32V496H16V480Z" fill="#C7954E"/>
<path d="M112 480H128V496H112V480Z" fill="#C7954E"/>
<path d="M128 480H144V496H128V480Z" fill="#E378A0"/>
<path d="M144 480H160V496H144V480Z" fill="#E3AC5E"/>
<path d="M160 480H176V496H160V480Z" fill="#BB3366"/>
<path d="M176 480H192V496H176V480Z" fill="#EFE971"/>
<path d="M192 480H208V496H192V480Z" fill="#E3AC5E"/>
<path d="M208 480H224V496H208V480Z" fill="#BB3366"/>
<path d="M288 480H304V496H288V480Z" fill="#C7954E"/>
<path d="M336 480H352V496H336V480Z" fill="#C7954E"/>
<path d="M432 480H448V496H432V480Z" fill="#C7954E"/>
<path d="M448 480H464V496H448V480Z" fill="#E378A0"/>
<path d="M464 480H480V496H464V480Z" fill="#E3AC5E"/>
<path d="M480 480H496V496H480V480Z" fill="#BB3366"/>
<path d="M496 480H512V496H496V480Z" fill="#EFE971"/>
<path d="M512 480H528V496H512V480Z" fill="#E3AC5E"/>
<path d="M528 480H544V496H528V480Z" fill="#BB3366"/>
<path d="M576 480H592V496H576V480Z" fill="#C7954E"/>
<path d="M16 496H32V512H16V496Z" fill="#C7954E"/>
<path d="M112 496H128V512H112V496Z" fill="#C7954E"/>
<path d="M144 496H160V512H144V496Z" fill="#E378A0"/>
<path d="M160 496H176V512H160V496Z" fill="#E3AC5E"/>
<path d="M176 496H192V512H176V496Z" fill="#EFE971"/>
<path d="M192 496H208V512H192V496Z" fill="#E3AC5E"/>
<path d="M208 496H224V512H208V496Z" fill="#BB3366"/>
<path d="M224 496H240V512H224V496Z" fill="#E378A0"/>
<path d="M288 496H304V512H288V496Z" fill="#C7954E"/>
<path d="M336 496H352V512H336V496Z" fill="#C7954E"/>
<path d="M432 496H448V512H432V496Z" fill="#C7954E"/>
<path d="M464 496H480V512H464V496Z" fill="#E378A0"/>
<path d="M480 496H496V512H480V496Z" fill="#E3AC5E"/>
<path d="M496 496H512V512H496V496Z" fill="#EFE971"/>
<path d="M512 496H528V512H512V496Z" fill="#E3AC5E"/>
<path d="M528 496H544V512H528V496Z" fill="#E378A0"/>
<path d="M576 496H592V512H576V496Z" fill="#C7954E"/>
<path d="M16 512H32V528H16V512Z" fill="#C7954E"/>
<path d="M160 512H176V528H160V512Z" fill="#E3AC5E"/>
<path d="M176 512H192V528H176V512Z" fill="#EFE971"/>
<path d="M192 512H208V528H192V512Z" fill="#E3AC5E"/>
<path d="M208 512H224V528H208V512Z" fill="#BB3366"/>
<path d="M224 512H240V528H224V512Z" fill="#E378A0"/>
<path d="M336 512H352V528H336V512Z" fill="#C7954E"/>
<path d="M480 512H496V528H480V512Z" fill="#E3AC5E"/>
<path d="M496 512H512V528H496V512Z" fill="#EFE971"/>
<path d="M512 512H528V528H512V512Z" fill="#E3AC5E"/>
<path d="M528 512H544V528H528V512Z" fill="#E378A0"/>
<path d="M144 528H160V544H144V528Z" fill="#E3AC5E"/>
<path d="M160 528H176V544H160V528Z" fill="#F2EF9D"/>
<path d="M176 528H192V544H176V528Z" fill="#EFE971"/>
<path d="M192 528H208V544H192V528Z" fill="#E3AC5E"/>
<path d="M208 528H224V544H208V528Z" fill="#BB3366"/>
<path d="M224 528H240V544H224V528Z" fill="#E378A0"/>
<path d="M464 528H480V544H464V528Z" fill="#E3AC5E"/>
<path d="M480 528H496V544H480V528Z" fill="#F2EF9D"/>
<path d="M496 528H512V544H496V528Z" fill="#EFE971"/>
<path d="M512 528H528V544H512V528Z" fill="#E3AC5E"/>
<path d="M528 528H544V544H528V528Z" fill="#E378A0"/>
<path d="M144 544H160V560H144V544Z" fill="#E3AC5E"/>
<path d="M160 544H176V560H160V544Z" fill="#F2EF9D"/>
<path d="M176 544H192V560H176V544Z" fill="#EFE971"/>
<path d="M192 544H208V560H192V544Z" fill="#E3AC5E"/>
<path d="M208 544H224V560H208V544Z" fill="#D74A7E"/>
<path d="M224 544H240V560H224V544Z" fill="#E378A0"/>
<path d="M464 544H480V560H464V544Z" fill="#E3AC5E"/>
<path d="M480 544H496V560H480V544Z" fill="#F2EF9D"/>
<path d="M496 544H512V560H496V544Z" fill="#EFE971"/>
<path d="M512 544H528V560H512V544Z" fill="#E3AC5E"/>
<path d="M528 544H544V560H528V544Z" fill="#E378A0"/>
<path d="M144 560H160V576H144V560Z" fill="#E3AC5E"/>
<path d="M160 560H176V576H160V560Z" fill="#E378A0"/>
<path d="M176 560H192V576H176V560Z" fill="#EFE971"/>
<path d="M192 560H208V576H192V560Z" fill="#D74A7E"/>
<path d="M208 560H224V576H208V560Z" fill="#E3AC5E"/>
<path d="M464 560H480V576H464V560Z" fill="#E3AC5E"/>
<path d="M480 560H496V576H480V560Z" fill="#E378A0"/>
<path d="M496 560H512V576H496V560Z" fill="#EFE971"/>
<path d="M512 560H528V576H512V560Z" fill="#D74A7E"/>
<path d="M528 560H544V576H528V560Z" fill="#E3AC5E"/>
<path d="M112 576H128V592H112V576Z" fill="#E378A0"/>
<path d="M128 576H144V592H128V576Z" fill="#E378A0"/>
<path d="M144 576H160V592H144V576Z" fill="#D74A7E"/>
<path d="M160 576H176V592H160V576Z" fill="#BB3366"/>
<path d="M176 576H192V592H176V576Z" fill="#EFE971"/>
<path d="M192 576H208V592H192V576Z" fill="#E378A0"/>
<path d="M208 576H224V592H208V576Z" fill="#E3AC5E"/>
<path d="M448 576H464V592H448V576Z" fill="#E378A0"/>
<path d="M464 576H480V592H464V576Z" fill="#D74A7E"/>
<path d="M480 576H496V592H480V576Z" fill="#BB3366"/>
<path d="M496 576H512V592H496V576Z" fill="#EFE971"/>
<path d="M512 576H528V592H512V576Z" fill="#E378A0"/>
<path d="M528 576H544V592H528V576Z" fill="#E3AC5E"/>
<path d="M96 592H112V608H96V592Z" fill="#E378A0"/>
<path d="M112 592H128V608H112V592Z" fill="#D74A7E"/>
<path d="M128 592H144V608H128V592Z" fill="#BB3366"/>
<path d="M144 592H160V608H144V592Z" fill="#BB3366"/>
<path d="M160 592H176V608H160V592Z" fill="#E378A0"/>
<path d="M176 592H192V608H176V592Z" fill="#EFE971"/>
<path d="M208 592H224V608H208V592Z" fill="#E3AC5E"/>
<path d="M432 592H448V608H432V592Z" fill="#D74A7E"/>
<path d="M448 592H464V608H448V592Z" fill="#E378A0"/>
<path d="M464 592H480V608H464V592Z" fill="#BB3366"/>
<path d="M480 592H496V608H480V592Z" fill="#E378A0"/>
<path d="M496 592H512V608H496V592Z" fill="#EFE971"/>
<path d="M528 592H544V608H528V592Z" fill="#E3AC5E"/>
<path d="M96 608H112V624H96V608Z" fill="#E378A0"/>
<path d="M112 608H128V624H112V608Z" fill="#BB3366"/>
<path d="M128 608H144V624H128V608Z" fill="#BB3366"/>
<path d="M144 608H160V624H144V608Z" fill="#E378A0"/>
<path d="M160 608H176V624H160V608Z" fill="#EFE971"/>
<path d="M208 608H224V624H208V608Z" fill="#E3AC5E"/>
<path d="M432 608H448V624H432V608Z" fill="#E378A0"/>
<path d="M448 608H464V624H448V608Z" fill="#D74A7E"/>
<path d="M464 608H480V624H464V608Z" fill="#E378A0"/>
<path d="M480 608H496V624H480V608Z" fill="#EFE971"/>
<path d="M528 608H544V624H528V608Z" fill="#E3AC5E"/>
<path d="M80 624H96V640H80V624Z" fill="#E378A0"/>
<path d="M96 624H112V640H96V624Z" fill="#D74A7E"/>
<path d="M112 624H128V640H112V624Z" fill="#BB3366"/>
<path d="M128 624H144V640H128V624Z" fill="#E378A0"/>
<path d="M160 624H176V640H160V624Z" fill="#EFE971"/>
<path d="M208 624H224V640H208V624Z" fill="#E3AC5E"/>
<path d="M432 624H448V640H432V624Z" fill="#E378A0"/>
<path d="M448 624H464V640H448V624Z" fill="#D74A7E"/>
<path d="M480 624H496V640H480V624Z" fill="#EFE971"/>
<path d="M528 624H544V640H528V624Z" fill="#E3AC5E"/>
<path d="M80 640H96V656H80V640Z" fill="#E378A0"/>
<path d="M96 640H112V656H96V640Z" fill="#D74A7E"/>
<path d="M112 640H128V656H112V640Z" fill="#BB3366"/>
<path d="M128 640H144V656H128V640Z" fill="#E378A0"/>
<path d="M192 640H208V656H192V640Z" fill="#E3AC5E"/>
<path d="M432 640H448V656H432V640Z" fill="#BB3366"/>
<path d="M448 640H464V656H448V640Z" fill="#E378A0"/>
<path d="M512 640H528V656H512V640Z" fill="#E3AC5E"/>
<path d="M96 656H112V672H96V656Z" fill="#E378A0"/>
<path d="M112 656H128V672H112V656Z" fill="#BB3366"/>
<path d="M128 656H144V672H128V656Z" fill="#E378A0"/>
<path d="M192 656H208V672H192V656Z" fill="#E3AC5E"/>
<path d="M432 656H448V672H432V656Z" fill="#BB3366"/>
<path d="M448 656H464V672H448V656Z" fill="#E378A0"/>
<path d="M512 656H528V672H512V656Z" fill="#E3AC5E"/>
<path d="M96 672H112V688H96V672Z" fill="#E378A0"/>
<path d="M112 672H128V688H112V672Z" fill="#BB3366"/>
<path d="M128 672H144V688H128V672Z" fill="#BB3366"/>
<path d="M192 672H208V688H192V672Z" fill="#E3AC5E"/>
<path d="M432 672H448V688H432V672Z" fill="#BB3366"/>
<path d="M448 672H464V688H448V672Z" fill="#BB3366"/>
<path d="M512 672H528V688H512V672Z" fill="#E3AC5E"/>
<path d="M112 688H128V704H112V688Z" fill="#E378A0"/>
<path d="M128 688H144V704H128V688Z" fill="#BB3366"/>
<path d="M144 688H160V704H144V688Z" fill="#E378A0"/>
<path d="M432 688H448V704H432V688Z" fill="#E378A0"/>
<path d="M448 688H464V704H448V688Z" fill="#BB3366"/>
<path d="M464 688H480V704H464V688Z" fill="#E378A0"/>
<path d="M128 704H144V720H128V704Z" fill="#E378A0"/>
<path d="M144 704H160V720H144V704Z" fill="#BB3366"/>
<path d="M160 704H176V720H160V704Z" fill="#E378A0"/>
<path d="M448 704H464V720H448V704Z" fill="#E378A0"/>
<path d="M464 704H480V720H464V704Z" fill="#BB3366"/>
<path d="M480 704H496V720H480V704Z" fill="#E378A0"/>
<path d="M128 720H144V736H128V720Z" fill="#E378A0"/>
<path d="M144 720H160V736H144V720Z" fill="#D74A7E"/>
<path d="M160 720H176V736H160V720Z" fill="#E378A0"/>
<path d="M448 720H464V736H448V720Z" fill="#E378A0"/>
<path d="M464 720H480V736H464V720Z" fill="#D74A7E"/>
<path d="M480 720H496V736H480V720Z" fill="#E378A0"/>
</svg>
