<svg viewBox="0 0 1536 768" xmlns="http://www.w3.org/2000/svg" version="1.1"><path d="m336 16h16v16h-16z" fill="#70d4c4"></path><path d="m352 16h16v16h-16z" fill="#5fbaac"></path><path d="m368 16h16v16h-16z" fill="#5fbaac"></path><path d="m384 16h16v16h-16z" fill="#5fbaac"></path><path d="m400 16h16v16h-16z" fill="#5fbaac"></path><path d="m1120 16h16v16h-16z" fill="#70d4c4"></path><path d="m1136 16h16v16h-16z" fill="#5fbaac"></path><path d="m1152 16h16v16h-16z" fill="#5fbaac"></path><path d="m1168 16h16v16h-16z" fill="#5fbaac"></path><path d="m1184 16h16v16h-16z" fill="#5fbaac"></path><path d="m304 32h16v16h-16z" fill="#71d6c6"></path><path d="m320 32h16v16h-16z" fill="#6fd5c4"></path><path d="m336 32h16v16h-16z" fill="#649e95"></path><path d="m352 32h16v16h-16z" fill="#649e95"></path><path d="m368 32h16v16h-16z" fill="#649e95"></path><path d="m384 32h16v16h-16z" fill="#649e95"></path><path d="m400 32h16v16h-16z" fill="#649e95"></path><path d="m416 32h16v16h-16z" fill="#5fbaac"></path><path d="m432 32h16v16h-16z" fill="#5fbaac"></path><path d="m1088 32h16v16h-16z" fill="#71d6c6"></path><path d="m1104 32h16v16h-16z" fill="#6fd5c4"></path><path d="m1120 32h16v16h-16z" fill="#649e95"></path><path d="m1136 32h16v16h-16z" fill="#649e95"></path><path d="m1152 32h16v16h-16z" fill="#649e95"></path><path d="m1168 32h16v16h-16z" fill="#649e95"></path><path d="m1184 32h16v16h-16z" fill="#649e95"></path><path d="m1200 32h16v16h-16z" fill="#5fbaac"></path><path d="m1216 32h16v16h-16z" fill="#5fbaac"></path><path d="m288 48h16v16h-16z" fill="#70d4c4"></path><path d="m304 48h16v16h-16z" fill="#649e95"></path><path d="m320 48h16v16h-16z" fill="#649e95"></path><path d="m336 48h16v16h-16z" fill="#649e95"></path><path d="m352 48h16v16h-16z" fill="#649e95"></path><path d="m368 48h16v16h-16z" fill="#649e95"></path><path d="m384 48h16v16h-16z" fill="#649e95"></path><path d="m400 48h16v16h-16z" fill="#649e95"></path><path d="m416 48h16v16h-16z" fill="#649e95"></path><path d="m432 48h16v16h-16z" fill="#649e95"></path><path d="m448 48h16v16h-16z" fill="#c55882"></path><path d="m464 48h16v16h-16z" fill="#5fc1b2"></path><path d="m1072 48h16v16h-16z" fill="#70d4c4"></path><path d="m1088 48h16v16h-16z" fill="#649e95"></path><path d="m1104 48h16v16h-16z" fill="#649e95"></path><path d="m1120 48h16v16h-16z" fill="#649e95"></path><path d="m1136 48h16v16h-16z" fill="#649e95"></path><path d="m1152 48h16v16h-16z" fill="#649e95"></path><path d="m1168 48h16v16h-16z" fill="#649e95"></path><path d="m1184 48h16v16h-16z" fill="#649e95"></path><path d="m1200 48h16v16h-16z" fill="#649e95"></path><path d="m1216 48h16v16h-16z" fill="#649e95"></path><path d="m1232 48h16v16h-16z" fill="#c55882"></path><path d="m1248 48h16v16h-16z" fill="#5fc1b2"></path><path d="m272 64h16v16h-16z" fill="#70d4c4"></path><path d="m288 64h16v16h-16z" fill="#649e95"></path><path d="m304 64h16v16h-16z" fill="#649e95"></path><path d="m320 64h16v16h-16z" fill="#649e95"></path><path d="m336 64h16v16h-16z" fill="#90b798"></path><path d="m352 64h16v16h-16z" fill="#90b798"></path><path d="m368 64h16v16h-16z" fill="#ad6887"></path><path d="m384 64h16v16h-16z" fill="#90b798"></path><path d="m400 64h16v16h-16z" fill="#90b798"></path><path d="m416 64h16v16h-16z" fill="#649e95"></path><path d="m432 64h16v16h-16z" fill="#649e95"></path><path d="m448 64h16v16h-16z" fill="#649e95"></path><path d="m464 64h16v16h-16z" fill="#c55882"></path><path d="m480 64h16v16h-16z" fill="#6fd5c4"></path><path d="m1056 64h16v16h-16z" fill="#70d4c4"></path><path d="m1072 64h16v16h-16z" fill="#649e95"></path><path d="m1088 64h16v16h-16z" fill="#649e95"></path><path d="m1104 64h16v16h-16z" fill="#649e95"></path><path d="m1120 64h16v16h-16z" fill="#90b798"></path><path d="m1136 64h16v16h-16z" fill="#90b798"></path><path d="m1152 64h16v16h-16z" fill="#ad6887"></path><path d="m1168 64h16v16h-16z" fill="#90b798"></path><path d="m1184 64h16v16h-16z" fill="#90b798"></path><path d="m1200 64h16v16h-16z" fill="#649e95"></path><path d="m1216 64h16v16h-16z" fill="#649e95"></path><path d="m1232 64h16v16h-16z" fill="#649e95"></path><path d="m1248 64h16v16h-16z" fill="#c55882"></path><path d="m1264 64h16v16h-16z" fill="#6fd5c4"></path><path d="m256 80h16v16h-16z" fill="#70d4c4"></path><path d="m272 80h16v16h-16z" fill="#649e95"></path><path d="m288 80h16v16h-16z" fill="#649e95"></path><path d="m304 80h16v16h-16z" fill="#649e95"></path><path d="m320 80h16v16h-16z" fill="#90b798"></path><path d="m336 80h16v16h-16z" fill="#a3c084"></path><path d="m352 80h16v16h-16z" fill="#a3c084"></path><path d="m368 80h16v16h-16z" fill="#b87a8b"></path><path d="m384 80h16v16h-16z" fill="#a3c084"></path><path d="m400 80h16v16h-16z" fill="#a3c084"></path><path d="m416 80h16v16h-16z" fill="#c96284"></path><path d="m432 80h16v16h-16z" fill="#90b798"></path><path d="m448 80h16v16h-16z" fill="#649e95"></path><path d="m464 80h16v16h-16z" fill="#c55882"></path><path d="m480 80h16v16h-16z" fill="#649e95"></path><path d="m496 80h16v16h-16z" fill="#6fd5c4"></path><path d="m1040 80h16v16h-16z" fill="#70d4c4"></path><path d="m1056 80h16v16h-16z" fill="#649e95"></path><path d="m1072 80h16v16h-16z" fill="#649e95"></path><path d="m1088 80h16v16h-16z" fill="#649e95"></path><path d="m1104 80h16v16h-16z" fill="#90b798"></path><path d="m1120 80h16v16h-16z" fill="#a3c084"></path><path d="m1136 80h16v16h-16z" fill="#a3c084"></path><path d="m1152 80h16v16h-16z" fill="#b87a8b"></path><path d="m1168 80h16v16h-16z" fill="#a3c084"></path><path d="m1184 80h16v16h-16z" fill="#a3c084"></path><path d="m1200 80h16v16h-16z" fill="#c96284"></path><path d="m1216 80h16v16h-16z" fill="#90b798"></path><path d="m1232 80h16v16h-16z" fill="#649e95"></path><path d="m1248 80h16v16h-16z" fill="#c55882"></path><path d="m1264 80h16v16h-16z" fill="#649e95"></path><path d="m1280 80h16v16h-16z" fill="#6fd5c4"></path><path d="m240 96h16v16h-16z" fill="#5fbaac"></path><path d="m256 96h16v16h-16z" fill="#71d3c3"></path><path d="m272 96h16v16h-16z" fill="#649e95"></path><path d="m288 96h16v16h-16z" fill="#ad6887"></path><path d="m304 96h16v16h-16z" fill="#90b798"></path><path d="m320 96h16v16h-16z" fill="#bd8681"></path><path d="m336 96h16v16h-16z" fill="#a3c084"></path><path d="m352 96h16v16h-16z" fill="#bd8681"></path><path d="m368 96h16v16h-16z" fill="#a3c084"></path><path d="m384 96h16v16h-16z" fill="#a3c084"></path><path d="m400 96h16v16h-16z" fill="#a3c084"></path><path d="m416 96h16v16h-16z" fill="#ca6980"></path><path d="m432 96h16v16h-16z" fill="#a3c084"></path><path d="m448 96h16v16h-16z" fill="#c96284"></path><path d="m464 96h16v16h-16z" fill="#c55882"></path><path d="m480 96h16v16h-16z" fill="#c55882"></path><path d="m496 96h16v16h-16z" fill="#649e95"></path><path d="m512 96h16v16h-16z" fill="#5fc1b2"></path><path d="m1024 96h16v16h-16z" fill="#5fbaac"></path><path d="m1040 96h16v16h-16z" fill="#71d3c3"></path><path d="m1056 96h16v16h-16z" fill="#649e95"></path><path d="m1072 96h16v16h-16z" fill="#ad6887"></path><path d="m1088 96h16v16h-16z" fill="#90b798"></path><path d="m1104 96h16v16h-16z" fill="#bd8681"></path><path d="m1120 96h16v16h-16z" fill="#a3c084"></path><path d="m1136 96h16v16h-16z" fill="#bd8681"></path><path d="m1152 96h16v16h-16z" fill="#a3c084"></path><path d="m1168 96h16v16h-16z" fill="#a3c084"></path><path d="m1184 96h16v16h-16z" fill="#a3c084"></path><path d="m1200 96h16v16h-16z" fill="#ca6980"></path><path d="m1216 96h16v16h-16z" fill="#a3c084"></path><path d="m1232 96h16v16h-16z" fill="#c96284"></path><path d="m1248 96h16v16h-16z" fill="#c55882"></path><path d="m1264 96h16v16h-16z" fill="#c55882"></path><path d="m1280 96h16v16h-16z" fill="#649e95"></path><path d="m1296 96h16v16h-16z" fill="#5fc1b2"></path><path d="m224 112h16v16h-16z" fill="#5fbaac"></path><path d="m240 112h16v16h-16z" fill="#649e95"></path><path d="m256 112h16v16h-16z" fill="#649e95"></path><path d="m272 112h16v16h-16z" fill="#c55882"></path><path d="m288 112h16v16h-16z" fill="#90b798"></path><path d="m304 112h16v16h-16z" fill="#a3c084"></path><path d="m320 112h16v16h-16z" fill="#bd8681"></path><path d="m336 112h16v16h-16z" fill="#a3c084"></path><path d="m352 112h16v16h-16z" fill="#bd8681"></path><path d="m368 112h16v16h-16z" fill="#bd8681"></path><path d="m384 112h16v16h-16z" fill="#bd8681"></path><path d="m400 112h16v16h-16z" fill="#bd8681"></path><path d="m416 112h16v16h-16z" fill="#bd8681"></path><path d="m432 112h16v16h-16z" fill="#ca6980"></path><path d="m448 112h16v16h-16z" fill="#c96284"></path><path d="m464 112h16v16h-16z" fill="#c55882"></path><path d="m480 112h16v16h-16z" fill="#c55882"></path><path d="m496 112h16v16h-16z" fill="#649e95"></path><path d="m512 112h16v16h-16z" fill="#649e95"></path><path d="m528 112h16v16h-16z" fill="#5fc1b2"></path><path d="m1008 112h16v16h-16z" fill="#5fbaac"></path><path d="m1024 112h16v16h-16z" fill="#649e95"></path><path d="m1040 112h16v16h-16z" fill="#649e95"></path><path d="m1056 112h16v16h-16z" fill="#c55882"></path><path d="m1072 112h16v16h-16z" fill="#90b798"></path><path d="m1088 112h16v16h-16z" fill="#a3c084"></path><path d="m1104 112h16v16h-16z" fill="#bd8681"></path><path d="m1120 112h16v16h-16z" fill="#a3c084"></path><path d="m1136 112h16v16h-16z" fill="#bd8681"></path><path d="m1152 112h16v16h-16z" fill="#bd8681"></path><path d="m1168 112h16v16h-16z" fill="#bd8681"></path><path d="m1184 112h16v16h-16z" fill="#bd8681"></path><path d="m1200 112h16v16h-16z" fill="#bd8681"></path><path d="m1216 112h16v16h-16z" fill="#ca6980"></path><path d="m1232 112h16v16h-16z" fill="#c96284"></path><path d="m1248 112h16v16h-16z" fill="#c55882"></path><path d="m1264 112h16v16h-16z" fill="#c55882"></path><path d="m1280 112h16v16h-16z" fill="#649e95"></path><path d="m1296 112h16v16h-16z" fill="#649e95"></path><path d="m1312 112h16v16h-16z" fill="#5fc1b2"></path><path d="m224 128h16v16h-16z" fill="#649e95"></path><path d="m240 128h16v16h-16z" fill="#c55882"></path><path d="m256 128h16v16h-16z" fill="#c55882"></path><path d="m272 128h16v16h-16z" fill="#b87a8b"></path><path d="m288 128h16v16h-16z" fill="#bd8681"></path><path d="m304 128h16v16h-16z" fill="#bd8681"></path><path d="m320 128h16v16h-16z" fill="#bd8681"></path><path d="m336 128h16v16h-16z" fill="#bd8681"></path><path d="m352 128h16v16h-16z" fill="#efe971"></path><path d="m368 128h16v16h-16z" fill="#efe971"></path><path d="m384 128h16v16h-16z" fill="#efe971"></path><path d="m400 128h16v16h-16z" fill="#bd8681"></path><path d="m416 128h16v16h-16z" fill="#ca6980"></path><path d="m432 128h16v16h-16z" fill="#ca6980"></path><path d="m448 128h16v16h-16z" fill="#efe971"></path><path d="m464 128h16v16h-16z" fill="#7ebcb2"></path><path d="m480 128h16v16h-16z" fill="#7ebcb2"></path><path d="m496 128h16v16h-16z" fill="#c55882"></path><path d="m512 128h16v16h-16z" fill="#c55882"></path><path d="m528 128h16v16h-16z" fill="#5fc1b2"></path><path d="m1008 128h16v16h-16z" fill="#649e95"></path><path d="m1024 128h16v16h-16z" fill="#c55882"></path><path d="m1040 128h16v16h-16z" fill="#c55882"></path><path d="m1056 128h16v16h-16z" fill="#b87a8b"></path><path d="m1072 128h16v16h-16z" fill="#bd8681"></path><path d="m1088 128h16v16h-16z" fill="#bd8681"></path><path d="m1104 128h16v16h-16z" fill="#bd8681"></path><path d="m1120 128h16v16h-16z" fill="#bd8681"></path><path d="m1136 128h16v16h-16z" fill="#efe971"></path><path d="m1152 128h16v16h-16z" fill="#efe971"></path><path d="m1168 128h16v16h-16z" fill="#efe971"></path><path d="m1184 128h16v16h-16z" fill="#bd8681"></path><path d="m1200 128h16v16h-16z" fill="#ca6980"></path><path d="m1216 128h16v16h-16z" fill="#ca6980"></path><path d="m1232 128h16v16h-16z" fill="#efe971"></path><path d="m1248 128h16v16h-16z" fill="#7ebcb2"></path><path d="m1264 128h16v16h-16z" fill="#7ebcb2"></path><path d="m1280 128h16v16h-16z" fill="#c55882"></path><path d="m1296 128h16v16h-16z" fill="#c55882"></path><path d="m1312 128h16v16h-16z" fill="#5fc1b2"></path><path d="m224 144h16v16h-16z" fill="#ad6887"></path><path d="m240 144h16v16h-16z" fill="#ad6887"></path><path d="m256 144h16v16h-16z" fill="#649e95"></path><path d="m272 144h16v16h-16z" fill="#7ebcb2"></path><path d="m288 144h16v16h-16z" fill="#8ec2b2"></path><path d="m304 144h16v16h-16z" fill="#efe971"></path><path d="m320 144h16v16h-16z" fill="#efe971"></path><path d="m336 144h16v16h-16z" fill="#efe971"></path><path d="m352 144h16v16h-16z" fill="#efe971"></path><path d="m368 144h16v16h-16z" fill="#d74a7e"></path><path d="m384 144h16v16h-16z" fill="#efe971"></path><path d="m400 144h16v16h-16z" fill="#efe971"></path><path d="m416 144h16v16h-16z" fill="#efe971"></path><path d="m432 144h16v16h-16z" fill="#d74a7e"></path><path d="m448 144h16v16h-16z" fill="#efe971"></path><path d="m464 144h16v16h-16z" fill="#85c5bb"></path><path d="m480 144h16v16h-16z" fill="#7ebcb2"></path><path d="m496 144h16v16h-16z" fill="#649e95"></path><path d="m512 144h16v16h-16z" fill="#649e95"></path><path d="m528 144h16v16h-16z" fill="#5fc4b4"></path><path d="m1008 144h16v16h-16z" fill="#ad6887"></path><path d="m1024 144h16v16h-16z" fill="#ad6887"></path><path d="m1040 144h16v16h-16z" fill="#649e95"></path><path d="m1056 144h16v16h-16z" fill="#7ebcb2"></path><path d="m1072 144h16v16h-16z" fill="#8ec2b2"></path><path d="m1088 144h16v16h-16z" fill="#efe971"></path><path d="m1104 144h16v16h-16z" fill="#efe971"></path><path d="m1120 144h16v16h-16z" fill="#efe971"></path><path d="m1136 144h16v16h-16z" fill="#efe971"></path><path d="m1152 144h16v16h-16z" fill="#d74a7e"></path><path d="m1168 144h16v16h-16z" fill="#efe971"></path><path d="m1184 144h16v16h-16z" fill="#efe971"></path><path d="m1200 144h16v16h-16z" fill="#efe971"></path><path d="m1216 144h16v16h-16z" fill="#d74a7e"></path><path d="m1232 144h16v16h-16z" fill="#efe971"></path><path d="m1248 144h16v16h-16z" fill="#85c5bb"></path><path d="m1264 144h16v16h-16z" fill="#7ebcb2"></path><path d="m1280 144h16v16h-16z" fill="#649e95"></path><path d="m1296 144h16v16h-16z" fill="#649e95"></path><path d="m1312 144h16v16h-16z" fill="#5fc4b4"></path><path d="m240 160h16v16h-16z" fill="#649e95"></path><path d="m256 160h16v16h-16z" fill="#649e95"></path><path d="m272 160h16v16h-16z" fill="#9ea57c"></path><path d="m288 160h16v16h-16z" fill="#649e95"></path><path d="m304 160h16v16h-16z" fill="#8dc4b0"></path><path d="m320 160h16v16h-16z" fill="#efe971"></path><path d="m336 160h16v16h-16z" fill="#bb3366"></path><path d="m352 160h16v16h-16z" fill="#d74a7e"></path><path d="m368 160h16v16h-16z" fill="#bb3366"></path><path d="m384 160h16v16h-16z" fill="#d74a7e"></path><path d="m400 160h16v16h-16z" fill="#efe971"></path><path d="m416 160h16v16h-16z" fill="#bb3366"></path><path d="m432 160h16v16h-16z" fill="#d74a7e"></path><path d="m448 160h16v16h-16z" fill="#d74a7e"></path><path d="m464 160h16v16h-16z" fill="#649e95"></path><path d="m480 160h16v16h-16z" fill="#649e95"></path><path d="m496 160h16v16h-16z" fill="#9ea57c"></path><path d="m512 160h16v16h-16z" fill="#649e95"></path><path d="m1024 160h16v16h-16z" fill="#649e95"></path><path d="m1040 160h16v16h-16z" fill="#649e95"></path><path d="m1056 160h16v16h-16z" fill="#9ea57c"></path><path d="m1072 160h16v16h-16z" fill="#649e95"></path><path d="m1088 160h16v16h-16z" fill="#8dc4b0"></path><path d="m1104 160h16v16h-16z" fill="#efe971"></path><path d="m1120 160h16v16h-16z" fill="#bb3366"></path><path d="m1136 160h16v16h-16z" fill="#d74a7e"></path><path d="m1152 160h16v16h-16z" fill="#bb3366"></path><path d="m1168 160h16v16h-16z" fill="#d74a7e"></path><path d="m1184 160h16v16h-16z" fill="#efe971"></path><path d="m1200 160h16v16h-16z" fill="#bb3366"></path><path d="m1216 160h16v16h-16z" fill="#d74a7e"></path><path d="m1232 160h16v16h-16z" fill="#d74a7e"></path><path d="m1248 160h16v16h-16z" fill="#649e95"></path><path d="m1264 160h16v16h-16z" fill="#649e95"></path><path d="m1280 160h16v16h-16z" fill="#9ea57c"></path><path d="m1296 160h16v16h-16z" fill="#649e95"></path><path d="m240 176h16v16h-16z" fill="#72d7c7"></path><path d="m256 176h16v16h-16z" fill="#71d3c3"></path><path d="m272 176h16v16h-16z" fill="#9ea57c"></path><path d="m288 176h16v16h-16z" fill="#649e95"></path><path d="m304 176h16v16h-16z" fill="#d74a7e"></path><path d="m320 176h16v16h-16z" fill="#bb3366"></path><path d="m336 176h16v16h-16z" fill="#d74a7e"></path><path d="m352 176h16v16h-16z" fill="#bb3366"></path><path d="m368 176h16v16h-16z" fill="#bb3366"></path><path d="m384 176h16v16h-16z" fill="#efe971"></path><path d="m400 176h16v16h-16z" fill="#efe971"></path><path d="m416 176h16v16h-16z" fill="#bb3366"></path><path d="m432 176h16v16h-16z" fill="#d74a7e"></path><path d="m448 176h16v16h-16z" fill="#d74a7e"></path><path d="m464 176h16v16h-16z" fill="#649e95"></path><path d="m480 176h16v16h-16z" fill="#649e95"></path><path d="m496 176h16v16h-16z" fill="#9ea57c"></path><path d="m1024 176h16v16h-16z" fill="#72d7c7"></path><path d="m1040 176h16v16h-16z" fill="#71d3c3"></path><path d="m1056 176h16v16h-16z" fill="#9ea57c"></path><path d="m1072 176h16v16h-16z" fill="#649e95"></path><path d="m1088 176h16v16h-16z" fill="#d74a7e"></path><path d="m1104 176h16v16h-16z" fill="#bb3366"></path><path d="m1120 176h16v16h-16z" fill="#d74a7e"></path><path d="m1136 176h16v16h-16z" fill="#bb3366"></path><path d="m1152 176h16v16h-16z" fill="#bb3366"></path><path d="m1168 176h16v16h-16z" fill="#efe971"></path><path d="m1184 176h16v16h-16z" fill="#efe971"></path><path d="m1200 176h16v16h-16z" fill="#bb3366"></path><path d="m1216 176h16v16h-16z" fill="#d74a7e"></path><path d="m1232 176h16v16h-16z" fill="#d74a7e"></path><path d="m1248 176h16v16h-16z" fill="#649e95"></path><path d="m1264 176h16v16h-16z" fill="#649e95"></path><path d="m1280 176h16v16h-16z" fill="#9ea57c"></path><path d="m272 192h16v16h-16z" fill="#7ccfb8"></path><path d="m288 192h16v16h-16z" fill="#e378a0"></path><path d="m304 192h16v16h-16z" fill="#d74a7e"></path><path d="m320 192h16v16h-16z" fill="#bb3366"></path><path d="m336 192h16v16h-16z" fill="#bb3366"></path><path d="m352 192h16v16h-16z" fill="#bb3366"></path><path d="m368 192h16v16h-16z" fill="#efe971"></path><path d="m384 192h16v16h-16z" fill="#efe971"></path><path d="m400 192h16v16h-16z" fill="#bb3366"></path><path d="m416 192h16v16h-16z" fill="#9dbf99"></path><path d="m432 192h16v16h-16z" fill="#9ea57c"></path><path d="m448 192h16v16h-16z" fill="#72d7c7"></path><path d="m464 192h16v16h-16z" fill="#72d7c7"></path><path d="m496 192h16v16h-16z" fill="#c7954e"></path><path d="m1056 192h16v16h-16z" fill="#7ccfb8"></path><path d="m1072 192h16v16h-16z" fill="#e378a0"></path><path d="m1088 192h16v16h-16z" fill="#d74a7e"></path><path d="m1104 192h16v16h-16z" fill="#bb3366"></path><path d="m1120 192h16v16h-16z" fill="#bb3366"></path><path d="m1136 192h16v16h-16z" fill="#bb3366"></path><path d="m1152 192h16v16h-16z" fill="#efe971"></path><path d="m1168 192h16v16h-16z" fill="#efe971"></path><path d="m1184 192h16v16h-16z" fill="#bb3366"></path><path d="m1200 192h16v16h-16z" fill="#9dbf99"></path><path d="m1216 192h16v16h-16z" fill="#9ea57c"></path><path d="m1232 192h16v16h-16z" fill="#72d7c7"></path><path d="m1248 192h16v16h-16z" fill="#72d7c7"></path><path d="m1280 192h16v16h-16z" fill="#c7954e"></path><path d="m272 208h16v16h-16z" fill="#c7954e"></path><path d="m304 208h16v16h-16z" fill="#e378a0"></path><path d="m320 208h16v16h-16z" fill="#d74a7e"></path><path d="m336 208h16v16h-16z" fill="#bb3366"></path><path d="m352 208h16v16h-16z" fill="#efe971"></path><path d="m368 208h16v16h-16z" fill="#efe971"></path><path d="m384 208h16v16h-16z" fill="#bb3366"></path><path d="m400 208h16v16h-16z" fill="#bb3366"></path><path d="m416 208h16v16h-16z" fill="#d74a7e"></path><path d="m432 208h16v16h-16z" fill="#bb3366"></path><path d="m448 208h16v16h-16z" fill="#c7954e"></path><path d="m496 208h16v16h-16z" fill="#c7954e"></path><path d="m1056 208h16v16h-16z" fill="#c7954e"></path><path d="m1088 208h16v16h-16z" fill="#e378a0"></path><path d="m1104 208h16v16h-16z" fill="#d74a7e"></path><path d="m1120 208h16v16h-16z" fill="#bb3366"></path><path d="m1136 208h16v16h-16z" fill="#efe971"></path><path d="m1152 208h16v16h-16z" fill="#efe971"></path><path d="m1168 208h16v16h-16z" fill="#bb3366"></path><path d="m1184 208h16v16h-16z" fill="#bb3366"></path><path d="m1200 208h16v16h-16z" fill="#d74a7e"></path><path d="m1216 208h16v16h-16z" fill="#bb3366"></path><path d="m1232 208h16v16h-16z" fill="#c7954e"></path><path d="m1280 208h16v16h-16z" fill="#c7954e"></path><path d="m256 224h16v16h-16z" fill="#c7954e"></path><path d="m320 224h16v16h-16z" fill="#e378a0"></path><path d="m336 224h16v16h-16z" fill="#bb3366"></path><path d="m352 224h16v16h-16z" fill="#bb3366"></path><path d="m368 224h16v16h-16z" fill="#efe971"></path><path d="m384 224h16v16h-16z" fill="#bb3366"></path><path d="m400 224h16v16h-16z" fill="#d74a7e"></path><path d="m416 224h16v16h-16z" fill="#d74a7e"></path><path d="m432 224h16v16h-16z" fill="#bb3366"></path><path d="m448 224h16v16h-16z" fill="#c7954e"></path><path d="m512 224h16v16h-16z" fill="#c7954e"></path><path d="m1072 224h16v16h-16z" fill="#c7954e"></path><path d="m1104 224h16v16h-16z" fill="#e378a0"></path><path d="m1120 224h16v16h-16z" fill="#bb3366"></path><path d="m1136 224h16v16h-16z" fill="#bb3366"></path><path d="m1152 224h16v16h-16z" fill="#efe971"></path><path d="m1168 224h16v16h-16z" fill="#bb3366"></path><path d="m1184 224h16v16h-16z" fill="#d74a7e"></path><path d="m1200 224h16v16h-16z" fill="#d74a7e"></path><path d="m1216 224h16v16h-16z" fill="#bb3366"></path><path d="m1232 224h16v16h-16z" fill="#c7954e"></path><path d="m1296 224h16v16h-16z" fill="#c7954e"></path><path d="m256 240h16v16h-16z" fill="#c7954e"></path><path d="m320 240h16v16h-16z" fill="#c7954e"></path><path d="m352 240h16v16h-16z" fill="#bb3366"></path><path d="m368 240h16v16h-16z" fill="#efe971"></path><path d="m384 240h16v16h-16z" fill="#d74a7e"></path><path d="m400 240h16v16h-16z" fill="#d74a7e"></path><path d="m416 240h16v16h-16z" fill="#bb3366"></path><path d="m432 240h16v16h-16z" fill="#d74a7e"></path><path d="m448 240h16v16h-16z" fill="#c7954e"></path><path d="m528 240h16v16h-16z" fill="#efe971"></path><path d="m1072 240h16v16h-16z" fill="#c7954e"></path><path d="m1104 240h16v16h-16z" fill="#c7954e"></path><path d="m1136 240h16v16h-16z" fill="#bb3366"></path><path d="m1152 240h16v16h-16z" fill="#efe971"></path><path d="m1168 240h16v16h-16z" fill="#d74a7e"></path><path d="m1184 240h16v16h-16z" fill="#d74a7e"></path><path d="m1200 240h16v16h-16z" fill="#bb3366"></path><path d="m1216 240h16v16h-16z" fill="#d74a7e"></path><path d="m1232 240h16v16h-16z" fill="#c7954e"></path><path d="m1312 240h16v16h-16z" fill="#efe971"></path><path d="m256 256h16v16h-16z" fill="#c7954e"></path><path d="m304 256h16v16h-16z" fill="#c7954e"></path><path d="m336 256h16v16h-16z" fill="#bb3366"></path><path d="m352 256h16v16h-16z" fill="#bb3366"></path><path d="m368 256h16v16h-16z" fill="#bb3366"></path><path d="m384 256h16v16h-16z" fill="#bb3366"></path><path d="m400 256h16v16h-16z" fill="#bb3366"></path><path d="m416 256h16v16h-16z" fill="#d74a7e"></path><path d="m432 256h16v16h-16z" fill="#e378a0"></path><path d="m448 256h16v16h-16z" fill="#c7954e"></path><path d="m528 256h16v16h-16z" fill="#efe971"></path><path d="m1072 256h16v16h-16z" fill="#c7954e"></path><path d="m1088 256h16v16h-16z" fill="#c7954e"></path><path d="m1120 256h16v16h-16z" fill="#bb3366"></path><path d="m1136 256h16v16h-16z" fill="#bb3366"></path><path d="m1152 256h16v16h-16z" fill="#bb3366"></path><path d="m1168 256h16v16h-16z" fill="#bb3366"></path><path d="m1184 256h16v16h-16z" fill="#bb3366"></path><path d="m1200 256h16v16h-16z" fill="#d74a7e"></path><path d="m1216 256h16v16h-16z" fill="#e378a0"></path><path d="m1232 256h16v16h-16z" fill="#c7954e"></path><path d="m1312 256h16v16h-16z" fill="#efe971"></path><path d="m240 272h16v16h-16z" fill="#efe971"></path><path d="m304 272h16v16h-16z" fill="#e378a0"></path><path d="m320 272h16v16h-16z" fill="#d74a7e"></path><path d="m336 272h16v16h-16z" fill="#d74a7e"></path><path d="m352 272h16v16h-16z" fill="#bb3366"></path><path d="m368 272h16v16h-16z" fill="#efe971"></path><path d="m384 272h16v16h-16z" fill="#bb3366"></path><path d="m400 272h16v16h-16z" fill="#d74a7e"></path><path d="m416 272h16v16h-16z" fill="#e378a0"></path><path d="m464 272h16v16h-16z" fill="#c7954e"></path><path d="m528 272h16v16h-16z" fill="#efe971"></path><path d="m1056 272h16v16h-16z" fill="#efe971"></path><path d="m1088 272h16v16h-16z" fill="#e378a0"></path><path d="m1104 272h16v16h-16z" fill="#d74a7e"></path><path d="m1120 272h16v16h-16z" fill="#d74a7e"></path><path d="m1136 272h16v16h-16z" fill="#bb3366"></path><path d="m1152 272h16v16h-16z" fill="#efe971"></path><path d="m1168 272h16v16h-16z" fill="#bb3366"></path><path d="m1184 272h16v16h-16z" fill="#d74a7e"></path><path d="m1200 272h16v16h-16z" fill="#e378a0"></path><path d="m1248 272h16v16h-16z" fill="#c7954e"></path><path d="m1312 272h16v16h-16z" fill="#efe971"></path><path d="m240 288h16v16h-16z" fill="#efe971"></path><path d="m304 288h16v16h-16z" fill="#e378a0"></path><path d="m320 288h16v16h-16z" fill="#d74a7e"></path><path d="m336 288h16v16h-16z" fill="#d74a7e"></path><path d="m352 288h16v16h-16z" fill="#bb3366"></path><path d="m368 288h16v16h-16z" fill="#efe971"></path><path d="m384 288h16v16h-16z" fill="#bb3366"></path><path d="m400 288h16v16h-16z" fill="#e378a0"></path><path d="m464 288h16v16h-16z" fill="#c7954e"></path><path d="m528 288h16v16h-16z" fill="#efe971"></path><path d="m1056 288h16v16h-16z" fill="#efe971"></path><path d="m1088 288h16v16h-16z" fill="#e378a0"></path><path d="m1104 288h16v16h-16z" fill="#d74a7e"></path><path d="m1120 288h16v16h-16z" fill="#d74a7e"></path><path d="m1136 288h16v16h-16z" fill="#bb3366"></path><path d="m1152 288h16v16h-16z" fill="#efe971"></path><path d="m1168 288h16v16h-16z" fill="#bb3366"></path><path d="m1184 288h16v16h-16z" fill="#e378a0"></path><path d="m1248 288h16v16h-16z" fill="#c7954e"></path><path d="m1312 288h16v16h-16z" fill="#efe971"></path><path d="m240 304h16v16h-16z" fill="#efe971"></path><path d="m304 304h16v16h-16z" fill="#c7954e"></path><path d="m336 304h16v16h-16z" fill="#bb3366"></path><path d="m352 304h16v16h-16z" fill="#d74a7e"></path><path d="m368 304h16v16h-16z" fill="#bb3366"></path><path d="m384 304h16v16h-16z" fill="#bb3366"></path><path d="m400 304h16v16h-16z" fill="#bb3366"></path><path d="m416 304h16v16h-16z" fill="#d74a7e"></path><path d="m464 304h16v16h-16z" fill="#c7954e"></path><path d="m528 304h16v16h-16z" fill="#e3ac5e"></path><path d="m1056 304h16v16h-16z" fill="#efe971"></path><path d="m1088 304h16v16h-16z" fill="#c7954e"></path><path d="m1120 304h16v16h-16z" fill="#bb3366"></path><path d="m1136 304h16v16h-16z" fill="#d74a7e"></path><path d="m1152 304h16v16h-16z" fill="#bb3366"></path><path d="m1168 304h16v16h-16z" fill="#bb3366"></path><path d="m1184 304h16v16h-16z" fill="#bb3366"></path><path d="m1200 304h16v16h-16z" fill="#d74a7e"></path><path d="m1248 304h16v16h-16z" fill="#c7954e"></path><path d="m1312 304h16v16h-16z" fill="#e3ac5e"></path><path d="m240 320h16v16h-16z" fill="#efe971"></path><path d="m304 320h16v16h-16z" fill="#c7954e"></path><path d="m336 320h16v16h-16z" fill="#e378a0"></path><path d="m352 320h16v16h-16z" fill="#d74a7e"></path><path d="m368 320h16v16h-16z" fill="#d74a7e"></path><path d="m384 320h16v16h-16z" fill="#bb3366"></path><path d="m400 320h16v16h-16z" fill="#bb3366"></path><path d="m416 320h16v16h-16z" fill="#bb3366"></path><path d="m432 320h16v16h-16z" fill="#d74a7e"></path><path d="m464 320h16v16h-16z" fill="#c7954e"></path><path d="m528 320h16v16h-16z" fill="#e3ac5e"></path><path d="m1056 320h16v16h-16z" fill="#efe971"></path><path d="m1088 320h16v16h-16z" fill="#c7954e"></path><path d="m1120 320h16v16h-16z" fill="#e378a0"></path><path d="m1136 320h16v16h-16z" fill="#d74a7e"></path><path d="m1152 320h16v16h-16z" fill="#d74a7e"></path><path d="m1168 320h16v16h-16z" fill="#bb3366"></path><path d="m1184 320h16v16h-16z" fill="#bb3366"></path><path d="m1200 320h16v16h-16z" fill="#d74a7e"></path><path d="m1248 320h16v16h-16z" fill="#c7954e"></path><path d="m1312 320h16v16h-16z" fill="#e3ac5e"></path><path d="m256 336h16v16h-16z" fill="#c7954e"></path><path d="m304 336h16v16h-16z" fill="#c7954e"></path><path d="m336 336h16v16h-16z" fill="#f2ef9d"></path><path d="m352 336h16v16h-16z" fill="#e378a0"></path><path d="m368 336h16v16h-16z" fill="#d74a7e"></path><path d="m384 336h16v16h-16z" fill="#bb3366"></path><path d="m400 336h16v16h-16z" fill="#bb3366"></path><path d="m416 336h16v16h-16z" fill="#bb3366"></path><path d="m432 336h16v16h-16z" fill="#d74a7e"></path><path d="m448 336h16v16h-16z" fill="#e378a0"></path><path d="m464 336h16v16h-16z" fill="#e3ac5e"></path><path d="m512 336h16v16h-16z" fill="#efe971"></path><path d="m1040 336h16v16h-16z" fill="#c7954e"></path><path d="m1088 336h16v16h-16z" fill="#c7954e"></path><path d="m1120 336h16v16h-16z" fill="#f2ef9d"></path><path d="m1136 336h16v16h-16z" fill="#e378a0"></path><path d="m1152 336h16v16h-16z" fill="#d74a7e"></path><path d="m1168 336h16v16h-16z" fill="#bb3366"></path><path d="m1184 336h16v16h-16z" fill="#bb3366"></path><path d="m1200 336h16v16h-16z" fill="#d74a7e"></path><path d="m1216 336h16v16h-16z" fill="#e378a0"></path><path d="m1248 336h16v16h-16z" fill="#e3ac5e"></path><path d="m1296 336h16v16h-16z" fill="#efe971"></path><path d="m256 352h16v16h-16z" fill="#c7954e"></path><path d="m288 352h16v16h-16z" fill="#e3ac5e"></path><path d="m336 352h16v16h-16z" fill="#f2ef9d"></path><path d="m352 352h16v16h-16z" fill="#efe971"></path><path d="m368 352h16v16h-16z" fill="#e378a0"></path><path d="m384 352h16v16h-16z" fill="#d74a7e"></path><path d="m400 352h16v16h-16z" fill="#d74a7e"></path><path d="m416 352h16v16h-16z" fill="#bb3366"></path><path d="m432 352h16v16h-16z" fill="#d74a7e"></path><path d="m448 352h16v16h-16z" fill="#e378a0"></path><path d="m464 352h16v16h-16z" fill="#e3ac5e"></path><path d="m512 352h16v16h-16z" fill="#efe971"></path><path d="m1040 352h16v16h-16z" fill="#c7954e"></path><path d="m1072 352h16v16h-16z" fill="#e3ac5e"></path><path d="m1120 352h16v16h-16z" fill="#f2ef9d"></path><path d="m1136 352h16v16h-16z" fill="#efe971"></path><path d="m1152 352h16v16h-16z" fill="#e378a0"></path><path d="m1168 352h16v16h-16z" fill="#d74a7e"></path><path d="m1184 352h16v16h-16z" fill="#d74a7e"></path><path d="m1200 352h16v16h-16z" fill="#d74a7e"></path><path d="m1216 352h16v16h-16z" fill="#e378a0"></path><path d="m1248 352h16v16h-16z" fill="#e3ac5e"></path><path d="m1296 352h16v16h-16z" fill="#efe971"></path><path d="m256 368h16v16h-16z" fill="#c7954e"></path><path d="m288 368h16v16h-16z" fill="#e3ac5e"></path><path d="m336 368h16v16h-16z" fill="#bb3366"></path><path d="m352 368h16v16h-16z" fill="#efe971"></path><path d="m368 368h16v16h-16z" fill="#e3ac5e"></path><path d="m384 368h16v16h-16z" fill="#e378a0"></path><path d="m400 368h16v16h-16z" fill="#d74a7e"></path><path d="m416 368h16v16h-16z" fill="#d74a7e"></path><path d="m432 368h16v16h-16z" fill="#d74a7e"></path><path d="m448 368h16v16h-16z" fill="#e378a0"></path><path d="m464 368h16v16h-16z" fill="#e3ac5e"></path><path d="m512 368h16v16h-16z" fill="#efe971"></path><path d="m1040 368h16v16h-16z" fill="#c7954e"></path><path d="m1072 368h16v16h-16z" fill="#e3ac5e"></path><path d="m1120 368h16v16h-16z" fill="#bb3366"></path><path d="m1136 368h16v16h-16z" fill="#efe971"></path><path d="m1152 368h16v16h-16z" fill="#e3ac5e"></path><path d="m1168 368h16v16h-16z" fill="#e378a0"></path><path d="m1184 368h16v16h-16z" fill="#d74a7e"></path><path d="m1200 368h16v16h-16z" fill="#d74a7e"></path><path d="m1216 368h16v16h-16z" fill="#e378a0"></path><path d="m1248 368h16v16h-16z" fill="#e3ac5e"></path><path d="m1296 368h16v16h-16z" fill="#efe971"></path><path d="m256 384h16v16h-16z" fill="#e3ac5e"></path><path d="m288 384h16v16h-16z" fill="#e3ac5e"></path><path d="m336 384h16v16h-16z" fill="#bb3366"></path><path d="m352 384h16v16h-16z" fill="#efe971"></path><path d="m368 384h16v16h-16z" fill="#e3ac5e"></path><path d="m416 384h16v16h-16z" fill="#e378a0"></path><path d="m432 384h16v16h-16z" fill="#e378a0"></path><path d="m464 384h16v16h-16z" fill="#e3ac5e"></path><path d="m512 384h16v16h-16z" fill="#e3ac5e"></path><path d="m1040 384h16v16h-16z" fill="#e3ac5e"></path><path d="m1072 384h16v16h-16z" fill="#e3ac5e"></path><path d="m1120 384h16v16h-16z" fill="#bb3366"></path><path d="m1136 384h16v16h-16z" fill="#efe971"></path><path d="m1152 384h16v16h-16z" fill="#e3ac5e"></path><path d="m1200 384h16v16h-16z" fill="#e378a0"></path><path d="m1248 384h16v16h-16z" fill="#e3ac5e"></path><path d="m1296 384h16v16h-16z" fill="#e3ac5e"></path><path d="m256 400h16v16h-16z" fill="#e3ac5e"></path><path d="m288 400h16v16h-16z" fill="#e3ac5e"></path><path d="m320 400h16v16h-16z" fill="#e378a0"></path><path d="m336 400h16v16h-16z" fill="#bb3366"></path><path d="m352 400h16v16h-16z" fill="#bb3366"></path><path d="m368 400h16v16h-16z" fill="#efe971"></path><path d="m384 400h16v16h-16z" fill="#e3ac5e"></path><path d="m464 400h16v16h-16z" fill="#e3ac5e"></path><path d="m512 400h16v16h-16z" fill="#e3ac5e"></path><path d="m1040 400h16v16h-16z" fill="#e3ac5e"></path><path d="m1072 400h16v16h-16z" fill="#e3ac5e"></path><path d="m1120 400h16v16h-16z" fill="#e378a0"></path><path d="m1136 400h16v16h-16z" fill="#bb3366"></path><path d="m1152 400h16v16h-16z" fill="#efe971"></path><path d="m1168 400h16v16h-16z" fill="#e3ac5e"></path><path d="m1248 400h16v16h-16z" fill="#e3ac5e"></path><path d="m1296 400h16v16h-16z" fill="#e3ac5e"></path><path d="m240 416h16v16h-16z" fill="#efe971"></path><path d="m288 416h16v16h-16z" fill="#e3ac5e"></path><path d="m320 416h16v16h-16z" fill="#e378a0"></path><path d="m336 416h16v16h-16z" fill="#d74a7e"></path><path d="m352 416h16v16h-16z" fill="#bb3366"></path><path d="m368 416h16v16h-16z" fill="#efe971"></path><path d="m384 416h16v16h-16z" fill="#efe971"></path><path d="m400 416h16v16h-16z" fill="#d74a7e"></path><path d="m448 416h16v16h-16z" fill="#e3ac5e"></path><path d="m512 416h16v16h-16z" fill="#e3ac5e"></path><path d="m1024 416h16v16h-16z" fill="#efe971"></path><path d="m1072 416h16v16h-16z" fill="#e3ac5e"></path><path d="m1120 416h16v16h-16z" fill="#e378a0"></path><path d="m1136 416h16v16h-16z" fill="#d74a7e"></path><path d="m1152 416h16v16h-16z" fill="#efe971"></path><path d="m1168 416h16v16h-16z" fill="#efe971"></path><path d="m1184 416h16v16h-16z" fill="#d74a7e"></path><path d="m1264 416h16v16h-16z" fill="#e3ac5e"></path><path d="m1296 416h16v16h-16z" fill="#e3ac5e"></path><path d="m240 432h16v16h-16z" fill="#efe971"></path><path d="m304 432h16v16h-16z" fill="#c7954e"></path><path d="m320 432h16v16h-16z" fill="#e378a0"></path><path d="m336 432h16v16h-16z" fill="#d74a7e"></path><path d="m352 432h16v16h-16z" fill="#bb3366"></path><path d="m368 432h16v16h-16z" fill="#efe971"></path><path d="m384 432h16v16h-16z" fill="#e3ac5e"></path><path d="m400 432h16v16h-16z" fill="#d74a7e"></path><path d="m448 432h16v16h-16z" fill="#c7954e"></path><path d="m528 432h16v16h-16z" fill="#e3ac5e"></path><path d="m1024 432h16v16h-16z" fill="#efe971"></path><path d="m1088 432h16v16h-16z" fill="#c7954e"></path><path d="m1120 432h16v16h-16z" fill="#e378a0"></path><path d="m1136 432h16v16h-16z" fill="#d74a7e"></path><path d="m1152 432h16v16h-16z" fill="#efe971"></path><path d="m1168 432h16v16h-16z" fill="#e3ac5e"></path><path d="m1184 432h16v16h-16z" fill="#d74a7e"></path><path d="m1264 432h16v16h-16z" fill="#c7954e"></path><path d="m1280 432h16v16h-16z" fill="#e3ac5e"></path><path d="m224 448h16v16h-16z" fill="#e3ac5e"></path><path d="m304 448h16v16h-16z" fill="#c7954e"></path><path d="m320 448h16v16h-16z" fill="#e378a0"></path><path d="m336 448h16v16h-16z" fill="#d74a7e"></path><path d="m352 448h16v16h-16z" fill="#bb3366"></path><path d="m368 448h16v16h-16z" fill="#e3ac5e"></path><path d="m384 448h16v16h-16z" fill="#efe971"></path><path d="m400 448h16v16h-16z" fill="#e3ac5e"></path><path d="m416 448h16v16h-16z" fill="#d74a7e"></path><path d="m448 448h16v16h-16z" fill="#c7954e"></path><path d="m528 448h16v16h-16z" fill="#e3ac5e"></path><path d="m1040 448h16v16h-16z" fill="#e3ac5e"></path><path d="m1088 448h16v16h-16z" fill="#c7954e"></path><path d="m1120 448h16v16h-16z" fill="#e378a0"></path><path d="m1136 448h16v16h-16z" fill="#d74a7e"></path><path d="m1152 448h16v16h-16z" fill="#e3ac5e"></path><path d="m1168 448h16v16h-16z" fill="#efe971"></path><path d="m1184 448h16v16h-16z" fill="#e3ac5e"></path><path d="m1200 448h16v16h-16z" fill="#d74a7e"></path><path d="m1264 448h16v16h-16z" fill="#c7954e"></path><path d="m1280 448h16v16h-16z" fill="#e3ac5e"></path><path d="m224 464h16v16h-16z" fill="#e3ac5e"></path><path d="m320 464h16v16h-16z" fill="#e3ac5e"></path><path d="m336 464h16v16h-16z" fill="#e378a0"></path><path d="m352 464h16v16h-16z" fill="#d74a7e"></path><path d="m368 464h16v16h-16z" fill="#e3ac5e"></path><path d="m384 464h16v16h-16z" fill="#efe971"></path><path d="m400 464h16v16h-16z" fill="#efe971"></path><path d="m416 464h16v16h-16z" fill="#d74a7e"></path><path d="m432 464h16v16h-16z" fill="#e378a0"></path><path d="m448 464h16v16h-16z" fill="#c7954e"></path><path d="m528 464h16v16h-16z" fill="#e3ac5e"></path><path d="m1040 464h16v16h-16z" fill="#e3ac5e"></path><path d="m1104 464h16v16h-16z" fill="#e3ac5e"></path><path d="m1120 464h16v16h-16z" fill="#e378a0"></path><path d="m1136 464h16v16h-16z" fill="#d74a7e"></path><path d="m1152 464h16v16h-16z" fill="#e3ac5e"></path><path d="m1168 464h16v16h-16z" fill="#efe971"></path><path d="m1184 464h16v16h-16z" fill="#efe971"></path><path d="m1200 464h16v16h-16z" fill="#d74a7e"></path><path d="m1216 464h16v16h-16z" fill="#e378a0"></path><path d="m1264 464h16v16h-16z" fill="#c7954e"></path><path d="m1280 464h16v16h-16z" fill="#e3ac5e"></path><path d="m224 480h16v16h-16z" fill="#e3ac5e"></path><path d="m320 480h16v16h-16z" fill="#e3ac5e"></path><path d="m352 480h16v16h-16z" fill="#e378a0"></path><path d="m368 480h16v16h-16z" fill="#e3ac5e"></path><path d="m384 480h16v16h-16z" fill="#bb3366"></path><path d="m400 480h16v16h-16z" fill="#efe971"></path><path d="m416 480h16v16h-16z" fill="#e3ac5e"></path><path d="m432 480h16v16h-16z" fill="#d74a7e"></path><path d="m528 480h16v16h-16z" fill="#e3ac5e"></path><path d="m1040 480h16v16h-16z" fill="#e3ac5e"></path><path d="m1104 480h16v16h-16z" fill="#e3ac5e"></path><path d="m1136 480h16v16h-16z" fill="#e378a0"></path><path d="m1152 480h16v16h-16z" fill="#e3ac5e"></path><path d="m1168 480h16v16h-16z" fill="#bb3366"></path><path d="m1184 480h16v16h-16z" fill="#efe971"></path><path d="m1200 480h16v16h-16z" fill="#e3ac5e"></path><path d="m1216 480h16v16h-16z" fill="#d74a7e"></path><path d="m1280 480h16v16h-16z" fill="#e3ac5e"></path><path d="m240 496h16v16h-16z" fill="#c7954e"></path><path d="m336 496h16v16h-16z" fill="#c7954e"></path><path d="m352 496h16v16h-16z" fill="#e378a0"></path><path d="m368 496h16v16h-16z" fill="#e3ac5e"></path><path d="m384 496h16v16h-16z" fill="#bb3366"></path><path d="m400 496h16v16h-16z" fill="#efe971"></path><path d="m416 496h16v16h-16z" fill="#e3ac5e"></path><path d="m432 496h16v16h-16z" fill="#bb3366"></path><path d="m512 496h16v16h-16z" fill="#c7954e"></path><path d="m1024 496h16v16h-16z" fill="#c7954e"></path><path d="m1120 496h16v16h-16z" fill="#c7954e"></path><path d="m1136 496h16v16h-16z" fill="#e378a0"></path><path d="m1152 496h16v16h-16z" fill="#e3ac5e"></path><path d="m1168 496h16v16h-16z" fill="#bb3366"></path><path d="m1184 496h16v16h-16z" fill="#efe971"></path><path d="m1200 496h16v16h-16z" fill="#e3ac5e"></path><path d="m1216 496h16v16h-16z" fill="#bb3366"></path><path d="m1264 496h16v16h-16z" fill="#c7954e"></path><path d="m240 512h16v16h-16z" fill="#c7954e"></path><path d="m336 512h16v16h-16z" fill="#c7954e"></path><path d="m368 512h16v16h-16z" fill="#e378a0"></path><path d="m384 512h16v16h-16z" fill="#e3ac5e"></path><path d="m400 512h16v16h-16z" fill="#efe971"></path><path d="m416 512h16v16h-16z" fill="#e3ac5e"></path><path d="m432 512h16v16h-16z" fill="#bb3366"></path><path d="m448 512h16v16h-16z" fill="#e378a0"></path><path d="m512 512h16v16h-16z" fill="#c7954e"></path><path d="m1024 512h16v16h-16z" fill="#c7954e"></path><path d="m1120 512h16v16h-16z" fill="#c7954e"></path><path d="m1152 512h16v16h-16z" fill="#e378a0"></path><path d="m1168 512h16v16h-16z" fill="#e3ac5e"></path><path d="m1184 512h16v16h-16z" fill="#efe971"></path><path d="m1200 512h16v16h-16z" fill="#e3ac5e"></path><path d="m1216 512h16v16h-16z" fill="#e378a0"></path><path d="m1264 512h16v16h-16z" fill="#c7954e"></path><path d="m240 528h16v16h-16z" fill="#c7954e"></path><path d="m384 528h16v16h-16z" fill="#e3ac5e"></path><path d="m400 528h16v16h-16z" fill="#efe971"></path><path d="m416 528h16v16h-16z" fill="#e3ac5e"></path><path d="m432 528h16v16h-16z" fill="#bb3366"></path><path d="m448 528h16v16h-16z" fill="#e378a0"></path><path d="m1024 528h16v16h-16z" fill="#c7954e"></path><path d="m1168 528h16v16h-16z" fill="#e3ac5e"></path><path d="m1184 528h16v16h-16z" fill="#efe971"></path><path d="m1200 528h16v16h-16z" fill="#e3ac5e"></path><path d="m1216 528h16v16h-16z" fill="#e378a0"></path><path d="m368 544h16v16h-16z" fill="#e3ac5e"></path><path d="m384 544h16v16h-16z" fill="#f2ef9d"></path><path d="m400 544h16v16h-16z" fill="#efe971"></path><path d="m416 544h16v16h-16z" fill="#e3ac5e"></path><path d="m432 544h16v16h-16z" fill="#bb3366"></path><path d="m448 544h16v16h-16z" fill="#e378a0"></path><path d="m1152 544h16v16h-16z" fill="#e3ac5e"></path><path d="m1168 544h16v16h-16z" fill="#f2ef9d"></path><path d="m1184 544h16v16h-16z" fill="#efe971"></path><path d="m1200 544h16v16h-16z" fill="#e3ac5e"></path><path d="m1216 544h16v16h-16z" fill="#e378a0"></path><path d="m368 560h16v16h-16z" fill="#e3ac5e"></path><path d="m384 560h16v16h-16z" fill="#f2ef9d"></path><path d="m400 560h16v16h-16z" fill="#efe971"></path><path d="m416 560h16v16h-16z" fill="#e3ac5e"></path><path d="m432 560h16v16h-16z" fill="#d74a7e"></path><path d="m448 560h16v16h-16z" fill="#e378a0"></path><path d="m1152 560h16v16h-16z" fill="#e3ac5e"></path><path d="m1168 560h16v16h-16z" fill="#f2ef9d"></path><path d="m1184 560h16v16h-16z" fill="#efe971"></path><path d="m1200 560h16v16h-16z" fill="#e3ac5e"></path><path d="m1216 560h16v16h-16z" fill="#e378a0"></path><path d="m368 576h16v16h-16z" fill="#e3ac5e"></path><path d="m384 576h16v16h-16z" fill="#e378a0"></path><path d="m400 576h16v16h-16z" fill="#efe971"></path><path d="m416 576h16v16h-16z" fill="#d74a7e"></path><path d="m432 576h16v16h-16z" fill="#e3ac5e"></path><path d="m1152 576h16v16h-16z" fill="#e3ac5e"></path><path d="m1168 576h16v16h-16z" fill="#e378a0"></path><path d="m1184 576h16v16h-16z" fill="#efe971"></path><path d="m1200 576h16v16h-16z" fill="#d74a7e"></path><path d="m1216 576h16v16h-16z" fill="#e3ac5e"></path><path d="m336 592h16v16h-16z" fill="#e378a0"></path><path d="m352 592h16v16h-16z" fill="#e378a0"></path><path d="m368 592h16v16h-16z" fill="#d74a7e"></path><path d="m384 592h16v16h-16z" fill="#bb3366"></path><path d="m400 592h16v16h-16z" fill="#efe971"></path><path d="m416 592h16v16h-16z" fill="#e378a0"></path><path d="m432 592h16v16h-16z" fill="#e3ac5e"></path><path d="m1136 592h16v16h-16z" fill="#e378a0"></path><path d="m1152 592h16v16h-16z" fill="#d74a7e"></path><path d="m1168 592h16v16h-16z" fill="#bb3366"></path><path d="m1184 592h16v16h-16z" fill="#efe971"></path><path d="m1200 592h16v16h-16z" fill="#e378a0"></path><path d="m1216 592h16v16h-16z" fill="#e3ac5e"></path><path d="m320 608h16v16h-16z" fill="#e378a0"></path><path d="m336 608h16v16h-16z" fill="#d74a7e"></path><path d="m352 608h16v16h-16z" fill="#bb3366"></path><path d="m368 608h16v16h-16z" fill="#bb3366"></path><path d="m384 608h16v16h-16z" fill="#e378a0"></path><path d="m400 608h16v16h-16z" fill="#efe971"></path><path d="m432 608h16v16h-16z" fill="#e3ac5e"></path><path d="m1120 608h16v16h-16z" fill="#d74a7e"></path><path d="m1136 608h16v16h-16z" fill="#e378a0"></path><path d="m1152 608h16v16h-16z" fill="#bb3366"></path><path d="m1168 608h16v16h-16z" fill="#e378a0"></path><path d="m1184 608h16v16h-16z" fill="#efe971"></path><path d="m1216 608h16v16h-16z" fill="#e3ac5e"></path><path d="m320 624h16v16h-16z" fill="#e378a0"></path><path d="m336 624h16v16h-16z" fill="#bb3366"></path><path d="m352 624h16v16h-16z" fill="#bb3366"></path><path d="m368 624h16v16h-16z" fill="#e378a0"></path><path d="m384 624h16v16h-16z" fill="#efe971"></path><path d="m432 624h16v16h-16z" fill="#e3ac5e"></path><path d="m1120 624h16v16h-16z" fill="#e378a0"></path><path d="m1136 624h16v16h-16z" fill="#d74a7e"></path><path d="m1152 624h16v16h-16z" fill="#e378a0"></path><path d="m1168 624h16v16h-16z" fill="#efe971"></path><path d="m1216 624h16v16h-16z" fill="#e3ac5e"></path><path d="m304 640h16v16h-16z" fill="#e378a0"></path><path d="m320 640h16v16h-16z" fill="#d74a7e"></path><path d="m336 640h16v16h-16z" fill="#bb3366"></path><path d="m352 640h16v16h-16z" fill="#e378a0"></path><path d="m384 640h16v16h-16z" fill="#efe971"></path><path d="m432 640h16v16h-16z" fill="#e3ac5e"></path><path d="m1120 640h16v16h-16z" fill="#e378a0"></path><path d="m1136 640h16v16h-16z" fill="#d74a7e"></path><path d="m1168 640h16v16h-16z" fill="#efe971"></path><path d="m1216 640h16v16h-16z" fill="#e3ac5e"></path><path d="m304 656h16v16h-16z" fill="#e378a0"></path><path d="m320 656h16v16h-16z" fill="#d74a7e"></path><path d="m336 656h16v16h-16z" fill="#bb3366"></path><path d="m352 656h16v16h-16z" fill="#e378a0"></path><path d="m416 656h16v16h-16z" fill="#e3ac5e"></path><path d="m1120 656h16v16h-16z" fill="#bb3366"></path><path d="m1136 656h16v16h-16z" fill="#e378a0"></path><path d="m1200 656h16v16h-16z" fill="#e3ac5e"></path><path d="m320 672h16v16h-16z" fill="#e378a0"></path><path d="m336 672h16v16h-16z" fill="#bb3366"></path><path d="m352 672h16v16h-16z" fill="#e378a0"></path><path d="m416 672h16v16h-16z" fill="#e3ac5e"></path><path d="m1120 672h16v16h-16z" fill="#bb3366"></path><path d="m1136 672h16v16h-16z" fill="#e378a0"></path><path d="m1200 672h16v16h-16z" fill="#e3ac5e"></path><path d="m320 688h16v16h-16z" fill="#e378a0"></path><path d="m336 688h16v16h-16z" fill="#bb3366"></path><path d="m352 688h16v16h-16z" fill="#bb3366"></path><path d="m416 688h16v16h-16z" fill="#e3ac5e"></path><path d="m1120 688h16v16h-16z" fill="#bb3366"></path><path d="m1136 688h16v16h-16z" fill="#bb3366"></path><path d="m1200 688h16v16h-16z" fill="#e3ac5e"></path><path d="m336 704h16v16h-16z" fill="#e378a0"></path><path d="m352 704h16v16h-16z" fill="#bb3366"></path><path d="m368 704h16v16h-16z" fill="#e378a0"></path><path d="m1120 704h16v16h-16z" fill="#e378a0"></path><path d="m1136 704h16v16h-16z" fill="#bb3366"></path><path d="m1152 704h16v16h-16z" fill="#e378a0"></path><path d="m352 720h16v16h-16z" fill="#e378a0"></path><path d="m368 720h16v16h-16z" fill="#bb3366"></path><path d="m384 720h16v16h-16z" fill="#e378a0"></path><path d="m1136 720h16v16h-16z" fill="#e378a0"></path><path d="m1152 720h16v16h-16z" fill="#bb3366"></path><path d="m1168 720h16v16h-16z" fill="#e378a0"></path><path d="m352 736h16v16h-16z" fill="#e378a0"></path><path d="m368 736h16v16h-16z" fill="#d74a7e"></path><path d="m384 736h16v16h-16z" fill="#e378a0"></path><path d="m1136 736h16v16h-16z" fill="#e378a0"></path><path d="m1152 736h16v16h-16z" fill="#d74a7e"></path><path d="m1168 736h16v16h-16z" fill="#e378a0"></path></svg>