<svg width="659" height="736" viewBox="0 0 659 736" fill="none" xmlns="http://www.w3.org/2000/svg">
<path d="M112 0H128V16H112V0Z" fill="#70D4C4"/>
<path d="M128 0H144V16H128V0Z" fill="#5FBAAC"/>
<path d="M144 0H160V16H144V0Z" fill="#5FBAAC"/>
<path d="M160 0H176V16H160V0Z" fill="#5FBAAC"/>
<path d="M176 0H192V16H176V0Z" fill="#5FBAAC"/>
<path d="M451 0H467V16H451V0Z" fill="#70D4C4"/>
<path d="M467 0H483V16H467V0Z" fill="#5FBAAC"/>
<path d="M483 0H499V16H483V0Z" fill="#5FBAAC"/>
<path d="M499 0H515V16H499V0Z" fill="#5FBAAC"/>
<path d="M515 0H531V16H515V0Z" fill="#5FBAAC"/>
<path d="M80 16H96V32H80V16Z" fill="#71D6C6"/>
<path d="M96 16H112V32H96V16Z" fill="#6FD5C4"/>
<path d="M112 16H128V32H112V16Z" fill="#649E95"/>
<path d="M128 16H144V32H128V16Z" fill="#649E95"/>
<path d="M144 16H160V32H144V16Z" fill="#649E95"/>
<path d="M160 16H176V32H160V16Z" fill="#649E95"/>
<path d="M176 16H192V32H176V16Z" fill="#649E95"/>
<path d="M192 16H208V32H192V16Z" fill="#5FBAAC"/>
<path d="M208 16H224V32H208V16Z" fill="#5FBAAC"/>
<path d="M419 16H435V32H419V16Z" fill="#71D6C6"/>
<path d="M435 16H451V32H435V16Z" fill="#6FD5C4"/>
<path d="M451 16H467V32H451V16Z" fill="#649E95"/>
<path d="M467 16H483V32H467V16Z" fill="#649E95"/>
<path d="M483 16H499V32H483V16Z" fill="#649E95"/>
<path d="M499 16H515V32H499V16Z" fill="#649E95"/>
<path d="M515 16H531V32H515V16Z" fill="#649E95"/>
<path d="M531 16H547V32H531V16Z" fill="#5FBAAC"/>
<path d="M547 16H563V32H547V16Z" fill="#5FBAAC"/>
<path d="M64 32H80V48H64V32Z" fill="#70D4C4"/>
<path d="M80 32H96V48H80V32Z" fill="#649E95"/>
<path d="M96 32H112V48H96V32Z" fill="#649E95"/>
<path d="M112 32H128V48H112V32Z" fill="#649E95"/>
<path d="M128 32H144V48H128V32Z" fill="#649E95"/>
<path d="M144 32H160V48H144V32Z" fill="#649E95"/>
<path d="M160 32H176V48H160V32Z" fill="#649E95"/>
<path d="M176 32H192V48H176V32Z" fill="#649E95"/>
<path d="M192 32H208V48H192V32Z" fill="#649E95"/>
<path d="M208 32H224V48H208V32Z" fill="#649E95"/>
<path d="M224 32H240V48H224V32Z" fill="#C55882"/>
<path d="M240 32H256V48H240V32Z" fill="#5FC1B2"/>
<path d="M403 32H419V48H403V32Z" fill="#70D4C4"/>
<path d="M419 32H435V48H419V32Z" fill="#649E95"/>
<path d="M435 32H451V48H435V32Z" fill="#649E95"/>
<path d="M451 32H467V48H451V32Z" fill="#649E95"/>
<path d="M467 32H483V48H467V32Z" fill="#649E95"/>
<path d="M483 32H499V48H483V32Z" fill="#649E95"/>
<path d="M499 32H515V48H499V32Z" fill="#649E95"/>
<path d="M515 32H531V48H515V32Z" fill="#649E95"/>
<path d="M531 32H547V48H531V32Z" fill="#649E95"/>
<path d="M547 32H563V48H547V32Z" fill="#649E95"/>
<path d="M563 32H579V48H563V32Z" fill="#C55882"/>
<path d="M579 32H595V48H579V32Z" fill="#5FC1B2"/>
<path d="M48 48H64V64H48V48Z" fill="#70D4C4"/>
<path d="M64 48H80V64H64V48Z" fill="#649E95"/>
<path d="M80 48H96V64H80V48Z" fill="#649E95"/>
<path d="M96 48H112V64H96V48Z" fill="#649E95"/>
<path d="M112 48H128V64H112V48Z" fill="#90B798"/>
<path d="M128 48H144V64H128V48Z" fill="#90B798"/>
<path d="M144 48H160V64H144V48Z" fill="#AD6887"/>
<path d="M160 48H176V64H160V48Z" fill="#90B798"/>
<path d="M176 48H192V64H176V48Z" fill="#90B798"/>
<path d="M192 48H208V64H192V48Z" fill="#649E95"/>
<path d="M208 48H224V64H208V48Z" fill="#649E95"/>
<path d="M224 48H240V64H224V48Z" fill="#649E95"/>
<path d="M240 48H256V64H240V48Z" fill="#C55882"/>
<path d="M256 48H272V64H256V48Z" fill="#6FD5C4"/>
<path d="M387 48H403V64H387V48Z" fill="#70D4C4"/>
<path d="M403 48H419V64H403V48Z" fill="#649E95"/>
<path d="M419 48H435V64H419V48Z" fill="#649E95"/>
<path d="M435 48H451V64H435V48Z" fill="#649E95"/>
<path d="M451 48H467V64H451V48Z" fill="#90B798"/>
<path d="M467 48H483V64H467V48Z" fill="#90B798"/>
<path d="M483 48H499V64H483V48Z" fill="#AD6887"/>
<path d="M499 48H515V64H499V48Z" fill="#90B798"/>
<path d="M515 48H531V64H515V48Z" fill="#90B798"/>
<path d="M531 48H547V64H531V48Z" fill="#649E95"/>
<path d="M547 48H563V64H547V48Z" fill="#649E95"/>
<path d="M563 48H579V64H563V48Z" fill="#649E95"/>
<path d="M579 48H595V64H579V48Z" fill="#C55882"/>
<path d="M595 48H611V64H595V48Z" fill="#6FD5C4"/>
<path d="M32 64H48V80H32V64Z" fill="#70D4C4"/>
<path d="M48 64H64V80H48V64Z" fill="#649E95"/>
<path d="M64 64H80V80H64V64Z" fill="#649E95"/>
<path d="M80 64H96V80H80V64Z" fill="#649E95"/>
<path d="M96 64H112V80H96V64Z" fill="#90B798"/>
<path d="M112 64H128V80H112V64Z" fill="#A3C084"/>
<path d="M128 64H144V80H128V64Z" fill="#A3C084"/>
<path d="M144 64H160V80H144V64Z" fill="#B87A8B"/>
<path d="M160 64H176V80H160V64Z" fill="#A3C084"/>
<path d="M176 64H192V80H176V64Z" fill="#A3C084"/>
<path d="M192 64H208V80H192V64Z" fill="#C96284"/>
<path d="M208 64H224V80H208V64Z" fill="#90B798"/>
<path d="M224 64H240V80H224V64Z" fill="#649E95"/>
<path d="M240 64H256V80H240V64Z" fill="#C55882"/>
<path d="M256 64H272V80H256V64Z" fill="#649E95"/>
<path d="M272 64H288V80H272V64Z" fill="#6FD5C4"/>
<path d="M371 64H387V80H371V64Z" fill="#70D4C4"/>
<path d="M387 64H403V80H387V64Z" fill="#649E95"/>
<path d="M403 64H419V80H403V64Z" fill="#649E95"/>
<path d="M419 64H435V80H419V64Z" fill="#649E95"/>
<path d="M435 64H451V80H435V64Z" fill="#90B798"/>
<path d="M451 64H467V80H451V64Z" fill="#A3C084"/>
<path d="M467 64H483V80H467V64Z" fill="#A3C084"/>
<path d="M483 64H499V80H483V64Z" fill="#B87A8B"/>
<path d="M499 64H515V80H499V64Z" fill="#A3C084"/>
<path d="M515 64H531V80H515V64Z" fill="#A3C084"/>
<path d="M531 64H547V80H531V64Z" fill="#C96284"/>
<path d="M547 64H563V80H547V64Z" fill="#90B798"/>
<path d="M563 64H579V80H563V64Z" fill="#649E95"/>
<path d="M579 64H595V80H579V64Z" fill="#C55882"/>
<path d="M595 64H611V80H595V64Z" fill="#649E95"/>
<path d="M611 64H627V80H611V64Z" fill="#6FD5C4"/>
<path d="M16 80H32V96H16V80Z" fill="#5FBAAC"/>
<path d="M32 80H48V96H32V80Z" fill="#71D3C3"/>
<path d="M48 80H64V96H48V80Z" fill="#649E95"/>
<path d="M64 80H80V96H64V80Z" fill="#AD6887"/>
<path d="M80 80H96V96H80V80Z" fill="#90B798"/>
<path d="M96 80H112V96H96V80Z" fill="#BD8681"/>
<path d="M112 80H128V96H112V80Z" fill="#A3C084"/>
<path d="M128 80H144V96H128V80Z" fill="#BD8681"/>
<path d="M144 80H160V96H144V80Z" fill="#A3C084"/>
<path d="M160 80H176V96H160V80Z" fill="#A3C084"/>
<path d="M176 80H192V96H176V80Z" fill="#A3C084"/>
<path d="M192 80H208V96H192V80Z" fill="#CA6980"/>
<path d="M208 80H224V96H208V80Z" fill="#A3C084"/>
<path d="M224 80H240V96H224V80Z" fill="#C96284"/>
<path d="M240 80H256V96H240V80Z" fill="#C55882"/>
<path d="M256 80H272V96H256V80Z" fill="#C55882"/>
<path d="M272 80H288V96H272V80Z" fill="#649E95"/>
<path d="M288 80H304V96H288V80Z" fill="#5FC1B2"/>
<path d="M355 80H371V96H355V80Z" fill="#5FBAAC"/>
<path d="M371 80H387V96H371V80Z" fill="#71D3C3"/>
<path d="M387 80H403V96H387V80Z" fill="#649E95"/>
<path d="M403 80H419V96H403V80Z" fill="#AD6887"/>
<path d="M419 80H435V96H419V80Z" fill="#90B798"/>
<path d="M435 80H451V96H435V80Z" fill="#BD8681"/>
<path d="M451 80H467V96H451V80Z" fill="#A3C084"/>
<path d="M467 80H483V96H467V80Z" fill="#BD8681"/>
<path d="M483 80H499V96H483V80Z" fill="#A3C084"/>
<path d="M499 80H515V96H499V80Z" fill="#A3C084"/>
<path d="M515 80H531V96H515V80Z" fill="#A3C084"/>
<path d="M531 80H547V96H531V80Z" fill="#CA6980"/>
<path d="M547 80H563V96H547V80Z" fill="#A3C084"/>
<path d="M563 80H579V96H563V80Z" fill="#C96284"/>
<path d="M579 80H595V96H579V80Z" fill="#C55882"/>
<path d="M595 80H611V96H595V80Z" fill="#C55882"/>
<path d="M611 80H627V96H611V80Z" fill="#649E95"/>
<path d="M627 80H643V96H627V80Z" fill="#5FC1B2"/>
<path d="M0 96H16V112H0V96Z" fill="#5FBAAC"/>
<path d="M16 96H32V112H16V96Z" fill="#649E95"/>
<path d="M32 96H48V112H32V96Z" fill="#649E95"/>
<path d="M48 96H64V112H48V96Z" fill="#C55882"/>
<path d="M64 96H80V112H64V96Z" fill="#90B798"/>
<path d="M80 96H96V112H80V96Z" fill="#A3C084"/>
<path d="M96 96H112V112H96V96Z" fill="#BD8681"/>
<path d="M112 96H128V112H112V96Z" fill="#A3C084"/>
<path d="M128 96H144V112H128V96Z" fill="#BD8681"/>
<path d="M144 96H160V112H144V96Z" fill="#BD8681"/>
<path d="M160 96H176V112H160V96Z" fill="#BD8681"/>
<path d="M176 96H192V112H176V96Z" fill="#BD8681"/>
<path d="M192 96H208V112H192V96Z" fill="#BD8681"/>
<path d="M208 96H224V112H208V96Z" fill="#CA6980"/>
<path d="M224 96H240V112H224V96Z" fill="#C96284"/>
<path d="M240 96H256V112H240V96Z" fill="#C55882"/>
<path d="M256 96H272V112H256V96Z" fill="#C55882"/>
<path d="M272 96H288V112H272V96Z" fill="#649E95"/>
<path d="M288 96H304V112H288V96Z" fill="#649E95"/>
<path d="M304 96H320V112H304V96Z" fill="#5FC1B2"/>
<path d="M339 96H355V112H339V96Z" fill="#5FBAAC"/>
<path d="M355 96H371V112H355V96Z" fill="#649E95"/>
<path d="M371 96H387V112H371V96Z" fill="#649E95"/>
<path d="M387 96H403V112H387V96Z" fill="#C55882"/>
<path d="M403 96H419V112H403V96Z" fill="#90B798"/>
<path d="M419 96H435V112H419V96Z" fill="#A3C084"/>
<path d="M435 96H451V112H435V96Z" fill="#BD8681"/>
<path d="M451 96H467V112H451V96Z" fill="#A3C084"/>
<path d="M467 96H483V112H467V96Z" fill="#BD8681"/>
<path d="M483 96H499V112H483V96Z" fill="#BD8681"/>
<path d="M499 96H515V112H499V96Z" fill="#BD8681"/>
<path d="M515 96H531V112H515V96Z" fill="#BD8681"/>
<path d="M531 96H547V112H531V96Z" fill="#BD8681"/>
<path d="M547 96H563V112H547V96Z" fill="#CA6980"/>
<path d="M563 96H579V112H563V96Z" fill="#C96284"/>
<path d="M579 96H595V112H579V96Z" fill="#C55882"/>
<path d="M595 96H611V112H595V96Z" fill="#C55882"/>
<path d="M611 96H627V112H611V96Z" fill="#649E95"/>
<path d="M627 96H643V112H627V96Z" fill="#649E95"/>
<path d="M643 96H659V112H643V96Z" fill="#5FC1B2"/>
<path d="M0 112H16V128H0V112Z" fill="#649E95"/>
<path d="M16 112H32V128H16V112Z" fill="#C55882"/>
<path d="M32 112H48V128H32V112Z" fill="#C55882"/>
<path d="M48 112H64V128H48V112Z" fill="#B87A8B"/>
<path d="M64 112H80V128H64V112Z" fill="#BD8681"/>
<path d="M80 112H96V128H80V112Z" fill="#BD8681"/>
<path d="M96 112H112V128H96V112Z" fill="#BD8681"/>
<path d="M112 112H128V128H112V112Z" fill="#BD8681"/>
<path d="M128 112H144V128H128V112Z" fill="#EFE971"/>
<path d="M144 112H160V128H144V112Z" fill="#EFE971"/>
<path d="M160 112H176V128H160V112Z" fill="#EFE971"/>
<path d="M176 112H192V128H176V112Z" fill="#BD8681"/>
<path d="M192 112H208V128H192V112Z" fill="#CA6980"/>
<path d="M208 112H224V128H208V112Z" fill="#CA6980"/>
<path d="M224 112H240V128H224V112Z" fill="#EFE971"/>
<path d="M240 112H256V128H240V112Z" fill="#7EBCB2"/>
<path d="M256 112H272V128H256V112Z" fill="#7EBCB2"/>
<path d="M272 112H288V128H272V112Z" fill="#C55882"/>
<path d="M288 112H304V128H288V112Z" fill="#C55882"/>
<path d="M304 112H320V128H304V112Z" fill="#5FC1B2"/>
<path d="M339 112H355V128H339V112Z" fill="#649E95"/>
<path d="M355 112H371V128H355V112Z" fill="#C55882"/>
<path d="M371 112H387V128H371V112Z" fill="#C55882"/>
<path d="M387 112H403V128H387V112Z" fill="#B87A8B"/>
<path d="M403 112H419V128H403V112Z" fill="#BD8681"/>
<path d="M419 112H435V128H419V112Z" fill="#BD8681"/>
<path d="M435 112H451V128H435V112Z" fill="#BD8681"/>
<path d="M451 112H467V128H451V112Z" fill="#BD8681"/>
<path d="M467 112H483V128H467V112Z" fill="#EFE971"/>
<path d="M483 112H499V128H483V112Z" fill="#EFE971"/>
<path d="M499 112H515V128H499V112Z" fill="#EFE971"/>
<path d="M515 112H531V128H515V112Z" fill="#BD8681"/>
<path d="M531 112H547V128H531V112Z" fill="#CA6980"/>
<path d="M547 112H563V128H547V112Z" fill="#CA6980"/>
<path d="M563 112H579V128H563V112Z" fill="#EFE971"/>
<path d="M579 112H595V128H579V112Z" fill="#7EBCB2"/>
<path d="M595 112H611V128H595V112Z" fill="#7EBCB2"/>
<path d="M611 112H627V128H611V112Z" fill="#C55882"/>
<path d="M627 112H643V128H627V112Z" fill="#C55882"/>
<path d="M643 112H659V128H643V112Z" fill="#5FC1B2"/>
<path d="M0 128H16V144H0V128Z" fill="#AD6887"/>
<path d="M16 128H32V144H16V128Z" fill="#AD6887"/>
<path d="M32 128H48V144H32V128Z" fill="#649E95"/>
<path d="M48 128H64V144H48V128Z" fill="#7EBCB2"/>
<path d="M64 128H80V144H64V128Z" fill="#8EC2B2"/>
<path d="M80 128H96V144H80V128Z" fill="#EFE971"/>
<path d="M96 128H112V144H96V128Z" fill="#EFE971"/>
<path d="M112 128H128V144H112V128Z" fill="#EFE971"/>
<path d="M128 128H144V144H128V128Z" fill="#EFE971"/>
<path d="M144 128H160V144H144V128Z" fill="#D74A7E"/>
<path d="M160 128H176V144H160V128Z" fill="#EFE971"/>
<path d="M176 128H192V144H176V128Z" fill="#EFE971"/>
<path d="M192 128H208V144H192V128Z" fill="#EFE971"/>
<path d="M208 128H224V144H208V128Z" fill="#D74A7E"/>
<path d="M224 128H240V144H224V128Z" fill="#EFE971"/>
<path d="M240 128H256V144H240V128Z" fill="#85C5BB"/>
<path d="M256 128H272V144H256V128Z" fill="#7EBCB2"/>
<path d="M272 128H288V144H272V128Z" fill="#649E95"/>
<path d="M288 128H304V144H288V128Z" fill="#649E95"/>
<path d="M304 128H320V144H304V128Z" fill="#5FC4B4"/>
<path d="M339 128H355V144H339V128Z" fill="#AD6887"/>
<path d="M355 128H371V144H355V128Z" fill="#AD6887"/>
<path d="M371 128H387V144H371V128Z" fill="#649E95"/>
<path d="M387 128H403V144H387V128Z" fill="#7EBCB2"/>
<path d="M403 128H419V144H403V128Z" fill="#8EC2B2"/>
<path d="M419 128H435V144H419V128Z" fill="#EFE971"/>
<path d="M435 128H451V144H435V128Z" fill="#EFE971"/>
<path d="M451 128H467V144H451V128Z" fill="#EFE971"/>
<path d="M467 128H483V144H467V128Z" fill="#EFE971"/>
<path d="M483 128H499V144H483V128Z" fill="#D74A7E"/>
<path d="M499 128H515V144H499V128Z" fill="#EFE971"/>
<path d="M515 128H531V144H515V128Z" fill="#EFE971"/>
<path d="M531 128H547V144H531V128Z" fill="#EFE971"/>
<path d="M547 128H563V144H547V128Z" fill="#D74A7E"/>
<path d="M563 128H579V144H563V128Z" fill="#EFE971"/>
<path d="M579 128H595V144H579V128Z" fill="#85C5BB"/>
<path d="M595 128H611V144H595V128Z" fill="#7EBCB2"/>
<path d="M611 128H627V144H611V128Z" fill="#649E95"/>
<path d="M627 128H643V144H627V128Z" fill="#649E95"/>
<path d="M643 128H659V144H643V128Z" fill="#5FC4B4"/>
<path d="M16 144H32V160H16V144Z" fill="#649E95"/>
<path d="M32 144H48V160H32V144Z" fill="#649E95"/>
<path d="M48 144H64V160H48V144Z" fill="#9EA57C"/>
<path d="M64 144H80V160H64V144Z" fill="#649E95"/>
<path d="M80 144H96V160H80V144Z" fill="#8DC4B0"/>
<path d="M96 144H112V160H96V144Z" fill="#EFE971"/>
<path d="M112 144H128V160H112V144Z" fill="#BB3366"/>
<path d="M128 144H144V160H128V144Z" fill="#D74A7E"/>
<path d="M144 144H160V160H144V144Z" fill="#BB3366"/>
<path d="M160 144H176V160H160V144Z" fill="#D74A7E"/>
<path d="M176 144H192V160H176V144Z" fill="#EFE971"/>
<path d="M192 144H208V160H192V144Z" fill="#BB3366"/>
<path d="M208 144H224V160H208V144Z" fill="#D74A7E"/>
<path d="M224 144H240V160H224V144Z" fill="#D74A7E"/>
<path d="M240 144H256V160H240V144Z" fill="#649E95"/>
<path d="M256 144H272V160H256V144Z" fill="#649E95"/>
<path d="M272 144H288V160H272V144Z" fill="#9EA57C"/>
<path d="M288 144H304V160H288V144Z" fill="#649E95"/>
<path d="M355 144H371V160H355V144Z" fill="#649E95"/>
<path d="M371 144H387V160H371V144Z" fill="#649E95"/>
<path d="M387 144H403V160H387V144Z" fill="#9EA57C"/>
<path d="M403 144H419V160H403V144Z" fill="#649E95"/>
<path d="M419 144H435V160H419V144Z" fill="#8DC4B0"/>
<path d="M435 144H451V160H435V144Z" fill="#EFE971"/>
<path d="M451 144H467V160H451V144Z" fill="#BB3366"/>
<path d="M467 144H483V160H467V144Z" fill="#D74A7E"/>
<path d="M483 144H499V160H483V144Z" fill="#BB3366"/>
<path d="M499 144H515V160H499V144Z" fill="#D74A7E"/>
<path d="M515 144H531V160H515V144Z" fill="#EFE971"/>
<path d="M531 144H547V160H531V144Z" fill="#BB3366"/>
<path d="M547 144H563V160H547V144Z" fill="#D74A7E"/>
<path d="M563 144H579V160H563V144Z" fill="#D74A7E"/>
<path d="M579 144H595V160H579V144Z" fill="#649E95"/>
<path d="M595 144H611V160H595V144Z" fill="#649E95"/>
<path d="M611 144H627V160H611V144Z" fill="#9EA57C"/>
<path d="M627 144H643V160H627V144Z" fill="#649E95"/>
<path d="M16 160H32V176H16V160Z" fill="#72D7C7"/>
<path d="M32 160H48V176H32V160Z" fill="#71D3C3"/>
<path d="M48 160H64V176H48V160Z" fill="#9EA57C"/>
<path d="M64 160H80V176H64V160Z" fill="#649E95"/>
<path d="M80 160H96V176H80V160Z" fill="#D74A7E"/>
<path d="M96 160H112V176H96V160Z" fill="#BB3366"/>
<path d="M112 160H128V176H112V160Z" fill="#D74A7E"/>
<path d="M128 160H144V176H128V160Z" fill="#BB3366"/>
<path d="M144 160H160V176H144V160Z" fill="#BB3366"/>
<path d="M160 160H176V176H160V160Z" fill="#EFE971"/>
<path d="M176 160H192V176H176V160Z" fill="#EFE971"/>
<path d="M192 160H208V176H192V160Z" fill="#BB3366"/>
<path d="M208 160H224V176H208V160Z" fill="#D74A7E"/>
<path d="M224 160H240V176H224V160Z" fill="#D74A7E"/>
<path d="M240 160H256V176H240V160Z" fill="#649E95"/>
<path d="M256 160H272V176H256V160Z" fill="#649E95"/>
<path d="M272 160H288V176H272V160Z" fill="#9EA57C"/>
<path d="M355 160H371V176H355V160Z" fill="#72D7C7"/>
<path d="M371 160H387V176H371V160Z" fill="#71D3C3"/>
<path d="M387 160H403V176H387V160Z" fill="#9EA57C"/>
<path d="M403 160H419V176H403V160Z" fill="#649E95"/>
<path d="M419 160H435V176H419V160Z" fill="#D74A7E"/>
<path d="M435 160H451V176H435V160Z" fill="#BB3366"/>
<path d="M451 160H467V176H451V160Z" fill="#D74A7E"/>
<path d="M467 160H483V176H467V160Z" fill="#BB3366"/>
<path d="M483 160H499V176H483V160Z" fill="#BB3366"/>
<path d="M499 160H515V176H499V160Z" fill="#EFE971"/>
<path d="M515 160H531V176H515V160Z" fill="#EFE971"/>
<path d="M531 160H547V176H531V160Z" fill="#BB3366"/>
<path d="M547 160H563V176H547V160Z" fill="#D74A7E"/>
<path d="M563 160H579V176H563V160Z" fill="#D74A7E"/>
<path d="M579 160H595V176H579V160Z" fill="#649E95"/>
<path d="M595 160H611V176H595V160Z" fill="#649E95"/>
<path d="M611 160H627V176H611V160Z" fill="#9EA57C"/>
<path d="M48 176H64V192H48V176Z" fill="#7CCFB8"/>
<path d="M64 176H80V192H64V176Z" fill="#E378A0"/>
<path d="M80 176H96V192H80V176Z" fill="#D74A7E"/>
<path d="M96 176H112V192H96V176Z" fill="#BB3366"/>
<path d="M112 176H128V192H112V176Z" fill="#BB3366"/>
<path d="M128 176H144V192H128V176Z" fill="#BB3366"/>
<path d="M144 176H160V192H144V176Z" fill="#EFE971"/>
<path d="M160 176H176V192H160V176Z" fill="#EFE971"/>
<path d="M176 176H192V192H176V176Z" fill="#BB3366"/>
<path d="M192 176H208V192H192V176Z" fill="#9DBF99"/>
<path d="M208 176H224V192H208V176Z" fill="#9EA57C"/>
<path d="M224 176H240V192H224V176Z" fill="#72D7C7"/>
<path d="M240 176H256V192H240V176Z" fill="#72D7C7"/>
<path d="M272 176H288V192H272V176Z" fill="#C7954E"/>
<path d="M387 176H403V192H387V176Z" fill="#7CCFB8"/>
<path d="M403 176H419V192H403V176Z" fill="#E378A0"/>
<path d="M419 176H435V192H419V176Z" fill="#D74A7E"/>
<path d="M435 176H451V192H435V176Z" fill="#BB3366"/>
<path d="M451 176H467V192H451V176Z" fill="#BB3366"/>
<path d="M467 176H483V192H467V176Z" fill="#BB3366"/>
<path d="M483 176H499V192H483V176Z" fill="#EFE971"/>
<path d="M499 176H515V192H499V176Z" fill="#EFE971"/>
<path d="M515 176H531V192H515V176Z" fill="#BB3366"/>
<path d="M531 176H547V192H531V176Z" fill="#9DBF99"/>
<path d="M547 176H563V192H547V176Z" fill="#9EA57C"/>
<path d="M563 176H579V192H563V176Z" fill="#72D7C7"/>
<path d="M579 176H595V192H579V176Z" fill="#72D7C7"/>
<path d="M611 176H627V192H611V176Z" fill="#C7954E"/>
<path d="M48 192H64V208H48V192Z" fill="#C7954E"/>
<path d="M80 192H96V208H80V192Z" fill="#E378A0"/>
<path d="M96 192H112V208H96V192Z" fill="#D74A7E"/>
<path d="M112 192H128V208H112V192Z" fill="#BB3366"/>
<path d="M128 192H144V208H128V192Z" fill="#EFE971"/>
<path d="M144 192H160V208H144V192Z" fill="#EFE971"/>
<path d="M160 192H176V208H160V192Z" fill="#BB3366"/>
<path d="M176 192H192V208H176V192Z" fill="#BB3366"/>
<path d="M192 192H208V208H192V192Z" fill="#D74A7E"/>
<path d="M208 192H224V208H208V192Z" fill="#BB3366"/>
<path d="M224 192H240V208H224V192Z" fill="#C7954E"/>
<path d="M272 192H288V208H272V192Z" fill="#C7954E"/>
<path d="M387 192H403V208H387V192Z" fill="#C7954E"/>
<path d="M419 192H435V208H419V192Z" fill="#E378A0"/>
<path d="M435 192H451V208H435V192Z" fill="#D74A7E"/>
<path d="M451 192H467V208H451V192Z" fill="#BB3366"/>
<path d="M467 192H483V208H467V192Z" fill="#EFE971"/>
<path d="M483 192H499V208H483V192Z" fill="#EFE971"/>
<path d="M499 192H515V208H499V192Z" fill="#BB3366"/>
<path d="M515 192H531V208H515V192Z" fill="#BB3366"/>
<path d="M531 192H547V208H531V192Z" fill="#D74A7E"/>
<path d="M547 192H563V208H547V192Z" fill="#BB3366"/>
<path d="M563 192H579V208H563V192Z" fill="#C7954E"/>
<path d="M611 192H627V208H611V192Z" fill="#C7954E"/>
<path d="M32 208H48V224H32V208Z" fill="#C7954E"/>
<path d="M96 208H112V224H96V208Z" fill="#E378A0"/>
<path d="M112 208H128V224H112V208Z" fill="#BB3366"/>
<path d="M128 208H144V224H128V208Z" fill="#BB3366"/>
<path d="M144 208H160V224H144V208Z" fill="#EFE971"/>
<path d="M160 208H176V224H160V208Z" fill="#BB3366"/>
<path d="M176 208H192V224H176V208Z" fill="#D74A7E"/>
<path d="M192 208H208V224H192V208Z" fill="#D74A7E"/>
<path d="M208 208H224V224H208V208Z" fill="#BB3366"/>
<path d="M224 208H240V224H224V208Z" fill="#C7954E"/>
<path d="M288 208H304V224H288V208Z" fill="#C7954E"/>
<path d="M403 208H419V224H403V208Z" fill="#C7954E"/>
<path d="M435 208H451V224H435V208Z" fill="#E378A0"/>
<path d="M451 208H467V224H451V208Z" fill="#BB3366"/>
<path d="M467 208H483V224H467V208Z" fill="#BB3366"/>
<path d="M483 208H499V224H483V208Z" fill="#EFE971"/>
<path d="M499 208H515V224H499V208Z" fill="#BB3366"/>
<path d="M515 208H531V224H515V208Z" fill="#D74A7E"/>
<path d="M531 208H547V224H531V208Z" fill="#D74A7E"/>
<path d="M547 208H563V224H547V208Z" fill="#BB3366"/>
<path d="M563 208H579V224H563V208Z" fill="#C7954E"/>
<path d="M627 208H643V224H627V208Z" fill="#C7954E"/>
<path d="M32 224H48V240H32V224Z" fill="#C7954E"/>
<path d="M96 224H112V240H96V224Z" fill="#C7954E"/>
<path d="M128 224H144V240H128V224Z" fill="#BB3366"/>
<path d="M144 224H160V240H144V224Z" fill="#EFE971"/>
<path d="M160 224H176V240H160V224Z" fill="#D74A7E"/>
<path d="M176 224H192V240H176V224Z" fill="#D74A7E"/>
<path d="M192 224H208V240H192V224Z" fill="#BB3366"/>
<path d="M208 224H224V240H208V224Z" fill="#D74A7E"/>
<path d="M224 224H240V240H224V224Z" fill="#C7954E"/>
<path d="M304 224H320V240H304V224Z" fill="#EFE971"/>
<path d="M403 224H419V240H403V224Z" fill="#C7954E"/>
<path d="M435 224H451V240H435V224Z" fill="#C7954E"/>
<path d="M467 224H483V240H467V224Z" fill="#BB3366"/>
<path d="M483 224H499V240H483V224Z" fill="#EFE971"/>
<path d="M499 224H515V240H499V224Z" fill="#D74A7E"/>
<path d="M515 224H531V240H515V224Z" fill="#D74A7E"/>
<path d="M531 224H547V240H531V224Z" fill="#BB3366"/>
<path d="M547 224H563V240H547V224Z" fill="#D74A7E"/>
<path d="M563 224H579V240H563V224Z" fill="#C7954E"/>
<path d="M643 224H659V240H643V224Z" fill="#EFE971"/>
<path d="M32 240H48V256H32V240Z" fill="#C7954E"/>
<path d="M80 240H96V256H80V240Z" fill="#C7954E"/>
<path d="M112 240H128V256H112V240Z" fill="#BB3366"/>
<path d="M128 240H144V256H128V240Z" fill="#BB3366"/>
<path d="M144 240H160V256H144V240Z" fill="#BB3366"/>
<path d="M160 240H176V256H160V240Z" fill="#BB3366"/>
<path d="M176 240H192V256H176V240Z" fill="#BB3366"/>
<path d="M192 240H208V256H192V240Z" fill="#D74A7E"/>
<path d="M208 240H224V256H208V240Z" fill="#E378A0"/>
<path d="M224 240H240V256H224V240Z" fill="#C7954E"/>
<path d="M304 240H320V256H304V240Z" fill="#EFE971"/>
<path d="M403 240H419V256H403V240Z" fill="#C7954E"/>
<path d="M419 240H435V256H419V240Z" fill="#C7954E"/>
<path d="M451 240H467V256H451V240Z" fill="#BB3366"/>
<path d="M467 240H483V256H467V240Z" fill="#BB3366"/>
<path d="M483 240H499V256H483V240Z" fill="#BB3366"/>
<path d="M499 240H515V256H499V240Z" fill="#BB3366"/>
<path d="M515 240H531V256H515V240Z" fill="#BB3366"/>
<path d="M531 240H547V256H531V240Z" fill="#D74A7E"/>
<path d="M547 240H563V256H547V240Z" fill="#E378A0"/>
<path d="M563 240H579V256H563V240Z" fill="#C7954E"/>
<path d="M643 240H659V256H643V240Z" fill="#EFE971"/>
<path d="M16 256H32V272H16V256Z" fill="#EFE971"/>
<path d="M80 256H96V272H80V256Z" fill="#E378A0"/>
<path d="M96 256H112V272H96V256Z" fill="#D74A7E"/>
<path d="M112 256H128V272H112V256Z" fill="#D74A7E"/>
<path d="M128 256H144V272H128V256Z" fill="#BB3366"/>
<path d="M144 256H160V272H144V256Z" fill="#EFE971"/>
<path d="M160 256H176V272H160V256Z" fill="#BB3366"/>
<path d="M176 256H192V272H176V256Z" fill="#D74A7E"/>
<path d="M192 256H208V272H192V256Z" fill="#E378A0"/>
<path d="M240 256H256V272H240V256Z" fill="#C7954E"/>
<path d="M304 256H320V272H304V256Z" fill="#EFE971"/>
<path d="M387 256H403V272H387V256Z" fill="#EFE971"/>
<path d="M419 256H435V272H419V256Z" fill="#E378A0"/>
<path d="M435 256H451V272H435V256Z" fill="#D74A7E"/>
<path d="M451 256H467V272H451V256Z" fill="#D74A7E"/>
<path d="M467 256H483V272H467V256Z" fill="#BB3366"/>
<path d="M483 256H499V272H483V256Z" fill="#EFE971"/>
<path d="M499 256H515V272H499V256Z" fill="#BB3366"/>
<path d="M515 256H531V272H515V256Z" fill="#D74A7E"/>
<path d="M531 256H547V272H531V256Z" fill="#E378A0"/>
<path d="M579 256H595V272H579V256Z" fill="#C7954E"/>
<path d="M643 256H659V272H643V256Z" fill="#EFE971"/>
<path d="M16 272H32V288H16V272Z" fill="#EFE971"/>
<path d="M80 272H96V288H80V272Z" fill="#E378A0"/>
<path d="M96 272H112V288H96V272Z" fill="#D74A7E"/>
<path d="M112 272H128V288H112V272Z" fill="#D74A7E"/>
<path d="M128 272H144V288H128V272Z" fill="#BB3366"/>
<path d="M144 272H160V288H144V272Z" fill="#EFE971"/>
<path d="M160 272H176V288H160V272Z" fill="#BB3366"/>
<path d="M176 272H192V288H176V272Z" fill="#E378A0"/>
<path d="M240 272H256V288H240V272Z" fill="#C7954E"/>
<path d="M304 272H320V288H304V272Z" fill="#EFE971"/>
<path d="M387 272H403V288H387V272Z" fill="#EFE971"/>
<path d="M419 272H435V288H419V272Z" fill="#E378A0"/>
<path d="M435 272H451V288H435V272Z" fill="#D74A7E"/>
<path d="M451 272H467V288H451V272Z" fill="#D74A7E"/>
<path d="M467 272H483V288H467V272Z" fill="#BB3366"/>
<path d="M483 272H499V288H483V272Z" fill="#EFE971"/>
<path d="M499 272H515V288H499V272Z" fill="#BB3366"/>
<path d="M515 272H531V288H515V272Z" fill="#E378A0"/>
<path d="M579 272H595V288H579V272Z" fill="#C7954E"/>
<path d="M643 272H659V288H643V272Z" fill="#EFE971"/>
<path d="M16 288H32V304H16V288Z" fill="#EFE971"/>
<path d="M80 288H96V304H80V288Z" fill="#C7954E"/>
<path d="M112 288H128V304H112V288Z" fill="#BB3366"/>
<path d="M128 288H144V304H128V288Z" fill="#D74A7E"/>
<path d="M144 288H160V304H144V288Z" fill="#BB3366"/>
<path d="M160 288H176V304H160V288Z" fill="#BB3366"/>
<path d="M176 288H192V304H176V288Z" fill="#BB3366"/>
<path d="M192 288H208V304H192V288Z" fill="#D74A7E"/>
<path d="M240 288H256V304H240V288Z" fill="#C7954E"/>
<path d="M304 288H320V304H304V288Z" fill="#E3AC5E"/>
<path d="M387 288H403V304H387V288Z" fill="#EFE971"/>
<path d="M419 288H435V304H419V288Z" fill="#C7954E"/>
<path d="M451 288H467V304H451V288Z" fill="#BB3366"/>
<path d="M467 288H483V304H467V288Z" fill="#D74A7E"/>
<path d="M483 288H499V304H483V288Z" fill="#BB3366"/>
<path d="M499 288H515V304H499V288Z" fill="#BB3366"/>
<path d="M515 288H531V304H515V288Z" fill="#BB3366"/>
<path d="M531 288H547V304H531V288Z" fill="#D74A7E"/>
<path d="M579 288H595V304H579V288Z" fill="#C7954E"/>
<path d="M643 288H659V304H643V288Z" fill="#E3AC5E"/>
<path d="M16 304H32V320H16V304Z" fill="#EFE971"/>
<path d="M80 304H96V320H80V304Z" fill="#C7954E"/>
<path d="M112 304H128V320H112V304Z" fill="#E378A0"/>
<path d="M128 304H144V320H128V304Z" fill="#D74A7E"/>
<path d="M144 304H160V320H144V304Z" fill="#D74A7E"/>
<path d="M160 304H176V320H160V304Z" fill="#BB3366"/>
<path d="M176 304H192V320H176V304Z" fill="#BB3366"/>
<path d="M192 304H208V320H192V304Z" fill="#BB3366"/>
<path d="M208 304H224V320H208V304Z" fill="#D74A7E"/>
<path d="M240 304H256V320H240V304Z" fill="#C7954E"/>
<path d="M304 304H320V320H304V304Z" fill="#E3AC5E"/>
<path d="M387 304H403V320H387V304Z" fill="#EFE971"/>
<path d="M419 304H435V320H419V304Z" fill="#C7954E"/>
<path d="M451 304H467V320H451V304Z" fill="#E378A0"/>
<path d="M467 304H483V320H467V304Z" fill="#D74A7E"/>
<path d="M483 304H499V320H483V304Z" fill="#D74A7E"/>
<path d="M499 304H515V320H499V304Z" fill="#BB3366"/>
<path d="M515 304H531V320H515V304Z" fill="#BB3366"/>
<path d="M531 304H547V320H531V304Z" fill="#D74A7E"/>
<path d="M579 304H595V320H579V304Z" fill="#C7954E"/>
<path d="M643 304H659V320H643V304Z" fill="#E3AC5E"/>
<path d="M32 320H48V336H32V320Z" fill="#C7954E"/>
<path d="M80 320H96V336H80V320Z" fill="#C7954E"/>
<path d="M112 320H128V336H112V320Z" fill="#F2EF9D"/>
<path d="M128 320H144V336H128V320Z" fill="#E378A0"/>
<path d="M144 320H160V336H144V320Z" fill="#D74A7E"/>
<path d="M160 320H176V336H160V320Z" fill="#BB3366"/>
<path d="M176 320H192V336H176V320Z" fill="#BB3366"/>
<path d="M192 320H208V336H192V320Z" fill="#BB3366"/>
<path d="M208 320H224V336H208V320Z" fill="#D74A7E"/>
<path d="M224 320H240V336H224V320Z" fill="#E378A0"/>
<path d="M240 320H256V336H240V320Z" fill="#E3AC5E"/>
<path d="M288 320H304V336H288V320Z" fill="#EFE971"/>
<path d="M371 320H387V336H371V320Z" fill="#C7954E"/>
<path d="M419 320H435V336H419V320Z" fill="#C7954E"/>
<path d="M451 320H467V336H451V320Z" fill="#F2EF9D"/>
<path d="M467 320H483V336H467V320Z" fill="#E378A0"/>
<path d="M483 320H499V336H483V320Z" fill="#D74A7E"/>
<path d="M499 320H515V336H499V320Z" fill="#BB3366"/>
<path d="M515 320H531V336H515V320Z" fill="#BB3366"/>
<path d="M531 320H547V336H531V320Z" fill="#D74A7E"/>
<path d="M547 320H563V336H547V320Z" fill="#E378A0"/>
<path d="M579 320H595V336H579V320Z" fill="#E3AC5E"/>
<path d="M627 320H643V336H627V320Z" fill="#EFE971"/>
<path d="M32 336H48V352H32V336Z" fill="#C7954E"/>
<path d="M64 336H80V352H64V336Z" fill="#E3AC5E"/>
<path d="M112 336H128V352H112V336Z" fill="#F2EF9D"/>
<path d="M128 336H144V352H128V336Z" fill="#EFE971"/>
<path d="M144 336H160V352H144V336Z" fill="#E378A0"/>
<path d="M160 336H176V352H160V336Z" fill="#D74A7E"/>
<path d="M176 336H192V352H176V336Z" fill="#D74A7E"/>
<path d="M192 336H208V352H192V336Z" fill="#BB3366"/>
<path d="M208 336H224V352H208V336Z" fill="#D74A7E"/>
<path d="M224 336H240V352H224V336Z" fill="#E378A0"/>
<path d="M240 336H256V352H240V336Z" fill="#E3AC5E"/>
<path d="M288 336H304V352H288V336Z" fill="#EFE971"/>
<path d="M371 336H387V352H371V336Z" fill="#C7954E"/>
<path d="M403 336H419V352H403V336Z" fill="#E3AC5E"/>
<path d="M451 336H467V352H451V336Z" fill="#F2EF9D"/>
<path d="M467 336H483V352H467V336Z" fill="#EFE971"/>
<path d="M483 336H499V352H483V336Z" fill="#E378A0"/>
<path d="M499 336H515V352H499V336Z" fill="#D74A7E"/>
<path d="M515 336H531V352H515V336Z" fill="#D74A7E"/>
<path d="M531 336H547V352H531V336Z" fill="#D74A7E"/>
<path d="M547 336H563V352H547V336Z" fill="#E378A0"/>
<path d="M579 336H595V352H579V336Z" fill="#E3AC5E"/>
<path d="M627 336H643V352H627V336Z" fill="#EFE971"/>
<path d="M32 352H48V368H32V352Z" fill="#C7954E"/>
<path d="M64 352H80V368H64V352Z" fill="#E3AC5E"/>
<path d="M112 352H128V368H112V352Z" fill="#BB3366"/>
<path d="M128 352H144V368H128V352Z" fill="#EFE971"/>
<path d="M144 352H160V368H144V352Z" fill="#E3AC5E"/>
<path d="M160 352H176V368H160V352Z" fill="#E378A0"/>
<path d="M176 352H192V368H176V352Z" fill="#D74A7E"/>
<path d="M192 352H208V368H192V352Z" fill="#D74A7E"/>
<path d="M208 352H224V368H208V352Z" fill="#D74A7E"/>
<path d="M224 352H240V368H224V352Z" fill="#E378A0"/>
<path d="M240 352H256V368H240V352Z" fill="#E3AC5E"/>
<path d="M288 352H304V368H288V352Z" fill="#EFE971"/>
<path d="M371 352H387V368H371V352Z" fill="#C7954E"/>
<path d="M403 352H419V368H403V352Z" fill="#E3AC5E"/>
<path d="M451 352H467V368H451V352Z" fill="#BB3366"/>
<path d="M467 352H483V368H467V352Z" fill="#EFE971"/>
<path d="M483 352H499V368H483V352Z" fill="#E3AC5E"/>
<path d="M499 352H515V368H499V352Z" fill="#E378A0"/>
<path d="M515 352H531V368H515V352Z" fill="#D74A7E"/>
<path d="M531 352H547V368H531V352Z" fill="#D74A7E"/>
<path d="M547 352H563V368H547V352Z" fill="#E378A0"/>
<path d="M579 352H595V368H579V352Z" fill="#E3AC5E"/>
<path d="M627 352H643V368H627V352Z" fill="#EFE971"/>
<path d="M32 368H48V384H32V368Z" fill="#E3AC5E"/>
<path d="M64 368H80V384H64V368Z" fill="#E3AC5E"/>
<path d="M112 368H128V384H112V368Z" fill="#BB3366"/>
<path d="M128 368H144V384H128V368Z" fill="#EFE971"/>
<path d="M144 368H160V384H144V368Z" fill="#E3AC5E"/>
<path d="M192 368H208V384H192V368Z" fill="#E378A0"/>
<path d="M208 368H224V384H208V368Z" fill="#E378A0"/>
<path d="M240 368H256V384H240V368Z" fill="#E3AC5E"/>
<path d="M288 368H304V384H288V368Z" fill="#E3AC5E"/>
<path d="M371 368H387V384H371V368Z" fill="#E3AC5E"/>
<path d="M403 368H419V384H403V368Z" fill="#E3AC5E"/>
<path d="M451 368H467V384H451V368Z" fill="#BB3366"/>
<path d="M467 368H483V384H467V368Z" fill="#EFE971"/>
<path d="M483 368H499V384H483V368Z" fill="#E3AC5E"/>
<path d="M531 368H547V384H531V368Z" fill="#E378A0"/>
<path d="M579 368H595V384H579V368Z" fill="#E3AC5E"/>
<path d="M627 368H643V384H627V368Z" fill="#E3AC5E"/>
<path d="M32 384H48V400H32V384Z" fill="#E3AC5E"/>
<path d="M64 384H80V400H64V384Z" fill="#E3AC5E"/>
<path d="M96 384H112V400H96V384Z" fill="#E378A0"/>
<path d="M112 384H128V400H112V384Z" fill="#BB3366"/>
<path d="M128 384H144V400H128V384Z" fill="#BB3366"/>
<path d="M144 384H160V400H144V384Z" fill="#EFE971"/>
<path d="M160 384H176V400H160V384Z" fill="#E3AC5E"/>
<path d="M240 384H256V400H240V384Z" fill="#E3AC5E"/>
<path d="M288 384H304V400H288V384Z" fill="#E3AC5E"/>
<path d="M371 384H387V400H371V384Z" fill="#E3AC5E"/>
<path d="M403 384H419V400H403V384Z" fill="#E3AC5E"/>
<path d="M451 384H467V400H451V384Z" fill="#E378A0"/>
<path d="M467 384H483V400H467V384Z" fill="#BB3366"/>
<path d="M483 384H499V400H483V384Z" fill="#EFE971"/>
<path d="M499 384H515V400H499V384Z" fill="#E3AC5E"/>
<path d="M579 384H595V400H579V384Z" fill="#E3AC5E"/>
<path d="M627 384H643V400H627V384Z" fill="#E3AC5E"/>
<path d="M16 400H32V416H16V400Z" fill="#EFE971"/>
<path d="M64 400H80V416H64V400Z" fill="#E3AC5E"/>
<path d="M96 400H112V416H96V400Z" fill="#E378A0"/>
<path d="M112 400H128V416H112V400Z" fill="#D74A7E"/>
<path d="M128 400H144V416H128V400Z" fill="#BB3366"/>
<path d="M144 400H160V416H144V400Z" fill="#EFE971"/>
<path d="M160 400H176V416H160V400Z" fill="#EFE971"/>
<path d="M176 400H192V416H176V400Z" fill="#D74A7E"/>
<path d="M224 400H240V416H224V400Z" fill="#E3AC5E"/>
<path d="M288 400H304V416H288V400Z" fill="#E3AC5E"/>
<path d="M355 400H371V416H355V400Z" fill="#EFE971"/>
<path d="M403 400H419V416H403V400Z" fill="#E3AC5E"/>
<path d="M451 400H467V416H451V400Z" fill="#E378A0"/>
<path d="M467 400H483V416H467V400Z" fill="#D74A7E"/>
<path d="M483 400H499V416H483V400Z" fill="#EFE971"/>
<path d="M499 400H515V416H499V400Z" fill="#EFE971"/>
<path d="M515 400H531V416H515V400Z" fill="#D74A7E"/>
<path d="M595 400H611V416H595V400Z" fill="#E3AC5E"/>
<path d="M627 400H643V416H627V400Z" fill="#E3AC5E"/>
<path d="M16 416H32V432H16V416Z" fill="#EFE971"/>
<path d="M80 416H96V432H80V416Z" fill="#C7954E"/>
<path d="M96 416H112V432H96V416Z" fill="#E378A0"/>
<path d="M112 416H128V432H112V416Z" fill="#D74A7E"/>
<path d="M128 416H144V432H128V416Z" fill="#BB3366"/>
<path d="M144 416H160V432H144V416Z" fill="#EFE971"/>
<path d="M160 416H176V432H160V416Z" fill="#E3AC5E"/>
<path d="M176 416H192V432H176V416Z" fill="#D74A7E"/>
<path d="M224 416H240V432H224V416Z" fill="#C7954E"/>
<path d="M304 416H320V432H304V416Z" fill="#E3AC5E"/>
<path d="M355 416H371V432H355V416Z" fill="#EFE971"/>
<path d="M419 416H435V432H419V416Z" fill="#C7954E"/>
<path d="M451 416H467V432H451V416Z" fill="#E378A0"/>
<path d="M467 416H483V432H467V416Z" fill="#D74A7E"/>
<path d="M483 416H499V432H483V416Z" fill="#EFE971"/>
<path d="M499 416H515V432H499V416Z" fill="#E3AC5E"/>
<path d="M515 416H531V432H515V416Z" fill="#D74A7E"/>
<path d="M595 416H611V432H595V416Z" fill="#C7954E"/>
<path d="M611 416H627V432H611V416Z" fill="#E3AC5E"/>
<path d="M0 432H16V448H0V432Z" fill="#E3AC5E"/>
<path d="M80 432H96V448H80V432Z" fill="#C7954E"/>
<path d="M96 432H112V448H96V432Z" fill="#E378A0"/>
<path d="M112 432H128V448H112V432Z" fill="#D74A7E"/>
<path d="M128 432H144V448H128V432Z" fill="#BB3366"/>
<path d="M144 432H160V448H144V432Z" fill="#E3AC5E"/>
<path d="M160 432H176V448H160V432Z" fill="#EFE971"/>
<path d="M176 432H192V448H176V432Z" fill="#E3AC5E"/>
<path d="M192 432H208V448H192V432Z" fill="#D74A7E"/>
<path d="M224 432H240V448H224V432Z" fill="#C7954E"/>
<path d="M304 432H320V448H304V432Z" fill="#E3AC5E"/>
<path d="M371 432H387V448H371V432Z" fill="#E3AC5E"/>
<path d="M419 432H435V448H419V432Z" fill="#C7954E"/>
<path d="M451 432H467V448H451V432Z" fill="#E378A0"/>
<path d="M467 432H483V448H467V432Z" fill="#D74A7E"/>
<path d="M483 432H499V448H483V432Z" fill="#E3AC5E"/>
<path d="M499 432H515V448H499V432Z" fill="#EFE971"/>
<path d="M515 432H531V448H515V432Z" fill="#E3AC5E"/>
<path d="M531 432H547V448H531V432Z" fill="#D74A7E"/>
<path d="M595 432H611V448H595V432Z" fill="#C7954E"/>
<path d="M611 432H627V448H611V432Z" fill="#E3AC5E"/>
<path d="M0 448H16V464H0V448Z" fill="#E3AC5E"/>
<path d="M96 448H112V464H96V448Z" fill="#E3AC5E"/>
<path d="M112 448H128V464H112V448Z" fill="#E378A0"/>
<path d="M128 448H144V464H128V448Z" fill="#D74A7E"/>
<path d="M144 448H160V464H144V448Z" fill="#E3AC5E"/>
<path d="M160 448H176V464H160V448Z" fill="#EFE971"/>
<path d="M176 448H192V464H176V448Z" fill="#EFE971"/>
<path d="M192 448H208V464H192V448Z" fill="#D74A7E"/>
<path d="M208 448H224V464H208V448Z" fill="#E378A0"/>
<path d="M224 448H240V464H224V448Z" fill="#C7954E"/>
<path d="M304 448H320V464H304V448Z" fill="#E3AC5E"/>
<path d="M371 448H387V464H371V448Z" fill="#E3AC5E"/>
<path d="M435 448H451V464H435V448Z" fill="#E3AC5E"/>
<path d="M451 448H467V464H451V448Z" fill="#E378A0"/>
<path d="M467 448H483V464H467V448Z" fill="#D74A7E"/>
<path d="M483 448H499V464H483V448Z" fill="#E3AC5E"/>
<path d="M499 448H515V464H499V448Z" fill="#EFE971"/>
<path d="M515 448H531V464H515V448Z" fill="#EFE971"/>
<path d="M531 448H547V464H531V448Z" fill="#D74A7E"/>
<path d="M547 448H563V464H547V448Z" fill="#E378A0"/>
<path d="M595 448H611V464H595V448Z" fill="#C7954E"/>
<path d="M611 448H627V464H611V448Z" fill="#E3AC5E"/>
<path d="M0 464H16V480H0V464Z" fill="#E3AC5E"/>
<path d="M96 464H112V480H96V464Z" fill="#E3AC5E"/>
<path d="M128 464H144V480H128V464Z" fill="#E378A0"/>
<path d="M144 464H160V480H144V464Z" fill="#E3AC5E"/>
<path d="M160 464H176V480H160V464Z" fill="#BB3366"/>
<path d="M176 464H192V480H176V464Z" fill="#EFE971"/>
<path d="M192 464H208V480H192V464Z" fill="#E3AC5E"/>
<path d="M208 464H224V480H208V464Z" fill="#D74A7E"/>
<path d="M304 464H320V480H304V464Z" fill="#E3AC5E"/>
<path d="M371 464H387V480H371V464Z" fill="#E3AC5E"/>
<path d="M435 464H451V480H435V464Z" fill="#E3AC5E"/>
<path d="M467 464H483V480H467V464Z" fill="#E378A0"/>
<path d="M483 464H499V480H483V464Z" fill="#E3AC5E"/>
<path d="M499 464H515V480H499V464Z" fill="#BB3366"/>
<path d="M515 464H531V480H515V464Z" fill="#EFE971"/>
<path d="M531 464H547V480H531V464Z" fill="#E3AC5E"/>
<path d="M547 464H563V480H547V464Z" fill="#D74A7E"/>
<path d="M611 464H627V480H611V464Z" fill="#E3AC5E"/>
<path d="M16 480H32V496H16V480Z" fill="#C7954E"/>
<path d="M112 480H128V496H112V480Z" fill="#C7954E"/>
<path d="M128 480H144V496H128V480Z" fill="#E378A0"/>
<path d="M144 480H160V496H144V480Z" fill="#E3AC5E"/>
<path d="M160 480H176V496H160V480Z" fill="#BB3366"/>
<path d="M176 480H192V496H176V480Z" fill="#EFE971"/>
<path d="M192 480H208V496H192V480Z" fill="#E3AC5E"/>
<path d="M208 480H224V496H208V480Z" fill="#BB3366"/>
<path d="M288 480H304V496H288V480Z" fill="#C7954E"/>
<path d="M355 480H371V496H355V480Z" fill="#C7954E"/>
<path d="M451 480H467V496H451V480Z" fill="#C7954E"/>
<path d="M467 480H483V496H467V480Z" fill="#E378A0"/>
<path d="M483 480H499V496H483V480Z" fill="#E3AC5E"/>
<path d="M499 480H515V496H499V480Z" fill="#BB3366"/>
<path d="M515 480H531V496H515V480Z" fill="#EFE971"/>
<path d="M531 480H547V496H531V480Z" fill="#E3AC5E"/>
<path d="M547 480H563V496H547V480Z" fill="#BB3366"/>
<path d="M595 480H611V496H595V480Z" fill="#C7954E"/>
<path d="M16 496H32V512H16V496Z" fill="#C7954E"/>
<path d="M112 496H128V512H112V496Z" fill="#C7954E"/>
<path d="M144 496H160V512H144V496Z" fill="#E378A0"/>
<path d="M160 496H176V512H160V496Z" fill="#E3AC5E"/>
<path d="M176 496H192V512H176V496Z" fill="#EFE971"/>
<path d="M192 496H208V512H192V496Z" fill="#E3AC5E"/>
<path d="M208 496H224V512H208V496Z" fill="#BB3366"/>
<path d="M224 496H240V512H224V496Z" fill="#E378A0"/>
<path d="M288 496H304V512H288V496Z" fill="#C7954E"/>
<path d="M355 496H371V512H355V496Z" fill="#C7954E"/>
<path d="M451 496H467V512H451V496Z" fill="#C7954E"/>
<path d="M483 496H499V512H483V496Z" fill="#E378A0"/>
<path d="M499 496H515V512H499V496Z" fill="#E3AC5E"/>
<path d="M515 496H531V512H515V496Z" fill="#EFE971"/>
<path d="M531 496H547V512H531V496Z" fill="#E3AC5E"/>
<path d="M547 496H563V512H547V496Z" fill="#E378A0"/>
<path d="M595 496H611V512H595V496Z" fill="#C7954E"/>
<path d="M16 512H32V528H16V512Z" fill="#C7954E"/>
<path d="M160 512H176V528H160V512Z" fill="#E3AC5E"/>
<path d="M176 512H192V528H176V512Z" fill="#EFE971"/>
<path d="M192 512H208V528H192V512Z" fill="#E3AC5E"/>
<path d="M208 512H224V528H208V512Z" fill="#BB3366"/>
<path d="M224 512H240V528H224V512Z" fill="#E378A0"/>
<path d="M355 512H371V528H355V512Z" fill="#C7954E"/>
<path d="M499 512H515V528H499V512Z" fill="#E3AC5E"/>
<path d="M515 512H531V528H515V512Z" fill="#EFE971"/>
<path d="M531 512H547V528H531V512Z" fill="#E3AC5E"/>
<path d="M547 512H563V528H547V512Z" fill="#E378A0"/>
<path d="M144 528H160V544H144V528Z" fill="#E3AC5E"/>
<path d="M160 528H176V544H160V528Z" fill="#F2EF9D"/>
<path d="M176 528H192V544H176V528Z" fill="#EFE971"/>
<path d="M192 528H208V544H192V528Z" fill="#E3AC5E"/>
<path d="M208 528H224V544H208V528Z" fill="#BB3366"/>
<path d="M224 528H240V544H224V528Z" fill="#E378A0"/>
<path d="M483 528H499V544H483V528Z" fill="#E3AC5E"/>
<path d="M499 528H515V544H499V528Z" fill="#F2EF9D"/>
<path d="M515 528H531V544H515V528Z" fill="#EFE971"/>
<path d="M531 528H547V544H531V528Z" fill="#E3AC5E"/>
<path d="M547 528H563V544H547V528Z" fill="#E378A0"/>
<path d="M144 544H160V560H144V544Z" fill="#E3AC5E"/>
<path d="M160 544H176V560H160V544Z" fill="#F2EF9D"/>
<path d="M176 544H192V560H176V544Z" fill="#EFE971"/>
<path d="M192 544H208V560H192V544Z" fill="#E3AC5E"/>
<path d="M208 544H224V560H208V544Z" fill="#D74A7E"/>
<path d="M224 544H240V560H224V544Z" fill="#E378A0"/>
<path d="M483 544H499V560H483V544Z" fill="#E3AC5E"/>
<path d="M499 544H515V560H499V544Z" fill="#F2EF9D"/>
<path d="M515 544H531V560H515V544Z" fill="#EFE971"/>
<path d="M531 544H547V560H531V544Z" fill="#E3AC5E"/>
<path d="M547 544H563V560H547V544Z" fill="#E378A0"/>
<path d="M144 560H160V576H144V560Z" fill="#E3AC5E"/>
<path d="M160 560H176V576H160V560Z" fill="#E378A0"/>
<path d="M176 560H192V576H176V560Z" fill="#EFE971"/>
<path d="M192 560H208V576H192V560Z" fill="#D74A7E"/>
<path d="M208 560H224V576H208V560Z" fill="#E3AC5E"/>
<path d="M483 560H499V576H483V560Z" fill="#E3AC5E"/>
<path d="M499 560H515V576H499V560Z" fill="#E378A0"/>
<path d="M515 560H531V576H515V560Z" fill="#EFE971"/>
<path d="M531 560H547V576H531V560Z" fill="#D74A7E"/>
<path d="M547 560H563V576H547V560Z" fill="#E3AC5E"/>
<path d="M112 576H128V592H112V576Z" fill="#E378A0"/>
<path d="M128 576H144V592H128V576Z" fill="#E378A0"/>
<path d="M144 576H160V592H144V576Z" fill="#D74A7E"/>
<path d="M160 576H176V592H160V576Z" fill="#BB3366"/>
<path d="M176 576H192V592H176V576Z" fill="#EFE971"/>
<path d="M192 576H208V592H192V576Z" fill="#E378A0"/>
<path d="M208 576H224V592H208V576Z" fill="#E3AC5E"/>
<path d="M467 576H483V592H467V576Z" fill="#E378A0"/>
<path d="M483 576H499V592H483V576Z" fill="#D74A7E"/>
<path d="M499 576H515V592H499V576Z" fill="#BB3366"/>
<path d="M515 576H531V592H515V576Z" fill="#EFE971"/>
<path d="M531 576H547V592H531V576Z" fill="#E378A0"/>
<path d="M547 576H563V592H547V576Z" fill="#E3AC5E"/>
<path d="M96 592H112V608H96V592Z" fill="#E378A0"/>
<path d="M112 592H128V608H112V592Z" fill="#D74A7E"/>
<path d="M128 592H144V608H128V592Z" fill="#BB3366"/>
<path d="M144 592H160V608H144V592Z" fill="#BB3366"/>
<path d="M160 592H176V608H160V592Z" fill="#E378A0"/>
<path d="M176 592H192V608H176V592Z" fill="#EFE971"/>
<path d="M208 592H224V608H208V592Z" fill="#E3AC5E"/>
<path d="M451 592H467V608H451V592Z" fill="#D74A7E"/>
<path d="M467 592H483V608H467V592Z" fill="#E378A0"/>
<path d="M483 592H499V608H483V592Z" fill="#BB3366"/>
<path d="M499 592H515V608H499V592Z" fill="#E378A0"/>
<path d="M515 592H531V608H515V592Z" fill="#EFE971"/>
<path d="M547 592H563V608H547V592Z" fill="#E3AC5E"/>
<path d="M96 608H112V624H96V608Z" fill="#E378A0"/>
<path d="M112 608H128V624H112V608Z" fill="#BB3366"/>
<path d="M128 608H144V624H128V608Z" fill="#BB3366"/>
<path d="M144 608H160V624H144V608Z" fill="#E378A0"/>
<path d="M160 608H176V624H160V608Z" fill="#EFE971"/>
<path d="M208 608H224V624H208V608Z" fill="#E3AC5E"/>
<path d="M451 608H467V624H451V608Z" fill="#E378A0"/>
<path d="M467 608H483V624H467V608Z" fill="#D74A7E"/>
<path d="M483 608H499V624H483V608Z" fill="#E378A0"/>
<path d="M499 608H515V624H499V608Z" fill="#EFE971"/>
<path d="M547 608H563V624H547V608Z" fill="#E3AC5E"/>
<path d="M80 624H96V640H80V624Z" fill="#E378A0"/>
<path d="M96 624H112V640H96V624Z" fill="#D74A7E"/>
<path d="M112 624H128V640H112V624Z" fill="#BB3366"/>
<path d="M128 624H144V640H128V624Z" fill="#E378A0"/>
<path d="M160 624H176V640H160V624Z" fill="#EFE971"/>
<path d="M208 624H224V640H208V624Z" fill="#E3AC5E"/>
<path d="M451 624H467V640H451V624Z" fill="#E378A0"/>
<path d="M467 624H483V640H467V624Z" fill="#D74A7E"/>
<path d="M499 624H515V640H499V624Z" fill="#EFE971"/>
<path d="M547 624H563V640H547V624Z" fill="#E3AC5E"/>
<path d="M80 640H96V656H80V640Z" fill="#E378A0"/>
<path d="M96 640H112V656H96V640Z" fill="#D74A7E"/>
<path d="M112 640H128V656H112V640Z" fill="#BB3366"/>
<path d="M128 640H144V656H128V640Z" fill="#E378A0"/>
<path d="M192 640H208V656H192V640Z" fill="#E3AC5E"/>
<path d="M451 640H467V656H451V640Z" fill="#BB3366"/>
<path d="M467 640H483V656H467V640Z" fill="#E378A0"/>
<path d="M531 640H547V656H531V640Z" fill="#E3AC5E"/>
<path d="M96 656H112V672H96V656Z" fill="#E378A0"/>
<path d="M112 656H128V672H112V656Z" fill="#BB3366"/>
<path d="M128 656H144V672H128V656Z" fill="#E378A0"/>
<path d="M192 656H208V672H192V656Z" fill="#E3AC5E"/>
<path d="M451 656H467V672H451V656Z" fill="#BB3366"/>
<path d="M467 656H483V672H467V656Z" fill="#E378A0"/>
<path d="M531 656H547V672H531V656Z" fill="#E3AC5E"/>
<path d="M96 672H112V688H96V672Z" fill="#E378A0"/>
<path d="M112 672H128V688H112V672Z" fill="#BB3366"/>
<path d="M128 672H144V688H128V672Z" fill="#BB3366"/>
<path d="M192 672H208V688H192V672Z" fill="#E3AC5E"/>
<path d="M451 672H467V688H451V672Z" fill="#BB3366"/>
<path d="M467 672H483V688H467V672Z" fill="#BB3366"/>
<path d="M531 672H547V688H531V672Z" fill="#E3AC5E"/>
<path d="M112 688H128V704H112V688Z" fill="#E378A0"/>
<path d="M128 688H144V704H128V688Z" fill="#BB3366"/>
<path d="M144 688H160V704H144V688Z" fill="#E378A0"/>
<path d="M451 688H467V704H451V688Z" fill="#E378A0"/>
<path d="M467 688H483V704H467V688Z" fill="#BB3366"/>
<path d="M483 688H499V704H483V688Z" fill="#E378A0"/>
<path d="M128 704H144V720H128V704Z" fill="#E378A0"/>
<path d="M144 704H160V720H144V704Z" fill="#BB3366"/>
<path d="M160 704H176V720H160V704Z" fill="#E378A0"/>
<path d="M467 704H483V720H467V704Z" fill="#E378A0"/>
<path d="M483 704H499V720H483V704Z" fill="#BB3366"/>
<path d="M499 704H515V720H499V704Z" fill="#E378A0"/>
<path d="M128 720H144V736H128V720Z" fill="#E378A0"/>
<path d="M144 720H160V736H144V720Z" fill="#D74A7E"/>
<path d="M160 720H176V736H160V720Z" fill="#E378A0"/>
<path d="M467 720H483V736H467V720Z" fill="#E378A0"/>
<path d="M483 720H499V736H483V720Z" fill="#D74A7E"/>
<path d="M499 720H515V736H499V720Z" fill="#E378A0"/>
</svg>
