<svg viewBox="0 0 1536 768" xmlns="http://www.w3.org/2000/svg" version="1.1"><path d="m336 272h16v16h-16z" fill="#c7a075"></path><path d="m352 272h16v16h-16z" fill="#b35235"></path><path d="m1104 272h16v16h-16z" fill="#c7a075"></path><path d="m1120 272h16v16h-16z" fill="#b35235"></path><path d="m320 288h16v16h-16z" fill="#c7a075"></path><path d="m336 288h16v16h-16z" fill="#c75836"></path><path d="m352 288h16v16h-16z" fill="#b35235"></path><path d="m368 288h16v16h-16z" fill="#c75836"></path><path d="m384 288h16v16h-16z" fill="#c7a075"></path><path d="m1088 288h16v16h-16z" fill="#c7a075"></path><path d="m1104 288h16v16h-16z" fill="#c75836"></path><path d="m1120 288h16v16h-16z" fill="#b35235"></path><path d="m1136 288h16v16h-16z" fill="#c75836"></path><path d="m1152 288h16v16h-16z" fill="#c7a075"></path><path d="m320 304h16v16h-16z" fill="#c7a075"></path><path d="m336 304h16v16h-16z" fill="#c7a075"></path><path d="m352 304h16v16h-16z" fill="#c75836"></path><path d="m368 304h16v16h-16z" fill="#b35235"></path><path d="m384 304h16v16h-16z" fill="#c75836"></path><path d="m1088 304h16v16h-16z" fill="#c7a075"></path><path d="m1104 304h16v16h-16z" fill="#c7a075"></path><path d="m1120 304h16v16h-16z" fill="#c75836"></path><path d="m1136 304h16v16h-16z" fill="#b35235"></path><path d="m1152 304h16v16h-16z" fill="#c75836"></path><path d="m320 320h16v16h-16z" fill="#c7a075"></path><path d="m336 320h16v16h-16z" fill="#c75836"></path><path d="m352 320h16v16h-16z" fill="#d06638"></path><path d="m368 320h16v16h-16z" fill="#d06638"></path><path d="m384 320h16v16h-16z" fill="#df774a"></path><path d="m400 320h16v16h-16z" fill="#d06638"></path><path d="m416 320h16v16h-16z" fill="#d06638"></path><path d="m1088 320h16v16h-16z" fill="#c7a075"></path><path d="m1104 320h16v16h-16z" fill="#c75836"></path><path d="m1120 320h16v16h-16z" fill="#d06638"></path><path d="m1136 320h16v16h-16z" fill="#d06638"></path><path d="m1152 320h16v16h-16z" fill="#df774a"></path><path d="m1168 320h16v16h-16z" fill="#d06638"></path><path d="m1184 320h16v16h-16z" fill="#d06638"></path><path d="m288 336h16v16h-16z" fill="#c7a075"></path><path d="m320 336h16v16h-16z" fill="#d06638"></path><path d="m336 336h16v16h-16z" fill="#d06638"></path><path d="m352 336h16v16h-16z" fill="#d06638"></path><path d="m368 336h16v16h-16z" fill="#d06638"></path><path d="m384 336h16v16h-16z" fill="#d06638"></path><path d="m400 336h16v16h-16z" fill="#df774a"></path><path d="m416 336h16v16h-16z" fill="#d06638"></path><path d="m432 336h16v16h-16z" fill="#d06638"></path><path d="m448 336h16v16h-16z" fill="#d06638"></path><path d="m464 336h16v16h-16z" fill="#df774a"></path><path d="m480 336h16v16h-16z" fill="#df774a"></path><path d="m1056 336h16v16h-16z" fill="#c7a075"></path><path d="m1088 336h16v16h-16z" fill="#d06638"></path><path d="m1104 336h16v16h-16z" fill="#d06638"></path><path d="m1120 336h16v16h-16z" fill="#d06638"></path><path d="m1136 336h16v16h-16z" fill="#d06638"></path><path d="m1152 336h16v16h-16z" fill="#d06638"></path><path d="m1168 336h16v16h-16z" fill="#df774a"></path><path d="m1184 336h16v16h-16z" fill="#d06638"></path><path d="m1200 336h16v16h-16z" fill="#d06638"></path><path d="m1216 336h16v16h-16z" fill="#d06638"></path><path d="m1232 336h16v16h-16z" fill="#df774a"></path><path d="m1248 336h16v16h-16z" fill="#df774a"></path><path d="m256 352h16v16h-16z" fill="#c7a075"></path><path d="m288 352h16v16h-16z" fill="#d06638"></path><path d="m304 352h16v16h-16z" fill="#d06638"></path><path d="m320 352h16v16h-16z" fill="#df774a"></path><path d="m336 352h16v16h-16z" fill="#df774a"></path><path d="m352 352h16v16h-16z" fill="#df774a"></path><path d="m368 352h16v16h-16z" fill="#df774a"></path><path d="m384 352h16v16h-16z" fill="#df774a"></path><path d="m400 352h16v16h-16z" fill="#c75836"></path><path d="m416 352h16v16h-16z" fill="#d06638"></path><path d="m432 352h16v16h-16z" fill="#df774a"></path><path d="m448 352h16v16h-16z" fill="#df774a"></path><path d="m464 352h16v16h-16z" fill="#d06638"></path><path d="m480 352h16v16h-16z" fill="#d06638"></path><path d="m496 352h16v16h-16z" fill="#d06638"></path><path d="m528 352h16v16h-16z" fill="#c7a075"></path><path d="m960 352h16v16h-16z" fill="#d06638"></path><path d="m1024 352h16v16h-16z" fill="#c7a075"></path><path d="m1056 352h16v16h-16z" fill="#d06638"></path><path d="m1072 352h16v16h-16z" fill="#d06638"></path><path d="m1088 352h16v16h-16z" fill="#df774a"></path><path d="m1104 352h16v16h-16z" fill="#df774a"></path><path d="m1120 352h16v16h-16z" fill="#df774a"></path><path d="m1136 352h16v16h-16z" fill="#df774a"></path><path d="m1152 352h16v16h-16z" fill="#df774a"></path><path d="m1168 352h16v16h-16z" fill="#c75836"></path><path d="m1184 352h16v16h-16z" fill="#d06638"></path><path d="m1200 352h16v16h-16z" fill="#df774a"></path><path d="m1216 352h16v16h-16z" fill="#df774a"></path><path d="m1232 352h16v16h-16z" fill="#d06638"></path><path d="m1248 352h16v16h-16z" fill="#d06638"></path><path d="m1264 352h16v16h-16z" fill="#d06638"></path><path d="m1296 352h16v16h-16z" fill="#c7a075"></path><path d="m176 368h16v16h-16z" fill="#d06638"></path><path d="m224 368h16v16h-16z" fill="#c7a075"></path><path d="m256 368h16v16h-16z" fill="#df774a"></path><path d="m272 368h16v16h-16z" fill="#df774a"></path><path d="m288 368h16v16h-16z" fill="#df774a"></path><path d="m304 368h16v16h-16z" fill="#df774a"></path><path d="m320 368h16v16h-16z" fill="#c75836"></path><path d="m336 368h16v16h-16z" fill="#c75836"></path><path d="m352 368h16v16h-16z" fill="#c75836"></path><path d="m368 368h16v16h-16z" fill="#c75836"></path><path d="m384 368h16v16h-16z" fill="#c75836"></path><path d="m400 368h16v16h-16z" fill="#d06638"></path><path d="m416 368h16v16h-16z" fill="#df774a"></path><path d="m432 368h16v16h-16z" fill="#c75836"></path><path d="m448 368h16v16h-16z" fill="#c75836"></path><path d="m464 368h16v16h-16z" fill="#df774a"></path><path d="m480 368h16v16h-16z" fill="#df774a"></path><path d="m496 368h16v16h-16z" fill="#d06638"></path><path d="m512 368h16v16h-16z" fill="#d06638"></path><path d="m528 368h16v16h-16z" fill="#d06638"></path><path d="m960 368h16v16h-16z" fill="#d3a97c"></path><path d="m976 368h16v16h-16z" fill="#c7a075"></path><path d="m992 368h16v16h-16z" fill="#c75836"></path><path d="m1024 368h16v16h-16z" fill="#df774a"></path><path d="m1040 368h16v16h-16z" fill="#df774a"></path><path d="m1056 368h16v16h-16z" fill="#df774a"></path><path d="m1072 368h16v16h-16z" fill="#df774a"></path><path d="m1088 368h16v16h-16z" fill="#c75836"></path><path d="m1104 368h16v16h-16z" fill="#c75836"></path><path d="m1120 368h16v16h-16z" fill="#c75836"></path><path d="m1136 368h16v16h-16z" fill="#c75836"></path><path d="m1152 368h16v16h-16z" fill="#c75836"></path><path d="m1168 368h16v16h-16z" fill="#d06638"></path><path d="m1184 368h16v16h-16z" fill="#df774a"></path><path d="m1200 368h16v16h-16z" fill="#c75836"></path><path d="m1216 368h16v16h-16z" fill="#c75836"></path><path d="m1232 368h16v16h-16z" fill="#df774a"></path><path d="m1248 368h16v16h-16z" fill="#df774a"></path><path d="m1264 368h16v16h-16z" fill="#d06638"></path><path d="m1280 368h16v16h-16z" fill="#d06638"></path><path d="m1296 368h16v16h-16z" fill="#d06638"></path><path d="m176 384h16v16h-16z" fill="#d3a97c"></path><path d="m192 384h16v16h-16z" fill="#c7a075"></path><path d="m208 384h16v16h-16z" fill="#c75836"></path><path d="m224 384h16v16h-16z" fill="#df774a"></path><path d="m240 384h16v16h-16z" fill="#df774a"></path><path d="m256 384h16v16h-16z" fill="#c75836"></path><path d="m272 384h16v16h-16z" fill="#c75836"></path><path d="m288 384h16v16h-16z" fill="#c75836"></path><path d="m304 384h16v16h-16z" fill="#c75836"></path><path d="m320 384h16v16h-16z" fill="#d06638"></path><path d="m336 384h16v16h-16z" fill="#d06638"></path><path d="m352 384h16v16h-16z" fill="#d06638"></path><path d="m368 384h16v16h-16z" fill="#d06638"></path><path d="m384 384h16v16h-16z" fill="#d06638"></path><path d="m400 384h16v16h-16z" fill="#d06638"></path><path d="m416 384h16v16h-16z" fill="#df774a"></path><path d="m432 384h16v16h-16z" fill="#c75836"></path><path d="m448 384h16v16h-16z" fill="#d06638"></path><path d="m464 384h16v16h-16z" fill="#c75836"></path><path d="m480 384h16v16h-16z" fill="#c75836"></path><path d="m496 384h16v16h-16z" fill="#df774a"></path><path d="m512 384h16v16h-16z" fill="#df774a"></path><path d="m528 384h16v16h-16z" fill="#d06638"></path><path d="m544 384h16v16h-16z" fill="#d06638"></path><path d="m560 384h16v16h-16z" fill="#c7a075"></path><path d="m976 384h16v16h-16z" fill="#d3a97c"></path><path d="m992 384h16v16h-16z" fill="#c7a075"></path><path d="m1008 384h16v16h-16z" fill="#df774a"></path><path d="m1024 384h16v16h-16z" fill="#c75836"></path><path d="m1040 384h16v16h-16z" fill="#c75836"></path><path d="m1056 384h16v16h-16z" fill="#c75836"></path><path d="m1072 384h16v16h-16z" fill="#c75836"></path><path d="m1088 384h16v16h-16z" fill="#d06638"></path><path d="m1104 384h16v16h-16z" fill="#d06638"></path><path d="m1120 384h16v16h-16z" fill="#d06638"></path><path d="m1136 384h16v16h-16z" fill="#d06638"></path><path d="m1152 384h16v16h-16z" fill="#d06638"></path><path d="m1168 384h16v16h-16z" fill="#d06638"></path><path d="m1184 384h16v16h-16z" fill="#df774a"></path><path d="m1200 384h16v16h-16z" fill="#c75836"></path><path d="m1216 384h16v16h-16z" fill="#d06638"></path><path d="m1232 384h16v16h-16z" fill="#c75836"></path><path d="m1248 384h16v16h-16z" fill="#c75836"></path><path d="m1264 384h16v16h-16z" fill="#df774a"></path><path d="m1280 384h16v16h-16z" fill="#df774a"></path><path d="m1296 384h16v16h-16z" fill="#d06638"></path><path d="m1312 384h16v16h-16z" fill="#d06638"></path><path d="m1328 384h16v16h-16z" fill="#c7a075"></path><path d="m192 400h16v16h-16z" fill="#d3a97c"></path><path d="m208 400h16v16h-16z" fill="#c7a075"></path><path d="m224 400h16v16h-16z" fill="#c75836"></path><path d="m240 400h16v16h-16z" fill="#c7a075"></path><path d="m256 400h16v16h-16z" fill="#c75836"></path><path d="m272 400h16v16h-16z" fill="#c7a075"></path><path d="m288 400h16v16h-16z" fill="#c75836"></path><path d="m304 400h16v16h-16z" fill="#c7a075"></path><path d="m320 400h16v16h-16z" fill="#c75836"></path><path d="m336 400h16v16h-16z" fill="#c7a075"></path><path d="m352 400h16v16h-16z" fill="#d06638"></path><path d="m368 400h16v16h-16z" fill="#d06638"></path><path d="m384 400h16v16h-16z" fill="#d06638"></path><path d="m400 400h16v16h-16z" fill="#df774a"></path><path d="m416 400h16v16h-16z" fill="#c75836"></path><path d="m432 400h16v16h-16z" fill="#d06638"></path><path d="m448 400h16v16h-16z" fill="#d06638"></path><path d="m464 400h16v16h-16z" fill="#d06638"></path><path d="m480 400h16v16h-16z" fill="#c75836"></path><path d="m496 400h16v16h-16z" fill="#c75836"></path><path d="m512 400h16v16h-16z" fill="#c75836"></path><path d="m528 400h16v16h-16z" fill="#df774a"></path><path d="m544 400h16v16h-16z" fill="#df774a"></path><path d="m560 400h16v16h-16z" fill="#d06638"></path><path d="m992 400h16v16h-16z" fill="#d3a97c"></path><path d="m1008 400h16v16h-16z" fill="#c7a075"></path><path d="m1024 400h16v16h-16z" fill="#c75836"></path><path d="m1040 400h16v16h-16z" fill="#c7a075"></path><path d="m1056 400h16v16h-16z" fill="#c75836"></path><path d="m1072 400h16v16h-16z" fill="#c7a075"></path><path d="m1088 400h16v16h-16z" fill="#c75836"></path><path d="m1104 400h16v16h-16z" fill="#c7a075"></path><path d="m1120 400h16v16h-16z" fill="#d06638"></path><path d="m1136 400h16v16h-16z" fill="#d06638"></path><path d="m1152 400h16v16h-16z" fill="#d06638"></path><path d="m1168 400h16v16h-16z" fill="#df774a"></path><path d="m1184 400h16v16h-16z" fill="#c75836"></path><path d="m1200 400h16v16h-16z" fill="#d06638"></path><path d="m1216 400h16v16h-16z" fill="#d06638"></path><path d="m1232 400h16v16h-16z" fill="#d06638"></path><path d="m1248 400h16v16h-16z" fill="#c75836"></path><path d="m1264 400h16v16h-16z" fill="#c75836"></path><path d="m1280 400h16v16h-16z" fill="#c75836"></path><path d="m1296 400h16v16h-16z" fill="#df774a"></path><path d="m1312 400h16v16h-16z" fill="#df774a"></path><path d="m1328 400h16v16h-16z" fill="#d06638"></path><path d="m208 416h16v16h-16z" fill="#d3a97c"></path><path d="m224 416h16v16h-16z" fill="#d3a97c"></path><path d="m240 416h16v16h-16z" fill="#d3a97c"></path><path d="m256 416h16v16h-16z" fill="#d3a97c"></path><path d="m272 416h16v16h-16z" fill="#d3a97c"></path><path d="m288 416h16v16h-16z" fill="#d3a97c"></path><path d="m304 416h16v16h-16z" fill="#d3a97c"></path><path d="m320 416h16v16h-16z" fill="#d3a97c"></path><path d="m336 416h16v16h-16z" fill="#d3a97c"></path><path d="m352 416h16v16h-16z" fill="#c75836"></path><path d="m368 416h16v16h-16z" fill="#d06638"></path><path d="m384 416h16v16h-16z" fill="#d06638"></path><path d="m400 416h16v16h-16z" fill="#df774a"></path><path d="m416 416h16v16h-16z" fill="#c75836"></path><path d="m432 416h16v16h-16z" fill="#d06638"></path><path d="m448 416h16v16h-16z" fill="#c75836"></path><path d="m464 416h16v16h-16z" fill="#c75836"></path><path d="m480 416h16v16h-16z" fill="#c7a075"></path><path d="m496 416h16v16h-16z" fill="#c75836"></path><path d="m512 416h16v16h-16z" fill="#c75836"></path><path d="m528 416h16v16h-16z" fill="#c75836"></path><path d="m544 416h16v16h-16z" fill="#c75836"></path><path d="m560 416h16v16h-16z" fill="#df774a"></path><path d="m576 416h16v16h-16z" fill="#d06638"></path><path d="m592 416h16v16h-16z" fill="#c7a075"></path><path d="m992 416h16v16h-16z" fill="#d3a97c"></path><path d="m1008 416h16v16h-16z" fill="#d3a97c"></path><path d="m1024 416h16v16h-16z" fill="#d3a97c"></path><path d="m1040 416h16v16h-16z" fill="#d3a97c"></path><path d="m1056 416h16v16h-16z" fill="#d3a97c"></path><path d="m1072 416h16v16h-16z" fill="#d3a97c"></path><path d="m1088 416h16v16h-16z" fill="#d3a97c"></path><path d="m1104 416h16v16h-16z" fill="#d3a97c"></path><path d="m1120 416h16v16h-16z" fill="#c75836"></path><path d="m1136 416h16v16h-16z" fill="#d06638"></path><path d="m1152 416h16v16h-16z" fill="#d06638"></path><path d="m1168 416h16v16h-16z" fill="#df774a"></path><path d="m1184 416h16v16h-16z" fill="#c75836"></path><path d="m1200 416h16v16h-16z" fill="#d06638"></path><path d="m1216 416h16v16h-16z" fill="#c75836"></path><path d="m1232 416h16v16h-16z" fill="#c75836"></path><path d="m1248 416h16v16h-16z" fill="#c7a075"></path><path d="m1264 416h16v16h-16z" fill="#c75836"></path><path d="m1280 416h16v16h-16z" fill="#c75836"></path><path d="m1296 416h16v16h-16z" fill="#c75836"></path><path d="m1312 416h16v16h-16z" fill="#c75836"></path><path d="m1328 416h16v16h-16z" fill="#df774a"></path><path d="m1344 416h16v16h-16z" fill="#d06638"></path><path d="m1360 416h16v16h-16z" fill="#c7a075"></path><path d="m352 432h16v16h-16z" fill="#d3a97c"></path><path d="m368 432h16v16h-16z" fill="#c75836"></path><path d="m384 432h16v16h-16z" fill="#d06638"></path><path d="m400 432h16v16h-16z" fill="#df774a"></path><path d="m416 432h16v16h-16z" fill="#c7a075"></path><path d="m432 432h16v16h-16z" fill="#c75836"></path><path d="m448 432h16v16h-16z" fill="#d3a97c"></path><path d="m464 432h16v16h-16z" fill="#d3a97c"></path><path d="m480 432h16v16h-16z" fill="#d3a97c"></path><path d="m496 432h16v16h-16z" fill="#d3a97c"></path><path d="m512 432h16v16h-16z" fill="#c7a075"></path><path d="m528 432h16v16h-16z" fill="#c75836"></path><path d="m544 432h16v16h-16z" fill="#d06638"></path><path d="m560 432h16v16h-16z" fill="#c75836"></path><path d="m576 432h16v16h-16z" fill="#df774a"></path><path d="m592 432h16v16h-16z" fill="#d06638"></path><path d="m624 432h16v16h-16z" fill="#d06638"></path><path d="m1120 432h16v16h-16z" fill="#d3a97c"></path><path d="m1136 432h16v16h-16z" fill="#c75836"></path><path d="m1152 432h16v16h-16z" fill="#d06638"></path><path d="m1168 432h16v16h-16z" fill="#df774a"></path><path d="m1184 432h16v16h-16z" fill="#c7a075"></path><path d="m1200 432h16v16h-16z" fill="#c75836"></path><path d="m1216 432h16v16h-16z" fill="#d3a97c"></path><path d="m1232 432h16v16h-16z" fill="#d3a97c"></path><path d="m1248 432h16v16h-16z" fill="#d3a97c"></path><path d="m1264 432h16v16h-16z" fill="#d3a97c"></path><path d="m1280 432h16v16h-16z" fill="#c7a075"></path><path d="m1296 432h16v16h-16z" fill="#c75836"></path><path d="m1312 432h16v16h-16z" fill="#d06638"></path><path d="m1328 432h16v16h-16z" fill="#c75836"></path><path d="m1344 432h16v16h-16z" fill="#df774a"></path><path d="m1360 432h16v16h-16z" fill="#d06638"></path><path d="m1392 432h16v16h-16z" fill="#d06638"></path><path d="m368 448h16v16h-16z" fill="#c75836"></path><path d="m384 448h16v16h-16z" fill="#df774a"></path><path d="m400 448h16v16h-16z" fill="#c75836"></path><path d="m416 448h16v16h-16z" fill="#c75836"></path><path d="m432 448h16v16h-16z" fill="#d3a97c"></path><path d="m528 448h16v16h-16z" fill="#d3a97c"></path><path d="m544 448h16v16h-16z" fill="#c75836"></path><path d="m560 448h16v16h-16z" fill="#c7a075"></path><path d="m576 448h16v16h-16z" fill="#c75836"></path><path d="m592 448h16v16h-16z" fill="#df774a"></path><path d="m608 448h16v16h-16z" fill="#d06638"></path><path d="m624 448h16v16h-16z" fill="#c75836"></path><path d="m1136 448h16v16h-16z" fill="#c75836"></path><path d="m1152 448h16v16h-16z" fill="#df774a"></path><path d="m1168 448h16v16h-16z" fill="#c75836"></path><path d="m1184 448h16v16h-16z" fill="#c75836"></path><path d="m1200 448h16v16h-16z" fill="#d3a97c"></path><path d="m1296 448h16v16h-16z" fill="#d3a97c"></path><path d="m1312 448h16v16h-16z" fill="#c75836"></path><path d="m1328 448h16v16h-16z" fill="#c7a075"></path><path d="m1344 448h16v16h-16z" fill="#c75836"></path><path d="m1360 448h16v16h-16z" fill="#df774a"></path><path d="m1376 448h16v16h-16z" fill="#d06638"></path><path d="m1392 448h16v16h-16z" fill="#c75836"></path><path d="m352 464h16v16h-16z" fill="#c7a075"></path><path d="m368 464h16v16h-16z" fill="#c75836"></path><path d="m384 464h16v16h-16z" fill="#df774a"></path><path d="m400 464h16v16h-16z" fill="#c75836"></path><path d="m416 464h16v16h-16z" fill="#d3a97c"></path><path d="m544 464h16v16h-16z" fill="#d3a97c"></path><path d="m560 464h16v16h-16z" fill="#d3a97c"></path><path d="m576 464h16v16h-16z" fill="#c75836"></path><path d="m592 464h16v16h-16z" fill="#c7a075"></path><path d="m608 464h16v16h-16z" fill="#c75836"></path><path d="m1120 464h16v16h-16z" fill="#c7a075"></path><path d="m1136 464h16v16h-16z" fill="#c75836"></path><path d="m1152 464h16v16h-16z" fill="#df774a"></path><path d="m1168 464h16v16h-16z" fill="#c75836"></path><path d="m1184 464h16v16h-16z" fill="#d3a97c"></path><path d="m1312 464h16v16h-16z" fill="#d3a97c"></path><path d="m1328 464h16v16h-16z" fill="#d3a97c"></path><path d="m1344 464h16v16h-16z" fill="#c75836"></path><path d="m1360 464h16v16h-16z" fill="#c7a075"></path><path d="m1376 464h16v16h-16z" fill="#c75836"></path><path d="m352 480h16v16h-16z" fill="#c75836"></path><path d="m368 480h16v16h-16z" fill="#df774a"></path><path d="m384 480h16v16h-16z" fill="#d06638"></path><path d="m400 480h16v16h-16z" fill="#c7a075"></path><path d="m416 480h16v16h-16z" fill="#d3a97c"></path><path d="m1088 480h16v16h-16z" fill="#c7a075"></path><path d="m1120 480h16v16h-16z" fill="#c75836"></path><path d="m1136 480h16v16h-16z" fill="#df774a"></path><path d="m1152 480h16v16h-16z" fill="#d06638"></path><path d="m1168 480h16v16h-16z" fill="#c7a075"></path><path d="m1184 480h16v16h-16z" fill="#d3a97c"></path><path d="m336 496h16v16h-16z" fill="#c7a075"></path><path d="m352 496h16v16h-16z" fill="#c75836"></path><path d="m368 496h16v16h-16z" fill="#df774a"></path><path d="m384 496h16v16h-16z" fill="#c75836"></path><path d="m400 496h16v16h-16z" fill="#d3a97c"></path><path d="m1088 496h16v16h-16z" fill="#d06638"></path><path d="m1120 496h16v16h-16z" fill="#c75836"></path><path d="m1136 496h16v16h-16z" fill="#df774a"></path><path d="m1152 496h16v16h-16z" fill="#c75836"></path><path d="m1168 496h16v16h-16z" fill="#d3a97c"></path><path d="m336 512h16v16h-16z" fill="#d06638"></path><path d="m352 512h16v16h-16z" fill="#df774a"></path><path d="m368 512h16v16h-16z" fill="#c75836"></path><path d="m384 512h16v16h-16z" fill="#d3a97c"></path><path d="m1088 512h16v16h-16z" fill="#d3a97c"></path><path d="m1104 512h16v16h-16z" fill="#d06638"></path><path d="m1120 512h16v16h-16z" fill="#df774a"></path><path d="m1136 512h16v16h-16z" fill="#c75836"></path><path d="m1152 512h16v16h-16z" fill="#d3a97c"></path><path d="m336 528h16v16h-16z" fill="#d3a97c"></path><path d="m352 528h16v16h-16z" fill="#d3a97c"></path><path d="m368 528h16v16h-16z" fill="#d3a97c"></path><path d="m1104 528h16v16h-16z" fill="#d3a97c"></path><path d="m1120 528h16v16h-16z" fill="#d3a97c"></path><path d="m1136 528h16v16h-16z" fill="#d3a97c"></path></svg>