<svg width="624" height="408" viewBox="0 0 624 408" fill="none" xmlns="http://www.w3.org/2000/svg">
<path d="M144 0H160V16H144V0Z" fill="#F0A44D"/>
<path d="M448 8H464V24H448V8Z" fill="#F0A44D"/>
<path d="M96 16H112V32H96V16Z" fill="#E68E24"/>
<path d="M128 16H144V32H128V16Z" fill="#E68E24"/>
<path d="M144 16H160V32H144V16Z" fill="#F0A44D"/>
<path d="M176 16H192V32H176V16Z" fill="#F0A44D"/>
<path d="M192 16H208V32H192V16Z" fill="#E68E24"/>
<path d="M400 24H416V40H400V24Z" fill="#E68E24"/>
<path d="M432 24H448V40H432V24Z" fill="#E68E24"/>
<path d="M448 24H464V40H448V24Z" fill="#F0A44D"/>
<path d="M480 24H496V40H480V24Z" fill="#F0A44D"/>
<path d="M496 24H512V40H496V24Z" fill="#E68E24"/>
<path d="M96 32H112V48H96V32Z" fill="#E68E24"/>
<path d="M112 32H128V48H112V32Z" fill="#E68E24"/>
<path d="M128 32H144V48H128V32Z" fill="#E25016"/>
<path d="M144 32H160V48H144V32Z" fill="#E25016"/>
<path d="M160 32H176V48H160V32Z" fill="#E25016"/>
<path d="M176 32H192V48H176V32Z" fill="#E68E24"/>
<path d="M192 32H208V48H192V32Z" fill="#F0A44D"/>
<path d="M400 40H416V56H400V40Z" fill="#E68E24"/>
<path d="M416 40H432V56H416V40Z" fill="#E68E24"/>
<path d="M432 40H448V56H432V40Z" fill="#E25016"/>
<path d="M448 40H464V56H448V40Z" fill="#E25016"/>
<path d="M464 40H480V56H464V40Z" fill="#E25016"/>
<path d="M480 40H496V56H480V40Z" fill="#E68E24"/>
<path d="M496 40H512V56H496V40Z" fill="#F0A44D"/>
<path d="M112 48H128V64H112V48Z" fill="#E68E24"/>
<path d="M128 48H144V64H128V48Z" fill="#E68E24"/>
<path d="M144 48H160V64H144V48Z" fill="#E68E24"/>
<path d="M160 48H176V64H160V48Z" fill="#E68E24"/>
<path d="M176 48H192V64H176V48Z" fill="#E25016"/>
<path d="M192 48H208V64H192V48Z" fill="#E68E24"/>
<path d="M208 48H224V64H208V48Z" fill="#F0A44D"/>
<path d="M224 48H240V64H224V48Z" fill="#E68E24"/>
<path d="M416 56H432V72H416V56Z" fill="#E68E24"/>
<path d="M432 56H448V72H432V56Z" fill="#E68E24"/>
<path d="M448 56H464V72H448V56Z" fill="#E68E24"/>
<path d="M464 56H480V72H464V56Z" fill="#E68E24"/>
<path d="M480 56H496V72H480V56Z" fill="#E25016"/>
<path d="M496 56H512V72H496V56Z" fill="#E68E24"/>
<path d="M512 56H528V72H512V56Z" fill="#F0A44D"/>
<path d="M528 56H544V72H528V56Z" fill="#E68E24"/>
<path d="M96 64H112V80H96V64Z" fill="#CC7C1C"/>
<path d="M112 64H128V80H112V64Z" fill="#F0980C"/>
<path d="M128 64H144V80H128V64Z" fill="#DF490D"/>
<path d="M144 64H160V80H144V64Z" fill="#E25016"/>
<path d="M160 64H176V80H160V64Z" fill="#E68E24"/>
<path d="M176 64H192V80H176V64Z" fill="#E68E24"/>
<path d="M192 64H208V80H192V64Z" fill="#C46E0C"/>
<path d="M208 64H224V80H208V64Z" fill="#E68E24"/>
<path d="M400 72H416V88H400V72Z" fill="#CC7C1C"/>
<path d="M416 72H432V88H416V72Z" fill="#F0980C"/>
<path d="M432 72H448V88H432V72Z" fill="#DF490D"/>
<path d="M448 72H464V88H448V72Z" fill="#E25016"/>
<path d="M464 72H480V88H464V72Z" fill="#E68E24"/>
<path d="M480 72H496V88H480V72Z" fill="#E68E24"/>
<path d="M496 72H512V88H496V72Z" fill="#C46E0C"/>
<path d="M512 72H528V88H512V72Z" fill="#E68E24"/>
<path d="M96 80H112V96H96V80Z" fill="#F0980C"/>
<path d="M112 80H128V96H112V80Z" fill="#1C1A18"/>
<path d="M128 80H144V96H128V80Z" fill="#F0980C"/>
<path d="M144 80H160V96H144V80Z" fill="#DF490D"/>
<path d="M160 80H176V96H160V80Z" fill="#F0A44D"/>
<path d="M176 80H192V96H176V80Z" fill="#E25016"/>
<path d="M192 80H208V96H192V80Z" fill="#C46E0C"/>
<path d="M208 80H224V96H208V80Z" fill="#E68E24"/>
<path d="M224 80H240V96H224V80Z" fill="#F0A44D"/>
<path d="M240 80H256V96H240V80Z" fill="#E68E24"/>
<path d="M400 88H416V104H400V88Z" fill="#F0980C"/>
<path d="M416 88H432V104H416V88Z" fill="#1C1A18"/>
<path d="M432 88H448V104H432V88Z" fill="#F0980C"/>
<path d="M448 88H464V104H448V88Z" fill="#DF490D"/>
<path d="M464 88H480V104H464V88Z" fill="#F0A44D"/>
<path d="M480 88H496V104H480V88Z" fill="#E25016"/>
<path d="M496 88H512V104H496V88Z" fill="#C46E0C"/>
<path d="M512 88H528V104H512V88Z" fill="#E68E24"/>
<path d="M528 88H544V104H528V88Z" fill="#F0A44D"/>
<path d="M544 88H560V104H544V88Z" fill="#E68E24"/>
<path d="M80 96H96V112H80V96Z" fill="#E68E24"/>
<path d="M96 96H112V112H96V96Z" fill="#CC7C1C"/>
<path d="M112 96H128V112H112V96Z" fill="#F0980C"/>
<path d="M128 96H144V112H128V96Z" fill="#DF490D"/>
<path d="M144 96H160V112H144V96Z" fill="#F0A44D"/>
<path d="M160 96H176V112H160V96Z" fill="#E25016"/>
<path d="M176 96H192V112H176V96Z" fill="#C46E0C"/>
<path d="M192 96H208V112H192V96Z" fill="#E68E24"/>
<path d="M208 96H224V112H208V96Z" fill="#E25016"/>
<path d="M224 96H240V112H224V96Z" fill="#E68E24"/>
<path d="M384 104H400V120H384V104Z" fill="#E68E24"/>
<path d="M400 104H416V120H400V104Z" fill="#CC7C1C"/>
<path d="M416 104H432V120H416V104Z" fill="#F0980C"/>
<path d="M432 104H448V120H432V104Z" fill="#DF490D"/>
<path d="M448 104H464V120H448V104Z" fill="#F0A44D"/>
<path d="M464 104H480V120H464V104Z" fill="#E25016"/>
<path d="M480 104H496V120H480V104Z" fill="#C46E0C"/>
<path d="M496 104H512V120H496V104Z" fill="#E68E24"/>
<path d="M512 104H528V120H512V104Z" fill="#E25016"/>
<path d="M528 104H544V120H528V104Z" fill="#E68E24"/>
<path d="M64 112H80V128H64V112Z" fill="#E68E24"/>
<path d="M80 112H96V128H80V112Z" fill="#E25016"/>
<path d="M96 112H112V128H96V112Z" fill="#E25016"/>
<path d="M112 112H128V128H112V112Z" fill="#CC7C1C"/>
<path d="M128 112H144V128H128V112Z" fill="#F0A44D"/>
<path d="M144 112H160V128H144V112Z" fill="#E25016"/>
<path d="M192 112H208V128H192V112Z" fill="#F0A44D"/>
<path d="M208 112H224V128H208V112Z" fill="#F0C99C"/>
<path d="M224 112H240V128H224V112Z" fill="#E68E24"/>
<path d="M240 112H256V128H240V112Z" fill="#F0C99C"/>
<path d="M368 120H384V136H368V120Z" fill="#E68E24"/>
<path d="M384 120H400V136H384V120Z" fill="#E25016"/>
<path d="M400 120H416V136H400V120Z" fill="#E25016"/>
<path d="M416 120H432V136H416V120Z" fill="#CC7C1C"/>
<path d="M432 120H448V136H432V120Z" fill="#F0A44D"/>
<path d="M448 120H464V136H448V120Z" fill="#E25016"/>
<path d="M496 120H512V136H496V120Z" fill="#F0A44D"/>
<path d="M512 120H528V136H512V120Z" fill="#F0C99C"/>
<path d="M528 120H544V136H528V120Z" fill="#E68E24"/>
<path d="M544 120H560V136H544V120Z" fill="#F0C99C"/>
<path d="M48 128H64V144H48V128Z" fill="#F0C99C"/>
<path d="M64 128H80V144H64V128Z" fill="#F0A44D"/>
<path d="M80 128H96V144H80V128Z" fill="#E68E24"/>
<path d="M96 128H112V144H96V128Z" fill="#CC7C1C"/>
<path d="M112 128H128V144H112V128Z" fill="#CC7C1C"/>
<path d="M144 128H160V144H144V128Z" fill="#E68E24"/>
<path d="M176 128H192V144H176V128Z" fill="#F0A44D"/>
<path d="M192 128H208V144H192V128Z" fill="#DB3F15"/>
<path d="M208 128H224V144H208V128Z" fill="#E25016"/>
<path d="M224 128H240V144H224V128Z" fill="#F0A44D"/>
<path d="M240 128H256V144H240V128Z" fill="#F0A44D"/>
<path d="M256 128H272V144H256V128Z" fill="#E68E24"/>
<path d="M352 136H368V152H352V136Z" fill="#F0C99C"/>
<path d="M368 136H384V152H368V136Z" fill="#F0A44D"/>
<path d="M384 136H400V152H384V136Z" fill="#E68E24"/>
<path d="M400 136H416V152H400V136Z" fill="#CC7C1C"/>
<path d="M416 136H432V152H416V136Z" fill="#CC7C1C"/>
<path d="M448 136H464V152H448V136Z" fill="#E68E24"/>
<path d="M480 136H496V152H480V136Z" fill="#F0A44D"/>
<path d="M496 136H512V152H496V136Z" fill="#DB3F15"/>
<path d="M512 136H528V152H512V136Z" fill="#E25016"/>
<path d="M528 136H544V152H528V136Z" fill="#F0A44D"/>
<path d="M544 136H560V152H544V136Z" fill="#F0A44D"/>
<path d="M560 136H576V152H560V136Z" fill="#E68E24"/>
<path d="M32 144H48V160H32V144Z" fill="#F0C99C"/>
<path d="M48 144H64V160H48V144Z" fill="#F0A44D"/>
<path d="M64 144H80V160H64V144Z" fill="#E68E24"/>
<path d="M80 144H96V160H80V144Z" fill="#CC7C1C"/>
<path d="M160 144H176V160H160V144Z" fill="#E25016"/>
<path d="M176 144H192V160H176V144Z" fill="#DB3F15"/>
<path d="M192 144H208V160H192V144Z" fill="#F0C99C"/>
<path d="M208 144H224V160H208V144Z" fill="#DB3F15"/>
<path d="M224 144H240V160H224V144Z" fill="#E25016"/>
<path d="M240 144H256V160H240V144Z" fill="#E68E24"/>
<path d="M336 152H352V168H336V152Z" fill="#F0C99C"/>
<path d="M352 152H368V168H352V152Z" fill="#F0A44D"/>
<path d="M368 152H384V168H368V152Z" fill="#E68E24"/>
<path d="M384 152H400V168H384V152Z" fill="#CC7C1C"/>
<path d="M464 152H480V168H464V152Z" fill="#E25016"/>
<path d="M480 152H496V168H480V152Z" fill="#DB3F15"/>
<path d="M496 152H512V168H496V152Z" fill="#F0C99C"/>
<path d="M512 152H528V168H512V152Z" fill="#DB3F15"/>
<path d="M528 152H544V168H528V152Z" fill="#E25016"/>
<path d="M544 152H560V168H544V152Z" fill="#E68E24"/>
<path d="M16 160H32V176H16V160Z" fill="#F0C99C"/>
<path d="M32 160H48V176H32V160Z" fill="#F0A44D"/>
<path d="M48 160H64V176H48V160Z" fill="#E68E24"/>
<path d="M160 160H176V176H160V160Z" fill="#F0A44D"/>
<path d="M176 160H192V176H176V160Z" fill="#F0A44D"/>
<path d="M192 160H208V176H192V160Z" fill="#F0A44D"/>
<path d="M208 160H224V176H208V160Z" fill="#F0A44D"/>
<path d="M224 160H240V176H224V160Z" fill="#F0A44D"/>
<path d="M240 160H256V176H240V160Z" fill="#F0A44D"/>
<path d="M256 160H272V176H256V160Z" fill="#E68E24"/>
<path d="M320 168H336V184H320V168Z" fill="#F0C99C"/>
<path d="M336 168H352V184H336V168Z" fill="#F0A44D"/>
<path d="M352 168H368V184H352V168Z" fill="#E68E24"/>
<path d="M464 168H480V184H464V168Z" fill="#F0A44D"/>
<path d="M480 168H496V184H480V168Z" fill="#F0A44D"/>
<path d="M496 168H512V184H496V168Z" fill="#F0A44D"/>
<path d="M512 168H528V184H512V168Z" fill="#F0A44D"/>
<path d="M528 168H544V184H528V168Z" fill="#F0A44D"/>
<path d="M544 168H560V184H544V168Z" fill="#F0A44D"/>
<path d="M560 168H576V184H560V168Z" fill="#E68E24"/>
<path d="M0 176H16V192H0V176Z" fill="#F0C99C"/>
<path d="M16 176H32V192H16V176Z" fill="#F0A44D"/>
<path d="M32 176H48V192H32V176Z" fill="#E68E24"/>
<path d="M160 176H176V192H160V176Z" fill="#E25016"/>
<path d="M176 176H192V192H176V176Z" fill="#E68E24"/>
<path d="M192 176H208V192H192V176Z" fill="#F0C99C"/>
<path d="M208 176H224V192H208V176Z" fill="#DB3F15"/>
<path d="M224 176H240V192H224V176Z" fill="#E25016"/>
<path d="M240 176H256V192H240V176Z" fill="#E1790C"/>
<path d="M304 184H320V200H304V184Z" fill="#F0C99C"/>
<path d="M320 184H336V200H320V184Z" fill="#F0A44D"/>
<path d="M336 184H352V200H336V184Z" fill="#E68E24"/>
<path d="M464 184H480V200H464V184Z" fill="#E25016"/>
<path d="M480 184H496V200H480V184Z" fill="#E68E24"/>
<path d="M496 184H512V200H496V184Z" fill="#F0C99C"/>
<path d="M512 184H528V200H512V184Z" fill="#DB3F15"/>
<path d="M528 184H544V200H528V184Z" fill="#E25016"/>
<path d="M544 184H560V200H544V184Z" fill="#E1790C"/>
<path d="M144 192H160V208H144V192Z" fill="#E68E24"/>
<path d="M160 192H176V208H160V192Z" fill="#F0A44D"/>
<path d="M176 192H192V208H176V192Z" fill="#F0C99C"/>
<path d="M192 192H208V208H192V192Z" fill="#E25016"/>
<path d="M208 192H224V208H208V192Z" fill="#F0A44D"/>
<path d="M224 192H240V208H224V192Z" fill="#F0A44D"/>
<path d="M240 192H256V208H240V192Z" fill="#F0A44D"/>
<path d="M256 192H272V208H256V192Z" fill="#E68E24"/>
<path d="M448 200H464V216H448V200Z" fill="#E68E24"/>
<path d="M464 200H480V216H464V200Z" fill="#F0A44D"/>
<path d="M480 200H496V216H480V200Z" fill="#F0C99C"/>
<path d="M496 200H512V216H496V200Z" fill="#E25016"/>
<path d="M512 200H528V216H512V200Z" fill="#F0A44D"/>
<path d="M528 200H544V216H528V200Z" fill="#F0A44D"/>
<path d="M544 200H560V216H544V200Z" fill="#F0A44D"/>
<path d="M560 200H576V216H560V200Z" fill="#E68E24"/>
<path d="M144 208H160V224H144V208Z" fill="#E25016"/>
<path d="M160 208H176V224H160V208Z" fill="#E68E24"/>
<path d="M176 208H192V224H176V208Z" fill="#F0A44D"/>
<path d="M192 208H208V224H192V208Z" fill="#DB3F15"/>
<path d="M208 208H224V224H208V208Z" fill="#DB3F15"/>
<path d="M224 208H240V224H224V208Z" fill="#E25016"/>
<path d="M448 216H464V232H448V216Z" fill="#E25016"/>
<path d="M464 216H480V232H464V216Z" fill="#E68E24"/>
<path d="M480 216H496V232H480V216Z" fill="#F0A44D"/>
<path d="M496 216H512V232H496V216Z" fill="#DB3F15"/>
<path d="M512 216H528V232H512V216Z" fill="#DB3F15"/>
<path d="M528 216H544V232H528V216Z" fill="#E25016"/>
<path d="M144 224H160V240H144V224Z" fill="#E68E24"/>
<path d="M160 224H176V240H160V224Z" fill="#E25016"/>
<path d="M176 224H192V240H176V224Z" fill="#E68E24"/>
<path d="M192 224H208V240H192V224Z" fill="#F0C99C"/>
<path d="M208 224H224V240H208V224Z" fill="#F0A44D"/>
<path d="M224 224H240V240H224V224Z" fill="#F0A44D"/>
<path d="M288 224H304V240H288V224Z" fill="#F7AB4E"/>
<path d="M448 232H464V248H448V232Z" fill="#E68E24"/>
<path d="M464 232H480V248H464V232Z" fill="#E25016"/>
<path d="M480 232H496V248H480V232Z" fill="#E68E24"/>
<path d="M496 232H512V248H496V232Z" fill="#F0C99C"/>
<path d="M512 232H528V248H512V232Z" fill="#F0A44D"/>
<path d="M528 232H544V248H528V232Z" fill="#F0A44D"/>
<path d="M592 232H608V248H592V232Z" fill="#F7AB4E"/>
<path d="M144 240H160V256H144V240Z" fill="#E25016"/>
<path d="M160 240H176V256H160V240Z" fill="#DB3F15"/>
<path d="M176 240H192V256H176V240Z" fill="#DB3F15"/>
<path d="M192 240H208V256H192V240Z" fill="#DB3F15"/>
<path d="M208 240H224V256H208V240Z" fill="#E25016"/>
<path d="M224 240H240V256H224V240Z" fill="#E1790C"/>
<path d="M240 240H256V256H240V240Z" fill="#E68E24"/>
<path d="M256 240H272V256H256V240Z" fill="#F8D390"/>
<path d="M272 240H288V256H272V240Z" fill="#F7AB4E"/>
<path d="M288 240H304V256H288V240Z" fill="#F7AA4E"/>
<path d="M448 248H464V264H448V248Z" fill="#E25016"/>
<path d="M464 248H480V264H464V248Z" fill="#DB3F15"/>
<path d="M480 248H496V264H480V248Z" fill="#DB3F15"/>
<path d="M496 248H512V264H496V248Z" fill="#DB3F15"/>
<path d="M512 248H528V264H512V248Z" fill="#E25016"/>
<path d="M528 248H544V264H528V248Z" fill="#E1790C"/>
<path d="M544 248H560V264H544V248Z" fill="#E68E24"/>
<path d="M560 248H576V264H560V248Z" fill="#F8D390"/>
<path d="M576 248H592V264H576V248Z" fill="#F7AB4E"/>
<path d="M592 248H608V264H592V248Z" fill="#F7AB4E"/>
<path d="M608 248H624V264H608V248Z" fill="#F7AA4E"/>
<path d="M160 256H176V272H160V256Z" fill="#E68E24"/>
<path d="M176 256H192V272H176V256Z" fill="#DB3F15"/>
<path d="M192 256H208V272H192V256Z" fill="#F0A44D"/>
<path d="M208 256H224V272H208V256Z" fill="#F0C99C"/>
<path d="M224 256H240V272H224V256Z" fill="#F0A44D"/>
<path d="M240 256H256V272H240V256Z" fill="#E68E24"/>
<path d="M256 256H272V272H256V256Z" fill="#F7AA4E"/>
<path d="M272 256H288V272H272V256Z" fill="#F7AA4E"/>
<path d="M288 256H304V272H288V256Z" fill="#F7AB4E"/>
<path d="M464 264H480V280H464V264Z" fill="#E68E24"/>
<path d="M480 264H496V280H480V264Z" fill="#DB3F15"/>
<path d="M496 264H512V280H496V264Z" fill="#F0A44D"/>
<path d="M512 264H528V280H512V264Z" fill="#F0C99C"/>
<path d="M528 264H544V280H528V264Z" fill="#F0A44D"/>
<path d="M544 264H560V280H544V264Z" fill="#E68E24"/>
<path d="M560 264H576V280H560V264Z" fill="#F7AA4E"/>
<path d="M576 264H592V280H576V264Z" fill="#F7AA4E"/>
<path d="M592 264H608V280H592V264Z" fill="#F7AA4E"/>
<path d="M608 264H624V280H608V264Z" fill="#F7AB4E"/>
<path d="M160 272H176V288H160V272Z" fill="#E68E24"/>
<path d="M176 272H192V288H176V272Z" fill="#E68E24"/>
<path d="M192 272H208V288H192V272Z" fill="#E1790C"/>
<path d="M208 272H224V288H208V272Z" fill="#E1790C"/>
<path d="M224 272H240V288H224V272Z" fill="#E68E24"/>
<path d="M240 272H256V288H240V272Z" fill="#F8D390"/>
<path d="M256 272H272V288H256V272Z" fill="#F8D390"/>
<path d="M272 272H288V288H272V272Z" fill="#F7AB4E"/>
<path d="M288 272H304V288H288V272Z" fill="#F7AB4E"/>
<path d="M464 280H480V296H464V280Z" fill="#E68E24"/>
<path d="M480 280H496V296H480V280Z" fill="#E68E24"/>
<path d="M496 280H512V296H496V280Z" fill="#E1790C"/>
<path d="M512 280H528V296H512V280Z" fill="#E1790C"/>
<path d="M528 280H544V296H528V280Z" fill="#E68E24"/>
<path d="M544 280H560V296H544V280Z" fill="#F8D390"/>
<path d="M560 280H576V296H560V280Z" fill="#F8D390"/>
<path d="M576 280H592V296H576V280Z" fill="#F7AB4E"/>
<path d="M592 280H608V296H592V280Z" fill="#F7AB4E"/>
<path d="M608 280H624V296H608V280Z" fill="#F7AB4E"/>
<path d="M96 288H112V304H96V288Z" fill="#E68E24"/>
<path d="M112 288H128V304H112V288Z" fill="#E1790C"/>
<path d="M176 288H192V304H176V288Z" fill="#E1790C"/>
<path d="M192 288H208V304H192V288Z" fill="#DB3F15"/>
<path d="M208 288H224V304H208V288Z" fill="#E25016"/>
<path d="M224 288H240V304H224V288Z" fill="#E68E24"/>
<path d="M240 288H256V304H240V288Z" fill="#F7AA4E"/>
<path d="M256 288H272V304H256V288Z" fill="#F7AA4E"/>
<path d="M272 288H288V304H272V288Z" fill="#F7AA4E"/>
<path d="M400 296H416V312H400V296Z" fill="#E1790C"/>
<path d="M480 296H496V312H480V296Z" fill="#E1790C"/>
<path d="M496 296H512V312H496V296Z" fill="#DB3F15"/>
<path d="M512 296H528V312H512V296Z" fill="#E25016"/>
<path d="M528 296H544V312H528V296Z" fill="#E68E24"/>
<path d="M544 296H560V312H544V296Z" fill="#F7AA4E"/>
<path d="M560 296H576V312H560V296Z" fill="#F7AA4E"/>
<path d="M576 296H592V312H576V296Z" fill="#F7AA4E"/>
<path d="M592 296H608V312H592V296Z" fill="#F7AA4E"/>
<path d="M80 304H96V320H80V304Z" fill="#E68E24"/>
<path d="M112 304H128V320H112V304Z" fill="#E68E24"/>
<path d="M128 304H144V320H128V304Z" fill="#E68E24"/>
<path d="M160 304H176V320H160V304Z" fill="#F0A44D"/>
<path d="M176 304H192V320H176V304Z" fill="#F0A44D"/>
<path d="M192 304H208V320H192V304Z" fill="#F0A44D"/>
<path d="M224 304H240V320H224V304Z" fill="#E68E24"/>
<path d="M240 304H256V320H240V304Z" fill="#F8D390"/>
<path d="M256 304H272V320H256V304Z" fill="#F7AB4E"/>
<path d="M272 304H288V320H272V304Z" fill="#F7AB4E"/>
<path d="M384 312H400V328H384V312Z" fill="#E68E24"/>
<path d="M416 312H432V328H416V312Z" fill="#E68E24"/>
<path d="M464 312H480V328H464V312Z" fill="#F0A44D"/>
<path d="M480 312H496V328H480V312Z" fill="#F0A44D"/>
<path d="M496 312H512V328H496V312Z" fill="#F0A44D"/>
<path d="M528 312H544V328H528V312Z" fill="#E68E24"/>
<path d="M544 312H560V328H544V312Z" fill="#F8D390"/>
<path d="M560 312H576V328H560V312Z" fill="#F7AB4E"/>
<path d="M576 312H592V328H576V312Z" fill="#F7AB4E"/>
<path d="M592 312H608V328H592V312Z" fill="#F7AB4E"/>
<path d="M64 320H80V336H64V320Z" fill="#E68E24"/>
<path d="M80 320H96V336H80V320Z" fill="#E68E24"/>
<path d="M112 320H128V336H112V320Z" fill="#E1790C"/>
<path d="M160 320H176V336H160V320Z" fill="#E68E24"/>
<path d="M176 320H192V336H176V320Z" fill="#DB3F15"/>
<path d="M192 320H208V336H192V320Z" fill="#E25016"/>
<path d="M240 320H256V336H240V320Z" fill="#F7AA4E"/>
<path d="M256 320H272V336H256V320Z" fill="#F7AA4E"/>
<path d="M272 320H288V336H272V320Z" fill="#F7AA4E"/>
<path d="M368 328H384V344H368V328Z" fill="#E68E24"/>
<path d="M384 328H400V344H384V328Z" fill="#E68E24"/>
<path d="M416 328H432V344H416V328Z" fill="#E1790C"/>
<path d="M464 328H480V344H464V328Z" fill="#E68E24"/>
<path d="M480 328H496V344H480V328Z" fill="#DB3F15"/>
<path d="M496 328H512V344H496V328Z" fill="#E25016"/>
<path d="M544 328H560V344H544V328Z" fill="#F7AA4E"/>
<path d="M560 328H576V344H560V328Z" fill="#F7AA4E"/>
<path d="M576 328H592V344H576V328Z" fill="#F7AA4E"/>
<path d="M64 336H80V352H64V336Z" fill="#E25016"/>
<path d="M80 336H96V352H80V336Z" fill="#E68E24"/>
<path d="M96 336H112V352H96V336Z" fill="#E1790C"/>
<path d="M144 336H160V352H144V336Z" fill="#E68E24"/>
<path d="M160 336H176V352H160V336Z" fill="#F0A44D"/>
<path d="M176 336H192V352H176V336Z" fill="#F0A44D"/>
<path d="M208 336H224V352H208V336Z" fill="#E1790C"/>
<path d="M256 336H272V352H256V336Z" fill="#F7AB4E"/>
<path d="M368 344H384V360H368V344Z" fill="#E25016"/>
<path d="M384 344H400V360H384V344Z" fill="#E68E24"/>
<path d="M400 344H416V360H400V344Z" fill="#E1790C"/>
<path d="M448 344H464V360H448V344Z" fill="#E68E24"/>
<path d="M464 344H480V360H464V344Z" fill="#F0A44D"/>
<path d="M480 344H496V360H480V344Z" fill="#F0A44D"/>
<path d="M512 344H528V360H512V344Z" fill="#E1790C"/>
<path d="M560 344H576V360H560V344Z" fill="#F7AB4E"/>
<path d="M80 352H96V368H80V352Z" fill="#E1790C"/>
<path d="M96 352H112V368H96V352Z" fill="#E1790C"/>
<path d="M112 352H128V368H112V352Z" fill="#F0A44D"/>
<path d="M128 352H144V368H128V352Z" fill="#E68E24"/>
<path d="M144 352H160V368H144V352Z" fill="#F0A44D"/>
<path d="M160 352H176V368H160V352Z" fill="#DB3F15"/>
<path d="M384 360H400V376H384V360Z" fill="#E1790C"/>
<path d="M400 360H416V376H400V360Z" fill="#E1790C"/>
<path d="M416 360H432V376H416V360Z" fill="#F0A44D"/>
<path d="M432 360H448V376H432V360Z" fill="#E68E24"/>
<path d="M448 360H464V376H448V360Z" fill="#F0A44D"/>
<path d="M464 360H480V376H464V360Z" fill="#DB3F15"/>
<path d="M64 368H80V384H64V368Z" fill="#E1790C"/>
<path d="M96 368H112V384H96V368Z" fill="#DB3F15"/>
<path d="M112 368H128V384H112V368Z" fill="#E1790C"/>
<path d="M128 368H144V384H128V368Z" fill="#DB3F15"/>
<path d="M144 368H160V384H144V368Z" fill="#E25016"/>
<path d="M176 368H192V384H176V368Z" fill="#E1790C"/>
<path d="M368 376H384V392H368V376Z" fill="#E1790C"/>
<path d="M400 376H416V392H400V376Z" fill="#DB3F15"/>
<path d="M416 376H432V392H416V376Z" fill="#E1790C"/>
<path d="M432 376H448V392H432V376Z" fill="#DB3F15"/>
<path d="M448 376H464V392H448V376Z" fill="#E25016"/>
<path d="M480 376H496V392H480V376Z" fill="#E1790C"/>
<path d="M128 384H144V400H128V384Z" fill="#E1790C"/>
<path d="M432 392H448V408H432V392Z" fill="#E1790C"/>
</svg>
