<svg viewBox="0 0 1536 768" xmlns="http://www.w3.org/2000/svg" version="1.1"><path d="m368 176h16v16h-16z" fill="#f0a44d"></path><path d="m1136 176h16v16h-16z" fill="#f0a44d"></path><path d="m320 192h16v16h-16z" fill="#e68e24"></path><path d="m352 192h16v16h-16z" fill="#e68e24"></path><path d="m368 192h16v16h-16z" fill="#f0a44d"></path><path d="m400 192h16v16h-16z" fill="#f0a44d"></path><path d="m416 192h16v16h-16z" fill="#e68e24"></path><path d="m1088 192h16v16h-16z" fill="#e68e24"></path><path d="m1120 192h16v16h-16z" fill="#e68e24"></path><path d="m1136 192h16v16h-16z" fill="#f0a44d"></path><path d="m1168 192h16v16h-16z" fill="#f0a44d"></path><path d="m1184 192h16v16h-16z" fill="#e68e24"></path><path d="m320 208h16v16h-16z" fill="#e68e24"></path><path d="m336 208h16v16h-16z" fill="#e68e24"></path><path d="m352 208h16v16h-16z" fill="#e25016"></path><path d="m368 208h16v16h-16z" fill="#e25016"></path><path d="m384 208h16v16h-16z" fill="#e25016"></path><path d="m400 208h16v16h-16z" fill="#e68e24"></path><path d="m416 208h16v16h-16z" fill="#f0a44d"></path><path d="m1088 208h16v16h-16z" fill="#e68e24"></path><path d="m1104 208h16v16h-16z" fill="#e68e24"></path><path d="m1120 208h16v16h-16z" fill="#e25016"></path><path d="m1136 208h16v16h-16z" fill="#e25016"></path><path d="m1152 208h16v16h-16z" fill="#e25016"></path><path d="m1168 208h16v16h-16z" fill="#e68e24"></path><path d="m1184 208h16v16h-16z" fill="#f0a44d"></path><path d="m336 224h16v16h-16z" fill="#e68e24"></path><path d="m352 224h16v16h-16z" fill="#e68e24"></path><path d="m368 224h16v16h-16z" fill="#e68e24"></path><path d="m384 224h16v16h-16z" fill="#e68e24"></path><path d="m400 224h16v16h-16z" fill="#e25016"></path><path d="m416 224h16v16h-16z" fill="#e68e24"></path><path d="m432 224h16v16h-16z" fill="#f0a44d"></path><path d="m448 224h16v16h-16z" fill="#e68e24"></path><path d="m1104 224h16v16h-16z" fill="#e68e24"></path><path d="m1120 224h16v16h-16z" fill="#e68e24"></path><path d="m1136 224h16v16h-16z" fill="#e68e24"></path><path d="m1152 224h16v16h-16z" fill="#e68e24"></path><path d="m1168 224h16v16h-16z" fill="#e25016"></path><path d="m1184 224h16v16h-16z" fill="#e68e24"></path><path d="m1200 224h16v16h-16z" fill="#f0a44d"></path><path d="m1216 224h16v16h-16z" fill="#e68e24"></path><path d="m320 240h16v16h-16z" fill="#cc7c1c"></path><path d="m336 240h16v16h-16z" fill="#f0980c"></path><path d="m352 240h16v16h-16z" fill="#df490d"></path><path d="m368 240h16v16h-16z" fill="#e25016"></path><path d="m384 240h16v16h-16z" fill="#e68e24"></path><path d="m400 240h16v16h-16z" fill="#e68e24"></path><path d="m416 240h16v16h-16z" fill="#c46e0c"></path><path d="m432 240h16v16h-16z" fill="#e68e24"></path><path d="m1088 240h16v16h-16z" fill="#cc7c1c"></path><path d="m1104 240h16v16h-16z" fill="#f0980c"></path><path d="m1120 240h16v16h-16z" fill="#df490d"></path><path d="m1136 240h16v16h-16z" fill="#e25016"></path><path d="m1152 240h16v16h-16z" fill="#e68e24"></path><path d="m1168 240h16v16h-16z" fill="#e68e24"></path><path d="m1184 240h16v16h-16z" fill="#c46e0c"></path><path d="m1200 240h16v16h-16z" fill="#e68e24"></path><path d="m320 256h16v16h-16z" fill="#f0980c"></path><path d="m336 256h16v16h-16z" fill="#1c1a18"></path><path d="m352 256h16v16h-16z" fill="#f0980c"></path><path d="m368 256h16v16h-16z" fill="#df490d"></path><path d="m384 256h16v16h-16z" fill="#f0a44d"></path><path d="m400 256h16v16h-16z" fill="#e25016"></path><path d="m416 256h16v16h-16z" fill="#c46e0c"></path><path d="m432 256h16v16h-16z" fill="#e68e24"></path><path d="m448 256h16v16h-16z" fill="#f0a44d"></path><path d="m464 256h16v16h-16z" fill="#e68e24"></path><path d="m1088 256h16v16h-16z" fill="#f0980c"></path><path d="m1104 256h16v16h-16z" fill="#1c1a18"></path><path d="m1120 256h16v16h-16z" fill="#f0980c"></path><path d="m1136 256h16v16h-16z" fill="#df490d"></path><path d="m1152 256h16v16h-16z" fill="#f0a44d"></path><path d="m1168 256h16v16h-16z" fill="#e25016"></path><path d="m1184 256h16v16h-16z" fill="#c46e0c"></path><path d="m1200 256h16v16h-16z" fill="#e68e24"></path><path d="m1216 256h16v16h-16z" fill="#f0a44d"></path><path d="m1232 256h16v16h-16z" fill="#e68e24"></path><path d="m304 272h16v16h-16z" fill="#e68e24"></path><path d="m320 272h16v16h-16z" fill="#cc7c1c"></path><path d="m336 272h16v16h-16z" fill="#f0980c"></path><path d="m352 272h16v16h-16z" fill="#df490d"></path><path d="m368 272h16v16h-16z" fill="#f0a44d"></path><path d="m384 272h16v16h-16z" fill="#e25016"></path><path d="m400 272h16v16h-16z" fill="#c46e0c"></path><path d="m416 272h16v16h-16z" fill="#e68e24"></path><path d="m432 272h16v16h-16z" fill="#e25016"></path><path d="m448 272h16v16h-16z" fill="#e68e24"></path><path d="m1072 272h16v16h-16z" fill="#e68e24"></path><path d="m1088 272h16v16h-16z" fill="#cc7c1c"></path><path d="m1104 272h16v16h-16z" fill="#f0980c"></path><path d="m1120 272h16v16h-16z" fill="#df490d"></path><path d="m1136 272h16v16h-16z" fill="#f0a44d"></path><path d="m1152 272h16v16h-16z" fill="#e25016"></path><path d="m1168 272h16v16h-16z" fill="#c46e0c"></path><path d="m1184 272h16v16h-16z" fill="#e68e24"></path><path d="m1200 272h16v16h-16z" fill="#e25016"></path><path d="m1216 272h16v16h-16z" fill="#e68e24"></path><path d="m288 288h16v16h-16z" fill="#e68e24"></path><path d="m304 288h16v16h-16z" fill="#e25016"></path><path d="m320 288h16v16h-16z" fill="#e25016"></path><path d="m336 288h16v16h-16z" fill="#cc7c1c"></path><path d="m352 288h16v16h-16z" fill="#f0a44d"></path><path d="m368 288h16v16h-16z" fill="#e25016"></path><path d="m416 288h16v16h-16z" fill="#f0a44d"></path><path d="m432 288h16v16h-16z" fill="#f0c99c"></path><path d="m448 288h16v16h-16z" fill="#e68e24"></path><path d="m464 288h16v16h-16z" fill="#f0c99c"></path><path d="m1056 288h16v16h-16z" fill="#e68e24"></path><path d="m1072 288h16v16h-16z" fill="#e25016"></path><path d="m1088 288h16v16h-16z" fill="#e25016"></path><path d="m1104 288h16v16h-16z" fill="#cc7c1c"></path><path d="m1120 288h16v16h-16z" fill="#f0a44d"></path><path d="m1136 288h16v16h-16z" fill="#e25016"></path><path d="m1184 288h16v16h-16z" fill="#f0a44d"></path><path d="m1200 288h16v16h-16z" fill="#f0c99c"></path><path d="m1216 288h16v16h-16z" fill="#e68e24"></path><path d="m1232 288h16v16h-16z" fill="#f0c99c"></path><path d="m272 304h16v16h-16z" fill="#f0c99c"></path><path d="m288 304h16v16h-16z" fill="#f0a44d"></path><path d="m304 304h16v16h-16z" fill="#e68e24"></path><path d="m320 304h16v16h-16z" fill="#cc7c1c"></path><path d="m336 304h16v16h-16z" fill="#cc7c1c"></path><path d="m368 304h16v16h-16z" fill="#e68e24"></path><path d="m400 304h16v16h-16z" fill="#f0a44d"></path><path d="m416 304h16v16h-16z" fill="#db3f15"></path><path d="m432 304h16v16h-16z" fill="#e25016"></path><path d="m448 304h16v16h-16z" fill="#f0a44d"></path><path d="m464 304h16v16h-16z" fill="#f0a44d"></path><path d="m480 304h16v16h-16z" fill="#e68e24"></path><path d="m1040 304h16v16h-16z" fill="#f0c99c"></path><path d="m1056 304h16v16h-16z" fill="#f0a44d"></path><path d="m1072 304h16v16h-16z" fill="#e68e24"></path><path d="m1088 304h16v16h-16z" fill="#cc7c1c"></path><path d="m1104 304h16v16h-16z" fill="#cc7c1c"></path><path d="m1136 304h16v16h-16z" fill="#e68e24"></path><path d="m1168 304h16v16h-16z" fill="#f0a44d"></path><path d="m1184 304h16v16h-16z" fill="#db3f15"></path><path d="m1200 304h16v16h-16z" fill="#e25016"></path><path d="m1216 304h16v16h-16z" fill="#f0a44d"></path><path d="m1232 304h16v16h-16z" fill="#f0a44d"></path><path d="m1248 304h16v16h-16z" fill="#e68e24"></path><path d="m256 320h16v16h-16z" fill="#f0c99c"></path><path d="m272 320h16v16h-16z" fill="#f0a44d"></path><path d="m288 320h16v16h-16z" fill="#e68e24"></path><path d="m304 320h16v16h-16z" fill="#cc7c1c"></path><path d="m384 320h16v16h-16z" fill="#e25016"></path><path d="m400 320h16v16h-16z" fill="#db3f15"></path><path d="m416 320h16v16h-16z" fill="#f0c99c"></path><path d="m432 320h16v16h-16z" fill="#db3f15"></path><path d="m448 320h16v16h-16z" fill="#e25016"></path><path d="m464 320h16v16h-16z" fill="#e68e24"></path><path d="m1024 320h16v16h-16z" fill="#f0c99c"></path><path d="m1040 320h16v16h-16z" fill="#f0a44d"></path><path d="m1056 320h16v16h-16z" fill="#e68e24"></path><path d="m1072 320h16v16h-16z" fill="#cc7c1c"></path><path d="m1152 320h16v16h-16z" fill="#e25016"></path><path d="m1168 320h16v16h-16z" fill="#db3f15"></path><path d="m1184 320h16v16h-16z" fill="#f0c99c"></path><path d="m1200 320h16v16h-16z" fill="#db3f15"></path><path d="m1216 320h16v16h-16z" fill="#e25016"></path><path d="m1232 320h16v16h-16z" fill="#e68e24"></path><path d="m240 336h16v16h-16z" fill="#f0c99c"></path><path d="m256 336h16v16h-16z" fill="#f0a44d"></path><path d="m272 336h16v16h-16z" fill="#e68e24"></path><path d="m384 336h16v16h-16z" fill="#f0a44d"></path><path d="m400 336h16v16h-16z" fill="#f0a44d"></path><path d="m416 336h16v16h-16z" fill="#f0a44d"></path><path d="m432 336h16v16h-16z" fill="#f0a44d"></path><path d="m448 336h16v16h-16z" fill="#f0a44d"></path><path d="m464 336h16v16h-16z" fill="#f0a44d"></path><path d="m480 336h16v16h-16z" fill="#e68e24"></path><path d="m1008 336h16v16h-16z" fill="#f0c99c"></path><path d="m1024 336h16v16h-16z" fill="#f0a44d"></path><path d="m1040 336h16v16h-16z" fill="#e68e24"></path><path d="m1152 336h16v16h-16z" fill="#f0a44d"></path><path d="m1168 336h16v16h-16z" fill="#f0a44d"></path><path d="m1184 336h16v16h-16z" fill="#f0a44d"></path><path d="m1200 336h16v16h-16z" fill="#f0a44d"></path><path d="m1216 336h16v16h-16z" fill="#f0a44d"></path><path d="m1232 336h16v16h-16z" fill="#f0a44d"></path><path d="m1248 336h16v16h-16z" fill="#e68e24"></path><path d="m224 352h16v16h-16z" fill="#f0c99c"></path><path d="m240 352h16v16h-16z" fill="#f0a44d"></path><path d="m256 352h16v16h-16z" fill="#e68e24"></path><path d="m384 352h16v16h-16z" fill="#e25016"></path><path d="m400 352h16v16h-16z" fill="#e68e24"></path><path d="m416 352h16v16h-16z" fill="#f0c99c"></path><path d="m432 352h16v16h-16z" fill="#db3f15"></path><path d="m448 352h16v16h-16z" fill="#e25016"></path><path d="m464 352h16v16h-16z" fill="#e1790c"></path><path d="m992 352h16v16h-16z" fill="#f0c99c"></path><path d="m1008 352h16v16h-16z" fill="#f0a44d"></path><path d="m1024 352h16v16h-16z" fill="#e68e24"></path><path d="m1152 352h16v16h-16z" fill="#e25016"></path><path d="m1168 352h16v16h-16z" fill="#e68e24"></path><path d="m1184 352h16v16h-16z" fill="#f0c99c"></path><path d="m1200 352h16v16h-16z" fill="#db3f15"></path><path d="m1216 352h16v16h-16z" fill="#e25016"></path><path d="m1232 352h16v16h-16z" fill="#e1790c"></path><path d="m368 368h16v16h-16z" fill="#e68e24"></path><path d="m384 368h16v16h-16z" fill="#f0a44d"></path><path d="m400 368h16v16h-16z" fill="#f0c99c"></path><path d="m416 368h16v16h-16z" fill="#e25016"></path><path d="m432 368h16v16h-16z" fill="#f0a44d"></path><path d="m448 368h16v16h-16z" fill="#f0a44d"></path><path d="m464 368h16v16h-16z" fill="#f0a44d"></path><path d="m480 368h16v16h-16z" fill="#e68e24"></path><path d="m1136 368h16v16h-16z" fill="#e68e24"></path><path d="m1152 368h16v16h-16z" fill="#f0a44d"></path><path d="m1168 368h16v16h-16z" fill="#f0c99c"></path><path d="m1184 368h16v16h-16z" fill="#e25016"></path><path d="m1200 368h16v16h-16z" fill="#f0a44d"></path><path d="m1216 368h16v16h-16z" fill="#f0a44d"></path><path d="m1232 368h16v16h-16z" fill="#f0a44d"></path><path d="m1248 368h16v16h-16z" fill="#e68e24"></path><path d="m368 384h16v16h-16z" fill="#e25016"></path><path d="m384 384h16v16h-16z" fill="#e68e24"></path><path d="m400 384h16v16h-16z" fill="#f0a44d"></path><path d="m416 384h16v16h-16z" fill="#db3f15"></path><path d="m432 384h16v16h-16z" fill="#db3f15"></path><path d="m448 384h16v16h-16z" fill="#e25016"></path><path d="m1136 384h16v16h-16z" fill="#e25016"></path><path d="m1152 384h16v16h-16z" fill="#e68e24"></path><path d="m1168 384h16v16h-16z" fill="#f0a44d"></path><path d="m1184 384h16v16h-16z" fill="#db3f15"></path><path d="m1200 384h16v16h-16z" fill="#db3f15"></path><path d="m1216 384h16v16h-16z" fill="#e25016"></path><path d="m368 400h16v16h-16z" fill="#e68e24"></path><path d="m384 400h16v16h-16z" fill="#e25016"></path><path d="m400 400h16v16h-16z" fill="#e68e24"></path><path d="m416 400h16v16h-16z" fill="#f0c99c"></path><path d="m432 400h16v16h-16z" fill="#f0a44d"></path><path d="m448 400h16v16h-16z" fill="#f0a44d"></path><path d="m512 400h16v16h-16z" fill="#f7ab4e"></path><path d="m1136 400h16v16h-16z" fill="#e68e24"></path><path d="m1152 400h16v16h-16z" fill="#e25016"></path><path d="m1168 400h16v16h-16z" fill="#e68e24"></path><path d="m1184 400h16v16h-16z" fill="#f0c99c"></path><path d="m1200 400h16v16h-16z" fill="#f0a44d"></path><path d="m1216 400h16v16h-16z" fill="#f0a44d"></path><path d="m1280 400h16v16h-16z" fill="#f7ab4e"></path><path d="m368 416h16v16h-16z" fill="#e25016"></path><path d="m384 416h16v16h-16z" fill="#db3f15"></path><path d="m400 416h16v16h-16z" fill="#db3f15"></path><path d="m416 416h16v16h-16z" fill="#db3f15"></path><path d="m432 416h16v16h-16z" fill="#e25016"></path><path d="m448 416h16v16h-16z" fill="#e1790c"></path><path d="m464 416h16v16h-16z" fill="#e68e24"></path><path d="m480 416h16v16h-16z" fill="#f8d390"></path><path d="m496 416h16v16h-16z" fill="#f7ab4e"></path><path d="m512 416h16v16h-16z" fill="#f7aa4e"></path><path d="m1136 416h16v16h-16z" fill="#e25016"></path><path d="m1152 416h16v16h-16z" fill="#db3f15"></path><path d="m1168 416h16v16h-16z" fill="#db3f15"></path><path d="m1184 416h16v16h-16z" fill="#db3f15"></path><path d="m1200 416h16v16h-16z" fill="#e25016"></path><path d="m1216 416h16v16h-16z" fill="#e1790c"></path><path d="m1232 416h16v16h-16z" fill="#e68e24"></path><path d="m1248 416h16v16h-16z" fill="#f8d390"></path><path d="m1264 416h16v16h-16z" fill="#f7ab4e"></path><path d="m1280 416h16v16h-16z" fill="#f7ab4e"></path><path d="m1296 416h16v16h-16z" fill="#f7aa4e"></path><path d="m384 432h16v16h-16z" fill="#e68e24"></path><path d="m400 432h16v16h-16z" fill="#db3f15"></path><path d="m416 432h16v16h-16z" fill="#f0a44d"></path><path d="m432 432h16v16h-16z" fill="#f0c99c"></path><path d="m448 432h16v16h-16z" fill="#f0a44d"></path><path d="m464 432h16v16h-16z" fill="#e68e24"></path><path d="m480 432h16v16h-16z" fill="#f7aa4e"></path><path d="m496 432h16v16h-16z" fill="#f7aa4e"></path><path d="m512 432h16v16h-16z" fill="#f7ab4e"></path><path d="m1152 432h16v16h-16z" fill="#e68e24"></path><path d="m1168 432h16v16h-16z" fill="#db3f15"></path><path d="m1184 432h16v16h-16z" fill="#f0a44d"></path><path d="m1200 432h16v16h-16z" fill="#f0c99c"></path><path d="m1216 432h16v16h-16z" fill="#f0a44d"></path><path d="m1232 432h16v16h-16z" fill="#e68e24"></path><path d="m1248 432h16v16h-16z" fill="#f7aa4e"></path><path d="m1264 432h16v16h-16z" fill="#f7aa4e"></path><path d="m1280 432h16v16h-16z" fill="#f7aa4e"></path><path d="m1296 432h16v16h-16z" fill="#f7ab4e"></path><path d="m384 448h16v16h-16z" fill="#e68e24"></path><path d="m400 448h16v16h-16z" fill="#e68e24"></path><path d="m416 448h16v16h-16z" fill="#e1790c"></path><path d="m432 448h16v16h-16z" fill="#e1790c"></path><path d="m448 448h16v16h-16z" fill="#e68e24"></path><path d="m464 448h16v16h-16z" fill="#f8d390"></path><path d="m480 448h16v16h-16z" fill="#f8d390"></path><path d="m496 448h16v16h-16z" fill="#f7ab4e"></path><path d="m512 448h16v16h-16z" fill="#f7ab4e"></path><path d="m1152 448h16v16h-16z" fill="#e68e24"></path><path d="m1168 448h16v16h-16z" fill="#e68e24"></path><path d="m1184 448h16v16h-16z" fill="#e1790c"></path><path d="m1200 448h16v16h-16z" fill="#e1790c"></path><path d="m1216 448h16v16h-16z" fill="#e68e24"></path><path d="m1232 448h16v16h-16z" fill="#f8d390"></path><path d="m1248 448h16v16h-16z" fill="#f8d390"></path><path d="m1264 448h16v16h-16z" fill="#f7ab4e"></path><path d="m1280 448h16v16h-16z" fill="#f7ab4e"></path><path d="m1296 448h16v16h-16z" fill="#f7ab4e"></path><path d="m320 464h16v16h-16z" fill="#e68e24"></path><path d="m336 464h16v16h-16z" fill="#e1790c"></path><path d="m400 464h16v16h-16z" fill="#e1790c"></path><path d="m416 464h16v16h-16z" fill="#db3f15"></path><path d="m432 464h16v16h-16z" fill="#e25016"></path><path d="m448 464h16v16h-16z" fill="#e68e24"></path><path d="m464 464h16v16h-16z" fill="#f7aa4e"></path><path d="m480 464h16v16h-16z" fill="#f7aa4e"></path><path d="m496 464h16v16h-16z" fill="#f7aa4e"></path><path d="m1088 464h16v16h-16z" fill="#e1790c"></path><path d="m1168 464h16v16h-16z" fill="#e1790c"></path><path d="m1184 464h16v16h-16z" fill="#db3f15"></path><path d="m1200 464h16v16h-16z" fill="#e25016"></path><path d="m1216 464h16v16h-16z" fill="#e68e24"></path><path d="m1232 464h16v16h-16z" fill="#f7aa4e"></path><path d="m1248 464h16v16h-16z" fill="#f7aa4e"></path><path d="m1264 464h16v16h-16z" fill="#f7aa4e"></path><path d="m1280 464h16v16h-16z" fill="#f7aa4e"></path><path d="m304 480h16v16h-16z" fill="#e68e24"></path><path d="m336 480h16v16h-16z" fill="#e68e24"></path><path d="m352 480h16v16h-16z" fill="#e68e24"></path><path d="m384 480h16v16h-16z" fill="#f0a44d"></path><path d="m400 480h16v16h-16z" fill="#f0a44d"></path><path d="m416 480h16v16h-16z" fill="#f0a44d"></path><path d="m448 480h16v16h-16z" fill="#e68e24"></path><path d="m464 480h16v16h-16z" fill="#f8d390"></path><path d="m480 480h16v16h-16z" fill="#f7ab4e"></path><path d="m496 480h16v16h-16z" fill="#f7ab4e"></path><path d="m1072 480h16v16h-16z" fill="#e68e24"></path><path d="m1104 480h16v16h-16z" fill="#e68e24"></path><path d="m1152 480h16v16h-16z" fill="#f0a44d"></path><path d="m1168 480h16v16h-16z" fill="#f0a44d"></path><path d="m1184 480h16v16h-16z" fill="#f0a44d"></path><path d="m1216 480h16v16h-16z" fill="#e68e24"></path><path d="m1232 480h16v16h-16z" fill="#f8d390"></path><path d="m1248 480h16v16h-16z" fill="#f7ab4e"></path><path d="m1264 480h16v16h-16z" fill="#f7ab4e"></path><path d="m1280 480h16v16h-16z" fill="#f7ab4e"></path><path d="m288 496h16v16h-16z" fill="#e68e24"></path><path d="m304 496h16v16h-16z" fill="#e68e24"></path><path d="m336 496h16v16h-16z" fill="#e1790c"></path><path d="m384 496h16v16h-16z" fill="#e68e24"></path><path d="m400 496h16v16h-16z" fill="#db3f15"></path><path d="m416 496h16v16h-16z" fill="#e25016"></path><path d="m464 496h16v16h-16z" fill="#f7aa4e"></path><path d="m480 496h16v16h-16z" fill="#f7aa4e"></path><path d="m496 496h16v16h-16z" fill="#f7aa4e"></path><path d="m1056 496h16v16h-16z" fill="#e68e24"></path><path d="m1072 496h16v16h-16z" fill="#e68e24"></path><path d="m1104 496h16v16h-16z" fill="#e1790c"></path><path d="m1152 496h16v16h-16z" fill="#e68e24"></path><path d="m1168 496h16v16h-16z" fill="#db3f15"></path><path d="m1184 496h16v16h-16z" fill="#e25016"></path><path d="m1232 496h16v16h-16z" fill="#f7aa4e"></path><path d="m1248 496h16v16h-16z" fill="#f7aa4e"></path><path d="m1264 496h16v16h-16z" fill="#f7aa4e"></path><path d="m288 512h16v16h-16z" fill="#e25016"></path><path d="m304 512h16v16h-16z" fill="#e68e24"></path><path d="m320 512h16v16h-16z" fill="#e1790c"></path><path d="m368 512h16v16h-16z" fill="#e68e24"></path><path d="m384 512h16v16h-16z" fill="#f0a44d"></path><path d="m400 512h16v16h-16z" fill="#f0a44d"></path><path d="m432 512h16v16h-16z" fill="#e1790c"></path><path d="m480 512h16v16h-16z" fill="#f7ab4e"></path><path d="m1056 512h16v16h-16z" fill="#e25016"></path><path d="m1072 512h16v16h-16z" fill="#e68e24"></path><path d="m1088 512h16v16h-16z" fill="#e1790c"></path><path d="m1136 512h16v16h-16z" fill="#e68e24"></path><path d="m1152 512h16v16h-16z" fill="#f0a44d"></path><path d="m1168 512h16v16h-16z" fill="#f0a44d"></path><path d="m1200 512h16v16h-16z" fill="#e1790c"></path><path d="m1248 512h16v16h-16z" fill="#f7ab4e"></path><path d="m304 528h16v16h-16z" fill="#e1790c"></path><path d="m320 528h16v16h-16z" fill="#e1790c"></path><path d="m336 528h16v16h-16z" fill="#f0a44d"></path><path d="m352 528h16v16h-16z" fill="#e68e24"></path><path d="m368 528h16v16h-16z" fill="#f0a44d"></path><path d="m384 528h16v16h-16z" fill="#db3f15"></path><path d="m1072 528h16v16h-16z" fill="#e1790c"></path><path d="m1088 528h16v16h-16z" fill="#e1790c"></path><path d="m1104 528h16v16h-16z" fill="#f0a44d"></path><path d="m1120 528h16v16h-16z" fill="#e68e24"></path><path d="m1136 528h16v16h-16z" fill="#f0a44d"></path><path d="m1152 528h16v16h-16z" fill="#db3f15"></path><path d="m288 544h16v16h-16z" fill="#e1790c"></path><path d="m320 544h16v16h-16z" fill="#db3f15"></path><path d="m336 544h16v16h-16z" fill="#e1790c"></path><path d="m352 544h16v16h-16z" fill="#db3f15"></path><path d="m368 544h16v16h-16z" fill="#e25016"></path><path d="m400 544h16v16h-16z" fill="#e1790c"></path><path d="m1056 544h16v16h-16z" fill="#e1790c"></path><path d="m1088 544h16v16h-16z" fill="#db3f15"></path><path d="m1104 544h16v16h-16z" fill="#e1790c"></path><path d="m1120 544h16v16h-16z" fill="#db3f15"></path><path d="m1136 544h16v16h-16z" fill="#e25016"></path><path d="m1168 544h16v16h-16z" fill="#e1790c"></path><path d="m352 560h16v16h-16z" fill="#e1790c"></path><path d="m1120 560h16v16h-16z" fill="#e1790c"></path></svg>