<svg width="640" height="400" viewBox="0 0 640 400" fill="none" xmlns="http://www.w3.org/2000/svg">
<path d="M144 0H160V16H144V0Z" fill="#F0A44D"/>
<path d="M464 0H480V16H464V0Z" fill="#F0A44D"/>
<path d="M96 16H112V32H96V16Z" fill="#E68E24"/>
<path d="M128 16H144V32H128V16Z" fill="#E68E24"/>
<path d="M144 16H160V32H144V16Z" fill="#F0A44D"/>
<path d="M176 16H192V32H176V16Z" fill="#F0A44D"/>
<path d="M192 16H208V32H192V16Z" fill="#E68E24"/>
<path d="M416 16H432V32H416V16Z" fill="#E68E24"/>
<path d="M448 16H464V32H448V16Z" fill="#E68E24"/>
<path d="M464 16H480V32H464V16Z" fill="#F0A44D"/>
<path d="M496 16H512V32H496V16Z" fill="#F0A44D"/>
<path d="M512 16H528V32H512V16Z" fill="#E68E24"/>
<path d="M96 32H112V48H96V32Z" fill="#E68E24"/>
<path d="M112 32H128V48H112V32Z" fill="#E68E24"/>
<path d="M128 32H144V48H128V32Z" fill="#E25016"/>
<path d="M144 32H160V48H144V32Z" fill="#E25016"/>
<path d="M160 32H176V48H160V32Z" fill="#E25016"/>
<path d="M176 32H192V48H176V32Z" fill="#E68E24"/>
<path d="M192 32H208V48H192V32Z" fill="#F0A44D"/>
<path d="M416 32H432V48H416V32Z" fill="#E68E24"/>
<path d="M432 32H448V48H432V32Z" fill="#E68E24"/>
<path d="M448 32H464V48H448V32Z" fill="#E25016"/>
<path d="M464 32H480V48H464V32Z" fill="#E25016"/>
<path d="M480 32H496V48H480V32Z" fill="#E25016"/>
<path d="M496 32H512V48H496V32Z" fill="#E68E24"/>
<path d="M512 32H528V48H512V32Z" fill="#F0A44D"/>
<path d="M112 48H128V64H112V48Z" fill="#E68E24"/>
<path d="M128 48H144V64H128V48Z" fill="#E68E24"/>
<path d="M144 48H160V64H144V48Z" fill="#E68E24"/>
<path d="M160 48H176V64H160V48Z" fill="#E68E24"/>
<path d="M176 48H192V64H176V48Z" fill="#E25016"/>
<path d="M192 48H208V64H192V48Z" fill="#E68E24"/>
<path d="M208 48H224V64H208V48Z" fill="#F0A44D"/>
<path d="M224 48H240V64H224V48Z" fill="#E68E24"/>
<path d="M432 48H448V64H432V48Z" fill="#E68E24"/>
<path d="M448 48H464V64H448V48Z" fill="#E68E24"/>
<path d="M464 48H480V64H464V48Z" fill="#E68E24"/>
<path d="M480 48H496V64H480V48Z" fill="#E68E24"/>
<path d="M496 48H512V64H496V48Z" fill="#E25016"/>
<path d="M512 48H528V64H512V48Z" fill="#E68E24"/>
<path d="M528 48H544V64H528V48Z" fill="#F0A44D"/>
<path d="M544 48H560V64H544V48Z" fill="#E68E24"/>
<path d="M96 64H112V80H96V64Z" fill="#CC7C1C"/>
<path d="M112 64H128V80H112V64Z" fill="#F0980C"/>
<path d="M128 64H144V80H128V64Z" fill="#DF490D"/>
<path d="M144 64H160V80H144V64Z" fill="#E25016"/>
<path d="M160 64H176V80H160V64Z" fill="#E68E24"/>
<path d="M176 64H192V80H176V64Z" fill="#E68E24"/>
<path d="M192 64H208V80H192V64Z" fill="#C46E0C"/>
<path d="M208 64H224V80H208V64Z" fill="#E68E24"/>
<path d="M416 64H432V80H416V64Z" fill="#CC7C1C"/>
<path d="M432 64H448V80H432V64Z" fill="#F0980C"/>
<path d="M448 64H464V80H448V64Z" fill="#DF490D"/>
<path d="M464 64H480V80H464V64Z" fill="#E25016"/>
<path d="M480 64H496V80H480V64Z" fill="#E68E24"/>
<path d="M496 64H512V80H496V64Z" fill="#E68E24"/>
<path d="M512 64H528V80H512V64Z" fill="#C46E0C"/>
<path d="M528 64H544V80H528V64Z" fill="#E68E24"/>
<path d="M96 80H112V96H96V80Z" fill="#F0980C"/>
<path d="M112 80H128V96H112V80Z" fill="#1C1A18"/>
<path d="M128 80H144V96H128V80Z" fill="#F0980C"/>
<path d="M144 80H160V96H144V80Z" fill="#DF490D"/>
<path d="M160 80H176V96H160V80Z" fill="#F0A44D"/>
<path d="M176 80H192V96H176V80Z" fill="#E25016"/>
<path d="M192 80H208V96H192V80Z" fill="#C46E0C"/>
<path d="M208 80H224V96H208V80Z" fill="#E68E24"/>
<path d="M224 80H240V96H224V80Z" fill="#F0A44D"/>
<path d="M240 80H256V96H240V80Z" fill="#E68E24"/>
<path d="M416 80H432V96H416V80Z" fill="#F0980C"/>
<path d="M432 80H448V96H432V80Z" fill="#1C1A18"/>
<path d="M448 80H464V96H448V80Z" fill="#F0980C"/>
<path d="M464 80H480V96H464V80Z" fill="#DF490D"/>
<path d="M480 80H496V96H480V80Z" fill="#F0A44D"/>
<path d="M496 80H512V96H496V80Z" fill="#E25016"/>
<path d="M512 80H528V96H512V80Z" fill="#C46E0C"/>
<path d="M528 80H544V96H528V80Z" fill="#E68E24"/>
<path d="M544 80H560V96H544V80Z" fill="#F0A44D"/>
<path d="M560 80H576V96H560V80Z" fill="#E68E24"/>
<path d="M80 96H96V112H80V96Z" fill="#E68E24"/>
<path d="M96 96H112V112H96V96Z" fill="#CC7C1C"/>
<path d="M112 96H128V112H112V96Z" fill="#F0980C"/>
<path d="M128 96H144V112H128V96Z" fill="#DF490D"/>
<path d="M144 96H160V112H144V96Z" fill="#F0A44D"/>
<path d="M160 96H176V112H160V96Z" fill="#E25016"/>
<path d="M176 96H192V112H176V96Z" fill="#C46E0C"/>
<path d="M192 96H208V112H192V96Z" fill="#E68E24"/>
<path d="M208 96H224V112H208V96Z" fill="#E25016"/>
<path d="M224 96H240V112H224V96Z" fill="#E68E24"/>
<path d="M400 96H416V112H400V96Z" fill="#E68E24"/>
<path d="M416 96H432V112H416V96Z" fill="#CC7C1C"/>
<path d="M432 96H448V112H432V96Z" fill="#F0980C"/>
<path d="M448 96H464V112H448V96Z" fill="#DF490D"/>
<path d="M464 96H480V112H464V96Z" fill="#F0A44D"/>
<path d="M480 96H496V112H480V96Z" fill="#E25016"/>
<path d="M496 96H512V112H496V96Z" fill="#C46E0C"/>
<path d="M512 96H528V112H512V96Z" fill="#E68E24"/>
<path d="M528 96H544V112H528V96Z" fill="#E25016"/>
<path d="M544 96H560V112H544V96Z" fill="#E68E24"/>
<path d="M64 112H80V128H64V112Z" fill="#E68E24"/>
<path d="M80 112H96V128H80V112Z" fill="#E25016"/>
<path d="M96 112H112V128H96V112Z" fill="#E25016"/>
<path d="M112 112H128V128H112V112Z" fill="#CC7C1C"/>
<path d="M128 112H144V128H128V112Z" fill="#F0A44D"/>
<path d="M144 112H160V128H144V112Z" fill="#E25016"/>
<path d="M192 112H208V128H192V112Z" fill="#F0A44D"/>
<path d="M208 112H224V128H208V112Z" fill="#F0C99C"/>
<path d="M224 112H240V128H224V112Z" fill="#E68E24"/>
<path d="M240 112H256V128H240V112Z" fill="#F0C99C"/>
<path d="M384 112H400V128H384V112Z" fill="#E68E24"/>
<path d="M400 112H416V128H400V112Z" fill="#E25016"/>
<path d="M416 112H432V128H416V112Z" fill="#E25016"/>
<path d="M432 112H448V128H432V112Z" fill="#CC7C1C"/>
<path d="M448 112H464V128H448V112Z" fill="#F0A44D"/>
<path d="M464 112H480V128H464V112Z" fill="#E25016"/>
<path d="M512 112H528V128H512V112Z" fill="#F0A44D"/>
<path d="M528 112H544V128H528V112Z" fill="#F0C99C"/>
<path d="M544 112H560V128H544V112Z" fill="#E68E24"/>
<path d="M560 112H576V128H560V112Z" fill="#F0C99C"/>
<path d="M48 128H64V144H48V128Z" fill="#F0C99C"/>
<path d="M64 128H80V144H64V128Z" fill="#F0A44D"/>
<path d="M80 128H96V144H80V128Z" fill="#E68E24"/>
<path d="M96 128H112V144H96V128Z" fill="#CC7C1C"/>
<path d="M112 128H128V144H112V128Z" fill="#CC7C1C"/>
<path d="M144 128H160V144H144V128Z" fill="#E68E24"/>
<path d="M176 128H192V144H176V128Z" fill="#F0A44D"/>
<path d="M192 128H208V144H192V128Z" fill="#DB3F15"/>
<path d="M208 128H224V144H208V128Z" fill="#E25016"/>
<path d="M224 128H240V144H224V128Z" fill="#F0A44D"/>
<path d="M240 128H256V144H240V128Z" fill="#F0A44D"/>
<path d="M256 128H272V144H256V128Z" fill="#E68E24"/>
<path d="M368 128H384V144H368V128Z" fill="#F0C99C"/>
<path d="M384 128H400V144H384V128Z" fill="#F0A44D"/>
<path d="M400 128H416V144H400V128Z" fill="#E68E24"/>
<path d="M416 128H432V144H416V128Z" fill="#CC7C1C"/>
<path d="M432 128H448V144H432V128Z" fill="#CC7C1C"/>
<path d="M464 128H480V144H464V128Z" fill="#E68E24"/>
<path d="M496 128H512V144H496V128Z" fill="#F0A44D"/>
<path d="M512 128H528V144H512V128Z" fill="#DB3F15"/>
<path d="M528 128H544V144H528V128Z" fill="#E25016"/>
<path d="M544 128H560V144H544V128Z" fill="#F0A44D"/>
<path d="M560 128H576V144H560V128Z" fill="#F0A44D"/>
<path d="M576 128H592V144H576V128Z" fill="#E68E24"/>
<path d="M32 144H48V160H32V144Z" fill="#F0C99C"/>
<path d="M48 144H64V160H48V144Z" fill="#F0A44D"/>
<path d="M64 144H80V160H64V144Z" fill="#E68E24"/>
<path d="M80 144H96V160H80V144Z" fill="#CC7C1C"/>
<path d="M160 144H176V160H160V144Z" fill="#E25016"/>
<path d="M176 144H192V160H176V144Z" fill="#DB3F15"/>
<path d="M192 144H208V160H192V144Z" fill="#F0C99C"/>
<path d="M208 144H224V160H208V144Z" fill="#DB3F15"/>
<path d="M224 144H240V160H224V144Z" fill="#E25016"/>
<path d="M240 144H256V160H240V144Z" fill="#E68E24"/>
<path d="M352 144H368V160H352V144Z" fill="#F0C99C"/>
<path d="M368 144H384V160H368V144Z" fill="#F0A44D"/>
<path d="M384 144H400V160H384V144Z" fill="#E68E24"/>
<path d="M400 144H416V160H400V144Z" fill="#CC7C1C"/>
<path d="M480 144H496V160H480V144Z" fill="#E25016"/>
<path d="M496 144H512V160H496V144Z" fill="#DB3F15"/>
<path d="M512 144H528V160H512V144Z" fill="#F0C99C"/>
<path d="M528 144H544V160H528V144Z" fill="#DB3F15"/>
<path d="M544 144H560V160H544V144Z" fill="#E25016"/>
<path d="M560 144H576V160H560V144Z" fill="#E68E24"/>
<path d="M16 160H32V176H16V160Z" fill="#F0C99C"/>
<path d="M32 160H48V176H32V160Z" fill="#F0A44D"/>
<path d="M48 160H64V176H48V160Z" fill="#E68E24"/>
<path d="M160 160H176V176H160V160Z" fill="#F0A44D"/>
<path d="M176 160H192V176H176V160Z" fill="#F0A44D"/>
<path d="M192 160H208V176H192V160Z" fill="#F0A44D"/>
<path d="M208 160H224V176H208V160Z" fill="#F0A44D"/>
<path d="M224 160H240V176H224V160Z" fill="#F0A44D"/>
<path d="M240 160H256V176H240V160Z" fill="#F0A44D"/>
<path d="M256 160H272V176H256V160Z" fill="#E68E24"/>
<path d="M336 160H352V176H336V160Z" fill="#F0C99C"/>
<path d="M352 160H368V176H352V160Z" fill="#F0A44D"/>
<path d="M368 160H384V176H368V160Z" fill="#E68E24"/>
<path d="M480 160H496V176H480V160Z" fill="#F0A44D"/>
<path d="M496 160H512V176H496V160Z" fill="#F0A44D"/>
<path d="M512 160H528V176H512V160Z" fill="#F0A44D"/>
<path d="M528 160H544V176H528V160Z" fill="#F0A44D"/>
<path d="M544 160H560V176H544V160Z" fill="#F0A44D"/>
<path d="M560 160H576V176H560V160Z" fill="#F0A44D"/>
<path d="M576 160H592V176H576V160Z" fill="#E68E24"/>
<path d="M0 176H16V192H0V176Z" fill="#F0C99C"/>
<path d="M16 176H32V192H16V176Z" fill="#F0A44D"/>
<path d="M32 176H48V192H32V176Z" fill="#E68E24"/>
<path d="M160 176H176V192H160V176Z" fill="#E25016"/>
<path d="M176 176H192V192H176V176Z" fill="#E68E24"/>
<path d="M192 176H208V192H192V176Z" fill="#F0C99C"/>
<path d="M208 176H224V192H208V176Z" fill="#DB3F15"/>
<path d="M224 176H240V192H224V176Z" fill="#E25016"/>
<path d="M240 176H256V192H240V176Z" fill="#E1790C"/>
<path d="M320 176H336V192H320V176Z" fill="#F0C99C"/>
<path d="M336 176H352V192H336V176Z" fill="#F0A44D"/>
<path d="M352 176H368V192H352V176Z" fill="#E68E24"/>
<path d="M480 176H496V192H480V176Z" fill="#E25016"/>
<path d="M496 176H512V192H496V176Z" fill="#E68E24"/>
<path d="M512 176H528V192H512V176Z" fill="#F0C99C"/>
<path d="M528 176H544V192H528V176Z" fill="#DB3F15"/>
<path d="M544 176H560V192H544V176Z" fill="#E25016"/>
<path d="M560 176H576V192H560V176Z" fill="#E1790C"/>
<path d="M144 192H160V208H144V192Z" fill="#E68E24"/>
<path d="M160 192H176V208H160V192Z" fill="#F0A44D"/>
<path d="M176 192H192V208H176V192Z" fill="#F0C99C"/>
<path d="M192 192H208V208H192V192Z" fill="#E25016"/>
<path d="M208 192H224V208H208V192Z" fill="#F0A44D"/>
<path d="M224 192H240V208H224V192Z" fill="#F0A44D"/>
<path d="M240 192H256V208H240V192Z" fill="#F0A44D"/>
<path d="M256 192H272V208H256V192Z" fill="#E68E24"/>
<path d="M464 192H480V208H464V192Z" fill="#E68E24"/>
<path d="M480 192H496V208H480V192Z" fill="#F0A44D"/>
<path d="M496 192H512V208H496V192Z" fill="#F0C99C"/>
<path d="M512 192H528V208H512V192Z" fill="#E25016"/>
<path d="M528 192H544V208H528V192Z" fill="#F0A44D"/>
<path d="M544 192H560V208H544V192Z" fill="#F0A44D"/>
<path d="M560 192H576V208H560V192Z" fill="#F0A44D"/>
<path d="M576 192H592V208H576V192Z" fill="#E68E24"/>
<path d="M144 208H160V224H144V208Z" fill="#E25016"/>
<path d="M160 208H176V224H160V208Z" fill="#E68E24"/>
<path d="M176 208H192V224H176V208Z" fill="#F0A44D"/>
<path d="M192 208H208V224H192V208Z" fill="#DB3F15"/>
<path d="M208 208H224V224H208V208Z" fill="#DB3F15"/>
<path d="M224 208H240V224H224V208Z" fill="#E25016"/>
<path d="M464 208H480V224H464V208Z" fill="#E25016"/>
<path d="M480 208H496V224H480V208Z" fill="#E68E24"/>
<path d="M496 208H512V224H496V208Z" fill="#F0A44D"/>
<path d="M512 208H528V224H512V208Z" fill="#DB3F15"/>
<path d="M528 208H544V224H528V208Z" fill="#DB3F15"/>
<path d="M544 208H560V224H544V208Z" fill="#E25016"/>
<path d="M144 224H160V240H144V224Z" fill="#E68E24"/>
<path d="M160 224H176V240H160V224Z" fill="#E25016"/>
<path d="M176 224H192V240H176V224Z" fill="#E68E24"/>
<path d="M192 224H208V240H192V224Z" fill="#F0C99C"/>
<path d="M208 224H224V240H208V224Z" fill="#F0A44D"/>
<path d="M224 224H240V240H224V224Z" fill="#F0A44D"/>
<path d="M288 224H304V240H288V224Z" fill="#F7AB4E"/>
<path d="M464 224H480V240H464V224Z" fill="#E68E24"/>
<path d="M480 224H496V240H480V224Z" fill="#E25016"/>
<path d="M496 224H512V240H496V224Z" fill="#E68E24"/>
<path d="M512 224H528V240H512V224Z" fill="#F0C99C"/>
<path d="M528 224H544V240H528V224Z" fill="#F0A44D"/>
<path d="M544 224H560V240H544V224Z" fill="#F0A44D"/>
<path d="M608 224H624V240H608V224Z" fill="#F7AB4E"/>
<path d="M144 240H160V256H144V240Z" fill="#E25016"/>
<path d="M160 240H176V256H160V240Z" fill="#DB3F15"/>
<path d="M176 240H192V256H176V240Z" fill="#DB3F15"/>
<path d="M192 240H208V256H192V240Z" fill="#DB3F15"/>
<path d="M208 240H224V256H208V240Z" fill="#E25016"/>
<path d="M224 240H240V256H224V240Z" fill="#E1790C"/>
<path d="M240 240H256V256H240V240Z" fill="#E68E24"/>
<path d="M256 240H272V256H256V240Z" fill="#F8D390"/>
<path d="M272 240H288V256H272V240Z" fill="#F7AB4E"/>
<path d="M288 240H304V256H288V240Z" fill="#F7AA4E"/>
<path d="M464 240H480V256H464V240Z" fill="#E25016"/>
<path d="M480 240H496V256H480V240Z" fill="#DB3F15"/>
<path d="M496 240H512V256H496V240Z" fill="#DB3F15"/>
<path d="M512 240H528V256H512V240Z" fill="#DB3F15"/>
<path d="M528 240H544V256H528V240Z" fill="#E25016"/>
<path d="M544 240H560V256H544V240Z" fill="#E1790C"/>
<path d="M560 240H576V256H560V240Z" fill="#E68E24"/>
<path d="M576 240H592V256H576V240Z" fill="#F8D390"/>
<path d="M592 240H608V256H592V240Z" fill="#F7AB4E"/>
<path d="M608 240H624V256H608V240Z" fill="#F7AB4E"/>
<path d="M624 240H640V256H624V240Z" fill="#F7AA4E"/>
<path d="M160 256H176V272H160V256Z" fill="#E68E24"/>
<path d="M176 256H192V272H176V256Z" fill="#DB3F15"/>
<path d="M192 256H208V272H192V256Z" fill="#F0A44D"/>
<path d="M208 256H224V272H208V256Z" fill="#F0C99C"/>
<path d="M224 256H240V272H224V256Z" fill="#F0A44D"/>
<path d="M240 256H256V272H240V256Z" fill="#E68E24"/>
<path d="M256 256H272V272H256V256Z" fill="#F7AA4E"/>
<path d="M272 256H288V272H272V256Z" fill="#F7AA4E"/>
<path d="M288 256H304V272H288V256Z" fill="#F7AB4E"/>
<path d="M480 256H496V272H480V256Z" fill="#E68E24"/>
<path d="M496 256H512V272H496V256Z" fill="#DB3F15"/>
<path d="M512 256H528V272H512V256Z" fill="#F0A44D"/>
<path d="M528 256H544V272H528V256Z" fill="#F0C99C"/>
<path d="M544 256H560V272H544V256Z" fill="#F0A44D"/>
<path d="M560 256H576V272H560V256Z" fill="#E68E24"/>
<path d="M576 256H592V272H576V256Z" fill="#F7AA4E"/>
<path d="M592 256H608V272H592V256Z" fill="#F7AA4E"/>
<path d="M608 256H624V272H608V256Z" fill="#F7AA4E"/>
<path d="M624 256H640V272H624V256Z" fill="#F7AB4E"/>
<path d="M160 272H176V288H160V272Z" fill="#E68E24"/>
<path d="M176 272H192V288H176V272Z" fill="#E68E24"/>
<path d="M192 272H208V288H192V272Z" fill="#E1790C"/>
<path d="M208 272H224V288H208V272Z" fill="#E1790C"/>
<path d="M224 272H240V288H224V272Z" fill="#E68E24"/>
<path d="M240 272H256V288H240V272Z" fill="#F8D390"/>
<path d="M256 272H272V288H256V272Z" fill="#F8D390"/>
<path d="M272 272H288V288H272V272Z" fill="#F7AB4E"/>
<path d="M288 272H304V288H288V272Z" fill="#F7AB4E"/>
<path d="M480 272H496V288H480V272Z" fill="#E68E24"/>
<path d="M496 272H512V288H496V272Z" fill="#E68E24"/>
<path d="M512 272H528V288H512V272Z" fill="#E1790C"/>
<path d="M528 272H544V288H528V272Z" fill="#E1790C"/>
<path d="M544 272H560V288H544V272Z" fill="#E68E24"/>
<path d="M560 272H576V288H560V272Z" fill="#F8D390"/>
<path d="M576 272H592V288H576V272Z" fill="#F8D390"/>
<path d="M592 272H608V288H592V272Z" fill="#F7AB4E"/>
<path d="M608 272H624V288H608V272Z" fill="#F7AB4E"/>
<path d="M624 272H640V288H624V272Z" fill="#F7AB4E"/>
<path d="M96 288H112V304H96V288Z" fill="#E68E24"/>
<path d="M112 288H128V304H112V288Z" fill="#E1790C"/>
<path d="M176 288H192V304H176V288Z" fill="#E1790C"/>
<path d="M192 288H208V304H192V288Z" fill="#DB3F15"/>
<path d="M208 288H224V304H208V288Z" fill="#E25016"/>
<path d="M224 288H240V304H224V288Z" fill="#E68E24"/>
<path d="M240 288H256V304H240V288Z" fill="#F7AA4E"/>
<path d="M256 288H272V304H256V288Z" fill="#F7AA4E"/>
<path d="M272 288H288V304H272V288Z" fill="#F7AA4E"/>
<path d="M416 288H432V304H416V288Z" fill="#E1790C"/>
<path d="M496 288H512V304H496V288Z" fill="#E1790C"/>
<path d="M512 288H528V304H512V288Z" fill="#DB3F15"/>
<path d="M528 288H544V304H528V288Z" fill="#E25016"/>
<path d="M544 288H560V304H544V288Z" fill="#E68E24"/>
<path d="M560 288H576V304H560V288Z" fill="#F7AA4E"/>
<path d="M576 288H592V304H576V288Z" fill="#F7AA4E"/>
<path d="M592 288H608V304H592V288Z" fill="#F7AA4E"/>
<path d="M608 288H624V304H608V288Z" fill="#F7AA4E"/>
<path d="M80 304H96V320H80V304Z" fill="#E68E24"/>
<path d="M112 304H128V320H112V304Z" fill="#E68E24"/>
<path d="M128 304H144V320H128V304Z" fill="#E68E24"/>
<path d="M160 304H176V320H160V304Z" fill="#F0A44D"/>
<path d="M176 304H192V320H176V304Z" fill="#F0A44D"/>
<path d="M192 304H208V320H192V304Z" fill="#F0A44D"/>
<path d="M224 304H240V320H224V304Z" fill="#E68E24"/>
<path d="M240 304H256V320H240V304Z" fill="#F8D390"/>
<path d="M256 304H272V320H256V304Z" fill="#F7AB4E"/>
<path d="M272 304H288V320H272V304Z" fill="#F7AB4E"/>
<path d="M400 304H416V320H400V304Z" fill="#E68E24"/>
<path d="M432 304H448V320H432V304Z" fill="#E68E24"/>
<path d="M480 304H496V320H480V304Z" fill="#F0A44D"/>
<path d="M496 304H512V320H496V304Z" fill="#F0A44D"/>
<path d="M512 304H528V320H512V304Z" fill="#F0A44D"/>
<path d="M544 304H560V320H544V304Z" fill="#E68E24"/>
<path d="M560 304H576V320H560V304Z" fill="#F8D390"/>
<path d="M576 304H592V320H576V304Z" fill="#F7AB4E"/>
<path d="M592 304H608V320H592V304Z" fill="#F7AB4E"/>
<path d="M608 304H624V320H608V304Z" fill="#F7AB4E"/>
<path d="M64 320H80V336H64V320Z" fill="#E68E24"/>
<path d="M80 320H96V336H80V320Z" fill="#E68E24"/>
<path d="M112 320H128V336H112V320Z" fill="#E1790C"/>
<path d="M160 320H176V336H160V320Z" fill="#E68E24"/>
<path d="M176 320H192V336H176V320Z" fill="#DB3F15"/>
<path d="M192 320H208V336H192V320Z" fill="#E25016"/>
<path d="M240 320H256V336H240V320Z" fill="#F7AA4E"/>
<path d="M256 320H272V336H256V320Z" fill="#F7AA4E"/>
<path d="M272 320H288V336H272V320Z" fill="#F7AA4E"/>
<path d="M384 320H400V336H384V320Z" fill="#E68E24"/>
<path d="M400 320H416V336H400V320Z" fill="#E68E24"/>
<path d="M432 320H448V336H432V320Z" fill="#E1790C"/>
<path d="M480 320H496V336H480V320Z" fill="#E68E24"/>
<path d="M496 320H512V336H496V320Z" fill="#DB3F15"/>
<path d="M512 320H528V336H512V320Z" fill="#E25016"/>
<path d="M560 320H576V336H560V320Z" fill="#F7AA4E"/>
<path d="M576 320H592V336H576V320Z" fill="#F7AA4E"/>
<path d="M592 320H608V336H592V320Z" fill="#F7AA4E"/>
<path d="M64 336H80V352H64V336Z" fill="#E25016"/>
<path d="M80 336H96V352H80V336Z" fill="#E68E24"/>
<path d="M96 336H112V352H96V336Z" fill="#E1790C"/>
<path d="M144 336H160V352H144V336Z" fill="#E68E24"/>
<path d="M160 336H176V352H160V336Z" fill="#F0A44D"/>
<path d="M176 336H192V352H176V336Z" fill="#F0A44D"/>
<path d="M208 336H224V352H208V336Z" fill="#E1790C"/>
<path d="M256 336H272V352H256V336Z" fill="#F7AB4E"/>
<path d="M384 336H400V352H384V336Z" fill="#E25016"/>
<path d="M400 336H416V352H400V336Z" fill="#E68E24"/>
<path d="M416 336H432V352H416V336Z" fill="#E1790C"/>
<path d="M464 336H480V352H464V336Z" fill="#E68E24"/>
<path d="M480 336H496V352H480V336Z" fill="#F0A44D"/>
<path d="M496 336H512V352H496V336Z" fill="#F0A44D"/>
<path d="M528 336H544V352H528V336Z" fill="#E1790C"/>
<path d="M576 336H592V352H576V336Z" fill="#F7AB4E"/>
<path d="M80 352H96V368H80V352Z" fill="#E1790C"/>
<path d="M96 352H112V368H96V352Z" fill="#E1790C"/>
<path d="M112 352H128V368H112V352Z" fill="#F0A44D"/>
<path d="M128 352H144V368H128V352Z" fill="#E68E24"/>
<path d="M144 352H160V368H144V352Z" fill="#F0A44D"/>
<path d="M160 352H176V368H160V352Z" fill="#DB3F15"/>
<path d="M400 352H416V368H400V352Z" fill="#E1790C"/>
<path d="M416 352H432V368H416V352Z" fill="#E1790C"/>
<path d="M432 352H448V368H432V352Z" fill="#F0A44D"/>
<path d="M448 352H464V368H448V352Z" fill="#E68E24"/>
<path d="M464 352H480V368H464V352Z" fill="#F0A44D"/>
<path d="M480 352H496V368H480V352Z" fill="#DB3F15"/>
<path d="M64 368H80V384H64V368Z" fill="#E1790C"/>
<path d="M96 368H112V384H96V368Z" fill="#DB3F15"/>
<path d="M112 368H128V384H112V368Z" fill="#E1790C"/>
<path d="M128 368H144V384H128V368Z" fill="#DB3F15"/>
<path d="M144 368H160V384H144V368Z" fill="#E25016"/>
<path d="M176 368H192V384H176V368Z" fill="#E1790C"/>
<path d="M384 368H400V384H384V368Z" fill="#E1790C"/>
<path d="M416 368H432V384H416V368Z" fill="#DB3F15"/>
<path d="M432 368H448V384H432V368Z" fill="#E1790C"/>
<path d="M448 368H464V384H448V368Z" fill="#DB3F15"/>
<path d="M464 368H480V384H464V368Z" fill="#E25016"/>
<path d="M496 368H512V384H496V368Z" fill="#E1790C"/>
<path d="M128 384H144V400H128V384Z" fill="#E1790C"/>
<path d="M448 384H464V400H448V384Z" fill="#E1790C"/>
</svg>
