<svg width="992" height="320" viewBox="0 0 992 320" fill="none" xmlns="http://www.w3.org/2000/svg">
<path d="M272 0H288V16H272V0Z" fill="#414045"/>
<path d="M288 0H304V16H288V0Z" fill="#414045"/>
<path d="M304 0H320V16H304V0Z" fill="#414045"/>
<path d="M320 0H336V16H320V0Z" fill="#414045"/>
<path d="M336 0H352V16H336V0Z" fill="#414045"/>
<path d="M784 0H800V16H784V0Z" fill="#414045"/>
<path d="M800 0H816V16H800V0Z" fill="#414045"/>
<path d="M816 0H832V16H816V0Z" fill="#414045"/>
<path d="M832 0H848V16H832V0Z" fill="#414045"/>
<path d="M848 0H864V16H848V0Z" fill="#414045"/>
<path d="M960 0H976V16H960V0Z" fill="#414045"/>
<path d="M976 0H992V16H976V0Z" fill="#414045"/>
<path d="M208 16H224V32H208V16Z" fill="#414045"/>
<path d="M224 16H240V32H224V16Z" fill="#414045"/>
<path d="M240 16H256V32H240V16Z" fill="#414045"/>
<path d="M256 16H272V32H256V16Z" fill="#414045"/>
<path d="M272 16H288V32H272V16Z" fill="#FECB4B"/>
<path d="M288 16H304V32H288V16Z" fill="#FECB4B"/>
<path d="M304 16H320V32H304V16Z" fill="#FECB4B"/>
<path d="M320 16H336V32H320V16Z" fill="#FECB4B"/>
<path d="M336 16H352V32H336V16Z" fill="#FECB4B"/>
<path d="M352 16H368V32H352V16Z" fill="#414045"/>
<path d="M368 16H384V32H368V16Z" fill="#414045"/>
<path d="M720 16H736V32H720V16Z" fill="#414045"/>
<path d="M736 16H752V32H736V16Z" fill="#414045"/>
<path d="M752 16H768V32H752V16Z" fill="#414045"/>
<path d="M768 16H784V32H768V16Z" fill="#414045"/>
<path d="M784 16H800V32H784V16Z" fill="#FECB4B"/>
<path d="M800 16H816V32H800V16Z" fill="#FECB4B"/>
<path d="M816 16H832V32H816V16Z" fill="#FECB4B"/>
<path d="M832 16H848V32H832V16Z" fill="#FECB4B"/>
<path d="M848 16H864V32H848V16Z" fill="#FECB4B"/>
<path d="M864 16H880V32H864V16Z" fill="#414045"/>
<path d="M880 16H896V32H880V16Z" fill="#414045"/>
<path d="M928 16H944V32H928V16Z" fill="#414045"/>
<path d="M944 16H960V32H944V16Z" fill="#414045"/>
<path d="M144 32H160V48H144V32Z" fill="#414045"/>
<path d="M160 32H176V48H160V32Z" fill="#414045"/>
<path d="M176 32H192V48H176V32Z" fill="#414045"/>
<path d="M192 32H208V48H192V32Z" fill="#414045"/>
<path d="M208 32H224V48H208V32Z" fill="#D7CEC9"/>
<path d="M224 32H240V48H224V32Z" fill="#D7CEC9"/>
<path d="M240 32H256V48H240V32Z" fill="#D7CEC9"/>
<path d="M256 32H272V48H256V32Z" fill="#FECB4B"/>
<path d="M272 32H288V48H272V32Z" fill="#FECB4B"/>
<path d="M288 32H304V48H288V32Z" fill="#FEB44B"/>
<path d="M304 32H320V48H304V32Z" fill="#FEB44B"/>
<path d="M320 32H336V48H320V32Z" fill="#FEB44B"/>
<path d="M336 32H352V48H336V32Z" fill="#FEB44B"/>
<path d="M352 32H368V48H352V32Z" fill="#FECB4B"/>
<path d="M368 32H384V48H368V32Z" fill="#414045"/>
<path d="M384 32H400V48H384V32Z" fill="#414045"/>
<path d="M400 32H416V48H400V32Z" fill="#414045"/>
<path d="M656 32H672V48H656V32Z" fill="#414045"/>
<path d="M672 32H688V48H672V32Z" fill="#414045"/>
<path d="M688 32H704V48H688V32Z" fill="#414045"/>
<path d="M704 32H720V48H704V32Z" fill="#414045"/>
<path d="M720 32H736V48H720V32Z" fill="#D7CEC9"/>
<path d="M736 32H752V48H736V32Z" fill="#D7CEC9"/>
<path d="M752 32H768V48H752V32Z" fill="#D7CEC9"/>
<path d="M768 32H784V48H768V32Z" fill="#FECB4B"/>
<path d="M784 32H800V48H784V32Z" fill="#FECB4B"/>
<path d="M800 32H816V48H800V32Z" fill="#FEB44B"/>
<path d="M816 32H832V48H816V32Z" fill="#FEB44B"/>
<path d="M832 32H848V48H832V32Z" fill="#FEB44B"/>
<path d="M848 32H864V48H848V32Z" fill="#FEB44B"/>
<path d="M864 32H880V48H864V32Z" fill="#FECB4B"/>
<path d="M880 32H896V48H880V32Z" fill="#414045"/>
<path d="M896 32H912V48H896V32Z" fill="#414045"/>
<path d="M912 32H928V48H912V32Z" fill="#414045"/>
<path d="M128 48H144V64H128V48Z" fill="#414045"/>
<path d="M144 48H160V64H144V48Z" fill="#D7CEC9"/>
<path d="M160 48H176V64H160V48Z" fill="#D7CEC9"/>
<path d="M176 48H192V64H176V48Z" fill="#D7CEC9"/>
<path d="M192 48H208V64H192V48Z" fill="#D7CEC9"/>
<path d="M208 48H224V64H208V48Z" fill="#414045"/>
<path d="M224 48H240V64H224V48Z" fill="#D7CEC9"/>
<path d="M240 48H256V64H240V48Z" fill="#414045"/>
<path d="M256 48H272V64H256V48Z" fill="#D7CEC9"/>
<path d="M272 48H288V64H272V48Z" fill="#FECB4B"/>
<path d="M288 48H304V64H288V48Z" fill="#FECB4B"/>
<path d="M304 48H320V64H304V48Z" fill="#FEB44B"/>
<path d="M320 48H336V64H320V48Z" fill="#FEB44B"/>
<path d="M336 48H352V64H336V48Z" fill="#FEB44B"/>
<path d="M352 48H368V64H352V48Z" fill="#FEB44B"/>
<path d="M368 48H384V64H368V48Z" fill="#FECB4B"/>
<path d="M384 48H400V64H384V48Z" fill="#414045"/>
<path d="M416 48H432V64H416V48Z" fill="#414045"/>
<path d="M432 48H448V64H432V48Z" fill="#414045"/>
<path d="M480 48H496V64H480V48Z" fill="#414045"/>
<path d="M640 48H656V64H640V48Z" fill="#414045"/>
<path d="M656 48H672V64H656V48Z" fill="#D7CEC9"/>
<path d="M672 48H688V64H672V48Z" fill="#D7CEC9"/>
<path d="M688 48H704V64H688V48Z" fill="#D7CEC9"/>
<path d="M704 48H720V64H704V48Z" fill="#D7CEC9"/>
<path d="M720 48H736V64H720V48Z" fill="#414045"/>
<path d="M736 48H752V64H736V48Z" fill="#D7CEC9"/>
<path d="M752 48H768V64H752V48Z" fill="#414045"/>
<path d="M768 48H784V64H768V48Z" fill="#D7CEC9"/>
<path d="M784 48H800V64H784V48Z" fill="#FECB4B"/>
<path d="M800 48H816V64H800V48Z" fill="#FECB4B"/>
<path d="M816 48H832V64H816V48Z" fill="#FEB44B"/>
<path d="M832 48H848V64H832V48Z" fill="#FEB44B"/>
<path d="M848 48H864V64H848V48Z" fill="#FEB44B"/>
<path d="M864 48H880V64H864V48Z" fill="#FEB44B"/>
<path d="M880 48H896V64H880V48Z" fill="#FECB4B"/>
<path d="M896 48H912V64H896V48Z" fill="#414045"/>
<path d="M112 64H128V80H112V64Z" fill="#414045"/>
<path d="M128 64H144V80H128V64Z" fill="#D7CEC9"/>
<path d="M144 64H160V80H144V64Z" fill="#D7CEC9"/>
<path d="M160 64H176V80H160V64Z" fill="#414045"/>
<path d="M176 64H192V80H176V64Z" fill="#D7CEC9"/>
<path d="M192 64H208V80H192V64Z" fill="#414045"/>
<path d="M208 64H224V80H208V64Z" fill="#D7CEC9"/>
<path d="M224 64H240V80H224V64Z" fill="#D7CEC9"/>
<path d="M240 64H256V80H240V64Z" fill="#414045"/>
<path d="M256 64H272V80H256V64Z" fill="#D7CEC9"/>
<path d="M272 64H288V80H272V64Z" fill="#414045"/>
<path d="M288 64H304V80H288V64Z" fill="#FECB4B"/>
<path d="M304 64H320V80H304V64Z" fill="#FECB4B"/>
<path d="M320 64H336V80H320V64Z" fill="#FECB4B"/>
<path d="M336 64H352V80H336V64Z" fill="#FEB44B"/>
<path d="M352 64H368V80H352V64Z" fill="#FEB44B"/>
<path d="M368 64H384V80H368V64Z" fill="#FECB4B"/>
<path d="M384 64H400V80H384V64Z" fill="#414045"/>
<path d="M448 64H464V80H448V64Z" fill="#414045"/>
<path d="M464 64H480V80H464V64Z" fill="#414045"/>
<path d="M624 64H640V80H624V64Z" fill="#414045"/>
<path d="M640 64H656V80H640V64Z" fill="#D7CEC9"/>
<path d="M656 64H672V80H656V64Z" fill="#D7CEC9"/>
<path d="M672 64H688V80H672V64Z" fill="#414045"/>
<path d="M688 64H704V80H688V64Z" fill="#D7CEC9"/>
<path d="M704 64H720V80H704V64Z" fill="#414045"/>
<path d="M720 64H736V80H720V64Z" fill="#D7CEC9"/>
<path d="M736 64H752V80H736V64Z" fill="#D7CEC9"/>
<path d="M752 64H768V80H752V64Z" fill="#414045"/>
<path d="M768 64H784V80H768V64Z" fill="#D7CEC9"/>
<path d="M784 64H800V80H784V64Z" fill="#414045"/>
<path d="M800 64H816V80H800V64Z" fill="#FECB4B"/>
<path d="M816 64H832V80H816V64Z" fill="#FECB4B"/>
<path d="M832 64H848V80H832V64Z" fill="#FECB4B"/>
<path d="M848 64H864V80H848V64Z" fill="#FEB44B"/>
<path d="M864 64H880V80H864V64Z" fill="#FEB44B"/>
<path d="M880 64H896V80H880V64Z" fill="#FECB4B"/>
<path d="M896 64H912V80H896V64Z" fill="#414045"/>
<path d="M96 80H112V96H96V80Z" fill="#414045"/>
<path d="M112 80H128V96H112V80Z" fill="#D7CEC9"/>
<path d="M128 80H144V96H128V80Z" fill="#D7CEC9"/>
<path d="M144 80H160V96H144V80Z" fill="#414045"/>
<path d="M160 80H176V96H160V80Z" fill="#D7CEC9"/>
<path d="M176 80H192V96H176V80Z" fill="#D7CEC9"/>
<path d="M192 80H208V96H192V80Z" fill="#414045"/>
<path d="M208 80H224V96H208V80Z" fill="#D7CEC9"/>
<path d="M224 80H240V96H224V80Z" fill="#414045"/>
<path d="M240 80H256V96H240V80Z" fill="#D7CEC9"/>
<path d="M256 80H272V96H256V80Z" fill="#D7CEC9"/>
<path d="M272 80H288V96H272V80Z" fill="#414045"/>
<path d="M288 80H304V96H288V80Z" fill="#414045"/>
<path d="M304 80H320V96H304V80Z" fill="#FECB4B"/>
<path d="M320 80H336V96H320V80Z" fill="#FECB4B"/>
<path d="M336 80H352V96H336V80Z" fill="#FECB4B"/>
<path d="M352 80H368V96H352V80Z" fill="#FEB44B"/>
<path d="M368 80H384V96H368V80Z" fill="#FECB4B"/>
<path d="M384 80H400V96H384V80Z" fill="#414045"/>
<path d="M608 80H624V96H608V80Z" fill="#414045"/>
<path d="M624 80H640V96H624V80Z" fill="#D7CEC9"/>
<path d="M640 80H656V96H640V80Z" fill="#D7CEC9"/>
<path d="M656 80H672V96H656V80Z" fill="#414045"/>
<path d="M672 80H688V96H672V80Z" fill="#D7CEC9"/>
<path d="M688 80H704V96H688V80Z" fill="#D7CEC9"/>
<path d="M704 80H720V96H704V80Z" fill="#414045"/>
<path d="M720 80H736V96H720V80Z" fill="#D7CEC9"/>
<path d="M736 80H752V96H736V80Z" fill="#414045"/>
<path d="M752 80H768V96H752V80Z" fill="#D7CEC9"/>
<path d="M768 80H784V96H768V80Z" fill="#D7CEC9"/>
<path d="M784 80H800V96H784V80Z" fill="#414045"/>
<path d="M800 80H816V96H800V80Z" fill="#414045"/>
<path d="M816 80H832V96H816V80Z" fill="#FECB4B"/>
<path d="M832 80H848V96H832V80Z" fill="#FECB4B"/>
<path d="M848 80H864V96H848V80Z" fill="#FECB4B"/>
<path d="M864 80H880V96H864V80Z" fill="#FEB44B"/>
<path d="M880 80H896V96H880V80Z" fill="#FECB4B"/>
<path d="M896 80H912V96H896V80Z" fill="#414045"/>
<path d="M96 96H112V112H96V96Z" fill="#D7CEC9"/>
<path d="M112 96H128V112H112V96Z" fill="#D7CEC9"/>
<path d="M128 96H144V112H128V96Z" fill="#D7CEC9"/>
<path d="M144 96H160V112H144V96Z" fill="#414045"/>
<path d="M160 96H176V112H160V96Z" fill="#D7CEC9"/>
<path d="M176 96H192V112H176V96Z" fill="#414045"/>
<path d="M192 96H208V112H192V96Z" fill="#D7CEC9"/>
<path d="M208 96H224V112H208V96Z" fill="#D7CEC9"/>
<path d="M224 96H240V112H224V96Z" fill="#414045"/>
<path d="M240 96H256V112H240V96Z" fill="#D7CEC9"/>
<path d="M256 96H272V112H256V96Z" fill="#414045"/>
<path d="M272 96H288V112H272V96Z" fill="#D7CEC9"/>
<path d="M288 96H304V112H288V96Z" fill="#414045"/>
<path d="M304 96H320V112H304V96Z" fill="#414045"/>
<path d="M320 96H336V112H320V96Z" fill="#FECB4B"/>
<path d="M336 96H352V112H336V96Z" fill="#FECB4B"/>
<path d="M352 96H368V112H352V96Z" fill="#FECB4B"/>
<path d="M368 96H384V112H368V96Z" fill="#414045"/>
<path d="M416 96H432V112H416V96Z" fill="#D9CB4B"/>
<path d="M608 96H624V112H608V96Z" fill="#D7CEC9"/>
<path d="M624 96H640V112H624V96Z" fill="#D7CEC9"/>
<path d="M640 96H656V112H640V96Z" fill="#D7CEC9"/>
<path d="M656 96H672V112H656V96Z" fill="#414045"/>
<path d="M672 96H688V112H672V96Z" fill="#D7CEC9"/>
<path d="M688 96H704V112H688V96Z" fill="#414045"/>
<path d="M704 96H720V112H704V96Z" fill="#D7CEC9"/>
<path d="M720 96H736V112H720V96Z" fill="#D7CEC9"/>
<path d="M736 96H752V112H736V96Z" fill="#414045"/>
<path d="M752 96H768V112H752V96Z" fill="#D7CEC9"/>
<path d="M768 96H784V112H768V96Z" fill="#414045"/>
<path d="M784 96H800V112H784V96Z" fill="#D7CEC9"/>
<path d="M800 96H816V112H800V96Z" fill="#414045"/>
<path d="M816 96H832V112H816V96Z" fill="#414045"/>
<path d="M832 96H848V112H832V96Z" fill="#FECB4B"/>
<path d="M848 96H864V112H848V96Z" fill="#FECB4B"/>
<path d="M864 96H880V112H864V96Z" fill="#FECB4B"/>
<path d="M880 96H896V112H880V96Z" fill="#414045"/>
<path d="M928 96H944V112H928V96Z" fill="#D9CB4B"/>
<path d="M80 112H96V128H80V112Z" fill="#D7CEC9"/>
<path d="M96 112H112V128H96V112Z" fill="#414045"/>
<path d="M112 112H128V128H112V112Z" fill="#D7CEC9"/>
<path d="M128 112H144V128H128V112Z" fill="#D7CEC9"/>
<path d="M144 112H160V128H144V112Z" fill="#D7CEC9"/>
<path d="M160 112H176V128H160V112Z" fill="#D7CEC9"/>
<path d="M176 112H192V128H176V112Z" fill="#414045"/>
<path d="M192 112H208V128H192V112Z" fill="#D7CEC9"/>
<path d="M208 112H224V128H208V112Z" fill="#414045"/>
<path d="M224 112H240V128H224V112Z" fill="#D7CEC9"/>
<path d="M240 112H256V128H240V112Z" fill="#D7CEC9"/>
<path d="M256 112H272V128H256V112Z" fill="#414045"/>
<path d="M272 112H288V128H272V112Z" fill="#D7CEC9"/>
<path d="M288 112H304V128H288V112Z" fill="#414045"/>
<path d="M304 112H320V128H304V112Z" fill="#414045"/>
<path d="M320 112H336V128H320V112Z" fill="#D7CEC9"/>
<path d="M336 112H352V128H336V112Z" fill="#FECB4B"/>
<path d="M352 112H368V128H352V112Z" fill="#FECB4B"/>
<path d="M368 112H384V128H368V112Z" fill="#414045"/>
<path d="M400 112H416V128H400V112Z" fill="#FECB4B"/>
<path d="M416 112H432V128H416V112Z" fill="#FECB4B"/>
<path d="M432 112H448V128H432V112Z" fill="#D9CB4B"/>
<path d="M592 112H608V128H592V112Z" fill="#D7CEC9"/>
<path d="M608 112H624V128H608V112Z" fill="#414045"/>
<path d="M624 112H640V128H624V112Z" fill="#D7CEC9"/>
<path d="M640 112H656V128H640V112Z" fill="#D7CEC9"/>
<path d="M656 112H672V128H656V112Z" fill="#D7CEC9"/>
<path d="M672 112H688V128H672V112Z" fill="#D7CEC9"/>
<path d="M688 112H704V128H688V112Z" fill="#414045"/>
<path d="M704 112H720V128H704V112Z" fill="#D7CEC9"/>
<path d="M720 112H736V128H720V112Z" fill="#414045"/>
<path d="M736 112H752V128H736V112Z" fill="#D7CEC9"/>
<path d="M752 112H768V128H752V112Z" fill="#D7CEC9"/>
<path d="M768 112H784V128H768V112Z" fill="#414045"/>
<path d="M784 112H800V128H784V112Z" fill="#D7CEC9"/>
<path d="M800 112H816V128H800V112Z" fill="#414045"/>
<path d="M816 112H832V128H816V112Z" fill="#414045"/>
<path d="M832 112H848V128H832V112Z" fill="#D7CEC9"/>
<path d="M848 112H864V128H848V112Z" fill="#FECB4B"/>
<path d="M864 112H880V128H864V112Z" fill="#FECB4B"/>
<path d="M880 112H896V128H880V112Z" fill="#414045"/>
<path d="M912 112H928V128H912V112Z" fill="#FECB4B"/>
<path d="M928 112H944V128H928V112Z" fill="#D9CB4B"/>
<path d="M80 128H96V144H80V128Z" fill="#FECB4B"/>
<path d="M96 128H112V144H96V128Z" fill="#414045"/>
<path d="M112 128H128V144H112V128Z" fill="#D7CEC9"/>
<path d="M128 128H144V144H128V128Z" fill="#D7CEC9"/>
<path d="M144 128H160V144H144V128Z" fill="#D7CEC9"/>
<path d="M160 128H176V144H160V128Z" fill="#414045"/>
<path d="M176 128H192V144H176V128Z" fill="#D7CEC9"/>
<path d="M192 128H208V144H192V128Z" fill="#D7CEC9"/>
<path d="M208 128H224V144H208V128Z" fill="#414045"/>
<path d="M224 128H240V144H224V128Z" fill="#D7CEC9"/>
<path d="M240 128H256V144H240V128Z" fill="#D7CEC9"/>
<path d="M256 128H272V144H256V128Z" fill="#414045"/>
<path d="M272 128H288V144H272V128Z" fill="#414045"/>
<path d="M288 128H304V144H288V128Z" fill="#D7CEC9"/>
<path d="M304 128H320V144H304V128Z" fill="#414045"/>
<path d="M320 128H336V144H320V128Z" fill="#414045"/>
<path d="M336 128H352V144H336V128Z" fill="#FECB4B"/>
<path d="M352 128H368V144H352V128Z" fill="#FECB4B"/>
<path d="M368 128H384V144H368V128Z" fill="#FECB4B"/>
<path d="M384 128H400V144H384V128Z" fill="#FEB44B"/>
<path d="M400 128H416V144H400V128Z" fill="#FECB4B"/>
<path d="M416 128H432V144H416V128Z" fill="#FECB4B"/>
<path d="M432 128H448V144H432V128Z" fill="#D9CB4B"/>
<path d="M592 128H608V144H592V128Z" fill="#FECB4B"/>
<path d="M608 128H624V144H608V128Z" fill="#414045"/>
<path d="M624 128H640V144H624V128Z" fill="#D7CEC9"/>
<path d="M640 128H656V144H640V128Z" fill="#D7CEC9"/>
<path d="M656 128H672V144H656V128Z" fill="#D7CEC9"/>
<path d="M672 128H688V144H672V128Z" fill="#414045"/>
<path d="M688 128H704V144H688V128Z" fill="#D7CEC9"/>
<path d="M704 128H720V144H704V128Z" fill="#D7CEC9"/>
<path d="M720 128H736V144H720V128Z" fill="#414045"/>
<path d="M736 128H752V144H736V128Z" fill="#D7CEC9"/>
<path d="M752 128H768V144H752V128Z" fill="#D7CEC9"/>
<path d="M768 128H784V144H768V128Z" fill="#414045"/>
<path d="M784 128H800V144H784V128Z" fill="#414045"/>
<path d="M800 128H816V144H800V128Z" fill="#D7CEC9"/>
<path d="M816 128H832V144H816V128Z" fill="#414045"/>
<path d="M832 128H848V144H832V128Z" fill="#414045"/>
<path d="M848 128H864V144H848V128Z" fill="#FECB4B"/>
<path d="M864 128H880V144H864V128Z" fill="#FECB4B"/>
<path d="M880 128H896V144H880V128Z" fill="#FECB4B"/>
<path d="M896 128H912V144H896V128Z" fill="#FEB44B"/>
<path d="M912 128H928V144H912V128Z" fill="#FECB4B"/>
<path d="M928 128H944V144H928V128Z" fill="#D9CB4B"/>
<path d="M64 144H80V160H64V144Z" fill="#D7CEC9"/>
<path d="M80 144H96V160H80V144Z" fill="#D7CEC9"/>
<path d="M96 144H112V160H96V144Z" fill="#414045"/>
<path d="M112 144H128V160H112V144Z" fill="#414045"/>
<path d="M128 144H144V160H128V144Z" fill="#D7CEC9"/>
<path d="M144 144H160V160H144V144Z" fill="#D7CEC9"/>
<path d="M160 144H176V160H160V144Z" fill="#D7CEC9"/>
<path d="M176 144H192V160H176V144Z" fill="#D7CEC9"/>
<path d="M192 144H208V160H192V144Z" fill="#414045"/>
<path d="M208 144H224V160H208V144Z" fill="#FECB4B"/>
<path d="M224 144H240V160H224V144Z" fill="#FECB4B"/>
<path d="M240 144H256V160H240V144Z" fill="#414045"/>
<path d="M256 144H272V160H256V144Z" fill="#D7CEC9"/>
<path d="M272 144H288V160H272V144Z" fill="#D7CEC9"/>
<path d="M288 144H304V160H288V144Z" fill="#414045"/>
<path d="M304 144H320V160H304V144Z" fill="#D7CEC9"/>
<path d="M320 144H336V160H320V144Z" fill="#414045"/>
<path d="M336 144H352V160H336V144Z" fill="#414045"/>
<path d="M352 144H368V160H352V144Z" fill="#FECB4B"/>
<path d="M368 144H384V160H368V144Z" fill="#FECB4B"/>
<path d="M384 144H400V160H384V144Z" fill="#FEB44B"/>
<path d="M400 144H416V160H400V144Z" fill="#FEB44B"/>
<path d="M416 144H432V160H416V144Z" fill="#FECB4B"/>
<path d="M432 144H448V160H432V144Z" fill="#D9CB4B"/>
<path d="M576 144H592V160H576V144Z" fill="#D7CEC9"/>
<path d="M592 144H608V160H592V144Z" fill="#D7CEC9"/>
<path d="M608 144H624V160H608V144Z" fill="#414045"/>
<path d="M624 144H640V160H624V144Z" fill="#414045"/>
<path d="M640 144H656V160H640V144Z" fill="#D7CEC9"/>
<path d="M656 144H672V160H656V144Z" fill="#D7CEC9"/>
<path d="M672 144H688V160H672V144Z" fill="#D7CEC9"/>
<path d="M688 144H704V160H688V144Z" fill="#D7CEC9"/>
<path d="M704 144H720V160H704V144Z" fill="#414045"/>
<path d="M720 144H736V160H720V144Z" fill="#FECB4B"/>
<path d="M736 144H752V160H736V144Z" fill="#FECB4B"/>
<path d="M752 144H768V160H752V144Z" fill="#414045"/>
<path d="M768 144H784V160H768V144Z" fill="#D7CEC9"/>
<path d="M784 144H800V160H784V144Z" fill="#D7CEC9"/>
<path d="M800 144H816V160H800V144Z" fill="#414045"/>
<path d="M816 144H832V160H816V144Z" fill="#D7CEC9"/>
<path d="M832 144H848V160H832V144Z" fill="#414045"/>
<path d="M848 144H864V160H848V144Z" fill="#414045"/>
<path d="M864 144H880V160H864V144Z" fill="#FECB4B"/>
<path d="M880 144H896V160H880V144Z" fill="#FECB4B"/>
<path d="M896 144H912V160H896V144Z" fill="#FEB44B"/>
<path d="M912 144H928V160H912V144Z" fill="#FEB44B"/>
<path d="M928 144H944V160H928V144Z" fill="#D9CB4B"/>
<path d="M48 160H64V176H48V160Z" fill="#FECB4B"/>
<path d="M64 160H80V176H64V160Z" fill="#D7CEC9"/>
<path d="M80 160H96V176H80V160Z" fill="#D7CEC9"/>
<path d="M96 160H112V176H96V160Z" fill="#E3E3E3"/>
<path d="M112 160H128V176H112V160Z" fill="#414045"/>
<path d="M128 160H144V176H128V160Z" fill="#D7CEC9"/>
<path d="M144 160H160V176H144V160Z" fill="#D7CEC9"/>
<path d="M160 160H176V176H160V160Z" fill="#D7CEC9"/>
<path d="M176 160H192V176H176V160Z" fill="#414045"/>
<path d="M192 160H208V176H192V160Z" fill="#EBE2DD"/>
<path d="M208 160H224V176H208V160Z" fill="#EBE2DD"/>
<path d="M224 160H240V176H224V160Z" fill="#FECB4B"/>
<path d="M240 160H256V176H240V160Z" fill="#D7CEC9"/>
<path d="M256 160H272V176H256V160Z" fill="#D7CEC9"/>
<path d="M272 160H288V176H272V160Z" fill="#D7CEC9"/>
<path d="M288 160H304V176H288V160Z" fill="#D7CEC9"/>
<path d="M304 160H320V176H304V160Z" fill="#414045"/>
<path d="M320 160H336V176H320V160Z" fill="#D7CEC9"/>
<path d="M336 160H352V176H336V160Z" fill="#D7CEC9"/>
<path d="M352 160H368V176H352V160Z" fill="#FECB4B"/>
<path d="M368 160H384V176H368V160Z" fill="#FECB4B"/>
<path d="M384 160H400V176H384V160Z" fill="#FEB44B"/>
<path d="M400 160H416V176H400V160Z" fill="#FEB44B"/>
<path d="M416 160H432V176H416V160Z" fill="#FECB4B"/>
<path d="M432 160H448V176H432V160Z" fill="#D9CB4B"/>
<path d="M560 160H576V176H560V160Z" fill="#FECB4B"/>
<path d="M576 160H592V176H576V160Z" fill="#D7CEC9"/>
<path d="M592 160H608V176H592V160Z" fill="#D7CEC9"/>
<path d="M608 160H624V176H608V160Z" fill="#E3E3E3"/>
<path d="M624 160H640V176H624V160Z" fill="#414045"/>
<path d="M640 160H656V176H640V160Z" fill="#D7CEC9"/>
<path d="M656 160H672V176H656V160Z" fill="#D7CEC9"/>
<path d="M672 160H688V176H672V160Z" fill="#D7CEC9"/>
<path d="M688 160H704V176H688V160Z" fill="#414045"/>
<path d="M704 160H720V176H704V160Z" fill="#EBE2DD"/>
<path d="M720 160H736V176H720V160Z" fill="#EBE2DD"/>
<path d="M736 160H752V176H736V160Z" fill="#EBE2DD"/>
<path d="M752 160H768V176H752V160Z" fill="#FECB4B"/>
<path d="M768 160H784V176H768V160Z" fill="#D7CEC9"/>
<path d="M784 160H800V176H784V160Z" fill="#D7CEC9"/>
<path d="M800 160H816V176H800V160Z" fill="#D7CEC9"/>
<path d="M816 160H832V176H816V160Z" fill="#414045"/>
<path d="M832 160H848V176H832V160Z" fill="#D7CEC9"/>
<path d="M848 160H864V176H848V160Z" fill="#D7CEC9"/>
<path d="M864 160H880V176H864V160Z" fill="#FECB4B"/>
<path d="M880 160H896V176H880V160Z" fill="#FECB4B"/>
<path d="M896 160H912V176H896V160Z" fill="#FEB44B"/>
<path d="M912 160H928V176H912V160Z" fill="#FEB44B"/>
<path d="M928 160H944V176H928V160Z" fill="#D9CB4B"/>
<path d="M0 176H16V192H0V176Z" fill="#D7CEC9"/>
<path d="M16 176H32V192H16V176Z" fill="#D7CEC9"/>
<path d="M32 176H48V192H32V176Z" fill="#D7CEC9"/>
<path d="M48 176H64V192H48V176Z" fill="#D7CEC9"/>
<path d="M64 176H80V192H64V176Z" fill="#D7CEC9"/>
<path d="M80 176H96V192H80V176Z" fill="#3C271B"/>
<path d="M96 176H112V192H96V176Z" fill="#242120"/>
<path d="M112 176H128V192H112V176Z" fill="#3C271B"/>
<path d="M128 176H144V192H128V176Z" fill="#D7CEC9"/>
<path d="M144 176H160V192H144V176Z" fill="#D7CEC9"/>
<path d="M160 176H176V192H160V176Z" fill="#D7CEC9"/>
<path d="M176 176H192V192H176V176Z" fill="#EBE2DD"/>
<path d="M192 176H208V192H192V176Z" fill="#EBE2DD"/>
<path d="M208 176H224V192H208V176Z" fill="#EBE2DD"/>
<path d="M224 176H240V192H224V176Z" fill="#FECB4B"/>
<path d="M240 176H256V192H240V176Z" fill="#D7CEC9"/>
<path d="M256 176H272V192H256V176Z" fill="#414045"/>
<path d="M272 176H288V192H272V176Z" fill="#D7CEC9"/>
<path d="M288 176H304V192H288V176Z" fill="#D7CEC9"/>
<path d="M304 176H320V192H304V176Z" fill="#D7CEC9"/>
<path d="M320 176H336V192H320V176Z" fill="#414045"/>
<path d="M336 176H352V192H336V176Z" fill="#D7CEC9"/>
<path d="M352 176H368V192H352V176Z" fill="#FECB4B"/>
<path d="M368 176H384V192H368V176Z" fill="#FECB4B"/>
<path d="M384 176H400V192H384V176Z" fill="#FEB44B"/>
<path d="M400 176H416V192H400V176Z" fill="#FECB4B"/>
<path d="M416 176H432V192H416V176Z" fill="#FECB4B"/>
<path d="M432 176H448V192H432V176Z" fill="#D9CB4B"/>
<path d="M512 176H528V192H512V176Z" fill="#D7CEC9"/>
<path d="M528 176H544V192H528V176Z" fill="#D7CEC9"/>
<path d="M544 176H560V192H544V176Z" fill="#D7CEC9"/>
<path d="M560 176H576V192H560V176Z" fill="#D7CEC9"/>
<path d="M576 176H592V192H576V176Z" fill="#D7CEC9"/>
<path d="M592 176H608V192H592V176Z" fill="#3C271B"/>
<path d="M608 176H624V192H608V176Z" fill="#242120"/>
<path d="M624 176H640V192H624V176Z" fill="#3C271B"/>
<path d="M640 176H656V192H640V176Z" fill="#D7CEC9"/>
<path d="M656 176H672V192H656V176Z" fill="#D7CEC9"/>
<path d="M672 176H688V192H672V176Z" fill="#D7CEC9"/>
<path d="M688 176H704V192H688V176Z" fill="#EBE2DD"/>
<path d="M704 176H720V192H704V176Z" fill="#EBE2DD"/>
<path d="M720 176H736V192H720V176Z" fill="#EBE2DD"/>
<path d="M736 176H752V192H736V176Z" fill="#EBE2DD"/>
<path d="M752 176H768V192H752V176Z" fill="#FECB4B"/>
<path d="M768 176H784V192H768V176Z" fill="#414045"/>
<path d="M784 176H800V192H784V176Z" fill="#D7CEC9"/>
<path d="M800 176H816V192H800V176Z" fill="#D7CEC9"/>
<path d="M816 176H832V192H816V176Z" fill="#D7CEC9"/>
<path d="M832 176H848V192H832V176Z" fill="#414045"/>
<path d="M848 176H864V192H848V176Z" fill="#D7CEC9"/>
<path d="M864 176H880V192H864V176Z" fill="#FECB4B"/>
<path d="M880 176H896V192H880V176Z" fill="#FECB4B"/>
<path d="M896 176H912V192H896V176Z" fill="#FEB44B"/>
<path d="M912 176H928V192H912V176Z" fill="#FECB4B"/>
<path d="M928 176H944V192H928V176Z" fill="#D9CB4B"/>
<path d="M16 192H32V208H16V192Z" fill="#D7CEC9"/>
<path d="M32 192H48V208H32V192Z" fill="#D7CEC9"/>
<path d="M48 192H64V208H48V192Z" fill="#D7CEC9"/>
<path d="M64 192H80V208H64V192Z" fill="#D7CEC9"/>
<path d="M80 192H96V208H80V192Z" fill="#414045"/>
<path d="M96 192H112V208H96V192Z" fill="#3C271B"/>
<path d="M112 192H128V208H112V192Z" fill="#414045"/>
<path d="M128 192H144V208H128V192Z" fill="#D7CEC9"/>
<path d="M144 192H160V208H144V192Z" fill="#D7CEC9"/>
<path d="M160 192H176V208H160V192Z" fill="#D7CEC9"/>
<path d="M176 192H192V208H176V192Z" fill="#D7CEC9"/>
<path d="M192 192H208V208H192V192Z" fill="#EBE2DD"/>
<path d="M208 192H224V208H208V192Z" fill="#EBE2DD"/>
<path d="M224 192H240V208H224V192Z" fill="#FECB4B"/>
<path d="M240 192H256V208H240V192Z" fill="#414045"/>
<path d="M256 192H272V208H256V192Z" fill="#D7CEC9"/>
<path d="M272 192H288V208H272V192Z" fill="#414045"/>
<path d="M288 192H304V208H288V192Z" fill="#D7CEC9"/>
<path d="M304 192H320V208H304V192Z" fill="#D7CEC9"/>
<path d="M320 192H336V208H320V192Z" fill="#D7CEC9"/>
<path d="M336 192H352V208H336V192Z" fill="#FEB44B"/>
<path d="M352 192H368V208H352V192Z" fill="#414045"/>
<path d="M368 192H384V208H368V192Z" fill="#414045"/>
<path d="M384 192H400V208H384V192Z" fill="#FEB44B"/>
<path d="M400 192H416V208H400V192Z" fill="#FEB44B"/>
<path d="M416 192H432V208H416V192Z" fill="#FECB4B"/>
<path d="M432 192H448V208H432V192Z" fill="#D9CB4B"/>
<path d="M528 192H544V208H528V192Z" fill="#D7CEC9"/>
<path d="M544 192H560V208H544V192Z" fill="#D7CEC9"/>
<path d="M560 192H576V208H560V192Z" fill="#D7CEC9"/>
<path d="M576 192H592V208H576V192Z" fill="#D7CEC9"/>
<path d="M592 192H608V208H592V192Z" fill="#414045"/>
<path d="M608 192H624V208H608V192Z" fill="#3C271B"/>
<path d="M624 192H640V208H624V192Z" fill="#414045"/>
<path d="M640 192H656V208H640V192Z" fill="#D7CEC9"/>
<path d="M656 192H672V208H656V192Z" fill="#D7CEC9"/>
<path d="M672 192H688V208H672V192Z" fill="#D7CEC9"/>
<path d="M688 192H704V208H688V192Z" fill="#D7CEC9"/>
<path d="M704 192H720V208H704V192Z" fill="#EBE2DD"/>
<path d="M720 192H736V208H720V192Z" fill="#EBE2DD"/>
<path d="M736 192H752V208H736V192Z" fill="#FECB4B"/>
<path d="M752 192H768V208H752V192Z" fill="#414045"/>
<path d="M768 192H784V208H768V192Z" fill="#D7CEC9"/>
<path d="M784 192H800V208H784V192Z" fill="#414045"/>
<path d="M800 192H816V208H800V192Z" fill="#D7CEC9"/>
<path d="M816 192H832V208H816V192Z" fill="#D7CEC9"/>
<path d="M832 192H848V208H832V192Z" fill="#D7CEC9"/>
<path d="M848 192H864V208H848V192Z" fill="#FEB44B"/>
<path d="M864 192H880V208H864V192Z" fill="#414045"/>
<path d="M880 192H896V208H880V192Z" fill="#414045"/>
<path d="M896 192H912V208H896V192Z" fill="#FEB44B"/>
<path d="M912 192H928V208H912V192Z" fill="#FEB44B"/>
<path d="M928 192H944V208H928V192Z" fill="#D9CB4B"/>
<path d="M48 208H64V224H48V208Z" fill="#D7CEC9"/>
<path d="M64 208H80V224H64V208Z" fill="#D7CEC9"/>
<path d="M80 208H96V224H80V208Z" fill="#414045"/>
<path d="M96 208H112V224H96V208Z" fill="#414045"/>
<path d="M112 208H128V224H112V208Z" fill="#414045"/>
<path d="M128 208H144V224H128V208Z" fill="#414045"/>
<path d="M144 208H160V224H144V208Z" fill="#D7CEC9"/>
<path d="M160 208H176V224H160V208Z" fill="#D7CEC9"/>
<path d="M176 208H192V224H176V208Z" fill="#D7CEC9"/>
<path d="M192 208H208V224H192V208Z" fill="#D7CEC9"/>
<path d="M208 208H224V224H208V208Z" fill="#D7CEC9"/>
<path d="M224 208H240V224H224V208Z" fill="#414045"/>
<path d="M240 208H256V224H240V208Z" fill="#D7CEC9"/>
<path d="M256 208H272V224H256V208Z" fill="#414045"/>
<path d="M272 208H288V224H272V208Z" fill="#D7CEC9"/>
<path d="M288 208H304V224H288V208Z" fill="#414045"/>
<path d="M304 208H320V224H304V208Z" fill="#D7CEC9"/>
<path d="M320 208H336V224H320V208Z" fill="#D7CEC9"/>
<path d="M336 208H352V224H336V208Z" fill="#D7CEC9"/>
<path d="M352 208H368V224H352V208Z" fill="#FEB44B"/>
<path d="M368 208H384V224H368V208Z" fill="#FECB4B"/>
<path d="M384 208H400V224H384V208Z" fill="#414045"/>
<path d="M416 208H432V224H416V208Z" fill="#D9CB4B"/>
<path d="M560 208H576V224H560V208Z" fill="#D7CEC9"/>
<path d="M576 208H592V224H576V208Z" fill="#D7CEC9"/>
<path d="M592 208H608V224H592V208Z" fill="#414045"/>
<path d="M608 208H624V224H608V208Z" fill="#414045"/>
<path d="M624 208H640V224H624V208Z" fill="#414045"/>
<path d="M640 208H656V224H640V208Z" fill="#414045"/>
<path d="M656 208H672V224H656V208Z" fill="#D7CEC9"/>
<path d="M672 208H688V224H672V208Z" fill="#D7CEC9"/>
<path d="M688 208H704V224H688V208Z" fill="#D7CEC9"/>
<path d="M704 208H720V224H704V208Z" fill="#D7CEC9"/>
<path d="M720 208H736V224H720V208Z" fill="#D7CEC9"/>
<path d="M736 208H752V224H736V208Z" fill="#414045"/>
<path d="M752 208H768V224H752V208Z" fill="#D7CEC9"/>
<path d="M768 208H784V224H768V208Z" fill="#414045"/>
<path d="M784 208H800V224H784V208Z" fill="#D7CEC9"/>
<path d="M800 208H816V224H800V208Z" fill="#414045"/>
<path d="M816 208H832V224H816V208Z" fill="#D7CEC9"/>
<path d="M832 208H848V224H832V208Z" fill="#D7CEC9"/>
<path d="M848 208H864V224H848V208Z" fill="#D7CEC9"/>
<path d="M864 208H880V224H864V208Z" fill="#FEB44B"/>
<path d="M880 208H896V224H880V208Z" fill="#FECB4B"/>
<path d="M896 208H912V224H896V208Z" fill="#414045"/>
<path d="M928 208H944V224H928V208Z" fill="#D9CB4B"/>
<path d="M64 224H80V240H64V224Z" fill="#414045"/>
<path d="M80 224H96V240H80V224Z" fill="#414045"/>
<path d="M96 224H112V240H96V224Z" fill="#414045"/>
<path d="M112 224H128V240H112V224Z" fill="#414045"/>
<path d="M128 224H144V240H128V224Z" fill="#414045"/>
<path d="M144 224H160V240H144V224Z" fill="#D7CEC9"/>
<path d="M160 224H176V240H160V224Z" fill="#D7CEC9"/>
<path d="M176 224H192V240H176V224Z" fill="#D7CEC9"/>
<path d="M192 224H208V240H192V224Z" fill="#D7CEC9"/>
<path d="M208 224H224V240H208V224Z" fill="#414045"/>
<path d="M224 224H240V240H224V224Z" fill="#D7CEC9"/>
<path d="M240 224H256V240H240V224Z" fill="#414045"/>
<path d="M256 224H272V240H256V224Z" fill="#D7CEC9"/>
<path d="M272 224H288V240H272V224Z" fill="#414045"/>
<path d="M288 224H304V240H288V224Z" fill="#D7CEC9"/>
<path d="M304 224H320V240H304V224Z" fill="#414045"/>
<path d="M320 224H336V240H320V224Z" fill="#414045"/>
<path d="M336 224H352V240H336V224Z" fill="#D7CEC9"/>
<path d="M352 224H368V240H352V224Z" fill="#D7CEC9"/>
<path d="M368 224H384V240H368V224Z" fill="#FEB44B"/>
<path d="M384 224H400V240H384V224Z" fill="#FECB4B"/>
<path d="M400 224H416V240H400V224Z" fill="#414045"/>
<path d="M576 224H592V240H576V224Z" fill="#414045"/>
<path d="M592 224H608V240H592V224Z" fill="#414045"/>
<path d="M608 224H624V240H608V224Z" fill="#414045"/>
<path d="M624 224H640V240H624V224Z" fill="#414045"/>
<path d="M640 224H656V240H640V224Z" fill="#414045"/>
<path d="M656 224H672V240H656V224Z" fill="#D7CEC9"/>
<path d="M672 224H688V240H672V224Z" fill="#D7CEC9"/>
<path d="M688 224H704V240H688V224Z" fill="#D7CEC9"/>
<path d="M704 224H720V240H704V224Z" fill="#D7CEC9"/>
<path d="M720 224H736V240H720V224Z" fill="#414045"/>
<path d="M736 224H752V240H736V224Z" fill="#D7CEC9"/>
<path d="M752 224H768V240H752V224Z" fill="#414045"/>
<path d="M768 224H784V240H768V224Z" fill="#D7CEC9"/>
<path d="M784 224H800V240H784V224Z" fill="#414045"/>
<path d="M800 224H816V240H800V224Z" fill="#D7CEC9"/>
<path d="M816 224H832V240H816V224Z" fill="#414045"/>
<path d="M832 224H848V240H832V224Z" fill="#414045"/>
<path d="M848 224H864V240H848V224Z" fill="#D7CEC9"/>
<path d="M864 224H880V240H864V224Z" fill="#D7CEC9"/>
<path d="M880 224H896V240H880V224Z" fill="#FEB44B"/>
<path d="M896 224H912V240H896V224Z" fill="#FECB4B"/>
<path d="M912 224H928V240H912V224Z" fill="#414045"/>
<path d="M80 240H96V256H80V240Z" fill="#414045"/>
<path d="M96 240H112V256H96V240Z" fill="#414045"/>
<path d="M112 240H128V256H112V240Z" fill="#414045"/>
<path d="M128 240H144V256H128V240Z" fill="#414045"/>
<path d="M144 240H160V256H144V240Z" fill="#D7CEC9"/>
<path d="M160 240H176V256H160V240Z" fill="#D7CEC9"/>
<path d="M176 240H192V256H176V240Z" fill="#D7CEC9"/>
<path d="M192 240H208V256H192V240Z" fill="#D7CEC9"/>
<path d="M208 240H224V256H208V240Z" fill="#D7CEC9"/>
<path d="M224 240H240V256H224V240Z" fill="#414045"/>
<path d="M240 240H256V256H240V240Z" fill="#D7CEC9"/>
<path d="M256 240H272V256H256V240Z" fill="#414045"/>
<path d="M272 240H288V256H272V240Z" fill="#D7CEC9"/>
<path d="M288 240H304V256H288V240Z" fill="#414045"/>
<path d="M304 240H320V256H304V240Z" fill="#D7CEC9"/>
<path d="M320 240H336V256H320V240Z" fill="#D7CEC9"/>
<path d="M336 240H352V256H336V240Z" fill="#D7CEC9"/>
<path d="M352 240H368V256H352V240Z" fill="#D7CEC9"/>
<path d="M368 240H384V256H368V240Z" fill="#FEB44B"/>
<path d="M384 240H400V256H384V240Z" fill="#FECB4B"/>
<path d="M400 240H416V256H400V240Z" fill="#FECB4B"/>
<path d="M416 240H432V256H416V240Z" fill="#414045"/>
<path d="M592 240H608V256H592V240Z" fill="#414045"/>
<path d="M608 240H624V256H608V240Z" fill="#414045"/>
<path d="M624 240H640V256H624V240Z" fill="#414045"/>
<path d="M640 240H656V256H640V240Z" fill="#414045"/>
<path d="M656 240H672V256H656V240Z" fill="#D7CEC9"/>
<path d="M672 240H688V256H672V240Z" fill="#D7CEC9"/>
<path d="M688 240H704V256H688V240Z" fill="#D7CEC9"/>
<path d="M704 240H720V256H704V240Z" fill="#D7CEC9"/>
<path d="M720 240H736V256H720V240Z" fill="#D7CEC9"/>
<path d="M736 240H752V256H736V240Z" fill="#414045"/>
<path d="M752 240H768V256H752V240Z" fill="#D7CEC9"/>
<path d="M768 240H784V256H768V240Z" fill="#414045"/>
<path d="M784 240H800V256H784V240Z" fill="#D7CEC9"/>
<path d="M800 240H816V256H800V240Z" fill="#414045"/>
<path d="M816 240H832V256H816V240Z" fill="#D7CEC9"/>
<path d="M832 240H848V256H832V240Z" fill="#D7CEC9"/>
<path d="M848 240H864V256H848V240Z" fill="#D7CEC9"/>
<path d="M864 240H880V256H864V240Z" fill="#D7CEC9"/>
<path d="M880 240H896V256H880V240Z" fill="#FEB44B"/>
<path d="M896 240H912V256H896V240Z" fill="#FECB4B"/>
<path d="M912 240H928V256H912V240Z" fill="#FECB4B"/>
<path d="M928 240H944V256H928V240Z" fill="#414045"/>
<path d="M96 256H112V272H96V256Z" fill="#414045"/>
<path d="M112 256H128V272H112V256Z" fill="#414045"/>
<path d="M128 256H144V272H128V256Z" fill="#D7CEC9"/>
<path d="M144 256H160V272H144V256Z" fill="#D7CEC9"/>
<path d="M160 256H176V272H160V256Z" fill="#D7CEC9"/>
<path d="M176 256H192V272H176V256Z" fill="#D7CEC9"/>
<path d="M192 256H208V272H192V256Z" fill="#D7CEC9"/>
<path d="M208 256H224V272H208V256Z" fill="#D7CEC9"/>
<path d="M224 256H240V272H224V256Z" fill="#D7CEC9"/>
<path d="M240 256H256V272H240V256Z" fill="#414045"/>
<path d="M256 256H272V272H256V256Z" fill="#D7CEC9"/>
<path d="M272 256H288V272H272V256Z" fill="#414045"/>
<path d="M288 256H304V272H288V256Z" fill="#D7CEC9"/>
<path d="M304 256H320V272H304V256Z" fill="#D7CEC9"/>
<path d="M320 256H336V272H320V256Z" fill="#D7CEC9"/>
<path d="M336 256H352V272H336V256Z" fill="#D7CEC9"/>
<path d="M352 256H368V272H352V256Z" fill="#D7CEC9"/>
<path d="M368 256H384V272H368V256Z" fill="#D7CEC9"/>
<path d="M384 256H400V272H384V256Z" fill="#FEB44B"/>
<path d="M400 256H416V272H400V256Z" fill="#FECB4B"/>
<path d="M416 256H432V272H416V256Z" fill="#414045"/>
<path d="M608 256H624V272H608V256Z" fill="#414045"/>
<path d="M624 256H640V272H624V256Z" fill="#414045"/>
<path d="M640 256H656V272H640V256Z" fill="#D7CEC9"/>
<path d="M656 256H672V272H656V256Z" fill="#D7CEC9"/>
<path d="M672 256H688V272H672V256Z" fill="#D7CEC9"/>
<path d="M688 256H704V272H688V256Z" fill="#D7CEC9"/>
<path d="M704 256H720V272H704V256Z" fill="#D7CEC9"/>
<path d="M720 256H736V272H720V256Z" fill="#D7CEC9"/>
<path d="M736 256H752V272H736V256Z" fill="#D7CEC9"/>
<path d="M752 256H768V272H752V256Z" fill="#414045"/>
<path d="M768 256H784V272H768V256Z" fill="#D7CEC9"/>
<path d="M784 256H800V272H784V256Z" fill="#414045"/>
<path d="M800 256H816V272H800V256Z" fill="#D7CEC9"/>
<path d="M816 256H832V272H816V256Z" fill="#D7CEC9"/>
<path d="M832 256H848V272H832V256Z" fill="#D7CEC9"/>
<path d="M848 256H864V272H848V256Z" fill="#D7CEC9"/>
<path d="M864 256H880V272H864V256Z" fill="#D7CEC9"/>
<path d="M880 256H896V272H880V256Z" fill="#D7CEC9"/>
<path d="M896 256H912V272H896V256Z" fill="#FEB44B"/>
<path d="M912 256H928V272H912V256Z" fill="#FECB4B"/>
<path d="M928 256H944V272H928V256Z" fill="#414045"/>
<path d="M144 272H160V288H144V272Z" fill="#FECB4B"/>
<path d="M160 272H176V288H160V272Z" fill="#FECB4B"/>
<path d="M176 272H192V288H176V272Z" fill="#D7CEC9"/>
<path d="M192 272H208V288H192V272Z" fill="#D7CEC9"/>
<path d="M208 272H224V288H208V272Z" fill="#D7CEC9"/>
<path d="M224 272H240V288H224V272Z" fill="#D7CEC9"/>
<path d="M240 272H256V288H240V272Z" fill="#D7CEC9"/>
<path d="M256 272H272V288H256V272Z" fill="#D7CEC9"/>
<path d="M272 272H288V288H272V272Z" fill="#D7CEC9"/>
<path d="M288 272H304V288H288V272Z" fill="#D7CEC9"/>
<path d="M320 272H336V288H320V272Z" fill="#414045"/>
<path d="M336 272H352V288H336V272Z" fill="#FEB44B"/>
<path d="M352 272H368V288H352V272Z" fill="#FEB44B"/>
<path d="M368 272H384V288H368V272Z" fill="#FEB44B"/>
<path d="M384 272H400V288H384V272Z" fill="#FECB4B"/>
<path d="M400 272H416V288H400V272Z" fill="#414045"/>
<path d="M656 272H672V288H656V272Z" fill="#FECB4B"/>
<path d="M672 272H688V288H672V272Z" fill="#FECB4B"/>
<path d="M688 272H704V288H688V272Z" fill="#D7CEC9"/>
<path d="M704 272H720V288H704V272Z" fill="#D7CEC9"/>
<path d="M720 272H736V288H720V272Z" fill="#D7CEC9"/>
<path d="M736 272H752V288H736V272Z" fill="#D7CEC9"/>
<path d="M752 272H768V288H752V272Z" fill="#D7CEC9"/>
<path d="M768 272H784V288H768V272Z" fill="#D7CEC9"/>
<path d="M784 272H800V288H784V272Z" fill="#D7CEC9"/>
<path d="M800 272H816V288H800V272Z" fill="#D7CEC9"/>
<path d="M832 272H848V288H832V272Z" fill="#414045"/>
<path d="M848 272H864V288H848V272Z" fill="#FEB44B"/>
<path d="M864 272H880V288H864V272Z" fill="#FEB44B"/>
<path d="M880 272H896V288H880V272Z" fill="#FEB44B"/>
<path d="M896 272H912V288H896V272Z" fill="#FECB4B"/>
<path d="M912 272H928V288H912V272Z" fill="#414045"/>
<path d="M160 288H176V304H160V288Z" fill="#FECB4B"/>
<path d="M176 288H192V304H176V288Z" fill="#FECB4B"/>
<path d="M336 288H352V304H336V288Z" fill="#414045"/>
<path d="M352 288H368V304H352V288Z" fill="#414045"/>
<path d="M368 288H384V304H368V288Z" fill="#414045"/>
<path d="M384 288H400V304H384V288Z" fill="#414045"/>
<path d="M672 288H688V304H672V288Z" fill="#FECB4B"/>
<path d="M688 288H704V304H688V288Z" fill="#FECB4B"/>
<path d="M848 288H864V304H848V288Z" fill="#414045"/>
<path d="M864 288H880V304H864V288Z" fill="#414045"/>
<path d="M880 288H896V304H880V288Z" fill="#414045"/>
<path d="M896 288H912V304H896V288Z" fill="#414045"/>
<path d="M192 304H208V320H192V304Z" fill="#FECB4B"/>
<path d="M688 304H704V320H688V304Z" fill="#FECB4B"/>
</svg>
