<svg viewBox="0 0 1536 768" xmlns="http://www.w3.org/2000/svg" version="1.1"><path d="m352 240h16v16h-16z" fill="#ffd42f"></path><path d="m384 240h16v16h-16z" fill="#ffd42f"></path><path d="m432 240h16v16h-16z" fill="#ffd42f"></path><path d="m1120 240h16v16h-16z" fill="#ffd42f"></path><path d="m1152 240h16v16h-16z" fill="#ffd42f"></path><path d="m1200 240h16v16h-16z" fill="#ffd42f"></path><path d="m352 256h16v16h-16z" fill="#ffd42f"></path><path d="m384 256h16v16h-16z" fill="#ffd42f"></path><path d="m416 256h16v16h-16z" fill="#ffd42f"></path><path d="m464 256h16v16h-16z" fill="#ffd42f"></path><path d="m1120 256h16v16h-16z" fill="#ffd42f"></path><path d="m1152 256h16v16h-16z" fill="#ffd42f"></path><path d="m1184 256h16v16h-16z" fill="#ffd42f"></path><path d="m1232 256h16v16h-16z" fill="#ffd42f"></path><path d="m352 272h16v16h-16z" fill="#ffd42f"></path><path d="m384 272h16v16h-16z" fill="#ffd42f"></path><path d="m416 272h16v16h-16z" fill="#ffd42f"></path><path d="m448 272h16v16h-16z" fill="#ffd42f"></path><path d="m480 272h16v16h-16z" fill="#ffd42f"></path><path d="m1120 272h16v16h-16z" fill="#ffd42f"></path><path d="m1152 272h16v16h-16z" fill="#ffd42f"></path><path d="m1184 272h16v16h-16z" fill="#ffd42f"></path><path d="m1216 272h16v16h-16z" fill="#ffd42f"></path><path d="m1248 272h16v16h-16z" fill="#ffd42f"></path><path d="m336 288h16v16h-16z" fill="#ffd42f"></path><path d="m368 288h16v16h-16z" fill="#ffd42f"></path><path d="m400 288h16v16h-16z" fill="#ffd42f"></path><path d="m432 288h16v16h-16z" fill="#ffd42f"></path><path d="m464 288h16v16h-16z" fill="#ffd42f"></path><path d="m480 288h16v16h-16z" fill="#ffd42f"></path><path d="m496 288h16v16h-16z" fill="#414045"></path><path d="m1104 288h16v16h-16z" fill="#ffd42f"></path><path d="m1136 288h16v16h-16z" fill="#ffd42f"></path><path d="m1168 288h16v16h-16z" fill="#ffd42f"></path><path d="m1200 288h16v16h-16z" fill="#ffd42f"></path><path d="m1232 288h16v16h-16z" fill="#ffd42f"></path><path d="m1248 288h16v16h-16z" fill="#ffd42f"></path><path d="m1264 288h16v16h-16z" fill="#414045"></path><path d="m336 304h16v16h-16z" fill="#ffd42f"></path><path d="m352 304h16v16h-16z" fill="#ffd42f"></path><path d="m368 304h16v16h-16z" fill="#ffd42f"></path><path d="m384 304h16v16h-16z" fill="#ffd42f"></path><path d="m400 304h16v16h-16z" fill="#ffd42f"></path><path d="m416 304h16v16h-16z" fill="#ffd42f"></path><path d="m448 304h16v16h-16z" fill="#ffd42f"></path><path d="m464 304h16v16h-16z" fill="#ffd42f"></path><path d="m480 304h16v16h-16z" fill="#ffd42f"></path><path d="m496 304h16v16h-16z" fill="#ffd42f"></path><path d="m512 304h16v16h-16z" fill="#414045"></path><path d="m1104 304h16v16h-16z" fill="#ffd42f"></path><path d="m1120 304h16v16h-16z" fill="#ffd42f"></path><path d="m1136 304h16v16h-16z" fill="#ffd42f"></path><path d="m1152 304h16v16h-16z" fill="#ffd42f"></path><path d="m1168 304h16v16h-16z" fill="#ffd42f"></path><path d="m1184 304h16v16h-16z" fill="#ffd42f"></path><path d="m1216 304h16v16h-16z" fill="#ffd42f"></path><path d="m1232 304h16v16h-16z" fill="#ffd42f"></path><path d="m1248 304h16v16h-16z" fill="#ffd42f"></path><path d="m1264 304h16v16h-16z" fill="#ffd42f"></path><path d="m1280 304h16v16h-16z" fill="#414045"></path><path d="m320 320h16v16h-16z" fill="#414045"></path><path d="m336 320h16v16h-16z" fill="#ffd42f"></path><path d="m352 320h16v16h-16z" fill="#ffd42f"></path><path d="m368 320h16v16h-16z" fill="#ffd42f"></path><path d="m384 320h16v16h-16z" fill="#ffd42f"></path><path d="m400 320h16v16h-16z" fill="#ffd42f"></path><path d="m416 320h16v16h-16z" fill="#ffd42f"></path><path d="m432 320h16v16h-16z" fill="#ffd42f"></path><path d="m448 320h16v16h-16z" fill="#ffd42f"></path><path d="m464 320h16v16h-16z" fill="#ffd42f"></path><path d="m480 320h16v16h-16z" fill="#ffd42f"></path><path d="m496 320h16v16h-16z" fill="#ffd42f"></path><path d="m512 320h16v16h-16z" fill="#ffd42f"></path><path d="m528 320h16v16h-16z" fill="#414045"></path><path d="m1088 320h16v16h-16z" fill="#414045"></path><path d="m1104 320h16v16h-16z" fill="#ffd42f"></path><path d="m1120 320h16v16h-16z" fill="#ffd42f"></path><path d="m1136 320h16v16h-16z" fill="#ffd42f"></path><path d="m1152 320h16v16h-16z" fill="#ffd42f"></path><path d="m1168 320h16v16h-16z" fill="#ffd42f"></path><path d="m1184 320h16v16h-16z" fill="#ffd42f"></path><path d="m1200 320h16v16h-16z" fill="#ffd42f"></path><path d="m1216 320h16v16h-16z" fill="#ffd42f"></path><path d="m1232 320h16v16h-16z" fill="#ffd42f"></path><path d="m1248 320h16v16h-16z" fill="#ffd42f"></path><path d="m1264 320h16v16h-16z" fill="#ffd42f"></path><path d="m1280 320h16v16h-16z" fill="#ffd42f"></path><path d="m1296 320h16v16h-16z" fill="#414045"></path><path d="m304 336h16v16h-16z" fill="#57565c"></path><path d="m320 336h16v16h-16z" fill="#414045"></path><path d="m336 336h16v16h-16z" fill="#ffd42f"></path><path d="m352 336h16v16h-16z" fill="#ffd42f"></path><path d="m368 336h16v16h-16z" fill="#ffd42f"></path><path d="m384 336h16v16h-16z" fill="#ffdd61"></path><path d="m400 336h16v16h-16z" fill="#ffdd61"></path><path d="m416 336h16v16h-16z" fill="#ffdd61"></path><path d="m432 336h16v16h-16z" fill="#ffdd61"></path><path d="m448 336h16v16h-16z" fill="#ffdd61"></path><path d="m464 336h16v16h-16z" fill="#ffd42f"></path><path d="m480 336h16v16h-16z" fill="#ffd42f"></path><path d="m496 336h16v16h-16z" fill="#ffd42f"></path><path d="m512 336h16v16h-16z" fill="#ffd42f"></path><path d="m528 336h16v16h-16z" fill="#414045"></path><path d="m1072 336h16v16h-16z" fill="#57565c"></path><path d="m1088 336h16v16h-16z" fill="#414045"></path><path d="m1104 336h16v16h-16z" fill="#ffd42f"></path><path d="m1120 336h16v16h-16z" fill="#ffd42f"></path><path d="m1136 336h16v16h-16z" fill="#ffd42f"></path><path d="m1152 336h16v16h-16z" fill="#ffdd61"></path><path d="m1168 336h16v16h-16z" fill="#ffdd61"></path><path d="m1184 336h16v16h-16z" fill="#ffdd61"></path><path d="m1200 336h16v16h-16z" fill="#ffdd61"></path><path d="m1216 336h16v16h-16z" fill="#ffdd61"></path><path d="m1232 336h16v16h-16z" fill="#ffd42f"></path><path d="m1248 336h16v16h-16z" fill="#ffd42f"></path><path d="m1264 336h16v16h-16z" fill="#ffd42f"></path><path d="m1280 336h16v16h-16z" fill="#ffd42f"></path><path d="m1296 336h16v16h-16z" fill="#414045"></path><path d="m288 352h16v16h-16z" fill="#57565c"></path><path d="m304 352h16v16h-16z" fill="#57565c"></path><path d="m320 352h16v16h-16z" fill="#414045"></path><path d="m336 352h16v16h-16z" fill="#ffd42f"></path><path d="m352 352h16v16h-16z" fill="#ffd42f"></path><path d="m368 352h16v16h-16z" fill="#ffdd61"></path><path d="m384 352h16v16h-16z" fill="#ffdd61"></path><path d="m400 352h16v16h-16z" fill="#ffdd61"></path><path d="m416 352h16v16h-16z" fill="#ffdd61"></path><path d="m432 352h16v16h-16z" fill="#ffdd61"></path><path d="m448 352h16v16h-16z" fill="#ffdd61"></path><path d="m464 352h16v16h-16z" fill="#ffdd61"></path><path d="m480 352h16v16h-16z" fill="#ffd42f"></path><path d="m496 352h16v16h-16z" fill="#ffd42f"></path><path d="m512 352h16v16h-16z" fill="#ffd42f"></path><path d="m528 352h16v16h-16z" fill="#414045"></path><path d="m544 352h16v16h-16z" fill="#414045"></path><path d="m560 352h16v16h-16z" fill="#414045"></path><path d="m1056 352h16v16h-16z" fill="#57565c"></path><path d="m1072 352h16v16h-16z" fill="#57565c"></path><path d="m1088 352h16v16h-16z" fill="#414045"></path><path d="m1104 352h16v16h-16z" fill="#ffd42f"></path><path d="m1120 352h16v16h-16z" fill="#ffd42f"></path><path d="m1136 352h16v16h-16z" fill="#ffdd61"></path><path d="m1152 352h16v16h-16z" fill="#ffdd61"></path><path d="m1168 352h16v16h-16z" fill="#ffdd61"></path><path d="m1184 352h16v16h-16z" fill="#ffdd61"></path><path d="m1200 352h16v16h-16z" fill="#ffdd61"></path><path d="m1216 352h16v16h-16z" fill="#ffdd61"></path><path d="m1232 352h16v16h-16z" fill="#ffdd61"></path><path d="m1248 352h16v16h-16z" fill="#ffd42f"></path><path d="m1264 352h16v16h-16z" fill="#ffd42f"></path><path d="m1280 352h16v16h-16z" fill="#ffd42f"></path><path d="m1296 352h16v16h-16z" fill="#414045"></path><path d="m1328 352h16v16h-16z" fill="#414045"></path><path d="m1344 352h16v16h-16z" fill="#414045"></path><path d="m272 368h16v16h-16z" fill="#57565c"></path><path d="m288 368h16v16h-16z" fill="#57565c"></path><path d="m304 368h16v16h-16z" fill="#414045"></path><path d="m320 368h16v16h-16z" fill="#414045"></path><path d="m336 368h16v16h-16z" fill="#414045"></path><path d="m352 368h16v16h-16z" fill="#ffd42f"></path><path d="m368 368h16v16h-16z" fill="#ffd42f"></path><path d="m384 368h16v16h-16z" fill="#ffd42f"></path><path d="m400 368h16v16h-16z" fill="#ffd42f"></path><path d="m416 368h16v16h-16z" fill="#ffd42f"></path><path d="m432 368h16v16h-16z" fill="#ffd42f"></path><path d="m448 368h16v16h-16z" fill="#ffd42f"></path><path d="m464 368h16v16h-16z" fill="#ffdd61"></path><path d="m480 368h16v16h-16z" fill="#ffdd61"></path><path d="m496 368h16v16h-16z" fill="#ffd42f"></path><path d="m512 368h16v16h-16z" fill="#414045"></path><path d="m544 368h16v16h-16z" fill="#414045"></path><path d="m560 368h16v16h-16z" fill="#414045"></path><path d="m1040 368h16v16h-16z" fill="#57565c"></path><path d="m1056 368h16v16h-16z" fill="#57565c"></path><path d="m1072 368h16v16h-16z" fill="#414045"></path><path d="m1088 368h16v16h-16z" fill="#414045"></path><path d="m1104 368h16v16h-16z" fill="#414045"></path><path d="m1120 368h16v16h-16z" fill="#ffd42f"></path><path d="m1136 368h16v16h-16z" fill="#ffd42f"></path><path d="m1152 368h16v16h-16z" fill="#ffd42f"></path><path d="m1168 368h16v16h-16z" fill="#ffd42f"></path><path d="m1184 368h16v16h-16z" fill="#ffd42f"></path><path d="m1200 368h16v16h-16z" fill="#ffd42f"></path><path d="m1216 368h16v16h-16z" fill="#ffd42f"></path><path d="m1232 368h16v16h-16z" fill="#ffdd61"></path><path d="m1248 368h16v16h-16z" fill="#ffdd61"></path><path d="m1264 368h16v16h-16z" fill="#ffd42f"></path><path d="m1280 368h16v16h-16z" fill="#414045"></path><path d="m1312 368h16v16h-16z" fill="#414045"></path><path d="m1328 368h16v16h-16z" fill="#414045"></path><path d="m1344 368h16v16h-16z" fill="#414045"></path><path d="m256 384h16v16h-16z" fill="#57565c"></path><path d="m272 384h16v16h-16z" fill="#57565c"></path><path d="m288 384h16v16h-16z" fill="#414045"></path><path d="m304 384h16v16h-16z" fill="#e7ded9"></path><path d="m320 384h16v16h-16z" fill="#414045"></path><path d="m336 384h16v16h-16z" fill="#414045"></path><path d="m352 384h16v16h-16z" fill="#ffd42f"></path><path d="m368 384h16v16h-16z" fill="#ffd42f"></path><path d="m384 384h16v16h-16z" fill="#ffd42f"></path><path d="m400 384h16v16h-16z" fill="#ffd42f"></path><path d="m416 384h16v16h-16z" fill="#ffd42f"></path><path d="m432 384h16v16h-16z" fill="#ffd42f"></path><path d="m448 384h16v16h-16z" fill="#ffd42f"></path><path d="m464 384h16v16h-16z" fill="#ffd42f"></path><path d="m480 384h16v16h-16z" fill="#ffd42f"></path><path d="m496 384h16v16h-16z" fill="#ffdd61"></path><path d="m512 384h16v16h-16z" fill="#ffd42f"></path><path d="m528 384h16v16h-16z" fill="#ffd42f"></path><path d="m544 384h16v16h-16z" fill="#e7ded9"></path><path d="m560 384h16v16h-16z" fill="#414045"></path><path d="m1024 384h16v16h-16z" fill="#57565c"></path><path d="m1040 384h16v16h-16z" fill="#57565c"></path><path d="m1056 384h16v16h-16z" fill="#414045"></path><path d="m1072 384h16v16h-16z" fill="#e7ded9"></path><path d="m1088 384h16v16h-16z" fill="#414045"></path><path d="m1104 384h16v16h-16z" fill="#414045"></path><path d="m1120 384h16v16h-16z" fill="#ffd42f"></path><path d="m1136 384h16v16h-16z" fill="#ffd42f"></path><path d="m1152 384h16v16h-16z" fill="#ffd42f"></path><path d="m1168 384h16v16h-16z" fill="#ffd42f"></path><path d="m1184 384h16v16h-16z" fill="#ffd42f"></path><path d="m1200 384h16v16h-16z" fill="#ffd42f"></path><path d="m1216 384h16v16h-16z" fill="#ffd42f"></path><path d="m1232 384h16v16h-16z" fill="#ffd42f"></path><path d="m1248 384h16v16h-16z" fill="#ffd42f"></path><path d="m1264 384h16v16h-16z" fill="#ffdd61"></path><path d="m1280 384h16v16h-16z" fill="#ffd42f"></path><path d="m1296 384h16v16h-16z" fill="#ffd42f"></path><path d="m1312 384h16v16h-16z" fill="#e7ded9"></path><path d="m1328 384h16v16h-16z" fill="#e7ded9"></path><path d="m1344 384h16v16h-16z" fill="#414045"></path><path d="m160 400h16v16h-16z" fill="#414045"></path><path d="m176 400h16v16h-16z" fill="#414045"></path><path d="m192 400h16v16h-16z" fill="#414045"></path><path d="m208 400h16v16h-16z" fill="#414045"></path><path d="m224 400h16v16h-16z" fill="#414045"></path><path d="m240 400h16v16h-16z" fill="#414045"></path><path d="m256 400h16v16h-16z" fill="#414045"></path><path d="m272 400h16v16h-16z" fill="#414045"></path><path d="m288 400h16v16h-16z" fill="#e7ded9"></path><path d="m304 400h16v16h-16z" fill="#28282c"></path><path d="m320 400h16v16h-16z" fill="#e7ded9"></path><path d="m336 400h16v16h-16z" fill="#414045"></path><path d="m352 400h16v16h-16z" fill="#ffd42f"></path><path d="m368 400h16v16h-16z" fill="#ffd42f"></path><path d="m384 400h16v16h-16z" fill="#ffd42f"></path><path d="m400 400h16v16h-16z" fill="#ffd42f"></path><path d="m416 400h16v16h-16z" fill="#ffd42f"></path><path d="m432 400h16v16h-16z" fill="#ffd42f"></path><path d="m448 400h16v16h-16z" fill="#ffd42f"></path><path d="m464 400h16v16h-16z" fill="#ffd42f"></path><path d="m480 400h16v16h-16z" fill="#ffd42f"></path><path d="m496 400h16v16h-16z" fill="#ffd42f"></path><path d="m512 400h16v16h-16z" fill="#ffd42f"></path><path d="m528 400h16v16h-16z" fill="#ffd42f"></path><path d="m544 400h16v16h-16z" fill="#414045"></path><path d="m928 400h16v16h-16z" fill="#414045"></path><path d="m944 400h16v16h-16z" fill="#414045"></path><path d="m960 400h16v16h-16z" fill="#414045"></path><path d="m976 400h16v16h-16z" fill="#414045"></path><path d="m992 400h16v16h-16z" fill="#414045"></path><path d="m1008 400h16v16h-16z" fill="#414045"></path><path d="m1024 400h16v16h-16z" fill="#414045"></path><path d="m1040 400h16v16h-16z" fill="#414045"></path><path d="m1056 400h16v16h-16z" fill="#e7ded9"></path><path d="m1072 400h16v16h-16z" fill="#28282c"></path><path d="m1088 400h16v16h-16z" fill="#e7ded9"></path><path d="m1104 400h16v16h-16z" fill="#414045"></path><path d="m1120 400h16v16h-16z" fill="#ffd42f"></path><path d="m1136 400h16v16h-16z" fill="#ffd42f"></path><path d="m1152 400h16v16h-16z" fill="#ffd42f"></path><path d="m1168 400h16v16h-16z" fill="#ffd42f"></path><path d="m1184 400h16v16h-16z" fill="#ffd42f"></path><path d="m1200 400h16v16h-16z" fill="#ffd42f"></path><path d="m1216 400h16v16h-16z" fill="#ffd42f"></path><path d="m1232 400h16v16h-16z" fill="#ffd42f"></path><path d="m1248 400h16v16h-16z" fill="#ffd42f"></path><path d="m1264 400h16v16h-16z" fill="#ffd42f"></path><path d="m1280 400h16v16h-16z" fill="#ffd42f"></path><path d="m1296 400h16v16h-16z" fill="#ffd42f"></path><path d="m1312 400h16v16h-16z" fill="#414045"></path><path d="m1328 400h16v16h-16z" fill="#414045"></path><path d="m176 416h16v16h-16z" fill="#e7ded9"></path><path d="m192 416h16v16h-16z" fill="#e7ded9"></path><path d="m208 416h16v16h-16z" fill="#e7ded9"></path><path d="m224 416h16v16h-16z" fill="#e7ded9"></path><path d="m240 416h16v16h-16z" fill="#e7ded9"></path><path d="m256 416h16v16h-16z" fill="#e7ded9"></path><path d="m272 416h16v16h-16z" fill="#e7ded9"></path><path d="m288 416h16v16h-16z" fill="#e7ded9"></path><path d="m304 416h16v16h-16z" fill="#e7ded9"></path><path d="m320 416h16v16h-16z" fill="#414045"></path><path d="m336 416h16v16h-16z" fill="#414045"></path><path d="m352 416h16v16h-16z" fill="#ffd42f"></path><path d="m368 416h16v16h-16z" fill="#ffd42f"></path><path d="m384 416h16v16h-16z" fill="#ffd42f"></path><path d="m400 416h16v16h-16z" fill="#ffd42f"></path><path d="m416 416h16v16h-16z" fill="#ffd42f"></path><path d="m432 416h16v16h-16z" fill="#ffd42f"></path><path d="m448 416h16v16h-16z" fill="#ffd42f"></path><path d="m464 416h16v16h-16z" fill="#ffd42f"></path><path d="m480 416h16v16h-16z" fill="#ffd42f"></path><path d="m496 416h16v16h-16z" fill="#ffd42f"></path><path d="m512 416h16v16h-16z" fill="#ffd42f"></path><path d="m528 416h16v16h-16z" fill="#ffd42f"></path><path d="m544 416h16v16h-16z" fill="#414045"></path><path d="m944 416h16v16h-16z" fill="#e7ded9"></path><path d="m960 416h16v16h-16z" fill="#e7ded9"></path><path d="m976 416h16v16h-16z" fill="#e7ded9"></path><path d="m992 416h16v16h-16z" fill="#e7ded9"></path><path d="m1008 416h16v16h-16z" fill="#e7ded9"></path><path d="m1024 416h16v16h-16z" fill="#e7ded9"></path><path d="m1040 416h16v16h-16z" fill="#e7ded9"></path><path d="m1056 416h16v16h-16z" fill="#e7ded9"></path><path d="m1072 416h16v16h-16z" fill="#e7ded9"></path><path d="m1088 416h16v16h-16z" fill="#414045"></path><path d="m1104 416h16v16h-16z" fill="#414045"></path><path d="m1120 416h16v16h-16z" fill="#ffd42f"></path><path d="m1136 416h16v16h-16z" fill="#ffd42f"></path><path d="m1152 416h16v16h-16z" fill="#ffd42f"></path><path d="m1168 416h16v16h-16z" fill="#ffd42f"></path><path d="m1184 416h16v16h-16z" fill="#ffd42f"></path><path d="m1200 416h16v16h-16z" fill="#ffd42f"></path><path d="m1216 416h16v16h-16z" fill="#ffd42f"></path><path d="m1232 416h16v16h-16z" fill="#ffd42f"></path><path d="m1248 416h16v16h-16z" fill="#ffd42f"></path><path d="m1264 416h16v16h-16z" fill="#ffd42f"></path><path d="m1280 416h16v16h-16z" fill="#ffd42f"></path><path d="m1296 416h16v16h-16z" fill="#ffd42f"></path><path d="m1312 416h16v16h-16z" fill="#e7ded9"></path><path d="m1328 416h16v16h-16z" fill="#414045"></path><path d="m240 432h16v16h-16z" fill="#e7ded9"></path><path d="m256 432h16v16h-16z" fill="#e7ded9"></path><path d="m272 432h16v16h-16z" fill="#e7ded9"></path><path d="m288 432h16v16h-16z" fill="#e7ded9"></path><path d="m304 432h16v16h-16z" fill="#e7ded9"></path><path d="m320 432h16v16h-16z" fill="#e7ded9"></path><path d="m336 432h16v16h-16z" fill="#e7ded9"></path><path d="m352 432h16v16h-16z" fill="#e7ded9"></path><path d="m368 432h16v16h-16z" fill="#ffd42f"></path><path d="m384 432h16v16h-16z" fill="#ffd42f"></path><path d="m400 432h16v16h-16z" fill="#ffd42f"></path><path d="m416 432h16v16h-16z" fill="#ffd42f"></path><path d="m432 432h16v16h-16z" fill="#ffd42f"></path><path d="m448 432h16v16h-16z" fill="#ffd42f"></path><path d="m464 432h16v16h-16z" fill="#ffd42f"></path><path d="m480 432h16v16h-16z" fill="#ffd42f"></path><path d="m496 432h16v16h-16z" fill="#414045"></path><path d="m512 432h16v16h-16z" fill="#414045"></path><path d="m528 432h16v16h-16z" fill="#ffd42f"></path><path d="m544 432h16v16h-16z" fill="#414045"></path><path d="m560 432h16v16h-16z" fill="#414045"></path><path d="m1008 432h16v16h-16z" fill="#e7ded9"></path><path d="m1024 432h16v16h-16z" fill="#e7ded9"></path><path d="m1040 432h16v16h-16z" fill="#e7ded9"></path><path d="m1056 432h16v16h-16z" fill="#e7ded9"></path><path d="m1072 432h16v16h-16z" fill="#e7ded9"></path><path d="m1088 432h16v16h-16z" fill="#e7ded9"></path><path d="m1104 432h16v16h-16z" fill="#e7ded9"></path><path d="m1120 432h16v16h-16z" fill="#e7ded9"></path><path d="m1136 432h16v16h-16z" fill="#ffd42f"></path><path d="m1152 432h16v16h-16z" fill="#ffd42f"></path><path d="m1168 432h16v16h-16z" fill="#ffd42f"></path><path d="m1184 432h16v16h-16z" fill="#ffd42f"></path><path d="m1200 432h16v16h-16z" fill="#ffd42f"></path><path d="m1216 432h16v16h-16z" fill="#ffd42f"></path><path d="m1232 432h16v16h-16z" fill="#ffd42f"></path><path d="m1248 432h16v16h-16z" fill="#ffd42f"></path><path d="m1264 432h16v16h-16z" fill="#414045"></path><path d="m1280 432h16v16h-16z" fill="#414045"></path><path d="m1296 432h16v16h-16z" fill="#ffd42f"></path><path d="m1312 432h16v16h-16z" fill="#414045"></path><path d="m1328 432h16v16h-16z" fill="#414045"></path><path d="m1344 432h16v16h-16z" fill="#414045"></path><path d="m272 448h16v16h-16z" fill="#e7ded9"></path><path d="m288 448h16v16h-16z" fill="#e7ded9"></path><path d="m304 448h16v16h-16z" fill="#e7ded9"></path><path d="m320 448h16v16h-16z" fill="#e7ded9"></path><path d="m336 448h16v16h-16z" fill="#e7ded9"></path><path d="m352 448h16v16h-16z" fill="#e7ded9"></path><path d="m368 448h16v16h-16z" fill="#e7ded9"></path><path d="m384 448h16v16h-16z" fill="#ffd42f"></path><path d="m400 448h16v16h-16z" fill="#ffd42f"></path><path d="m416 448h16v16h-16z" fill="#ffd42f"></path><path d="m432 448h16v16h-16z" fill="#ffd42f"></path><path d="m448 448h16v16h-16z" fill="#ffd42f"></path><path d="m464 448h16v16h-16z" fill="#ffd42f"></path><path d="m480 448h16v16h-16z" fill="#ffd42f"></path><path d="m496 448h16v16h-16z" fill="#414045"></path><path d="m512 448h16v16h-16z" fill="#414045"></path><path d="m544 448h16v16h-16z" fill="#e7ded9"></path><path d="m560 448h16v16h-16z" fill="#414045"></path><path d="m1040 448h16v16h-16z" fill="#e7ded9"></path><path d="m1056 448h16v16h-16z" fill="#e7ded9"></path><path d="m1072 448h16v16h-16z" fill="#e7ded9"></path><path d="m1088 448h16v16h-16z" fill="#e7ded9"></path><path d="m1104 448h16v16h-16z" fill="#e7ded9"></path><path d="m1120 448h16v16h-16z" fill="#e7ded9"></path><path d="m1136 448h16v16h-16z" fill="#e7ded9"></path><path d="m1152 448h16v16h-16z" fill="#ffd42f"></path><path d="m1168 448h16v16h-16z" fill="#ffd42f"></path><path d="m1184 448h16v16h-16z" fill="#ffd42f"></path><path d="m1200 448h16v16h-16z" fill="#ffd42f"></path><path d="m1216 448h16v16h-16z" fill="#ffd42f"></path><path d="m1232 448h16v16h-16z" fill="#ffd42f"></path><path d="m1248 448h16v16h-16z" fill="#ffd42f"></path><path d="m1264 448h16v16h-16z" fill="#414045"></path><path d="m1280 448h16v16h-16z" fill="#414045"></path><path d="m1312 448h16v16h-16z" fill="#ffd42f"></path><path d="m1328 448h16v16h-16z" fill="#e7ded9"></path><path d="m1344 448h16v16h-16z" fill="#414045"></path><path d="m304 464h16v16h-16z" fill="#e7ded9"></path><path d="m320 464h16v16h-16z" fill="#e7ded9"></path><path d="m336 464h16v16h-16z" fill="#e7ded9"></path><path d="m352 464h16v16h-16z" fill="#e7ded9"></path><path d="m368 464h16v16h-16z" fill="#e7ded9"></path><path d="m384 464h16v16h-16z" fill="#ffd42f"></path><path d="m400 464h16v16h-16z" fill="#ffd42f"></path><path d="m416 464h16v16h-16z" fill="#ffd42f"></path><path d="m432 464h16v16h-16z" fill="#ffd42f"></path><path d="m448 464h16v16h-16z" fill="#ffd42f"></path><path d="m464 464h16v16h-16z" fill="#ffd42f"></path><path d="m480 464h16v16h-16z" fill="#ffd42f"></path><path d="m496 464h16v16h-16z" fill="#ffd42f"></path><path d="m512 464h16v16h-16z" fill="#ffd42f"></path><path d="m528 464h16v16h-16z" fill="#414045"></path><path d="m1072 464h16v16h-16z" fill="#e7ded9"></path><path d="m1088 464h16v16h-16z" fill="#e7ded9"></path><path d="m1104 464h16v16h-16z" fill="#e7ded9"></path><path d="m1120 464h16v16h-16z" fill="#e7ded9"></path><path d="m1136 464h16v16h-16z" fill="#e7ded9"></path><path d="m1152 464h16v16h-16z" fill="#ffd42f"></path><path d="m1168 464h16v16h-16z" fill="#ffd42f"></path><path d="m1184 464h16v16h-16z" fill="#ffd42f"></path><path d="m1200 464h16v16h-16z" fill="#ffd42f"></path><path d="m1216 464h16v16h-16z" fill="#ffd42f"></path><path d="m1232 464h16v16h-16z" fill="#ffd42f"></path><path d="m1248 464h16v16h-16z" fill="#ffd42f"></path><path d="m1264 464h16v16h-16z" fill="#ffd42f"></path><path d="m1280 464h16v16h-16z" fill="#ffd42f"></path><path d="m1296 464h16v16h-16z" fill="#414045"></path><path d="m352 480h16v16h-16z" fill="#e7ded9"></path><path d="m368 480h16v16h-16z" fill="#e7ded9"></path><path d="m384 480h16v16h-16z" fill="#ffd42f"></path><path d="m400 480h16v16h-16z" fill="#ffd42f"></path><path d="m432 480h16v16h-16z" fill="#ffd42f"></path><path d="m448 480h16v16h-16z" fill="#ffd42f"></path><path d="m464 480h16v16h-16z" fill="#ffd42f"></path><path d="m480 480h16v16h-16z" fill="#ffd42f"></path><path d="m496 480h16v16h-16z" fill="#ffd42f"></path><path d="m512 480h16v16h-16z" fill="#ffd42f"></path><path d="m528 480h16v16h-16z" fill="#414045"></path><path d="m1120 480h16v16h-16z" fill="#e7ded9"></path><path d="m1136 480h16v16h-16z" fill="#e7ded9"></path><path d="m1152 480h16v16h-16z" fill="#ffd42f"></path><path d="m1168 480h16v16h-16z" fill="#ffd42f"></path><path d="m1200 480h16v16h-16z" fill="#ffd42f"></path><path d="m1216 480h16v16h-16z" fill="#ffd42f"></path><path d="m1232 480h16v16h-16z" fill="#ffd42f"></path><path d="m1248 480h16v16h-16z" fill="#ffd42f"></path><path d="m1264 480h16v16h-16z" fill="#ffd42f"></path><path d="m1280 480h16v16h-16z" fill="#ffd42f"></path><path d="m1296 480h16v16h-16z" fill="#414045"></path><path d="m400 496h16v16h-16z" fill="#ffd42f"></path><path d="m416 496h16v16h-16z" fill="#ffd42f"></path><path d="m448 496h16v16h-16z" fill="#ffd42f"></path><path d="m464 496h16v16h-16z" fill="#ffd42f"></path><path d="m480 496h16v16h-16z" fill="#ffd42f"></path><path d="m496 496h16v16h-16z" fill="#ffd42f"></path><path d="m512 496h16v16h-16z" fill="#414045"></path><path d="m1168 496h16v16h-16z" fill="#ffd42f"></path><path d="m1184 496h16v16h-16z" fill="#ffd42f"></path><path d="m1216 496h16v16h-16z" fill="#ffd42f"></path><path d="m1232 496h16v16h-16z" fill="#ffd42f"></path><path d="m1248 496h16v16h-16z" fill="#ffd42f"></path><path d="m1264 496h16v16h-16z" fill="#ffd42f"></path><path d="m1280 496h16v16h-16z" fill="#414045"></path><path d="m480 512h16v16h-16z" fill="#ffd42f"></path><path d="m496 512h16v16h-16z" fill="#414045"></path><path d="m1248 512h16v16h-16z" fill="#ffd42f"></path><path d="m1264 512h16v16h-16z" fill="#414045"></path></svg>