<svg width="848" height="288" viewBox="0 0 848 288" fill="none" xmlns="http://www.w3.org/2000/svg">
<path d="M192 0H208V16H192V0Z" fill="#FFD42F"/>
<path d="M224 0H240V16H224V0Z" fill="#FFD42F"/>
<path d="M272 0H288V16H272V0Z" fill="#FFD42F"/>
<path d="M608 0H624V16H608V0Z" fill="#FFD42F"/>
<path d="M640 0H656V16H640V0Z" fill="#FFD42F"/>
<path d="M688 0H704V16H688V0Z" fill="#FFD42F"/>
<path d="M192 16H208V32H192V16Z" fill="#FFD42F"/>
<path d="M224 16H240V32H224V16Z" fill="#FFD42F"/>
<path d="M256 16H272V32H256V16Z" fill="#FFD42F"/>
<path d="M304 16H320V32H304V16Z" fill="#FFD42F"/>
<path d="M608 16H624V32H608V16Z" fill="#FFD42F"/>
<path d="M640 16H656V32H640V16Z" fill="#FFD42F"/>
<path d="M672 16H688V32H672V16Z" fill="#FFD42F"/>
<path d="M720 16H736V32H720V16Z" fill="#FFD42F"/>
<path d="M192 32H208V48H192V32Z" fill="#FFD42F"/>
<path d="M224 32H240V48H224V32Z" fill="#FFD42F"/>
<path d="M256 32H272V48H256V32Z" fill="#FFD42F"/>
<path d="M288 32H304V48H288V32Z" fill="#FFD42F"/>
<path d="M320 32H336V48H320V32Z" fill="#FFD42F"/>
<path d="M608 32H624V48H608V32Z" fill="#FFD42F"/>
<path d="M640 32H656V48H640V32Z" fill="#FFD42F"/>
<path d="M672 32H688V48H672V32Z" fill="#FFD42F"/>
<path d="M704 32H720V48H704V32Z" fill="#FFD42F"/>
<path d="M736 32H752V48H736V32Z" fill="#FFD42F"/>
<path d="M176 48H192V64H176V48Z" fill="#FFD42F"/>
<path d="M208 48H224V64H208V48Z" fill="#FFD42F"/>
<path d="M240 48H256V64H240V48Z" fill="#FFD42F"/>
<path d="M272 48H288V64H272V48Z" fill="#FFD42F"/>
<path d="M304 48H320V64H304V48Z" fill="#FFD42F"/>
<path d="M320 48H336V64H320V48Z" fill="#FFD42F"/>
<path d="M336 48H352V64H336V48Z" fill="#414045"/>
<path d="M592 48H608V64H592V48Z" fill="#FFD42F"/>
<path d="M624 48H640V64H624V48Z" fill="#FFD42F"/>
<path d="M656 48H672V64H656V48Z" fill="#FFD42F"/>
<path d="M688 48H704V64H688V48Z" fill="#FFD42F"/>
<path d="M720 48H736V64H720V48Z" fill="#FFD42F"/>
<path d="M736 48H752V64H736V48Z" fill="#FFD42F"/>
<path d="M752 48H768V64H752V48Z" fill="#414045"/>
<path d="M176 64H192V80H176V64Z" fill="#FFD42F"/>
<path d="M192 64H208V80H192V64Z" fill="#FFD42F"/>
<path d="M208 64H224V80H208V64Z" fill="#FFD42F"/>
<path d="M224 64H240V80H224V64Z" fill="#FFD42F"/>
<path d="M240 64H256V80H240V64Z" fill="#FFD42F"/>
<path d="M256 64H272V80H256V64Z" fill="#FFD42F"/>
<path d="M288 64H304V80H288V64Z" fill="#FFD42F"/>
<path d="M304 64H320V80H304V64Z" fill="#FFD42F"/>
<path d="M320 64H336V80H320V64Z" fill="#FFD42F"/>
<path d="M336 64H352V80H336V64Z" fill="#FFD42F"/>
<path d="M352 64H368V80H352V64Z" fill="#414045"/>
<path d="M592 64H608V80H592V64Z" fill="#FFD42F"/>
<path d="M608 64H624V80H608V64Z" fill="#FFD42F"/>
<path d="M624 64H640V80H624V64Z" fill="#FFD42F"/>
<path d="M640 64H656V80H640V64Z" fill="#FFD42F"/>
<path d="M656 64H672V80H656V64Z" fill="#FFD42F"/>
<path d="M672 64H688V80H672V64Z" fill="#FFD42F"/>
<path d="M704 64H720V80H704V64Z" fill="#FFD42F"/>
<path d="M720 64H736V80H720V64Z" fill="#FFD42F"/>
<path d="M736 64H752V80H736V64Z" fill="#FFD42F"/>
<path d="M752 64H768V80H752V64Z" fill="#FFD42F"/>
<path d="M768 64H784V80H768V64Z" fill="#414045"/>
<path d="M160 80H176V96H160V80Z" fill="#414045"/>
<path d="M176 80H192V96H176V80Z" fill="#FFD42F"/>
<path d="M192 80H208V96H192V80Z" fill="#FFD42F"/>
<path d="M208 80H224V96H208V80Z" fill="#FFD42F"/>
<path d="M224 80H240V96H224V80Z" fill="#FFD42F"/>
<path d="M240 80H256V96H240V80Z" fill="#FFD42F"/>
<path d="M256 80H272V96H256V80Z" fill="#FFD42F"/>
<path d="M272 80H288V96H272V80Z" fill="#FFD42F"/>
<path d="M288 80H304V96H288V80Z" fill="#FFD42F"/>
<path d="M304 80H320V96H304V80Z" fill="#FFD42F"/>
<path d="M320 80H336V96H320V80Z" fill="#FFD42F"/>
<path d="M336 80H352V96H336V80Z" fill="#FFD42F"/>
<path d="M352 80H368V96H352V80Z" fill="#FFD42F"/>
<path d="M368 80H384V96H368V80Z" fill="#414045"/>
<path d="M576 80H592V96H576V80Z" fill="#414045"/>
<path d="M592 80H608V96H592V80Z" fill="#FFD42F"/>
<path d="M608 80H624V96H608V80Z" fill="#FFD42F"/>
<path d="M624 80H640V96H624V80Z" fill="#FFD42F"/>
<path d="M640 80H656V96H640V80Z" fill="#FFD42F"/>
<path d="M656 80H672V96H656V80Z" fill="#FFD42F"/>
<path d="M672 80H688V96H672V80Z" fill="#FFD42F"/>
<path d="M688 80H704V96H688V80Z" fill="#FFD42F"/>
<path d="M704 80H720V96H704V80Z" fill="#FFD42F"/>
<path d="M720 80H736V96H720V80Z" fill="#FFD42F"/>
<path d="M736 80H752V96H736V80Z" fill="#FFD42F"/>
<path d="M752 80H768V96H752V80Z" fill="#FFD42F"/>
<path d="M768 80H784V96H768V80Z" fill="#FFD42F"/>
<path d="M784 80H800V96H784V80Z" fill="#414045"/>
<path d="M144 96H160V112H144V96Z" fill="#57565C"/>
<path d="M160 96H176V112H160V96Z" fill="#414045"/>
<path d="M176 96H192V112H176V96Z" fill="#FFD42F"/>
<path d="M192 96H208V112H192V96Z" fill="#FFD42F"/>
<path d="M208 96H224V112H208V96Z" fill="#FFD42F"/>
<path d="M224 96H240V112H224V96Z" fill="#FFDD61"/>
<path d="M240 96H256V112H240V96Z" fill="#FFDD61"/>
<path d="M256 96H272V112H256V96Z" fill="#FFDD61"/>
<path d="M272 96H288V112H272V96Z" fill="#FFDD61"/>
<path d="M288 96H304V112H288V96Z" fill="#FFDD61"/>
<path d="M304 96H320V112H304V96Z" fill="#FFD42F"/>
<path d="M320 96H336V112H320V96Z" fill="#FFD42F"/>
<path d="M336 96H352V112H336V96Z" fill="#FFD42F"/>
<path d="M352 96H368V112H352V96Z" fill="#FFD42F"/>
<path d="M368 96H384V112H368V96Z" fill="#414045"/>
<path d="M560 96H576V112H560V96Z" fill="#57565C"/>
<path d="M576 96H592V112H576V96Z" fill="#414045"/>
<path d="M592 96H608V112H592V96Z" fill="#FFD42F"/>
<path d="M608 96H624V112H608V96Z" fill="#FFD42F"/>
<path d="M624 96H640V112H624V96Z" fill="#FFD42F"/>
<path d="M640 96H656V112H640V96Z" fill="#FFDD61"/>
<path d="M656 96H672V112H656V96Z" fill="#FFDD61"/>
<path d="M672 96H688V112H672V96Z" fill="#FFDD61"/>
<path d="M688 96H704V112H688V96Z" fill="#FFDD61"/>
<path d="M704 96H720V112H704V96Z" fill="#FFDD61"/>
<path d="M720 96H736V112H720V96Z" fill="#FFD42F"/>
<path d="M736 96H752V112H736V96Z" fill="#FFD42F"/>
<path d="M752 96H768V112H752V96Z" fill="#FFD42F"/>
<path d="M768 96H784V112H768V96Z" fill="#FFD42F"/>
<path d="M784 96H800V112H784V96Z" fill="#414045"/>
<path d="M128 112H144V128H128V112Z" fill="#57565C"/>
<path d="M144 112H160V128H144V112Z" fill="#57565C"/>
<path d="M160 112H176V128H160V112Z" fill="#414045"/>
<path d="M176 112H192V128H176V112Z" fill="#FFD42F"/>
<path d="M192 112H208V128H192V112Z" fill="#FFD42F"/>
<path d="M208 112H224V128H208V112Z" fill="#FFDD61"/>
<path d="M224 112H240V128H224V112Z" fill="#FFDD61"/>
<path d="M240 112H256V128H240V112Z" fill="#FFDD61"/>
<path d="M256 112H272V128H256V112Z" fill="#FFDD61"/>
<path d="M272 112H288V128H272V112Z" fill="#FFDD61"/>
<path d="M288 112H304V128H288V112Z" fill="#FFDD61"/>
<path d="M304 112H320V128H304V112Z" fill="#FFDD61"/>
<path d="M320 112H336V128H320V112Z" fill="#FFD42F"/>
<path d="M336 112H352V128H336V112Z" fill="#FFD42F"/>
<path d="M352 112H368V128H352V112Z" fill="#FFD42F"/>
<path d="M368 112H384V128H368V112Z" fill="#414045"/>
<path d="M384 112H400V128H384V112Z" fill="#414045"/>
<path d="M400 112H416V128H400V112Z" fill="#414045"/>
<path d="M544 112H560V128H544V112Z" fill="#57565C"/>
<path d="M560 112H576V128H560V112Z" fill="#57565C"/>
<path d="M576 112H592V128H576V112Z" fill="#414045"/>
<path d="M592 112H608V128H592V112Z" fill="#FFD42F"/>
<path d="M608 112H624V128H608V112Z" fill="#FFD42F"/>
<path d="M624 112H640V128H624V112Z" fill="#FFDD61"/>
<path d="M640 112H656V128H640V112Z" fill="#FFDD61"/>
<path d="M656 112H672V128H656V112Z" fill="#FFDD61"/>
<path d="M672 112H688V128H672V112Z" fill="#FFDD61"/>
<path d="M688 112H704V128H688V112Z" fill="#FFDD61"/>
<path d="M704 112H720V128H704V112Z" fill="#FFDD61"/>
<path d="M720 112H736V128H720V112Z" fill="#FFDD61"/>
<path d="M736 112H752V128H736V112Z" fill="#FFD42F"/>
<path d="M752 112H768V128H752V112Z" fill="#FFD42F"/>
<path d="M768 112H784V128H768V112Z" fill="#FFD42F"/>
<path d="M784 112H800V128H784V112Z" fill="#414045"/>
<path d="M816 112H832V128H816V112Z" fill="#414045"/>
<path d="M832 112H848V128H832V112Z" fill="#414045"/>
<path d="M112 128H128V144H112V128Z" fill="#57565C"/>
<path d="M128 128H144V144H128V128Z" fill="#57565C"/>
<path d="M144 128H160V144H144V128Z" fill="#414045"/>
<path d="M160 128H176V144H160V128Z" fill="#414045"/>
<path d="M176 128H192V144H176V128Z" fill="#414045"/>
<path d="M192 128H208V144H192V128Z" fill="#FFD42F"/>
<path d="M208 128H224V144H208V128Z" fill="#FFD42F"/>
<path d="M224 128H240V144H224V128Z" fill="#FFD42F"/>
<path d="M240 128H256V144H240V128Z" fill="#FFD42F"/>
<path d="M256 128H272V144H256V128Z" fill="#FFD42F"/>
<path d="M272 128H288V144H272V128Z" fill="#FFD42F"/>
<path d="M288 128H304V144H288V128Z" fill="#FFD42F"/>
<path d="M304 128H320V144H304V128Z" fill="#FFDD61"/>
<path d="M320 128H336V144H320V128Z" fill="#FFDD61"/>
<path d="M336 128H352V144H336V128Z" fill="#FFD42F"/>
<path d="M352 128H368V144H352V128Z" fill="#414045"/>
<path d="M384 128H400V144H384V128Z" fill="#414045"/>
<path d="M400 128H416V144H400V128Z" fill="#414045"/>
<path d="M528 128H544V144H528V128Z" fill="#57565C"/>
<path d="M544 128H560V144H544V128Z" fill="#57565C"/>
<path d="M560 128H576V144H560V128Z" fill="#414045"/>
<path d="M576 128H592V144H576V128Z" fill="#414045"/>
<path d="M592 128H608V144H592V128Z" fill="#414045"/>
<path d="M608 128H624V144H608V128Z" fill="#FFD42F"/>
<path d="M624 128H640V144H624V128Z" fill="#FFD42F"/>
<path d="M640 128H656V144H640V128Z" fill="#FFD42F"/>
<path d="M656 128H672V144H656V128Z" fill="#FFD42F"/>
<path d="M672 128H688V144H672V128Z" fill="#FFD42F"/>
<path d="M688 128H704V144H688V128Z" fill="#FFD42F"/>
<path d="M704 128H720V144H704V128Z" fill="#FFD42F"/>
<path d="M720 128H736V144H720V128Z" fill="#FFDD61"/>
<path d="M736 128H752V144H736V128Z" fill="#FFDD61"/>
<path d="M752 128H768V144H752V128Z" fill="#FFD42F"/>
<path d="M768 128H784V144H768V128Z" fill="#414045"/>
<path d="M800 128H816V144H800V128Z" fill="#414045"/>
<path d="M816 128H832V144H816V128Z" fill="#414045"/>
<path d="M832 128H848V144H832V128Z" fill="#414045"/>
<path d="M96 144H112V160H96V144Z" fill="#57565C"/>
<path d="M112 144H128V160H112V144Z" fill="#57565C"/>
<path d="M128 144H144V160H128V144Z" fill="#414045"/>
<path d="M144 144H160V160H144V144Z" fill="#E7DED9"/>
<path d="M160 144H176V160H160V144Z" fill="#414045"/>
<path d="M176 144H192V160H176V144Z" fill="#414045"/>
<path d="M192 144H208V160H192V144Z" fill="#FFD42F"/>
<path d="M208 144H224V160H208V144Z" fill="#FFD42F"/>
<path d="M224 144H240V160H224V144Z" fill="#FFD42F"/>
<path d="M240 144H256V160H240V144Z" fill="#FFD42F"/>
<path d="M256 144H272V160H256V144Z" fill="#FFD42F"/>
<path d="M272 144H288V160H272V144Z" fill="#FFD42F"/>
<path d="M288 144H304V160H288V144Z" fill="#FFD42F"/>
<path d="M304 144H320V160H304V144Z" fill="#FFD42F"/>
<path d="M320 144H336V160H320V144Z" fill="#FFD42F"/>
<path d="M336 144H352V160H336V144Z" fill="#FFDD61"/>
<path d="M352 144H368V160H352V144Z" fill="#FFD42F"/>
<path d="M368 144H384V160H368V144Z" fill="#FFD42F"/>
<path d="M384 144H400V160H384V144Z" fill="#E7DED9"/>
<path d="M400 144H416V160H400V144Z" fill="#414045"/>
<path d="M512 144H528V160H512V144Z" fill="#57565C"/>
<path d="M528 144H544V160H528V144Z" fill="#57565C"/>
<path d="M544 144H560V160H544V144Z" fill="#414045"/>
<path d="M560 144H576V160H560V144Z" fill="#E7DED9"/>
<path d="M576 144H592V160H576V144Z" fill="#414045"/>
<path d="M592 144H608V160H592V144Z" fill="#414045"/>
<path d="M608 144H624V160H608V144Z" fill="#FFD42F"/>
<path d="M624 144H640V160H624V144Z" fill="#FFD42F"/>
<path d="M640 144H656V160H640V144Z" fill="#FFD42F"/>
<path d="M656 144H672V160H656V144Z" fill="#FFD42F"/>
<path d="M672 144H688V160H672V144Z" fill="#FFD42F"/>
<path d="M688 144H704V160H688V144Z" fill="#FFD42F"/>
<path d="M704 144H720V160H704V144Z" fill="#FFD42F"/>
<path d="M720 144H736V160H720V144Z" fill="#FFD42F"/>
<path d="M736 144H752V160H736V144Z" fill="#FFD42F"/>
<path d="M752 144H768V160H752V144Z" fill="#FFDD61"/>
<path d="M768 144H784V160H768V144Z" fill="#FFD42F"/>
<path d="M784 144H800V160H784V144Z" fill="#FFD42F"/>
<path d="M800 144H816V160H800V144Z" fill="#E7DED9"/>
<path d="M816 144H832V160H816V144Z" fill="#E7DED9"/>
<path d="M832 144H848V160H832V144Z" fill="#414045"/>
<path d="M0 160H16V176H0V160Z" fill="#414045"/>
<path d="M16 160H32V176H16V160Z" fill="#414045"/>
<path d="M32 160H48V176H32V160Z" fill="#414045"/>
<path d="M48 160H64V176H48V160Z" fill="#414045"/>
<path d="M64 160H80V176H64V160Z" fill="#414045"/>
<path d="M80 160H96V176H80V160Z" fill="#414045"/>
<path d="M96 160H112V176H96V160Z" fill="#414045"/>
<path d="M112 160H128V176H112V160Z" fill="#414045"/>
<path d="M128 160H144V176H128V160Z" fill="#E7DED9"/>
<path d="M144 160H160V176H144V160Z" fill="#28282C"/>
<path d="M160 160H176V176H160V160Z" fill="#E7DED9"/>
<path d="M176 160H192V176H176V160Z" fill="#414045"/>
<path d="M192 160H208V176H192V160Z" fill="#FFD42F"/>
<path d="M208 160H224V176H208V160Z" fill="#FFD42F"/>
<path d="M224 160H240V176H224V160Z" fill="#FFD42F"/>
<path d="M240 160H256V176H240V160Z" fill="#FFD42F"/>
<path d="M256 160H272V176H256V160Z" fill="#FFD42F"/>
<path d="M272 160H288V176H272V160Z" fill="#FFD42F"/>
<path d="M288 160H304V176H288V160Z" fill="#FFD42F"/>
<path d="M304 160H320V176H304V160Z" fill="#FFD42F"/>
<path d="M320 160H336V176H320V160Z" fill="#FFD42F"/>
<path d="M336 160H352V176H336V160Z" fill="#FFD42F"/>
<path d="M352 160H368V176H352V160Z" fill="#FFD42F"/>
<path d="M368 160H384V176H368V160Z" fill="#FFD42F"/>
<path d="M384 160H400V176H384V160Z" fill="#414045"/>
<path d="M416 160H432V176H416V160Z" fill="#414045"/>
<path d="M432 160H448V176H432V160Z" fill="#414045"/>
<path d="M448 160H464V176H448V160Z" fill="#414045"/>
<path d="M464 160H480V176H464V160Z" fill="#414045"/>
<path d="M480 160H496V176H480V160Z" fill="#414045"/>
<path d="M496 160H512V176H496V160Z" fill="#414045"/>
<path d="M512 160H528V176H512V160Z" fill="#414045"/>
<path d="M528 160H544V176H528V160Z" fill="#414045"/>
<path d="M544 160H560V176H544V160Z" fill="#E7DED9"/>
<path d="M560 160H576V176H560V160Z" fill="#28282C"/>
<path d="M576 160H592V176H576V160Z" fill="#E7DED9"/>
<path d="M592 160H608V176H592V160Z" fill="#414045"/>
<path d="M608 160H624V176H608V160Z" fill="#FFD42F"/>
<path d="M624 160H640V176H624V160Z" fill="#FFD42F"/>
<path d="M640 160H656V176H640V160Z" fill="#FFD42F"/>
<path d="M656 160H672V176H656V160Z" fill="#FFD42F"/>
<path d="M672 160H688V176H672V160Z" fill="#FFD42F"/>
<path d="M688 160H704V176H688V160Z" fill="#FFD42F"/>
<path d="M704 160H720V176H704V160Z" fill="#FFD42F"/>
<path d="M720 160H736V176H720V160Z" fill="#FFD42F"/>
<path d="M736 160H752V176H736V160Z" fill="#FFD42F"/>
<path d="M752 160H768V176H752V160Z" fill="#FFD42F"/>
<path d="M768 160H784V176H768V160Z" fill="#FFD42F"/>
<path d="M784 160H800V176H784V160Z" fill="#FFD42F"/>
<path d="M800 160H816V176H800V160Z" fill="#414045"/>
<path d="M816 160H832V176H816V160Z" fill="#414045"/>
<path d="M16 176H32V192H16V176Z" fill="#E7DED9"/>
<path d="M32 176H48V192H32V176Z" fill="#E7DED9"/>
<path d="M48 176H64V192H48V176Z" fill="#E7DED9"/>
<path d="M64 176H80V192H64V176Z" fill="#E7DED9"/>
<path d="M80 176H96V192H80V176Z" fill="#E7DED9"/>
<path d="M96 176H112V192H96V176Z" fill="#E7DED9"/>
<path d="M112 176H128V192H112V176Z" fill="#E7DED9"/>
<path d="M128 176H144V192H128V176Z" fill="#E7DED9"/>
<path d="M144 176H160V192H144V176Z" fill="#E7DED9"/>
<path d="M160 176H176V192H160V176Z" fill="#414045"/>
<path d="M176 176H192V192H176V176Z" fill="#414045"/>
<path d="M192 176H208V192H192V176Z" fill="#FFD42F"/>
<path d="M208 176H224V192H208V176Z" fill="#FFD42F"/>
<path d="M224 176H240V192H224V176Z" fill="#FFD42F"/>
<path d="M240 176H256V192H240V176Z" fill="#FFD42F"/>
<path d="M256 176H272V192H256V176Z" fill="#FFD42F"/>
<path d="M272 176H288V192H272V176Z" fill="#FFD42F"/>
<path d="M288 176H304V192H288V176Z" fill="#FFD42F"/>
<path d="M304 176H320V192H304V176Z" fill="#FFD42F"/>
<path d="M320 176H336V192H320V176Z" fill="#FFD42F"/>
<path d="M336 176H352V192H336V176Z" fill="#FFD42F"/>
<path d="M352 176H368V192H352V176Z" fill="#FFD42F"/>
<path d="M368 176H384V192H368V176Z" fill="#FFD42F"/>
<path d="M384 176H400V192H384V176Z" fill="#414045"/>
<path d="M432 176H448V192H432V176Z" fill="#E7DED9"/>
<path d="M448 176H464V192H448V176Z" fill="#E7DED9"/>
<path d="M464 176H480V192H464V176Z" fill="#E7DED9"/>
<path d="M480 176H496V192H480V176Z" fill="#E7DED9"/>
<path d="M496 176H512V192H496V176Z" fill="#E7DED9"/>
<path d="M512 176H528V192H512V176Z" fill="#E7DED9"/>
<path d="M528 176H544V192H528V176Z" fill="#E7DED9"/>
<path d="M544 176H560V192H544V176Z" fill="#E7DED9"/>
<path d="M560 176H576V192H560V176Z" fill="#E7DED9"/>
<path d="M576 176H592V192H576V176Z" fill="#414045"/>
<path d="M592 176H608V192H592V176Z" fill="#414045"/>
<path d="M608 176H624V192H608V176Z" fill="#FFD42F"/>
<path d="M624 176H640V192H624V176Z" fill="#FFD42F"/>
<path d="M640 176H656V192H640V176Z" fill="#FFD42F"/>
<path d="M656 176H672V192H656V176Z" fill="#FFD42F"/>
<path d="M672 176H688V192H672V176Z" fill="#FFD42F"/>
<path d="M688 176H704V192H688V176Z" fill="#FFD42F"/>
<path d="M704 176H720V192H704V176Z" fill="#FFD42F"/>
<path d="M720 176H736V192H720V176Z" fill="#FFD42F"/>
<path d="M736 176H752V192H736V176Z" fill="#FFD42F"/>
<path d="M752 176H768V192H752V176Z" fill="#FFD42F"/>
<path d="M768 176H784V192H768V176Z" fill="#FFD42F"/>
<path d="M784 176H800V192H784V176Z" fill="#FFD42F"/>
<path d="M800 176H816V192H800V176Z" fill="#E7DED9"/>
<path d="M816 176H832V192H816V176Z" fill="#414045"/>
<path d="M80 192H96V208H80V192Z" fill="#E7DED9"/>
<path d="M96 192H112V208H96V192Z" fill="#E7DED9"/>
<path d="M112 192H128V208H112V192Z" fill="#E7DED9"/>
<path d="M128 192H144V208H128V192Z" fill="#E7DED9"/>
<path d="M144 192H160V208H144V192Z" fill="#E7DED9"/>
<path d="M160 192H176V208H160V192Z" fill="#E7DED9"/>
<path d="M176 192H192V208H176V192Z" fill="#E7DED9"/>
<path d="M192 192H208V208H192V192Z" fill="#E7DED9"/>
<path d="M208 192H224V208H208V192Z" fill="#FFD42F"/>
<path d="M224 192H240V208H224V192Z" fill="#FFD42F"/>
<path d="M240 192H256V208H240V192Z" fill="#FFD42F"/>
<path d="M256 192H272V208H256V192Z" fill="#FFD42F"/>
<path d="M272 192H288V208H272V192Z" fill="#FFD42F"/>
<path d="M288 192H304V208H288V192Z" fill="#FFD42F"/>
<path d="M304 192H320V208H304V192Z" fill="#FFD42F"/>
<path d="M320 192H336V208H320V192Z" fill="#FFD42F"/>
<path d="M336 192H352V208H336V192Z" fill="#414045"/>
<path d="M352 192H368V208H352V192Z" fill="#414045"/>
<path d="M368 192H384V208H368V192Z" fill="#FFD42F"/>
<path d="M384 192H400V208H384V192Z" fill="#414045"/>
<path d="M400 192H416V208H400V192Z" fill="#414045"/>
<path d="M496 192H512V208H496V192Z" fill="#E7DED9"/>
<path d="M512 192H528V208H512V192Z" fill="#E7DED9"/>
<path d="M528 192H544V208H528V192Z" fill="#E7DED9"/>
<path d="M544 192H560V208H544V192Z" fill="#E7DED9"/>
<path d="M560 192H576V208H560V192Z" fill="#E7DED9"/>
<path d="M576 192H592V208H576V192Z" fill="#E7DED9"/>
<path d="M592 192H608V208H592V192Z" fill="#E7DED9"/>
<path d="M608 192H624V208H608V192Z" fill="#E7DED9"/>
<path d="M624 192H640V208H624V192Z" fill="#FFD42F"/>
<path d="M640 192H656V208H640V192Z" fill="#FFD42F"/>
<path d="M656 192H672V208H656V192Z" fill="#FFD42F"/>
<path d="M672 192H688V208H672V192Z" fill="#FFD42F"/>
<path d="M688 192H704V208H688V192Z" fill="#FFD42F"/>
<path d="M704 192H720V208H704V192Z" fill="#FFD42F"/>
<path d="M720 192H736V208H720V192Z" fill="#FFD42F"/>
<path d="M736 192H752V208H736V192Z" fill="#FFD42F"/>
<path d="M752 192H768V208H752V192Z" fill="#414045"/>
<path d="M768 192H784V208H768V192Z" fill="#414045"/>
<path d="M784 192H800V208H784V192Z" fill="#FFD42F"/>
<path d="M800 192H816V208H800V192Z" fill="#414045"/>
<path d="M816 192H832V208H816V192Z" fill="#414045"/>
<path d="M832 192H848V208H832V192Z" fill="#414045"/>
<path d="M112 208H128V224H112V208Z" fill="#E7DED9"/>
<path d="M128 208H144V224H128V208Z" fill="#E7DED9"/>
<path d="M144 208H160V224H144V208Z" fill="#E7DED9"/>
<path d="M160 208H176V224H160V208Z" fill="#E7DED9"/>
<path d="M176 208H192V224H176V208Z" fill="#E7DED9"/>
<path d="M192 208H208V224H192V208Z" fill="#E7DED9"/>
<path d="M208 208H224V224H208V208Z" fill="#E7DED9"/>
<path d="M224 208H240V224H224V208Z" fill="#FFD42F"/>
<path d="M240 208H256V224H240V208Z" fill="#FFD42F"/>
<path d="M256 208H272V224H256V208Z" fill="#FFD42F"/>
<path d="M272 208H288V224H272V208Z" fill="#FFD42F"/>
<path d="M288 208H304V224H288V208Z" fill="#FFD42F"/>
<path d="M304 208H320V224H304V208Z" fill="#FFD42F"/>
<path d="M320 208H336V224H320V208Z" fill="#FFD42F"/>
<path d="M336 208H352V224H336V208Z" fill="#414045"/>
<path d="M352 208H368V224H352V208Z" fill="#414045"/>
<path d="M384 208H400V224H384V208Z" fill="#E7DED9"/>
<path d="M400 208H416V224H400V208Z" fill="#414045"/>
<path d="M528 208H544V224H528V208Z" fill="#E7DED9"/>
<path d="M544 208H560V224H544V208Z" fill="#E7DED9"/>
<path d="M560 208H576V224H560V208Z" fill="#E7DED9"/>
<path d="M576 208H592V224H576V208Z" fill="#E7DED9"/>
<path d="M592 208H608V224H592V208Z" fill="#E7DED9"/>
<path d="M608 208H624V224H608V208Z" fill="#E7DED9"/>
<path d="M624 208H640V224H624V208Z" fill="#E7DED9"/>
<path d="M640 208H656V224H640V208Z" fill="#FFD42F"/>
<path d="M656 208H672V224H656V208Z" fill="#FFD42F"/>
<path d="M672 208H688V224H672V208Z" fill="#FFD42F"/>
<path d="M688 208H704V224H688V208Z" fill="#FFD42F"/>
<path d="M704 208H720V224H704V208Z" fill="#FFD42F"/>
<path d="M720 208H736V224H720V208Z" fill="#FFD42F"/>
<path d="M736 208H752V224H736V208Z" fill="#FFD42F"/>
<path d="M752 208H768V224H752V208Z" fill="#414045"/>
<path d="M768 208H784V224H768V208Z" fill="#414045"/>
<path d="M800 208H816V224H800V208Z" fill="#FFD42F"/>
<path d="M816 208H832V224H816V208Z" fill="#E7DED9"/>
<path d="M832 208H848V224H832V208Z" fill="#414045"/>
<path d="M144 224H160V240H144V224Z" fill="#E7DED9"/>
<path d="M160 224H176V240H160V224Z" fill="#E7DED9"/>
<path d="M176 224H192V240H176V224Z" fill="#E7DED9"/>
<path d="M192 224H208V240H192V224Z" fill="#E7DED9"/>
<path d="M208 224H224V240H208V224Z" fill="#E7DED9"/>
<path d="M224 224H240V240H224V224Z" fill="#FFD42F"/>
<path d="M240 224H256V240H240V224Z" fill="#FFD42F"/>
<path d="M256 224H272V240H256V224Z" fill="#FFD42F"/>
<path d="M272 224H288V240H272V224Z" fill="#FFD42F"/>
<path d="M288 224H304V240H288V224Z" fill="#FFD42F"/>
<path d="M304 224H320V240H304V224Z" fill="#FFD42F"/>
<path d="M320 224H336V240H320V224Z" fill="#FFD42F"/>
<path d="M336 224H352V240H336V224Z" fill="#FFD42F"/>
<path d="M352 224H368V240H352V224Z" fill="#FFD42F"/>
<path d="M368 224H384V240H368V224Z" fill="#414045"/>
<path d="M560 224H576V240H560V224Z" fill="#E7DED9"/>
<path d="M576 224H592V240H576V224Z" fill="#E7DED9"/>
<path d="M592 224H608V240H592V224Z" fill="#E7DED9"/>
<path d="M608 224H624V240H608V224Z" fill="#E7DED9"/>
<path d="M624 224H640V240H624V224Z" fill="#E7DED9"/>
<path d="M640 224H656V240H640V224Z" fill="#FFD42F"/>
<path d="M656 224H672V240H656V224Z" fill="#FFD42F"/>
<path d="M672 224H688V240H672V224Z" fill="#FFD42F"/>
<path d="M688 224H704V240H688V224Z" fill="#FFD42F"/>
<path d="M704 224H720V240H704V224Z" fill="#FFD42F"/>
<path d="M720 224H736V240H720V224Z" fill="#FFD42F"/>
<path d="M736 224H752V240H736V224Z" fill="#FFD42F"/>
<path d="M752 224H768V240H752V224Z" fill="#FFD42F"/>
<path d="M768 224H784V240H768V224Z" fill="#FFD42F"/>
<path d="M784 224H800V240H784V224Z" fill="#414045"/>
<path d="M192 240H208V256H192V240Z" fill="#E7DED9"/>
<path d="M208 240H224V256H208V240Z" fill="#E7DED9"/>
<path d="M224 240H240V256H224V240Z" fill="#FFD42F"/>
<path d="M240 240H256V256H240V240Z" fill="#FFD42F"/>
<path d="M272 240H288V256H272V240Z" fill="#FFD42F"/>
<path d="M288 240H304V256H288V240Z" fill="#FFD42F"/>
<path d="M304 240H320V256H304V240Z" fill="#FFD42F"/>
<path d="M320 240H336V256H320V240Z" fill="#FFD42F"/>
<path d="M336 240H352V256H336V240Z" fill="#FFD42F"/>
<path d="M352 240H368V256H352V240Z" fill="#FFD42F"/>
<path d="M368 240H384V256H368V240Z" fill="#414045"/>
<path d="M608 240H624V256H608V240Z" fill="#E7DED9"/>
<path d="M624 240H640V256H624V240Z" fill="#E7DED9"/>
<path d="M640 240H656V256H640V240Z" fill="#FFD42F"/>
<path d="M656 240H672V256H656V240Z" fill="#FFD42F"/>
<path d="M688 240H704V256H688V240Z" fill="#FFD42F"/>
<path d="M704 240H720V256H704V240Z" fill="#FFD42F"/>
<path d="M720 240H736V256H720V240Z" fill="#FFD42F"/>
<path d="M736 240H752V256H736V240Z" fill="#FFD42F"/>
<path d="M752 240H768V256H752V240Z" fill="#FFD42F"/>
<path d="M768 240H784V256H768V240Z" fill="#FFD42F"/>
<path d="M784 240H800V256H784V240Z" fill="#414045"/>
<path d="M240 256H256V272H240V256Z" fill="#FFD42F"/>
<path d="M256 256H272V272H256V256Z" fill="#FFD42F"/>
<path d="M288 256H304V272H288V256Z" fill="#FFD42F"/>
<path d="M304 256H320V272H304V256Z" fill="#FFD42F"/>
<path d="M320 256H336V272H320V256Z" fill="#FFD42F"/>
<path d="M336 256H352V272H336V256Z" fill="#FFD42F"/>
<path d="M352 256H368V272H352V256Z" fill="#414045"/>
<path d="M656 256H672V272H656V256Z" fill="#FFD42F"/>
<path d="M672 256H688V272H672V256Z" fill="#FFD42F"/>
<path d="M704 256H720V272H704V256Z" fill="#FFD42F"/>
<path d="M720 256H736V272H720V256Z" fill="#FFD42F"/>
<path d="M736 256H752V272H736V256Z" fill="#FFD42F"/>
<path d="M752 256H768V272H752V256Z" fill="#FFD42F"/>
<path d="M768 256H784V272H768V256Z" fill="#414045"/>
<path d="M320 272H336V288H320V272Z" fill="#FFD42F"/>
<path d="M336 272H352V288H336V272Z" fill="#414045"/>
<path d="M736 272H752V288H736V272Z" fill="#FFD42F"/>
<path d="M752 272H768V288H752V272Z" fill="#414045"/>
</svg>
